%TF.GenerationSoftware,KiCad,Pcbnew,(5.1.6)-1*%
%TF.CreationDate,2021-10-26T16:01:37-07:00*%
%TF.ProjectId,VSS Signal Adapter,56535320-5369-4676-9e61-6c2041646170,rev?*%
%TF.SameCoordinates,Original*%
%TF.FileFunction,Copper,L1,Top*%
%TF.FilePolarity,Positive*%
%FSLAX46Y46*%
G04 Gerber Fmt 4.6, Leading zero omitted, Abs format (unit mm)*
G04 Created by KiCad (PCBNEW (5.1.6)-1) date 2021-10-26 16:01:37*
%MOMM*%
%LPD*%
G01*
G04 APERTURE LIST*
%TA.AperFunction,ComponentPad*%
%ADD10C,1.600000*%
%TD*%
%TA.AperFunction,ComponentPad*%
%ADD11R,1.600000X1.600000*%
%TD*%
%TA.AperFunction,ComponentPad*%
%ADD12O,1.600000X1.600000*%
%TD*%
%TA.AperFunction,ViaPad*%
%ADD13C,0.800000*%
%TD*%
%TA.AperFunction,Conductor*%
%ADD14C,0.508000*%
%TD*%
%TA.AperFunction,Conductor*%
%ADD15C,0.254000*%
%TD*%
G04 APERTURE END LIST*
D10*
%TO.P,U1,6*%
%TO.N,Net-(U1-Pad6)*%
X147320000Y-97790000D03*
%TO.P,U1,5*%
%TO.N,Net-(J1-Pad5)*%
X147320000Y-100330000D03*
%TO.P,U1,4*%
%TO.N,Net-(J1-Pad4)*%
X147320000Y-102870000D03*
%TO.P,U1,3*%
%TO.N,Net-(U1-Pad3)*%
X139700000Y-102870000D03*
%TO.P,U1,2*%
%TO.N,GND*%
X139700000Y-100330000D03*
D11*
%TO.P,U1,1*%
%TO.N,Net-(R1-Pad2)*%
X139700000Y-97790000D03*
%TD*%
D12*
%TO.P,R1,2*%
%TO.N,Net-(R1-Pad2)*%
X135890000Y-101600000D03*
D10*
%TO.P,R1,1*%
%TO.N,Net-(J1-Pad2)*%
X135890000Y-91440000D03*
%TD*%
%TO.P,J1,6*%
%TO.N,Net-(J1-Pad6)*%
X147320000Y-88900000D03*
%TO.P,J1,5*%
%TO.N,Net-(J1-Pad5)*%
X147320000Y-91440000D03*
%TO.P,J1,4*%
%TO.N,Net-(J1-Pad4)*%
X147320000Y-93980000D03*
%TO.P,J1,3*%
%TO.N,Net-(J1-Pad3)*%
X139700000Y-93980000D03*
%TO.P,J1,2*%
%TO.N,Net-(J1-Pad2)*%
X139700000Y-91440000D03*
D11*
%TO.P,J1,1*%
%TO.N,GND*%
X139700000Y-88900000D03*
%TD*%
D13*
%TO.N,GND*%
X145542000Y-90170000D03*
X144018000Y-103124000D03*
X137922000Y-95504000D03*
%TD*%
D14*
%TO.N,Net-(J1-Pad5)*%
X147320000Y-91440000D02*
X146050000Y-91440000D01*
X146050000Y-91440000D02*
X143764000Y-93726000D01*
X143764000Y-93726000D02*
X143764000Y-98552000D01*
X145542000Y-100330000D02*
X147320000Y-100330000D01*
X143764000Y-98552000D02*
X145542000Y-100330000D01*
%TO.N,Net-(J1-Pad2)*%
X139700000Y-91440000D02*
X135890000Y-91440000D01*
%TO.N,Net-(R1-Pad2)*%
X139700000Y-97790000D02*
X137160000Y-97790000D01*
X135890000Y-99060000D02*
X135890000Y-101600000D01*
X137160000Y-97790000D02*
X135890000Y-99060000D01*
%TD*%
D15*
%TO.N,GND*%
G36*
X138310498Y-87855820D02*
G01*
X138274188Y-87975518D01*
X138261928Y-88100000D01*
X138265000Y-88614250D01*
X138423750Y-88773000D01*
X139573000Y-88773000D01*
X139573000Y-88753000D01*
X139827000Y-88753000D01*
X139827000Y-88773000D01*
X140976250Y-88773000D01*
X141135000Y-88614250D01*
X141138072Y-88100000D01*
X141125812Y-87975518D01*
X141089502Y-87855820D01*
X141050044Y-87782000D01*
X146410274Y-87782000D01*
X146405241Y-87785363D01*
X146205363Y-87985241D01*
X146048320Y-88220273D01*
X145940147Y-88481426D01*
X145885000Y-88758665D01*
X145885000Y-89041335D01*
X145940147Y-89318574D01*
X146048320Y-89579727D01*
X146205363Y-89814759D01*
X146405241Y-90014637D01*
X146637759Y-90170000D01*
X146405241Y-90325363D01*
X146205363Y-90525241D01*
X146188151Y-90551000D01*
X146093659Y-90551000D01*
X146049999Y-90546700D01*
X146006339Y-90551000D01*
X146006333Y-90551000D01*
X145908924Y-90560594D01*
X145875724Y-90563864D01*
X145774058Y-90594704D01*
X145708149Y-90614697D01*
X145553709Y-90697247D01*
X145418341Y-90808341D01*
X145390506Y-90842258D01*
X143166264Y-93066501D01*
X143132341Y-93094341D01*
X143021247Y-93229710D01*
X142938697Y-93384150D01*
X142887864Y-93551727D01*
X142875000Y-93682334D01*
X142875000Y-93682340D01*
X142870700Y-93726000D01*
X142875000Y-93769660D01*
X142875001Y-98508330D01*
X142870700Y-98552000D01*
X142887864Y-98726274D01*
X142938698Y-98893852D01*
X143009545Y-99026397D01*
X143021248Y-99048291D01*
X143132342Y-99183659D01*
X143166259Y-99211494D01*
X144882506Y-100927742D01*
X144910341Y-100961659D01*
X145045709Y-101072753D01*
X145200149Y-101155303D01*
X145286267Y-101181426D01*
X145367725Y-101206136D01*
X145384325Y-101207771D01*
X145498333Y-101219000D01*
X145498340Y-101219000D01*
X145542000Y-101223300D01*
X145585660Y-101219000D01*
X146188151Y-101219000D01*
X146205363Y-101244759D01*
X146405241Y-101444637D01*
X146637759Y-101600000D01*
X146405241Y-101755363D01*
X146205363Y-101955241D01*
X146048320Y-102190273D01*
X145940147Y-102451426D01*
X145885000Y-102728665D01*
X145885000Y-103011335D01*
X145940147Y-103288574D01*
X146048320Y-103549727D01*
X146171447Y-103734000D01*
X140848553Y-103734000D01*
X140971680Y-103549727D01*
X141079853Y-103288574D01*
X141135000Y-103011335D01*
X141135000Y-102728665D01*
X141079853Y-102451426D01*
X140971680Y-102190273D01*
X140814637Y-101955241D01*
X140614759Y-101755363D01*
X140380872Y-101599085D01*
X140441514Y-101566671D01*
X140513097Y-101322702D01*
X139700000Y-100509605D01*
X138886903Y-101322702D01*
X138958486Y-101566671D01*
X139022992Y-101597194D01*
X139020273Y-101598320D01*
X138785241Y-101755363D01*
X138585363Y-101955241D01*
X138428320Y-102190273D01*
X138320147Y-102451426D01*
X138265000Y-102728665D01*
X138265000Y-103011335D01*
X138320147Y-103288574D01*
X138428320Y-103549727D01*
X138551447Y-103734000D01*
X135026000Y-103734000D01*
X135026000Y-102748553D01*
X135210273Y-102871680D01*
X135471426Y-102979853D01*
X135748665Y-103035000D01*
X136031335Y-103035000D01*
X136308574Y-102979853D01*
X136569727Y-102871680D01*
X136804759Y-102714637D01*
X137004637Y-102514759D01*
X137161680Y-102279727D01*
X137269853Y-102018574D01*
X137325000Y-101741335D01*
X137325000Y-101458665D01*
X137269853Y-101181426D01*
X137161680Y-100920273D01*
X137004637Y-100685241D01*
X136804759Y-100485363D01*
X136779000Y-100468151D01*
X136779000Y-100400512D01*
X138259783Y-100400512D01*
X138301213Y-100680130D01*
X138396397Y-100946292D01*
X138463329Y-101071514D01*
X138707298Y-101143097D01*
X139520395Y-100330000D01*
X139879605Y-100330000D01*
X140692702Y-101143097D01*
X140936671Y-101071514D01*
X141057571Y-100816004D01*
X141126300Y-100541816D01*
X141140217Y-100259488D01*
X141098787Y-99979870D01*
X141003603Y-99713708D01*
X140936671Y-99588486D01*
X140692702Y-99516903D01*
X139879605Y-100330000D01*
X139520395Y-100330000D01*
X138707298Y-99516903D01*
X138463329Y-99588486D01*
X138342429Y-99843996D01*
X138273700Y-100118184D01*
X138259783Y-100400512D01*
X136779000Y-100400512D01*
X136779000Y-99428235D01*
X137528236Y-98679000D01*
X138270693Y-98679000D01*
X138274188Y-98714482D01*
X138310498Y-98834180D01*
X138369463Y-98944494D01*
X138448815Y-99041185D01*
X138545506Y-99120537D01*
X138655820Y-99179502D01*
X138775518Y-99215812D01*
X138900000Y-99228072D01*
X138918951Y-99228072D01*
X138886903Y-99337298D01*
X139700000Y-100150395D01*
X140513097Y-99337298D01*
X140481049Y-99228072D01*
X140500000Y-99228072D01*
X140624482Y-99215812D01*
X140744180Y-99179502D01*
X140854494Y-99120537D01*
X140951185Y-99041185D01*
X141030537Y-98944494D01*
X141089502Y-98834180D01*
X141125812Y-98714482D01*
X141138072Y-98590000D01*
X141138072Y-96990000D01*
X141125812Y-96865518D01*
X141089502Y-96745820D01*
X141030537Y-96635506D01*
X140951185Y-96538815D01*
X140854494Y-96459463D01*
X140744180Y-96400498D01*
X140624482Y-96364188D01*
X140500000Y-96351928D01*
X138900000Y-96351928D01*
X138775518Y-96364188D01*
X138655820Y-96400498D01*
X138545506Y-96459463D01*
X138448815Y-96538815D01*
X138369463Y-96635506D01*
X138310498Y-96745820D01*
X138274188Y-96865518D01*
X138270693Y-96901000D01*
X137203659Y-96901000D01*
X137159999Y-96896700D01*
X137116339Y-96901000D01*
X137116333Y-96901000D01*
X137018924Y-96910594D01*
X136985724Y-96913864D01*
X136884058Y-96944704D01*
X136818149Y-96964697D01*
X136663709Y-97047247D01*
X136528341Y-97158341D01*
X136500506Y-97192259D01*
X135292264Y-98400501D01*
X135258341Y-98428341D01*
X135230505Y-98462260D01*
X135147248Y-98563709D01*
X135064698Y-98718148D01*
X135026000Y-98845719D01*
X135026000Y-92588553D01*
X135210273Y-92711680D01*
X135471426Y-92819853D01*
X135748665Y-92875000D01*
X136031335Y-92875000D01*
X136308574Y-92819853D01*
X136569727Y-92711680D01*
X136804759Y-92554637D01*
X137004637Y-92354759D01*
X137021849Y-92329000D01*
X138568151Y-92329000D01*
X138585363Y-92354759D01*
X138785241Y-92554637D01*
X139017759Y-92710000D01*
X138785241Y-92865363D01*
X138585363Y-93065241D01*
X138428320Y-93300273D01*
X138320147Y-93561426D01*
X138265000Y-93838665D01*
X138265000Y-94121335D01*
X138320147Y-94398574D01*
X138428320Y-94659727D01*
X138585363Y-94894759D01*
X138785241Y-95094637D01*
X139020273Y-95251680D01*
X139281426Y-95359853D01*
X139558665Y-95415000D01*
X139841335Y-95415000D01*
X140118574Y-95359853D01*
X140379727Y-95251680D01*
X140614759Y-95094637D01*
X140814637Y-94894759D01*
X140971680Y-94659727D01*
X141079853Y-94398574D01*
X141135000Y-94121335D01*
X141135000Y-93838665D01*
X141079853Y-93561426D01*
X140971680Y-93300273D01*
X140814637Y-93065241D01*
X140614759Y-92865363D01*
X140382241Y-92710000D01*
X140614759Y-92554637D01*
X140814637Y-92354759D01*
X140971680Y-92119727D01*
X141079853Y-91858574D01*
X141135000Y-91581335D01*
X141135000Y-91298665D01*
X141079853Y-91021426D01*
X140971680Y-90760273D01*
X140814637Y-90525241D01*
X140616039Y-90326643D01*
X140624482Y-90325812D01*
X140744180Y-90289502D01*
X140854494Y-90230537D01*
X140951185Y-90151185D01*
X141030537Y-90054494D01*
X141089502Y-89944180D01*
X141125812Y-89824482D01*
X141138072Y-89700000D01*
X141135000Y-89185750D01*
X140976250Y-89027000D01*
X139827000Y-89027000D01*
X139827000Y-89047000D01*
X139573000Y-89047000D01*
X139573000Y-89027000D01*
X138423750Y-89027000D01*
X138265000Y-89185750D01*
X138261928Y-89700000D01*
X138274188Y-89824482D01*
X138310498Y-89944180D01*
X138369463Y-90054494D01*
X138448815Y-90151185D01*
X138545506Y-90230537D01*
X138655820Y-90289502D01*
X138775518Y-90325812D01*
X138783961Y-90326643D01*
X138585363Y-90525241D01*
X138568151Y-90551000D01*
X137021849Y-90551000D01*
X137004637Y-90525241D01*
X136804759Y-90325363D01*
X136569727Y-90168320D01*
X136308574Y-90060147D01*
X136031335Y-90005000D01*
X135748665Y-90005000D01*
X135471426Y-90060147D01*
X135210273Y-90168320D01*
X135026000Y-90291447D01*
X135026000Y-87782000D01*
X138349956Y-87782000D01*
X138310498Y-87855820D01*
G37*
X138310498Y-87855820D02*
X138274188Y-87975518D01*
X138261928Y-88100000D01*
X138265000Y-88614250D01*
X138423750Y-88773000D01*
X139573000Y-88773000D01*
X139573000Y-88753000D01*
X139827000Y-88753000D01*
X139827000Y-88773000D01*
X140976250Y-88773000D01*
X141135000Y-88614250D01*
X141138072Y-88100000D01*
X141125812Y-87975518D01*
X141089502Y-87855820D01*
X141050044Y-87782000D01*
X146410274Y-87782000D01*
X146405241Y-87785363D01*
X146205363Y-87985241D01*
X146048320Y-88220273D01*
X145940147Y-88481426D01*
X145885000Y-88758665D01*
X145885000Y-89041335D01*
X145940147Y-89318574D01*
X146048320Y-89579727D01*
X146205363Y-89814759D01*
X146405241Y-90014637D01*
X146637759Y-90170000D01*
X146405241Y-90325363D01*
X146205363Y-90525241D01*
X146188151Y-90551000D01*
X146093659Y-90551000D01*
X146049999Y-90546700D01*
X146006339Y-90551000D01*
X146006333Y-90551000D01*
X145908924Y-90560594D01*
X145875724Y-90563864D01*
X145774058Y-90594704D01*
X145708149Y-90614697D01*
X145553709Y-90697247D01*
X145418341Y-90808341D01*
X145390506Y-90842258D01*
X143166264Y-93066501D01*
X143132341Y-93094341D01*
X143021247Y-93229710D01*
X142938697Y-93384150D01*
X142887864Y-93551727D01*
X142875000Y-93682334D01*
X142875000Y-93682340D01*
X142870700Y-93726000D01*
X142875000Y-93769660D01*
X142875001Y-98508330D01*
X142870700Y-98552000D01*
X142887864Y-98726274D01*
X142938698Y-98893852D01*
X143009545Y-99026397D01*
X143021248Y-99048291D01*
X143132342Y-99183659D01*
X143166259Y-99211494D01*
X144882506Y-100927742D01*
X144910341Y-100961659D01*
X145045709Y-101072753D01*
X145200149Y-101155303D01*
X145286267Y-101181426D01*
X145367725Y-101206136D01*
X145384325Y-101207771D01*
X145498333Y-101219000D01*
X145498340Y-101219000D01*
X145542000Y-101223300D01*
X145585660Y-101219000D01*
X146188151Y-101219000D01*
X146205363Y-101244759D01*
X146405241Y-101444637D01*
X146637759Y-101600000D01*
X146405241Y-101755363D01*
X146205363Y-101955241D01*
X146048320Y-102190273D01*
X145940147Y-102451426D01*
X145885000Y-102728665D01*
X145885000Y-103011335D01*
X145940147Y-103288574D01*
X146048320Y-103549727D01*
X146171447Y-103734000D01*
X140848553Y-103734000D01*
X140971680Y-103549727D01*
X141079853Y-103288574D01*
X141135000Y-103011335D01*
X141135000Y-102728665D01*
X141079853Y-102451426D01*
X140971680Y-102190273D01*
X140814637Y-101955241D01*
X140614759Y-101755363D01*
X140380872Y-101599085D01*
X140441514Y-101566671D01*
X140513097Y-101322702D01*
X139700000Y-100509605D01*
X138886903Y-101322702D01*
X138958486Y-101566671D01*
X139022992Y-101597194D01*
X139020273Y-101598320D01*
X138785241Y-101755363D01*
X138585363Y-101955241D01*
X138428320Y-102190273D01*
X138320147Y-102451426D01*
X138265000Y-102728665D01*
X138265000Y-103011335D01*
X138320147Y-103288574D01*
X138428320Y-103549727D01*
X138551447Y-103734000D01*
X135026000Y-103734000D01*
X135026000Y-102748553D01*
X135210273Y-102871680D01*
X135471426Y-102979853D01*
X135748665Y-103035000D01*
X136031335Y-103035000D01*
X136308574Y-102979853D01*
X136569727Y-102871680D01*
X136804759Y-102714637D01*
X137004637Y-102514759D01*
X137161680Y-102279727D01*
X137269853Y-102018574D01*
X137325000Y-101741335D01*
X137325000Y-101458665D01*
X137269853Y-101181426D01*
X137161680Y-100920273D01*
X137004637Y-100685241D01*
X136804759Y-100485363D01*
X136779000Y-100468151D01*
X136779000Y-100400512D01*
X138259783Y-100400512D01*
X138301213Y-100680130D01*
X138396397Y-100946292D01*
X138463329Y-101071514D01*
X138707298Y-101143097D01*
X139520395Y-100330000D01*
X139879605Y-100330000D01*
X140692702Y-101143097D01*
X140936671Y-101071514D01*
X141057571Y-100816004D01*
X141126300Y-100541816D01*
X141140217Y-100259488D01*
X141098787Y-99979870D01*
X141003603Y-99713708D01*
X140936671Y-99588486D01*
X140692702Y-99516903D01*
X139879605Y-100330000D01*
X139520395Y-100330000D01*
X138707298Y-99516903D01*
X138463329Y-99588486D01*
X138342429Y-99843996D01*
X138273700Y-100118184D01*
X138259783Y-100400512D01*
X136779000Y-100400512D01*
X136779000Y-99428235D01*
X137528236Y-98679000D01*
X138270693Y-98679000D01*
X138274188Y-98714482D01*
X138310498Y-98834180D01*
X138369463Y-98944494D01*
X138448815Y-99041185D01*
X138545506Y-99120537D01*
X138655820Y-99179502D01*
X138775518Y-99215812D01*
X138900000Y-99228072D01*
X138918951Y-99228072D01*
X138886903Y-99337298D01*
X139700000Y-100150395D01*
X140513097Y-99337298D01*
X140481049Y-99228072D01*
X140500000Y-99228072D01*
X140624482Y-99215812D01*
X140744180Y-99179502D01*
X140854494Y-99120537D01*
X140951185Y-99041185D01*
X141030537Y-98944494D01*
X141089502Y-98834180D01*
X141125812Y-98714482D01*
X141138072Y-98590000D01*
X141138072Y-96990000D01*
X141125812Y-96865518D01*
X141089502Y-96745820D01*
X141030537Y-96635506D01*
X140951185Y-96538815D01*
X140854494Y-96459463D01*
X140744180Y-96400498D01*
X140624482Y-96364188D01*
X140500000Y-96351928D01*
X138900000Y-96351928D01*
X138775518Y-96364188D01*
X138655820Y-96400498D01*
X138545506Y-96459463D01*
X138448815Y-96538815D01*
X138369463Y-96635506D01*
X138310498Y-96745820D01*
X138274188Y-96865518D01*
X138270693Y-96901000D01*
X137203659Y-96901000D01*
X137159999Y-96896700D01*
X137116339Y-96901000D01*
X137116333Y-96901000D01*
X137018924Y-96910594D01*
X136985724Y-96913864D01*
X136884058Y-96944704D01*
X136818149Y-96964697D01*
X136663709Y-97047247D01*
X136528341Y-97158341D01*
X136500506Y-97192259D01*
X135292264Y-98400501D01*
X135258341Y-98428341D01*
X135230505Y-98462260D01*
X135147248Y-98563709D01*
X135064698Y-98718148D01*
X135026000Y-98845719D01*
X135026000Y-92588553D01*
X135210273Y-92711680D01*
X135471426Y-92819853D01*
X135748665Y-92875000D01*
X136031335Y-92875000D01*
X136308574Y-92819853D01*
X136569727Y-92711680D01*
X136804759Y-92554637D01*
X137004637Y-92354759D01*
X137021849Y-92329000D01*
X138568151Y-92329000D01*
X138585363Y-92354759D01*
X138785241Y-92554637D01*
X139017759Y-92710000D01*
X138785241Y-92865363D01*
X138585363Y-93065241D01*
X138428320Y-93300273D01*
X138320147Y-93561426D01*
X138265000Y-93838665D01*
X138265000Y-94121335D01*
X138320147Y-94398574D01*
X138428320Y-94659727D01*
X138585363Y-94894759D01*
X138785241Y-95094637D01*
X139020273Y-95251680D01*
X139281426Y-95359853D01*
X139558665Y-95415000D01*
X139841335Y-95415000D01*
X140118574Y-95359853D01*
X140379727Y-95251680D01*
X140614759Y-95094637D01*
X140814637Y-94894759D01*
X140971680Y-94659727D01*
X141079853Y-94398574D01*
X141135000Y-94121335D01*
X141135000Y-93838665D01*
X141079853Y-93561426D01*
X140971680Y-93300273D01*
X140814637Y-93065241D01*
X140614759Y-92865363D01*
X140382241Y-92710000D01*
X140614759Y-92554637D01*
X140814637Y-92354759D01*
X140971680Y-92119727D01*
X141079853Y-91858574D01*
X141135000Y-91581335D01*
X141135000Y-91298665D01*
X141079853Y-91021426D01*
X140971680Y-90760273D01*
X140814637Y-90525241D01*
X140616039Y-90326643D01*
X140624482Y-90325812D01*
X140744180Y-90289502D01*
X140854494Y-90230537D01*
X140951185Y-90151185D01*
X141030537Y-90054494D01*
X141089502Y-89944180D01*
X141125812Y-89824482D01*
X141138072Y-89700000D01*
X141135000Y-89185750D01*
X140976250Y-89027000D01*
X139827000Y-89027000D01*
X139827000Y-89047000D01*
X139573000Y-89047000D01*
X139573000Y-89027000D01*
X138423750Y-89027000D01*
X138265000Y-89185750D01*
X138261928Y-89700000D01*
X138274188Y-89824482D01*
X138310498Y-89944180D01*
X138369463Y-90054494D01*
X138448815Y-90151185D01*
X138545506Y-90230537D01*
X138655820Y-90289502D01*
X138775518Y-90325812D01*
X138783961Y-90326643D01*
X138585363Y-90525241D01*
X138568151Y-90551000D01*
X137021849Y-90551000D01*
X137004637Y-90525241D01*
X136804759Y-90325363D01*
X136569727Y-90168320D01*
X136308574Y-90060147D01*
X136031335Y-90005000D01*
X135748665Y-90005000D01*
X135471426Y-90060147D01*
X135210273Y-90168320D01*
X135026000Y-90291447D01*
X135026000Y-87782000D01*
X138349956Y-87782000D01*
X138310498Y-87855820D01*
%TD*%
M02*
