%TF.GenerationSoftware,KiCad,Pcbnew,(5.1.6)-1*%
%TF.CreationDate,2021-10-26T16:01:37-07:00*%
%TF.ProjectId,VSS Signal Adapter,56535320-5369-4676-9e61-6c2041646170,rev?*%
%TF.SameCoordinates,Original*%
%TF.FileFunction,Legend,Top*%
%TF.FilePolarity,Positive*%
%FSLAX46Y46*%
G04 Gerber Fmt 4.6, Leading zero omitted, Abs format (unit mm)*
G04 Created by KiCad (PCBNEW (5.1.6)-1) date 2021-10-26 16:01:37*
%MOMM*%
%LPD*%
G01*
G04 APERTURE LIST*
%ADD10C,0.076200*%
%ADD11C,0.100000*%
%ADD12C,0.120000*%
%ADD13C,0.150000*%
G04 APERTURE END LIST*
D10*
X141163523Y-98926952D02*
X141139333Y-98975333D01*
X141115142Y-98999523D01*
X141066761Y-99023714D01*
X141042571Y-99023714D01*
X140994190Y-98999523D01*
X140970000Y-98975333D01*
X140945809Y-98926952D01*
X140945809Y-98830190D01*
X140970000Y-98781809D01*
X140994190Y-98757619D01*
X141042571Y-98733428D01*
X141066761Y-98733428D01*
X141115142Y-98757619D01*
X141139333Y-98781809D01*
X141163523Y-98830190D01*
X141163523Y-98926952D01*
X141187714Y-98975333D01*
X141211904Y-98999523D01*
X141260285Y-99023714D01*
X141357047Y-99023714D01*
X141405428Y-98999523D01*
X141429619Y-98975333D01*
X141453809Y-98926952D01*
X141453809Y-98830190D01*
X141429619Y-98781809D01*
X141405428Y-98757619D01*
X141357047Y-98733428D01*
X141260285Y-98733428D01*
X141211904Y-98757619D01*
X141187714Y-98781809D01*
X141163523Y-98830190D01*
X141115142Y-98564095D02*
X141453809Y-98443142D01*
X141115142Y-98322190D01*
X140945809Y-97814190D02*
X141453809Y-97644857D01*
X140945809Y-97475523D01*
X141429619Y-97330380D02*
X141453809Y-97257809D01*
X141453809Y-97136857D01*
X141429619Y-97088476D01*
X141405428Y-97064285D01*
X141357047Y-97040095D01*
X141308666Y-97040095D01*
X141260285Y-97064285D01*
X141236095Y-97088476D01*
X141211904Y-97136857D01*
X141187714Y-97233619D01*
X141163523Y-97282000D01*
X141139333Y-97306190D01*
X141090952Y-97330380D01*
X141042571Y-97330380D01*
X140994190Y-97306190D01*
X140970000Y-97282000D01*
X140945809Y-97233619D01*
X140945809Y-97112666D01*
X140970000Y-97040095D01*
X141429619Y-96846571D02*
X141453809Y-96774000D01*
X141453809Y-96653047D01*
X141429619Y-96604666D01*
X141405428Y-96580476D01*
X141357047Y-96556285D01*
X141308666Y-96556285D01*
X141260285Y-96580476D01*
X141236095Y-96604666D01*
X141211904Y-96653047D01*
X141187714Y-96749809D01*
X141163523Y-96798190D01*
X141139333Y-96822380D01*
X141090952Y-96846571D01*
X141042571Y-96846571D01*
X140994190Y-96822380D01*
X140970000Y-96798190D01*
X140945809Y-96749809D01*
X140945809Y-96628857D01*
X140970000Y-96556285D01*
X140970000Y-100656571D02*
X140945809Y-100704952D01*
X140945809Y-100777523D01*
X140970000Y-100850095D01*
X141018380Y-100898476D01*
X141066761Y-100922666D01*
X141163523Y-100946857D01*
X141236095Y-100946857D01*
X141332857Y-100922666D01*
X141381238Y-100898476D01*
X141429619Y-100850095D01*
X141453809Y-100777523D01*
X141453809Y-100729142D01*
X141429619Y-100656571D01*
X141405428Y-100632380D01*
X141236095Y-100632380D01*
X141236095Y-100729142D01*
X141115142Y-100414666D02*
X141453809Y-100414666D01*
X141163523Y-100414666D02*
X141139333Y-100390476D01*
X141115142Y-100342095D01*
X141115142Y-100269523D01*
X141139333Y-100221142D01*
X141187714Y-100196952D01*
X141453809Y-100196952D01*
X141453809Y-99737333D02*
X140945809Y-99737333D01*
X141429619Y-99737333D02*
X141453809Y-99785714D01*
X141453809Y-99882476D01*
X141429619Y-99930857D01*
X141405428Y-99955047D01*
X141357047Y-99979238D01*
X141211904Y-99979238D01*
X141163523Y-99955047D01*
X141139333Y-99930857D01*
X141115142Y-99882476D01*
X141115142Y-99785714D01*
X141139333Y-99737333D01*
X145517809Y-103644095D02*
X146025809Y-103474761D01*
X145517809Y-103305428D01*
X146025809Y-103063523D02*
X146001619Y-103111904D01*
X145977428Y-103136095D01*
X145929047Y-103160285D01*
X145783904Y-103160285D01*
X145735523Y-103136095D01*
X145711333Y-103111904D01*
X145687142Y-103063523D01*
X145687142Y-102990952D01*
X145711333Y-102942571D01*
X145735523Y-102918380D01*
X145783904Y-102894190D01*
X145929047Y-102894190D01*
X145977428Y-102918380D01*
X146001619Y-102942571D01*
X146025809Y-102990952D01*
X146025809Y-103063523D01*
X145687142Y-102458761D02*
X146025809Y-102458761D01*
X145687142Y-102676476D02*
X145953238Y-102676476D01*
X146001619Y-102652285D01*
X146025809Y-102603904D01*
X146025809Y-102531333D01*
X146001619Y-102482952D01*
X145977428Y-102458761D01*
X145687142Y-102289428D02*
X145687142Y-102095904D01*
X145517809Y-102216857D02*
X145953238Y-102216857D01*
X146001619Y-102192666D01*
X146025809Y-102144285D01*
X146025809Y-102095904D01*
X145517809Y-100402571D02*
X145517809Y-100644476D01*
X145759714Y-100668666D01*
X145735523Y-100644476D01*
X145711333Y-100596095D01*
X145711333Y-100475142D01*
X145735523Y-100426761D01*
X145759714Y-100402571D01*
X145808095Y-100378380D01*
X145929047Y-100378380D01*
X145977428Y-100402571D01*
X146001619Y-100426761D01*
X146025809Y-100475142D01*
X146025809Y-100596095D01*
X146001619Y-100644476D01*
X145977428Y-100668666D01*
X145687142Y-100209047D02*
X146025809Y-100088095D01*
X145687142Y-99967142D01*
X141453809Y-103535238D02*
X140945809Y-103535238D01*
X141453809Y-103244952D01*
X140945809Y-103244952D01*
X140921619Y-102640190D02*
X141574761Y-103075619D01*
X141405428Y-102180571D02*
X141429619Y-102204761D01*
X141453809Y-102277333D01*
X141453809Y-102325714D01*
X141429619Y-102398285D01*
X141381238Y-102446666D01*
X141332857Y-102470857D01*
X141236095Y-102495047D01*
X141163523Y-102495047D01*
X141066761Y-102470857D01*
X141018380Y-102446666D01*
X140970000Y-102398285D01*
X140945809Y-102325714D01*
X140945809Y-102277333D01*
X140970000Y-102204761D01*
X140994190Y-102180571D01*
X146025809Y-98455238D02*
X145517809Y-98455238D01*
X146025809Y-98164952D01*
X145517809Y-98164952D01*
X145493619Y-97560190D02*
X146146761Y-97995619D01*
X145977428Y-97100571D02*
X146001619Y-97124761D01*
X146025809Y-97197333D01*
X146025809Y-97245714D01*
X146001619Y-97318285D01*
X145953238Y-97366666D01*
X145904857Y-97390857D01*
X145808095Y-97415047D01*
X145735523Y-97415047D01*
X145638761Y-97390857D01*
X145590380Y-97366666D01*
X145542000Y-97318285D01*
X145517809Y-97245714D01*
X145517809Y-97197333D01*
X145542000Y-97124761D01*
X145566190Y-97100571D01*
X142647609Y-95951523D02*
X143155609Y-95782190D01*
X142647609Y-95612857D01*
X143131419Y-95250000D02*
X143155609Y-95298380D01*
X143155609Y-95395142D01*
X143131419Y-95443523D01*
X143083038Y-95467714D01*
X142889514Y-95467714D01*
X142841133Y-95443523D01*
X142816942Y-95395142D01*
X142816942Y-95298380D01*
X142841133Y-95250000D01*
X142889514Y-95225809D01*
X142937895Y-95225809D01*
X142986276Y-95467714D01*
X143155609Y-95008095D02*
X142647609Y-95008095D01*
X143155609Y-94790380D02*
X142889514Y-94790380D01*
X142841133Y-94814571D01*
X142816942Y-94862952D01*
X142816942Y-94935523D01*
X142841133Y-94983904D01*
X142865323Y-95008095D01*
X143155609Y-94548476D02*
X142816942Y-94548476D01*
X142647609Y-94548476D02*
X142671800Y-94572666D01*
X142695990Y-94548476D01*
X142671800Y-94524285D01*
X142647609Y-94548476D01*
X142695990Y-94548476D01*
X143131419Y-94088857D02*
X143155609Y-94137238D01*
X143155609Y-94234000D01*
X143131419Y-94282380D01*
X143107228Y-94306571D01*
X143058847Y-94330761D01*
X142913704Y-94330761D01*
X142865323Y-94306571D01*
X142841133Y-94282380D01*
X142816942Y-94234000D01*
X142816942Y-94137238D01*
X142841133Y-94088857D01*
X143155609Y-93798571D02*
X143131419Y-93846952D01*
X143083038Y-93871142D01*
X142647609Y-93871142D01*
X143131419Y-93411523D02*
X143155609Y-93459904D01*
X143155609Y-93556666D01*
X143131419Y-93605047D01*
X143083038Y-93629238D01*
X142889514Y-93629238D01*
X142841133Y-93605047D01*
X142816942Y-93556666D01*
X142816942Y-93459904D01*
X142841133Y-93411523D01*
X142889514Y-93387333D01*
X142937895Y-93387333D01*
X142986276Y-93629238D01*
X143131419Y-92806761D02*
X143155609Y-92734190D01*
X143155609Y-92613238D01*
X143131419Y-92564857D01*
X143107228Y-92540666D01*
X143058847Y-92516476D01*
X143010466Y-92516476D01*
X142962085Y-92540666D01*
X142937895Y-92564857D01*
X142913704Y-92613238D01*
X142889514Y-92710000D01*
X142865323Y-92758380D01*
X142841133Y-92782571D01*
X142792752Y-92806761D01*
X142744371Y-92806761D01*
X142695990Y-92782571D01*
X142671800Y-92758380D01*
X142647609Y-92710000D01*
X142647609Y-92589047D01*
X142671800Y-92516476D01*
X142816942Y-92298761D02*
X143324942Y-92298761D01*
X142841133Y-92298761D02*
X142816942Y-92250380D01*
X142816942Y-92153619D01*
X142841133Y-92105238D01*
X142865323Y-92081047D01*
X142913704Y-92056857D01*
X143058847Y-92056857D01*
X143107228Y-92081047D01*
X143131419Y-92105238D01*
X143155609Y-92153619D01*
X143155609Y-92250380D01*
X143131419Y-92298761D01*
X143131419Y-91645619D02*
X143155609Y-91694000D01*
X143155609Y-91790761D01*
X143131419Y-91839142D01*
X143083038Y-91863333D01*
X142889514Y-91863333D01*
X142841133Y-91839142D01*
X142816942Y-91790761D01*
X142816942Y-91694000D01*
X142841133Y-91645619D01*
X142889514Y-91621428D01*
X142937895Y-91621428D01*
X142986276Y-91863333D01*
X143131419Y-91210190D02*
X143155609Y-91258571D01*
X143155609Y-91355333D01*
X143131419Y-91403714D01*
X143083038Y-91427904D01*
X142889514Y-91427904D01*
X142841133Y-91403714D01*
X142816942Y-91355333D01*
X142816942Y-91258571D01*
X142841133Y-91210190D01*
X142889514Y-91186000D01*
X142937895Y-91186000D01*
X142986276Y-91427904D01*
X143155609Y-90750571D02*
X142647609Y-90750571D01*
X143131419Y-90750571D02*
X143155609Y-90798952D01*
X143155609Y-90895714D01*
X143131419Y-90944095D01*
X143107228Y-90968285D01*
X143058847Y-90992476D01*
X142913704Y-90992476D01*
X142865323Y-90968285D01*
X142841133Y-90944095D01*
X142816942Y-90895714D01*
X142816942Y-90798952D01*
X142841133Y-90750571D01*
X143010466Y-90145809D02*
X143010466Y-89903904D01*
X143155609Y-90194190D02*
X142647609Y-90024857D01*
X143155609Y-89855523D01*
X143155609Y-89468476D02*
X142647609Y-89468476D01*
X143131419Y-89468476D02*
X143155609Y-89516857D01*
X143155609Y-89613619D01*
X143131419Y-89662000D01*
X143107228Y-89686190D01*
X143058847Y-89710380D01*
X142913704Y-89710380D01*
X142865323Y-89686190D01*
X142841133Y-89662000D01*
X142816942Y-89613619D01*
X142816942Y-89516857D01*
X142841133Y-89468476D01*
X143155609Y-89008857D02*
X142889514Y-89008857D01*
X142841133Y-89033047D01*
X142816942Y-89081428D01*
X142816942Y-89178190D01*
X142841133Y-89226571D01*
X143131419Y-89008857D02*
X143155609Y-89057238D01*
X143155609Y-89178190D01*
X143131419Y-89226571D01*
X143083038Y-89250761D01*
X143034657Y-89250761D01*
X142986276Y-89226571D01*
X142962085Y-89178190D01*
X142962085Y-89057238D01*
X142937895Y-89008857D01*
X142816942Y-88766952D02*
X143324942Y-88766952D01*
X142841133Y-88766952D02*
X142816942Y-88718571D01*
X142816942Y-88621809D01*
X142841133Y-88573428D01*
X142865323Y-88549238D01*
X142913704Y-88525047D01*
X143058847Y-88525047D01*
X143107228Y-88549238D01*
X143131419Y-88573428D01*
X143155609Y-88621809D01*
X143155609Y-88718571D01*
X143131419Y-88766952D01*
X142816942Y-88379904D02*
X142816942Y-88186380D01*
X142647609Y-88307333D02*
X143083038Y-88307333D01*
X143131419Y-88283142D01*
X143155609Y-88234761D01*
X143155609Y-88186380D01*
X143131419Y-87823523D02*
X143155609Y-87871904D01*
X143155609Y-87968666D01*
X143131419Y-88017047D01*
X143083038Y-88041238D01*
X142889514Y-88041238D01*
X142841133Y-88017047D01*
X142816942Y-87968666D01*
X142816942Y-87871904D01*
X142841133Y-87823523D01*
X142889514Y-87799333D01*
X142937895Y-87799333D01*
X142986276Y-88041238D01*
X143155609Y-87581619D02*
X142816942Y-87581619D01*
X142913704Y-87581619D02*
X142865323Y-87557428D01*
X142841133Y-87533238D01*
X142816942Y-87484857D01*
X142816942Y-87436476D01*
X143993809Y-93012380D02*
X143751904Y-93181714D01*
X143993809Y-93302666D02*
X143485809Y-93302666D01*
X143485809Y-93109142D01*
X143510000Y-93060761D01*
X143534190Y-93036571D01*
X143582571Y-93012380D01*
X143655142Y-93012380D01*
X143703523Y-93036571D01*
X143727714Y-93060761D01*
X143751904Y-93109142D01*
X143751904Y-93302666D01*
X143945428Y-92794666D02*
X143969619Y-92770476D01*
X143993809Y-92794666D01*
X143969619Y-92818857D01*
X143945428Y-92794666D01*
X143993809Y-92794666D01*
X143993809Y-92552761D02*
X143485809Y-92552761D01*
X143727714Y-92552761D02*
X143727714Y-92262476D01*
X143993809Y-92262476D02*
X143485809Y-92262476D01*
X143993809Y-92020571D02*
X143655142Y-92020571D01*
X143485809Y-92020571D02*
X143510000Y-92044761D01*
X143534190Y-92020571D01*
X143510000Y-91996380D01*
X143485809Y-92020571D01*
X143534190Y-92020571D01*
X143969619Y-91585142D02*
X143993809Y-91633523D01*
X143993809Y-91730285D01*
X143969619Y-91778666D01*
X143921238Y-91802857D01*
X143727714Y-91802857D01*
X143679333Y-91778666D01*
X143655142Y-91730285D01*
X143655142Y-91633523D01*
X143679333Y-91585142D01*
X143727714Y-91560952D01*
X143776095Y-91560952D01*
X143824476Y-91802857D01*
X143993809Y-91343238D02*
X143485809Y-91343238D01*
X143679333Y-91343238D02*
X143655142Y-91294857D01*
X143655142Y-91198095D01*
X143679333Y-91149714D01*
X143703523Y-91125523D01*
X143751904Y-91101333D01*
X143897047Y-91101333D01*
X143945428Y-91125523D01*
X143969619Y-91149714D01*
X143993809Y-91198095D01*
X143993809Y-91294857D01*
X143969619Y-91343238D01*
X143969619Y-90690095D02*
X143993809Y-90738476D01*
X143993809Y-90835238D01*
X143969619Y-90883619D01*
X143921238Y-90907809D01*
X143727714Y-90907809D01*
X143679333Y-90883619D01*
X143655142Y-90835238D01*
X143655142Y-90738476D01*
X143679333Y-90690095D01*
X143727714Y-90665904D01*
X143776095Y-90665904D01*
X143824476Y-90907809D01*
X143993809Y-90448190D02*
X143655142Y-90448190D01*
X143751904Y-90448190D02*
X143703523Y-90424000D01*
X143679333Y-90399809D01*
X143655142Y-90351428D01*
X143655142Y-90303047D01*
X143655142Y-90206285D02*
X143655142Y-90012761D01*
X143485809Y-90133714D02*
X143921238Y-90133714D01*
X143969619Y-90109523D01*
X143993809Y-90061142D01*
X143993809Y-90012761D01*
X144832009Y-93290571D02*
X144832009Y-93580857D01*
X144832009Y-93435714D02*
X144324009Y-93435714D01*
X144396580Y-93484095D01*
X144444961Y-93532476D01*
X144469152Y-93580857D01*
X144324009Y-92976095D02*
X144324009Y-92927714D01*
X144348200Y-92879333D01*
X144372390Y-92855142D01*
X144420771Y-92830952D01*
X144517533Y-92806761D01*
X144638485Y-92806761D01*
X144735247Y-92830952D01*
X144783628Y-92855142D01*
X144807819Y-92879333D01*
X144832009Y-92927714D01*
X144832009Y-92976095D01*
X144807819Y-93024476D01*
X144783628Y-93048666D01*
X144735247Y-93072857D01*
X144638485Y-93097047D01*
X144517533Y-93097047D01*
X144420771Y-93072857D01*
X144372390Y-93048666D01*
X144348200Y-93024476D01*
X144324009Y-92976095D01*
X144299819Y-92226190D02*
X144952961Y-92661619D01*
X144372390Y-92081047D02*
X144348200Y-92056857D01*
X144324009Y-92008476D01*
X144324009Y-91887523D01*
X144348200Y-91839142D01*
X144372390Y-91814952D01*
X144420771Y-91790761D01*
X144469152Y-91790761D01*
X144541723Y-91814952D01*
X144832009Y-92105238D01*
X144832009Y-91790761D01*
X144324009Y-91355333D02*
X144324009Y-91452095D01*
X144348200Y-91500476D01*
X144372390Y-91524666D01*
X144444961Y-91573047D01*
X144541723Y-91597238D01*
X144735247Y-91597238D01*
X144783628Y-91573047D01*
X144807819Y-91548857D01*
X144832009Y-91500476D01*
X144832009Y-91403714D01*
X144807819Y-91355333D01*
X144783628Y-91331142D01*
X144735247Y-91306952D01*
X144614295Y-91306952D01*
X144565914Y-91331142D01*
X144541723Y-91355333D01*
X144517533Y-91403714D01*
X144517533Y-91500476D01*
X144541723Y-91548857D01*
X144565914Y-91573047D01*
X144614295Y-91597238D01*
X144299819Y-90726380D02*
X144952961Y-91161809D01*
X144372390Y-90581238D02*
X144348200Y-90557047D01*
X144324009Y-90508666D01*
X144324009Y-90387714D01*
X144348200Y-90339333D01*
X144372390Y-90315142D01*
X144420771Y-90290952D01*
X144469152Y-90290952D01*
X144541723Y-90315142D01*
X144832009Y-90605428D01*
X144832009Y-90290952D01*
X144832009Y-89807142D02*
X144832009Y-90097428D01*
X144832009Y-89952285D02*
X144324009Y-89952285D01*
X144396580Y-90000666D01*
X144444961Y-90049047D01*
X144469152Y-90097428D01*
X145517809Y-94754095D02*
X146025809Y-94584761D01*
X145517809Y-94415428D01*
X146025809Y-94173523D02*
X146001619Y-94221904D01*
X145977428Y-94246095D01*
X145929047Y-94270285D01*
X145783904Y-94270285D01*
X145735523Y-94246095D01*
X145711333Y-94221904D01*
X145687142Y-94173523D01*
X145687142Y-94100952D01*
X145711333Y-94052571D01*
X145735523Y-94028380D01*
X145783904Y-94004190D01*
X145929047Y-94004190D01*
X145977428Y-94028380D01*
X146001619Y-94052571D01*
X146025809Y-94100952D01*
X146025809Y-94173523D01*
X145687142Y-93568761D02*
X146025809Y-93568761D01*
X145687142Y-93786476D02*
X145953238Y-93786476D01*
X146001619Y-93762285D01*
X146025809Y-93713904D01*
X146025809Y-93641333D01*
X146001619Y-93592952D01*
X145977428Y-93568761D01*
X145687142Y-93399428D02*
X145687142Y-93205904D01*
X145517809Y-93326857D02*
X145953238Y-93326857D01*
X146001619Y-93302666D01*
X146025809Y-93254285D01*
X146025809Y-93205904D01*
X145517809Y-91512571D02*
X145517809Y-91754476D01*
X145759714Y-91778666D01*
X145735523Y-91754476D01*
X145711333Y-91706095D01*
X145711333Y-91585142D01*
X145735523Y-91536761D01*
X145759714Y-91512571D01*
X145808095Y-91488380D01*
X145929047Y-91488380D01*
X145977428Y-91512571D01*
X146001619Y-91536761D01*
X146025809Y-91585142D01*
X146025809Y-91706095D01*
X146001619Y-91754476D01*
X145977428Y-91778666D01*
X145687142Y-91319047D02*
X146025809Y-91198095D01*
X145687142Y-91077142D01*
X146025809Y-89565238D02*
X145517809Y-89565238D01*
X146025809Y-89274952D01*
X145517809Y-89274952D01*
X145493619Y-88670190D02*
X146146761Y-89105619D01*
X145977428Y-88210571D02*
X146001619Y-88234761D01*
X146025809Y-88307333D01*
X146025809Y-88355714D01*
X146001619Y-88428285D01*
X145953238Y-88476666D01*
X145904857Y-88500857D01*
X145808095Y-88525047D01*
X145735523Y-88525047D01*
X145638761Y-88500857D01*
X145590380Y-88476666D01*
X145542000Y-88428285D01*
X145517809Y-88355714D01*
X145517809Y-88307333D01*
X145542000Y-88234761D01*
X145566190Y-88210571D01*
X141453809Y-94645238D02*
X140945809Y-94645238D01*
X141453809Y-94354952D01*
X140945809Y-94354952D01*
X140921619Y-93750190D02*
X141574761Y-94185619D01*
X141405428Y-93290571D02*
X141429619Y-93314761D01*
X141453809Y-93387333D01*
X141453809Y-93435714D01*
X141429619Y-93508285D01*
X141381238Y-93556666D01*
X141332857Y-93580857D01*
X141236095Y-93605047D01*
X141163523Y-93605047D01*
X141066761Y-93580857D01*
X141018380Y-93556666D01*
X140970000Y-93508285D01*
X140945809Y-93435714D01*
X140945809Y-93387333D01*
X140970000Y-93314761D01*
X140994190Y-93290571D01*
X141163523Y-92576952D02*
X141139333Y-92625333D01*
X141115142Y-92649523D01*
X141066761Y-92673714D01*
X141042571Y-92673714D01*
X140994190Y-92649523D01*
X140970000Y-92625333D01*
X140945809Y-92576952D01*
X140945809Y-92480190D01*
X140970000Y-92431809D01*
X140994190Y-92407619D01*
X141042571Y-92383428D01*
X141066761Y-92383428D01*
X141115142Y-92407619D01*
X141139333Y-92431809D01*
X141163523Y-92480190D01*
X141163523Y-92576952D01*
X141187714Y-92625333D01*
X141211904Y-92649523D01*
X141260285Y-92673714D01*
X141357047Y-92673714D01*
X141405428Y-92649523D01*
X141429619Y-92625333D01*
X141453809Y-92576952D01*
X141453809Y-92480190D01*
X141429619Y-92431809D01*
X141405428Y-92407619D01*
X141357047Y-92383428D01*
X141260285Y-92383428D01*
X141211904Y-92407619D01*
X141187714Y-92431809D01*
X141163523Y-92480190D01*
X141115142Y-92214095D02*
X141453809Y-92093142D01*
X141115142Y-91972190D01*
X140945809Y-91464190D02*
X141453809Y-91294857D01*
X140945809Y-91125523D01*
X141429619Y-90980380D02*
X141453809Y-90907809D01*
X141453809Y-90786857D01*
X141429619Y-90738476D01*
X141405428Y-90714285D01*
X141357047Y-90690095D01*
X141308666Y-90690095D01*
X141260285Y-90714285D01*
X141236095Y-90738476D01*
X141211904Y-90786857D01*
X141187714Y-90883619D01*
X141163523Y-90932000D01*
X141139333Y-90956190D01*
X141090952Y-90980380D01*
X141042571Y-90980380D01*
X140994190Y-90956190D01*
X140970000Y-90932000D01*
X140945809Y-90883619D01*
X140945809Y-90762666D01*
X140970000Y-90690095D01*
X141429619Y-90496571D02*
X141453809Y-90424000D01*
X141453809Y-90303047D01*
X141429619Y-90254666D01*
X141405428Y-90230476D01*
X141357047Y-90206285D01*
X141308666Y-90206285D01*
X141260285Y-90230476D01*
X141236095Y-90254666D01*
X141211904Y-90303047D01*
X141187714Y-90399809D01*
X141163523Y-90448190D01*
X141139333Y-90472380D01*
X141090952Y-90496571D01*
X141042571Y-90496571D01*
X140994190Y-90472380D01*
X140970000Y-90448190D01*
X140945809Y-90399809D01*
X140945809Y-90278857D01*
X140970000Y-90206285D01*
X140970000Y-89226571D02*
X140945809Y-89274952D01*
X140945809Y-89347523D01*
X140970000Y-89420095D01*
X141018380Y-89468476D01*
X141066761Y-89492666D01*
X141163523Y-89516857D01*
X141236095Y-89516857D01*
X141332857Y-89492666D01*
X141381238Y-89468476D01*
X141429619Y-89420095D01*
X141453809Y-89347523D01*
X141453809Y-89299142D01*
X141429619Y-89226571D01*
X141405428Y-89202380D01*
X141236095Y-89202380D01*
X141236095Y-89299142D01*
X141115142Y-88984666D02*
X141453809Y-88984666D01*
X141163523Y-88984666D02*
X141139333Y-88960476D01*
X141115142Y-88912095D01*
X141115142Y-88839523D01*
X141139333Y-88791142D01*
X141187714Y-88766952D01*
X141453809Y-88766952D01*
X141453809Y-88307333D02*
X140945809Y-88307333D01*
X141429619Y-88307333D02*
X141453809Y-88355714D01*
X141453809Y-88452476D01*
X141429619Y-88500857D01*
X141405428Y-88525047D01*
X141357047Y-88549238D01*
X141211904Y-88549238D01*
X141163523Y-88525047D01*
X141139333Y-88500857D01*
X141115142Y-88452476D01*
X141115142Y-88355714D01*
X141139333Y-88307333D01*
D11*
%TO.C,U1*%
X140590000Y-96210000D02*
X140115000Y-96685000D01*
X140100000Y-103890000D02*
X140100000Y-104290000D01*
X140100000Y-104290000D02*
X140700000Y-104290000D01*
X146900000Y-104290000D02*
X146900000Y-103890000D01*
X146900000Y-104290000D02*
X146400000Y-104290000D01*
X140115000Y-96910000D02*
X140115000Y-96685000D01*
X140590000Y-96210000D02*
X140890000Y-96210000D01*
X146900000Y-96500000D02*
X146900000Y-96200000D01*
X146900000Y-96200000D02*
X146600000Y-96200000D01*
D12*
%TO.C,R1*%
X137260000Y-93250000D02*
X134520000Y-93250000D01*
X134520000Y-93250000D02*
X134520000Y-99790000D01*
X134520000Y-99790000D02*
X137260000Y-99790000D01*
X137260000Y-99790000D02*
X137260000Y-93250000D01*
X135890000Y-92480000D02*
X135890000Y-93250000D01*
X135890000Y-100560000D02*
X135890000Y-99790000D01*
D11*
%TO.C,J1*%
X140590000Y-87320000D02*
X140115000Y-87795000D01*
X140100000Y-95000000D02*
X140100000Y-95400000D01*
X140100000Y-95400000D02*
X140700000Y-95400000D01*
X146900000Y-95400000D02*
X146900000Y-95000000D01*
X146900000Y-95400000D02*
X146400000Y-95400000D01*
X140115000Y-88020000D02*
X140115000Y-87795000D01*
X140590000Y-87320000D02*
X140890000Y-87320000D01*
X146900000Y-87610000D02*
X146900000Y-87310000D01*
X146900000Y-87310000D02*
X146600000Y-87310000D01*
%TO.C,U1*%
D13*
X142708380Y-98297904D02*
X143517904Y-98297904D01*
X143613142Y-98250285D01*
X143660761Y-98202666D01*
X143708380Y-98107428D01*
X143708380Y-97916952D01*
X143660761Y-97821714D01*
X143613142Y-97774095D01*
X143517904Y-97726476D01*
X142708380Y-97726476D01*
X143708380Y-96726476D02*
X143708380Y-97297904D01*
X143708380Y-97012190D02*
X142708380Y-97012190D01*
X142851238Y-97107428D01*
X142946476Y-97202666D01*
X142994095Y-97297904D01*
X143041714Y-102631714D02*
X143708380Y-102631714D01*
X142660761Y-102869809D02*
X143375047Y-103107904D01*
X143375047Y-102488857D01*
X143708380Y-102107904D02*
X142708380Y-102107904D01*
X143708380Y-101536476D01*
X142708380Y-101536476D01*
X142803619Y-101107904D02*
X142756000Y-101060285D01*
X142708380Y-100965047D01*
X142708380Y-100726952D01*
X142756000Y-100631714D01*
X142803619Y-100584095D01*
X142898857Y-100536476D01*
X142994095Y-100536476D01*
X143136952Y-100584095D01*
X143708380Y-101155523D01*
X143708380Y-100536476D01*
X142708380Y-99631714D02*
X142708380Y-100107904D01*
X143184571Y-100155523D01*
X143136952Y-100107904D01*
X143089333Y-100012666D01*
X143089333Y-99774571D01*
X143136952Y-99679333D01*
X143184571Y-99631714D01*
X143279809Y-99584095D01*
X143517904Y-99584095D01*
X143613142Y-99631714D01*
X143660761Y-99679333D01*
X143708380Y-99774571D01*
X143708380Y-100012666D01*
X143660761Y-100107904D01*
X143613142Y-100155523D01*
%TO.C,R1*%
X136342380Y-89320666D02*
X135866190Y-89654000D01*
X136342380Y-89892095D02*
X135342380Y-89892095D01*
X135342380Y-89511142D01*
X135390000Y-89415904D01*
X135437619Y-89368285D01*
X135532857Y-89320666D01*
X135675714Y-89320666D01*
X135770952Y-89368285D01*
X135818571Y-89415904D01*
X135866190Y-89511142D01*
X135866190Y-89892095D01*
X136342380Y-88368285D02*
X136342380Y-88939714D01*
X136342380Y-88654000D02*
X135342380Y-88654000D01*
X135485238Y-88749238D01*
X135580476Y-88844476D01*
X135628095Y-88939714D01*
X135342380Y-97527904D02*
X135342380Y-97718380D01*
X135390000Y-97813619D01*
X135437619Y-97861238D01*
X135580476Y-97956476D01*
X135770952Y-98004095D01*
X136151904Y-98004095D01*
X136247142Y-97956476D01*
X136294761Y-97908857D01*
X136342380Y-97813619D01*
X136342380Y-97623142D01*
X136294761Y-97527904D01*
X136247142Y-97480285D01*
X136151904Y-97432666D01*
X135913809Y-97432666D01*
X135818571Y-97480285D01*
X135770952Y-97527904D01*
X135723333Y-97623142D01*
X135723333Y-97813619D01*
X135770952Y-97908857D01*
X135818571Y-97956476D01*
X135913809Y-98004095D01*
X135770952Y-96861238D02*
X135723333Y-96956476D01*
X135675714Y-97004095D01*
X135580476Y-97051714D01*
X135532857Y-97051714D01*
X135437619Y-97004095D01*
X135390000Y-96956476D01*
X135342380Y-96861238D01*
X135342380Y-96670761D01*
X135390000Y-96575523D01*
X135437619Y-96527904D01*
X135532857Y-96480285D01*
X135580476Y-96480285D01*
X135675714Y-96527904D01*
X135723333Y-96575523D01*
X135770952Y-96670761D01*
X135770952Y-96861238D01*
X135818571Y-96956476D01*
X135866190Y-97004095D01*
X135961428Y-97051714D01*
X136151904Y-97051714D01*
X136247142Y-97004095D01*
X136294761Y-96956476D01*
X136342380Y-96861238D01*
X136342380Y-96670761D01*
X136294761Y-96575523D01*
X136247142Y-96527904D01*
X136151904Y-96480285D01*
X135961428Y-96480285D01*
X135866190Y-96527904D01*
X135818571Y-96575523D01*
X135770952Y-96670761D01*
X135342380Y-95861238D02*
X135342380Y-95766000D01*
X135390000Y-95670761D01*
X135437619Y-95623142D01*
X135532857Y-95575523D01*
X135723333Y-95527904D01*
X135961428Y-95527904D01*
X136151904Y-95575523D01*
X136247142Y-95623142D01*
X136294761Y-95670761D01*
X136342380Y-95766000D01*
X136342380Y-95861238D01*
X136294761Y-95956476D01*
X136247142Y-96004095D01*
X136151904Y-96051714D01*
X135961428Y-96099333D01*
X135723333Y-96099333D01*
X135532857Y-96051714D01*
X135437619Y-96004095D01*
X135390000Y-95956476D01*
X135342380Y-95861238D01*
X136342380Y-94527904D02*
X135866190Y-94861238D01*
X136342380Y-95099333D02*
X135342380Y-95099333D01*
X135342380Y-94718380D01*
X135390000Y-94623142D01*
X135437619Y-94575523D01*
X135532857Y-94527904D01*
X135675714Y-94527904D01*
X135770952Y-94575523D01*
X135818571Y-94623142D01*
X135866190Y-94718380D01*
X135866190Y-95099333D01*
%TO.C,J1*%
X143978380Y-88725333D02*
X144692666Y-88725333D01*
X144835523Y-88772952D01*
X144930761Y-88868190D01*
X144978380Y-89011047D01*
X144978380Y-89106285D01*
X144978380Y-87725333D02*
X144978380Y-88296761D01*
X144978380Y-88011047D02*
X143978380Y-88011047D01*
X144121238Y-88106285D01*
X144216476Y-88201523D01*
X144264095Y-88296761D01*
%TD*%
M02*
