M48
; DRILL file {KiCad (5.1.6)-1} date 11/26/20 15:35:25
; FORMAT={-:-/ absolute / inch / decimal}
; #@! TF.CreationDate,2020-11-26T15:35:25-08:00
; #@! TF.GenerationSoftware,Kicad,Pcbnew,(5.1.6)-1
; #@! TF.FileFunction,Plated,1,2,PTH
FMAT,2
INCH
T1C0.0157
T2C0.0512
T3C0.0787
T4C0.1870
%
G90
G05
T1
X2.875Y-2.05
X2.875Y-3.85
X2.875Y-4.15
X3.025Y-2.05
X3.025Y-3.45
X3.025Y-3.85
X3.025Y-4.15
X3.175Y-2.05
X3.175Y-3.45
X3.175Y-3.85
X3.175Y-4.15
X3.325Y-2.05
X3.325Y-3.45
X3.325Y-3.85
X3.325Y-4.15
X3.475Y-2.05
X3.475Y-3.45
X3.475Y-3.85
X3.475Y-4.15
X3.825Y-2.05
X3.825Y-3.45
X3.825Y-3.85
X3.825Y-4.15
X3.975Y-2.05
X3.975Y-3.45
X3.975Y-3.85
X3.975Y-4.15
X4.125Y-2.05
X4.125Y-3.45
X4.125Y-3.85
X4.125Y-4.15
X4.425Y-2.05
X4.425Y-3.45
X4.425Y-3.85
X4.425Y-4.15
X4.775Y-2.05
X4.775Y-3.45
X4.775Y-3.85
X4.775Y-4.15
X4.925Y-2.05
X4.925Y-3.45
X4.925Y-3.85
X4.925Y-4.15
X5.075Y-2.05
X5.075Y-3.45
X5.075Y-3.85
X5.075Y-4.15
X5.225Y-2.05
X5.225Y-3.45
X5.225Y-3.85
X5.225Y-4.15
X5.375Y-2.05
X5.375Y-3.45
X5.375Y-3.85
X5.375Y-4.15
X5.725Y-2.05
X5.725Y-3.45
X5.725Y-3.85
X5.725Y-4.15
X5.875Y-2.05
X5.875Y-3.45
X5.875Y-3.85
X5.875Y-4.15
X6.025Y-2.05
X6.025Y-3.45
X6.025Y-3.85
X6.025Y-4.15
X6.175Y-2.05
X6.175Y-3.45
X6.175Y-3.85
X6.175Y-4.15
X6.325Y-2.05
X6.325Y-3.45
X6.325Y-3.85
X6.325Y-4.15
X6.675Y-2.05
X6.675Y-3.45
X6.675Y-3.85
X6.675Y-4.15
X6.825Y-2.05
X6.825Y-3.45
X6.825Y-3.85
X6.825Y-4.15
X6.975Y-2.05
X6.975Y-3.45
X6.975Y-3.85
X6.975Y-4.15
X7.125Y-2.05
X7.125Y-3.45
X7.125Y-3.85
X7.125Y-4.15
X7.275Y-2.05
X7.275Y-3.45
X7.275Y-3.85
X7.275Y-4.15
X7.625Y-2.05
X7.625Y-3.45
X7.625Y-3.85
X7.625Y-4.15
X7.775Y-2.05
X7.775Y-3.45
X7.775Y-3.85
X7.775Y-4.15
X7.925Y-2.05
X7.925Y-3.45
X7.925Y-3.85
X7.925Y-4.15
X8.075Y-2.05
X8.075Y-3.45
X8.075Y-3.85
X8.075Y-4.15
T2
X2.8Y-1.85
X2.95Y-1.85
X3.1Y-1.85
X3.25Y-1.85
X3.4Y-1.85
X3.55Y-1.85
X4.7Y-1.85
X4.85Y-1.85
X5.0Y-1.85
X5.15Y-1.85
X5.3Y-1.85
X5.45Y-1.85
X5.65Y-3.65
X5.8Y-3.65
X5.95Y-3.65
X6.1Y-3.65
X6.25Y-3.65
X6.4Y-3.65
X5.65Y-4.35
X5.8Y-4.35
X5.95Y-4.35
X6.1Y-4.35
X6.25Y-4.35
X6.4Y-4.35
X4.7Y-4.35
X4.85Y-4.35
X5.0Y-4.35
X5.15Y-4.35
X5.3Y-4.35
X5.45Y-4.35
X4.7Y-3.65
X4.85Y-3.65
X5.0Y-3.65
X5.15Y-3.65
X5.3Y-3.65
X5.45Y-3.65
X2.8Y-3.65
X2.95Y-3.65
X3.1Y-3.65
X3.25Y-3.65
X3.4Y-3.65
X3.55Y-3.65
X6.6Y-1.85
X6.75Y-1.85
X6.9Y-1.85
X7.05Y-1.85
X7.2Y-1.85
X7.35Y-1.85
X2.8Y-4.35
X2.95Y-4.35
X3.1Y-4.35
X3.25Y-4.35
X3.4Y-4.35
X3.55Y-4.35
X7.55Y-3.65
X7.7Y-3.65
X7.85Y-3.65
X8.0Y-3.65
X8.15Y-3.65
X8.3Y-3.65
X3.75Y-1.85
X3.9Y-1.85
X4.05Y-1.85
X4.2Y-1.85
X4.35Y-1.85
X4.5Y-1.85
X3.75Y-3.65
X3.9Y-3.65
X4.05Y-3.65
X4.2Y-3.65
X4.35Y-3.65
X4.5Y-3.65
X7.55Y-4.35
X7.7Y-4.35
X7.85Y-4.35
X8.0Y-4.35
X8.15Y-4.35
X8.3Y-4.35
X7.55Y-1.85
X7.7Y-1.85
X7.85Y-1.85
X8.0Y-1.85
X8.15Y-1.85
X8.3Y-1.85
X3.75Y-4.35
X3.9Y-4.35
X4.05Y-4.35
X4.2Y-4.35
X4.35Y-4.35
X4.5Y-4.35
X6.6Y-3.65
X6.75Y-3.65
X6.9Y-3.65
X7.05Y-3.65
X7.2Y-3.65
X7.35Y-3.65
X5.65Y-1.85
X5.8Y-1.85
X5.95Y-1.85
X6.1Y-1.85
X6.25Y-1.85
X6.4Y-1.85
X6.6Y-4.35
X6.75Y-4.35
X6.9Y-4.35
X7.05Y-4.35
X7.2Y-4.35
X7.35Y-4.35
T3
X4.275Y-3.4
X4.275Y-3.9
X4.275Y-4.1
X4.275Y-2.125
T4
X2.5Y-2.25
X8.55Y-2.25
X2.5Y-4.0
X8.55Y-4.0
T0
M30
