%TF.GenerationSoftware,KiCad,Pcbnew,(5.1.6)-1*%
%TF.CreationDate,2020-11-26T15:33:50-08:00*%
%TF.ProjectId,Test Engine Breakout Board,54657374-2045-46e6-9769-6e6520427265,rev?*%
%TF.SameCoordinates,Original*%
%TF.FileFunction,Copper,L1,Top*%
%TF.FilePolarity,Positive*%
%FSLAX46Y46*%
G04 Gerber Fmt 4.6, Leading zero omitted, Abs format (unit mm)*
G04 Created by KiCad (PCBNEW (5.1.6)-1) date 2020-11-26 15:33:50*
%MOMM*%
%LPD*%
G01*
G04 APERTURE LIST*
%TA.AperFunction,ComponentPad*%
%ADD10C,2.999994*%
%TD*%
%TA.AperFunction,ComponentPad*%
%ADD11C,6.350000*%
%TD*%
%TA.AperFunction,ComponentPad*%
%ADD12R,2.600000X2.600000*%
%TD*%
%TA.AperFunction,ComponentPad*%
%ADD13C,2.600000*%
%TD*%
%TA.AperFunction,ViaPad*%
%ADD14C,0.800000*%
%TD*%
%TA.AperFunction,Conductor*%
%ADD15C,1.905000*%
%TD*%
%TA.AperFunction,Conductor*%
%ADD16C,2.540000*%
%TD*%
%TA.AperFunction,Conductor*%
%ADD17C,0.254000*%
%TD*%
G04 APERTURE END LIST*
D10*
%TO.P,REF\u002A\u002A,4*%
%TO.N,/Z12*%
X108585000Y-104140000D03*
%TD*%
%TO.P,REF\u002A\u002A,3*%
%TO.N,/Z12*%
X108585000Y-99060000D03*
%TD*%
%TO.P,REF\u002A\u002A,2*%
%TO.N,/Z12*%
X108585000Y-86360000D03*
%TD*%
%TO.P,REF\u002A\u002A,1*%
%TO.N,/Z12*%
X108585000Y-53975000D03*
%TD*%
D11*
%TO.P,REF\u002A\u002A,1*%
%TO.N,N/C*%
X63500000Y-57150000D03*
%TD*%
%TO.P,REF\u002A\u002A,1*%
%TO.N,N/C*%
X63500000Y-101600000D03*
%TD*%
%TO.P,REF\u002A\u002A,1*%
%TO.N,N/C*%
X217170000Y-101600000D03*
%TD*%
%TO.P,REF\u002A\u002A,1*%
%TO.N,N/C*%
X217170000Y-57150000D03*
%TD*%
D12*
%TO.P,J1,1*%
%TO.N,/Spare1*%
X71120000Y-46990000D03*
D13*
%TO.P,J1,5*%
%TO.N,/A14*%
X86360000Y-46990000D03*
%TO.P,J1,4*%
%TO.N,/K2*%
X82550000Y-46990000D03*
%TO.P,J1,2*%
%TO.N,/Spare2*%
X74930000Y-46990000D03*
%TO.P,J1,3*%
%TO.N,/K1*%
X78740000Y-46990000D03*
%TO.P,J1,6*%
%TO.N,/K4*%
X90170000Y-46990000D03*
%TD*%
%TO.P,J2,6*%
%TO.N,/K113*%
X114300000Y-46990000D03*
%TO.P,J2,3*%
%TO.N,/F18*%
X102870000Y-46990000D03*
%TO.P,J2,2*%
%TO.N,/K7*%
X99060000Y-46990000D03*
%TO.P,J2,4*%
%TO.N,/Z12*%
X106680000Y-46990000D03*
%TO.P,J2,5*%
X110490000Y-46990000D03*
D12*
%TO.P,J2,1*%
%TO.N,/K6*%
X95250000Y-46990000D03*
%TD*%
%TO.P,J3,1*%
%TO.N,/K114*%
X119380000Y-46990000D03*
D13*
%TO.P,J3,5*%
%TO.N,/K43*%
X134620000Y-46990000D03*
%TO.P,J3,4*%
%TO.N,/K18*%
X130810000Y-46990000D03*
%TO.P,J3,2*%
%TO.N,/K115*%
X123190000Y-46990000D03*
%TO.P,J3,3*%
%TO.N,/K116*%
X127000000Y-46990000D03*
%TO.P,J3,6*%
%TO.N,/K19*%
X138430000Y-46990000D03*
%TD*%
%TO.P,J4,6*%
%TO.N,/K39*%
X162560000Y-46990000D03*
%TO.P,J4,3*%
%TO.N,/K22*%
X151130000Y-46990000D03*
%TO.P,J4,2*%
%TO.N,/K21*%
X147320000Y-46990000D03*
%TO.P,J4,4*%
%TO.N,/K141*%
X154940000Y-46990000D03*
%TO.P,J4,5*%
%TO.N,/K24*%
X158750000Y-46990000D03*
D12*
%TO.P,J4,1*%
%TO.N,/K20*%
X143510000Y-46990000D03*
%TD*%
%TO.P,J5,1*%
%TO.N,/K40*%
X167640000Y-46990000D03*
D13*
%TO.P,J5,5*%
%TO.N,/K51*%
X182880000Y-46990000D03*
%TO.P,J5,4*%
%TO.N,/K44*%
X179070000Y-46990000D03*
%TO.P,J5,2*%
%TO.N,/K41*%
X171450000Y-46990000D03*
%TO.P,J5,3*%
%TO.N,/G21*%
X175260000Y-46990000D03*
%TO.P,J5,6*%
%TO.N,/A142*%
X186690000Y-46990000D03*
%TD*%
%TO.P,J6,6*%
%TO.N,GND*%
X210820000Y-46990000D03*
%TO.P,J6,3*%
%TO.N,/K60*%
X199390000Y-46990000D03*
%TO.P,J6,2*%
%TO.N,/K59*%
X195580000Y-46990000D03*
%TO.P,J6,4*%
%TO.N,/Spare3*%
X203200000Y-46990000D03*
%TO.P,J6,5*%
%TO.N,/Spare4*%
X207010000Y-46990000D03*
D12*
%TO.P,J6,1*%
%TO.N,/K158*%
X191770000Y-46990000D03*
%TD*%
%TO.P,J7,1*%
%TO.N,/Spare1*%
X71120000Y-92710000D03*
D13*
%TO.P,J7,5*%
%TO.N,/A14*%
X86360000Y-92710000D03*
%TO.P,J7,4*%
%TO.N,/K2*%
X82550000Y-92710000D03*
%TO.P,J7,2*%
%TO.N,/Spare2*%
X74930000Y-92710000D03*
%TO.P,J7,3*%
%TO.N,/K1*%
X78740000Y-92710000D03*
%TO.P,J7,6*%
%TO.N,/K4*%
X90170000Y-92710000D03*
%TD*%
%TO.P,J8,6*%
%TO.N,/K113*%
X114300000Y-92710000D03*
%TO.P,J8,3*%
%TO.N,/F18*%
X102870000Y-92710000D03*
%TO.P,J8,2*%
%TO.N,/K7*%
X99060000Y-92710000D03*
%TO.P,J8,4*%
%TO.N,/Z12*%
X106680000Y-92710000D03*
%TO.P,J8,5*%
X110490000Y-92710000D03*
D12*
%TO.P,J8,1*%
%TO.N,/K6*%
X95250000Y-92710000D03*
%TD*%
%TO.P,J9,1*%
%TO.N,/K114*%
X119380000Y-92710000D03*
D13*
%TO.P,J9,5*%
%TO.N,/K43*%
X134620000Y-92710000D03*
%TO.P,J9,4*%
%TO.N,/K18*%
X130810000Y-92710000D03*
%TO.P,J9,2*%
%TO.N,/K115*%
X123190000Y-92710000D03*
%TO.P,J9,3*%
%TO.N,/K116*%
X127000000Y-92710000D03*
%TO.P,J9,6*%
%TO.N,/K19*%
X138430000Y-92710000D03*
%TD*%
D12*
%TO.P,J10,1*%
%TO.N,/K20*%
X143510000Y-92710000D03*
D13*
%TO.P,J10,5*%
%TO.N,/K24*%
X158750000Y-92710000D03*
%TO.P,J10,4*%
%TO.N,/K141*%
X154940000Y-92710000D03*
%TO.P,J10,2*%
%TO.N,/K21*%
X147320000Y-92710000D03*
%TO.P,J10,3*%
%TO.N,/K22*%
X151130000Y-92710000D03*
%TO.P,J10,6*%
%TO.N,/K39*%
X162560000Y-92710000D03*
%TD*%
D12*
%TO.P,J11,1*%
%TO.N,/K40*%
X167640000Y-92710000D03*
D13*
%TO.P,J11,5*%
%TO.N,/K51*%
X182880000Y-92710000D03*
%TO.P,J11,4*%
%TO.N,/K44*%
X179070000Y-92710000D03*
%TO.P,J11,2*%
%TO.N,/K41*%
X171450000Y-92710000D03*
%TO.P,J11,3*%
%TO.N,/G21*%
X175260000Y-92710000D03*
%TO.P,J11,6*%
%TO.N,/A142*%
X186690000Y-92710000D03*
%TD*%
%TO.P,J12,6*%
%TO.N,GND*%
X210820000Y-92710000D03*
%TO.P,J12,3*%
%TO.N,/K60*%
X199390000Y-92710000D03*
%TO.P,J12,2*%
%TO.N,/K59*%
X195580000Y-92710000D03*
%TO.P,J12,4*%
%TO.N,/Spare3*%
X203200000Y-92710000D03*
%TO.P,J12,5*%
%TO.N,/Spare4*%
X207010000Y-92710000D03*
D12*
%TO.P,J12,1*%
%TO.N,/K158*%
X191770000Y-92710000D03*
%TD*%
D13*
%TO.P,J13,6*%
%TO.N,/K4*%
X90170000Y-110490000D03*
%TO.P,J13,3*%
%TO.N,/K1*%
X78740000Y-110490000D03*
%TO.P,J13,2*%
%TO.N,/Spare2*%
X74930000Y-110490000D03*
%TO.P,J13,4*%
%TO.N,/K2*%
X82550000Y-110490000D03*
%TO.P,J13,5*%
%TO.N,/A14*%
X86360000Y-110490000D03*
D12*
%TO.P,J13,1*%
%TO.N,/Spare1*%
X71120000Y-110490000D03*
%TD*%
D13*
%TO.P,J14,6*%
%TO.N,/K113*%
X114300000Y-110490000D03*
%TO.P,J14,3*%
%TO.N,/F18*%
X102870000Y-110490000D03*
%TO.P,J14,2*%
%TO.N,/K7*%
X99060000Y-110490000D03*
%TO.P,J14,4*%
%TO.N,/Z12*%
X106680000Y-110490000D03*
%TO.P,J14,5*%
X110490000Y-110490000D03*
D12*
%TO.P,J14,1*%
%TO.N,/K6*%
X95250000Y-110490000D03*
%TD*%
%TO.P,J15,1*%
%TO.N,/K114*%
X119380000Y-110490000D03*
D13*
%TO.P,J15,5*%
%TO.N,/K43*%
X134620000Y-110490000D03*
%TO.P,J15,4*%
%TO.N,/K18*%
X130810000Y-110490000D03*
%TO.P,J15,2*%
%TO.N,/K115*%
X123190000Y-110490000D03*
%TO.P,J15,3*%
%TO.N,/K116*%
X127000000Y-110490000D03*
%TO.P,J15,6*%
%TO.N,/K19*%
X138430000Y-110490000D03*
%TD*%
%TO.P,J16,6*%
%TO.N,/K39*%
X162560000Y-110490000D03*
%TO.P,J16,3*%
%TO.N,/K22*%
X151130000Y-110490000D03*
%TO.P,J16,2*%
%TO.N,/K21*%
X147320000Y-110490000D03*
%TO.P,J16,4*%
%TO.N,/K141*%
X154940000Y-110490000D03*
%TO.P,J16,5*%
%TO.N,/K24*%
X158750000Y-110490000D03*
D12*
%TO.P,J16,1*%
%TO.N,/K20*%
X143510000Y-110490000D03*
%TD*%
%TO.P,J17,1*%
%TO.N,/K40*%
X167640000Y-110490000D03*
D13*
%TO.P,J17,5*%
%TO.N,/K51*%
X182880000Y-110490000D03*
%TO.P,J17,4*%
%TO.N,/K44*%
X179070000Y-110490000D03*
%TO.P,J17,2*%
%TO.N,/K41*%
X171450000Y-110490000D03*
%TO.P,J17,3*%
%TO.N,/G21*%
X175260000Y-110490000D03*
%TO.P,J17,6*%
%TO.N,/A142*%
X186690000Y-110490000D03*
%TD*%
%TO.P,J18,6*%
%TO.N,GND*%
X210820000Y-110490000D03*
%TO.P,J18,3*%
%TO.N,/K60*%
X199390000Y-110490000D03*
%TO.P,J18,2*%
%TO.N,/K59*%
X195580000Y-110490000D03*
%TO.P,J18,4*%
%TO.N,/Spare3*%
X203200000Y-110490000D03*
%TO.P,J18,5*%
%TO.N,/Spare4*%
X207010000Y-110490000D03*
D12*
%TO.P,J18,1*%
%TO.N,/K158*%
X191770000Y-110490000D03*
%TD*%
D14*
%TO.N,GND*%
X73025000Y-52070000D03*
X76835000Y-52070000D03*
X76835000Y-87630000D03*
X73025000Y-97790000D03*
X73025000Y-105410000D03*
X76835000Y-97790000D03*
X76835000Y-105410000D03*
X80645000Y-97790000D03*
X80645000Y-105410000D03*
X84455000Y-105410000D03*
X88265000Y-105410000D03*
X97155000Y-105410000D03*
X100965000Y-105410000D03*
X121285000Y-105410000D03*
X125095000Y-105410000D03*
X128905000Y-105410000D03*
X132715000Y-105410000D03*
X136525000Y-105410000D03*
X145415000Y-105410000D03*
X149225000Y-105410000D03*
X153035000Y-105410000D03*
X156845000Y-105410000D03*
X160655000Y-105410000D03*
X169545000Y-105410000D03*
X173355000Y-105410000D03*
X177165000Y-105410000D03*
X180975000Y-105410000D03*
X184785000Y-105410000D03*
X193675000Y-105410000D03*
X197485000Y-105410000D03*
X201295000Y-105410000D03*
X205105000Y-105410000D03*
X205105000Y-97790000D03*
X201295000Y-97790000D03*
X197485000Y-97790000D03*
X193675000Y-97790000D03*
X184785000Y-97790000D03*
X180975000Y-97790000D03*
X177165000Y-97790000D03*
X173355000Y-97790000D03*
X169545000Y-97790000D03*
X160655000Y-97790000D03*
X156845000Y-97790000D03*
X153035000Y-97790000D03*
X149225000Y-97790000D03*
X145415000Y-97790000D03*
X136525000Y-97790000D03*
X132715000Y-97790000D03*
X128905000Y-97790000D03*
X125095000Y-97790000D03*
X121285000Y-97790000D03*
X100965000Y-97790000D03*
X97155000Y-97790000D03*
X88265000Y-97790000D03*
X84455000Y-97790000D03*
X80645000Y-87630000D03*
X84455000Y-87630000D03*
X88265000Y-87630000D03*
X97155000Y-87630000D03*
X100965000Y-87630000D03*
X121285000Y-87630000D03*
X125095000Y-87630000D03*
X128905000Y-87630000D03*
X132715000Y-87630000D03*
X136525000Y-87630000D03*
X145415000Y-87630000D03*
X149225000Y-87630000D03*
X153035000Y-87630000D03*
X156845000Y-87630000D03*
X160655000Y-87630000D03*
X169545000Y-87630000D03*
X173355000Y-87630000D03*
X177165000Y-87630000D03*
X180975000Y-87630000D03*
X184785000Y-87630000D03*
X193675000Y-87630000D03*
X197485000Y-87630000D03*
X201295000Y-87630000D03*
X205105000Y-87630000D03*
X80645000Y-52070000D03*
X84455000Y-52070000D03*
X88265000Y-52070000D03*
X97155000Y-52070000D03*
X100965000Y-52070000D03*
X121285000Y-52070000D03*
X125095000Y-52070000D03*
X128905000Y-52070000D03*
X132715000Y-52070000D03*
X136525000Y-52070000D03*
X145415000Y-52070000D03*
X149225000Y-52070000D03*
X153035000Y-52070000D03*
X156845000Y-52070000D03*
X160655000Y-52070000D03*
X169545000Y-52070000D03*
X173355000Y-52070000D03*
X177165000Y-52070000D03*
X180975000Y-52070000D03*
X184785000Y-52070000D03*
X193675000Y-52070000D03*
X197485000Y-52070000D03*
X201295000Y-52070000D03*
X205105000Y-52070000D03*
X104775000Y-87630000D03*
X112395000Y-87630000D03*
X112395000Y-97790000D03*
X104775000Y-97790000D03*
X104775000Y-105410000D03*
X112395000Y-105410000D03*
X104775000Y-52070000D03*
X112395000Y-52070000D03*
%TD*%
D15*
%TO.N,/Spare1*%
X71120000Y-46990000D02*
X71120000Y-92710000D01*
X71120000Y-92710000D02*
X71120000Y-110490000D01*
%TO.N,/A14*%
X86360000Y-46990000D02*
X86360000Y-92710000D01*
X86360000Y-92710000D02*
X86360000Y-110490000D01*
%TO.N,/K2*%
X82550000Y-46990000D02*
X82550000Y-92710000D01*
X82550000Y-92710000D02*
X82550000Y-110490000D01*
%TO.N,/Spare2*%
X74930000Y-46990000D02*
X74930000Y-92710000D01*
X74930000Y-92710000D02*
X74930000Y-110490000D01*
%TO.N,/K1*%
X78740000Y-46990000D02*
X78740000Y-92710000D01*
X78740000Y-92710000D02*
X78740000Y-110490000D01*
%TO.N,/K4*%
X90170000Y-48828477D02*
X90170000Y-92710000D01*
X90170000Y-46990000D02*
X90170000Y-48828477D01*
X90170000Y-92710000D02*
X90170000Y-110490000D01*
%TO.N,/K113*%
X114300000Y-46990000D02*
X114300000Y-92710000D01*
X114300000Y-92710000D02*
X114300000Y-110490000D01*
%TO.N,/F18*%
X102870000Y-46990000D02*
X102870000Y-92710000D01*
X102870000Y-92710000D02*
X102870000Y-110490000D01*
%TO.N,/K7*%
X99060000Y-46990000D02*
X99060000Y-92710000D01*
X99060000Y-92710000D02*
X99060000Y-110490000D01*
%TO.N,/Z12*%
X106680000Y-92710000D02*
X106680000Y-110490000D01*
X110490000Y-110490000D02*
X110490000Y-92710000D01*
X106680000Y-46990000D02*
X106680000Y-92710000D01*
D16*
X108648500Y-92646500D02*
X108712000Y-92710000D01*
X108648500Y-46990000D02*
X108648500Y-92646500D01*
X106680000Y-46990000D02*
X108648500Y-46990000D01*
X108648500Y-46990000D02*
X110490000Y-46990000D01*
X106680000Y-92710000D02*
X108712000Y-92710000D01*
X108712000Y-92710000D02*
X110490000Y-92710000D01*
X106680000Y-110490000D02*
X108648500Y-110490000D01*
X108648500Y-92646500D02*
X108648500Y-110490000D01*
X108648500Y-110490000D02*
X110490000Y-110490000D01*
D15*
X110490000Y-46990000D02*
X110490000Y-92710000D01*
%TO.N,/K6*%
X95250000Y-110490000D02*
X95250000Y-92710000D01*
X95250000Y-92710000D02*
X95250000Y-46990000D01*
%TO.N,/K114*%
X119380000Y-46990000D02*
X119380000Y-92710000D01*
X119380000Y-92710000D02*
X119380000Y-110490000D01*
%TO.N,/K43*%
X134620000Y-46990000D02*
X134620000Y-92710000D01*
X134620000Y-92710000D02*
X134620000Y-110490000D01*
%TO.N,/K18*%
X130810000Y-46990000D02*
X130810000Y-92710000D01*
X130810000Y-92710000D02*
X130810000Y-110490000D01*
%TO.N,/K115*%
X123190000Y-46990000D02*
X123190000Y-92710000D01*
X123190000Y-92710000D02*
X123190000Y-110490000D01*
%TO.N,/K116*%
X127000000Y-46990000D02*
X127000000Y-92710000D01*
X127000000Y-92710000D02*
X127000000Y-110490000D01*
%TO.N,/K19*%
X138430000Y-46990000D02*
X138430000Y-92710000D01*
X138430000Y-92710000D02*
X138430000Y-110490000D01*
%TO.N,/K39*%
X162560000Y-46990000D02*
X162560000Y-92710000D01*
X162560000Y-92710000D02*
X162560000Y-110490000D01*
%TO.N,/K22*%
X151130000Y-46990000D02*
X151130000Y-92710000D01*
X151130000Y-92710000D02*
X151130000Y-110490000D01*
%TO.N,/K21*%
X147320000Y-46990000D02*
X147320000Y-92710000D01*
X147320000Y-92710000D02*
X147320000Y-110490000D01*
%TO.N,/K141*%
X154940000Y-46990000D02*
X154940000Y-92710000D01*
X154940000Y-92710000D02*
X154940000Y-110490000D01*
%TO.N,/K24*%
X158750000Y-46990000D02*
X158750000Y-92710000D01*
X158750000Y-92710000D02*
X158750000Y-110490000D01*
%TO.N,/K20*%
X143510000Y-46990000D02*
X143510000Y-92710000D01*
X143510000Y-92710000D02*
X143510000Y-110490000D01*
%TO.N,/K40*%
X167640000Y-46990000D02*
X167640000Y-92710000D01*
X167640000Y-92710000D02*
X167640000Y-110490000D01*
%TO.N,/K51*%
X182880000Y-46990000D02*
X182880000Y-92710000D01*
X182880000Y-92710000D02*
X182880000Y-110490000D01*
%TO.N,/K44*%
X179070000Y-48828477D02*
X179070000Y-92710000D01*
X179070000Y-46990000D02*
X179070000Y-48828477D01*
X179070000Y-92710000D02*
X179070000Y-110490000D01*
%TO.N,/K41*%
X171450000Y-46990000D02*
X171450000Y-92710000D01*
X171450000Y-92710000D02*
X171450000Y-110490000D01*
%TO.N,/G21*%
X175260000Y-46990000D02*
X175260000Y-92710000D01*
X175260000Y-110490000D02*
X175260000Y-92710000D01*
%TO.N,/A142*%
X186690000Y-48828477D02*
X186690000Y-92710000D01*
X186690000Y-46990000D02*
X186690000Y-48828477D01*
X186690000Y-92710000D02*
X186690000Y-110490000D01*
%TO.N,/K60*%
X199390000Y-48828477D02*
X199390000Y-92710000D01*
X199390000Y-46990000D02*
X199390000Y-48828477D01*
X199390000Y-92710000D02*
X199390000Y-110490000D01*
%TO.N,/K59*%
X195580000Y-46990000D02*
X195580000Y-92710000D01*
X195580000Y-92710000D02*
X195580000Y-110490000D01*
%TO.N,/Spare3*%
X203200000Y-46990000D02*
X203200000Y-92710000D01*
X203200000Y-92710000D02*
X203200000Y-110490000D01*
%TO.N,/Spare4*%
X207010000Y-48828477D02*
X207010000Y-92710000D01*
X207010000Y-46990000D02*
X207010000Y-48828477D01*
X207010000Y-92710000D02*
X207010000Y-110490000D01*
%TO.N,/K158*%
X191770000Y-46990000D02*
X191770000Y-92710000D01*
X191770000Y-92710000D02*
X191770000Y-110490000D01*
%TD*%
D17*
%TO.N,GND*%
G36*
X220853000Y-56136275D02*
G01*
X220833584Y-56038664D01*
X220546378Y-55345288D01*
X220129420Y-54721267D01*
X219598733Y-54190580D01*
X218974712Y-53773622D01*
X218281336Y-53486416D01*
X217545252Y-53340000D01*
X216794748Y-53340000D01*
X216058664Y-53486416D01*
X215365288Y-53773622D01*
X214741267Y-54190580D01*
X214210580Y-54721267D01*
X213793622Y-55345288D01*
X213506416Y-56038664D01*
X213360000Y-56774748D01*
X213360000Y-57525252D01*
X213506416Y-58261336D01*
X213793622Y-58954712D01*
X214210580Y-59578733D01*
X214741267Y-60109420D01*
X215365288Y-60526378D01*
X216058664Y-60813584D01*
X216794748Y-60960000D01*
X217545252Y-60960000D01*
X218281336Y-60813584D01*
X218974712Y-60526378D01*
X219598733Y-60109420D01*
X220129420Y-59578733D01*
X220546378Y-58954712D01*
X220833584Y-58261336D01*
X220853000Y-58163725D01*
X220853000Y-100586275D01*
X220833584Y-100488664D01*
X220546378Y-99795288D01*
X220129420Y-99171267D01*
X219598733Y-98640580D01*
X218974712Y-98223622D01*
X218281336Y-97936416D01*
X217545252Y-97790000D01*
X216794748Y-97790000D01*
X216058664Y-97936416D01*
X215365288Y-98223622D01*
X214741267Y-98640580D01*
X214210580Y-99171267D01*
X213793622Y-99795288D01*
X213506416Y-100488664D01*
X213360000Y-101224748D01*
X213360000Y-101975252D01*
X213506416Y-102711336D01*
X213793622Y-103404712D01*
X214210580Y-104028733D01*
X214741267Y-104559420D01*
X215365288Y-104976378D01*
X216058664Y-105263584D01*
X216794748Y-105410000D01*
X217545252Y-105410000D01*
X218281336Y-105263584D01*
X218974712Y-104976378D01*
X219598733Y-104559420D01*
X220129420Y-104028733D01*
X220546378Y-103404712D01*
X220833584Y-102711336D01*
X220853000Y-102613725D01*
X220853000Y-114173000D01*
X59817000Y-114173000D01*
X59817000Y-102613725D01*
X59836416Y-102711336D01*
X60123622Y-103404712D01*
X60540580Y-104028733D01*
X61071267Y-104559420D01*
X61695288Y-104976378D01*
X62388664Y-105263584D01*
X63124748Y-105410000D01*
X63875252Y-105410000D01*
X64611336Y-105263584D01*
X65304712Y-104976378D01*
X65928733Y-104559420D01*
X66459420Y-104028733D01*
X66876378Y-103404712D01*
X67163584Y-102711336D01*
X67310000Y-101975252D01*
X67310000Y-101224748D01*
X67163584Y-100488664D01*
X66876378Y-99795288D01*
X66459420Y-99171267D01*
X65928733Y-98640580D01*
X65304712Y-98223622D01*
X64611336Y-97936416D01*
X63875252Y-97790000D01*
X63124748Y-97790000D01*
X62388664Y-97936416D01*
X61695288Y-98223622D01*
X61071267Y-98640580D01*
X60540580Y-99171267D01*
X60123622Y-99795288D01*
X59836416Y-100488664D01*
X59817000Y-100586275D01*
X59817000Y-58163725D01*
X59836416Y-58261336D01*
X60123622Y-58954712D01*
X60540580Y-59578733D01*
X61071267Y-60109420D01*
X61695288Y-60526378D01*
X62388664Y-60813584D01*
X63124748Y-60960000D01*
X63875252Y-60960000D01*
X64611336Y-60813584D01*
X65304712Y-60526378D01*
X65928733Y-60109420D01*
X66459420Y-59578733D01*
X66876378Y-58954712D01*
X67163584Y-58261336D01*
X67310000Y-57525252D01*
X67310000Y-56774748D01*
X67163584Y-56038664D01*
X66876378Y-55345288D01*
X66459420Y-54721267D01*
X65928733Y-54190580D01*
X65304712Y-53773622D01*
X64611336Y-53486416D01*
X63875252Y-53340000D01*
X63124748Y-53340000D01*
X62388664Y-53486416D01*
X61695288Y-53773622D01*
X61071267Y-54190580D01*
X60540580Y-54721267D01*
X60123622Y-55345288D01*
X59836416Y-56038664D01*
X59817000Y-56136275D01*
X59817000Y-45690000D01*
X69181928Y-45690000D01*
X69181928Y-48290000D01*
X69194188Y-48414482D01*
X69230498Y-48534180D01*
X69289463Y-48644494D01*
X69368815Y-48741185D01*
X69465506Y-48820537D01*
X69532500Y-48856347D01*
X69532501Y-90843653D01*
X69465506Y-90879463D01*
X69368815Y-90958815D01*
X69289463Y-91055506D01*
X69230498Y-91165820D01*
X69194188Y-91285518D01*
X69181928Y-91410000D01*
X69181928Y-94010000D01*
X69194188Y-94134482D01*
X69230498Y-94254180D01*
X69289463Y-94364494D01*
X69368815Y-94461185D01*
X69465506Y-94540537D01*
X69532500Y-94576347D01*
X69532501Y-108623653D01*
X69465506Y-108659463D01*
X69368815Y-108738815D01*
X69289463Y-108835506D01*
X69230498Y-108945820D01*
X69194188Y-109065518D01*
X69181928Y-109190000D01*
X69181928Y-111790000D01*
X69194188Y-111914482D01*
X69230498Y-112034180D01*
X69289463Y-112144494D01*
X69368815Y-112241185D01*
X69465506Y-112320537D01*
X69575820Y-112379502D01*
X69695518Y-112415812D01*
X69820000Y-112428072D01*
X72420000Y-112428072D01*
X72544482Y-112415812D01*
X72664180Y-112379502D01*
X72774494Y-112320537D01*
X72871185Y-112241185D01*
X72950537Y-112144494D01*
X73009502Y-112034180D01*
X73045812Y-111914482D01*
X73058072Y-111790000D01*
X73058072Y-110997665D01*
X73069361Y-111054419D01*
X73215225Y-111406566D01*
X73426987Y-111723491D01*
X73696509Y-111993013D01*
X74013434Y-112204775D01*
X74365581Y-112350639D01*
X74739419Y-112425000D01*
X75120581Y-112425000D01*
X75494419Y-112350639D01*
X75846566Y-112204775D01*
X76163491Y-111993013D01*
X76433013Y-111723491D01*
X76644775Y-111406566D01*
X76790639Y-111054419D01*
X76835000Y-110831401D01*
X76879361Y-111054419D01*
X77025225Y-111406566D01*
X77236987Y-111723491D01*
X77506509Y-111993013D01*
X77823434Y-112204775D01*
X78175581Y-112350639D01*
X78549419Y-112425000D01*
X78930581Y-112425000D01*
X79304419Y-112350639D01*
X79656566Y-112204775D01*
X79973491Y-111993013D01*
X80243013Y-111723491D01*
X80454775Y-111406566D01*
X80600639Y-111054419D01*
X80645000Y-110831401D01*
X80689361Y-111054419D01*
X80835225Y-111406566D01*
X81046987Y-111723491D01*
X81316509Y-111993013D01*
X81633434Y-112204775D01*
X81985581Y-112350639D01*
X82359419Y-112425000D01*
X82740581Y-112425000D01*
X83114419Y-112350639D01*
X83466566Y-112204775D01*
X83783491Y-111993013D01*
X84053013Y-111723491D01*
X84264775Y-111406566D01*
X84410639Y-111054419D01*
X84455000Y-110831401D01*
X84499361Y-111054419D01*
X84645225Y-111406566D01*
X84856987Y-111723491D01*
X85126509Y-111993013D01*
X85443434Y-112204775D01*
X85795581Y-112350639D01*
X86169419Y-112425000D01*
X86550581Y-112425000D01*
X86924419Y-112350639D01*
X87276566Y-112204775D01*
X87593491Y-111993013D01*
X87863013Y-111723491D01*
X88074775Y-111406566D01*
X88220639Y-111054419D01*
X88265000Y-110831401D01*
X88309361Y-111054419D01*
X88455225Y-111406566D01*
X88666987Y-111723491D01*
X88936509Y-111993013D01*
X89253434Y-112204775D01*
X89605581Y-112350639D01*
X89979419Y-112425000D01*
X90360581Y-112425000D01*
X90734419Y-112350639D01*
X91086566Y-112204775D01*
X91403491Y-111993013D01*
X91673013Y-111723491D01*
X91884775Y-111406566D01*
X92030639Y-111054419D01*
X92105000Y-110680581D01*
X92105000Y-110299419D01*
X92030639Y-109925581D01*
X91884775Y-109573434D01*
X91757500Y-109382953D01*
X91757500Y-93817047D01*
X91884775Y-93626566D01*
X92030639Y-93274419D01*
X92105000Y-92900581D01*
X92105000Y-92519419D01*
X92030639Y-92145581D01*
X91884775Y-91793434D01*
X91757500Y-91602953D01*
X91757500Y-48097047D01*
X91884775Y-47906566D01*
X92030639Y-47554419D01*
X92105000Y-47180581D01*
X92105000Y-46799419D01*
X92030639Y-46425581D01*
X91884775Y-46073434D01*
X91673013Y-45756509D01*
X91606504Y-45690000D01*
X93311928Y-45690000D01*
X93311928Y-48290000D01*
X93324188Y-48414482D01*
X93360498Y-48534180D01*
X93419463Y-48644494D01*
X93498815Y-48741185D01*
X93595506Y-48820537D01*
X93662501Y-48856347D01*
X93662500Y-90843653D01*
X93595506Y-90879463D01*
X93498815Y-90958815D01*
X93419463Y-91055506D01*
X93360498Y-91165820D01*
X93324188Y-91285518D01*
X93311928Y-91410000D01*
X93311928Y-94010000D01*
X93324188Y-94134482D01*
X93360498Y-94254180D01*
X93419463Y-94364494D01*
X93498815Y-94461185D01*
X93595506Y-94540537D01*
X93662501Y-94576347D01*
X93662500Y-108623653D01*
X93595506Y-108659463D01*
X93498815Y-108738815D01*
X93419463Y-108835506D01*
X93360498Y-108945820D01*
X93324188Y-109065518D01*
X93311928Y-109190000D01*
X93311928Y-111790000D01*
X93324188Y-111914482D01*
X93360498Y-112034180D01*
X93419463Y-112144494D01*
X93498815Y-112241185D01*
X93595506Y-112320537D01*
X93705820Y-112379502D01*
X93825518Y-112415812D01*
X93950000Y-112428072D01*
X96550000Y-112428072D01*
X96674482Y-112415812D01*
X96794180Y-112379502D01*
X96904494Y-112320537D01*
X97001185Y-112241185D01*
X97080537Y-112144494D01*
X97139502Y-112034180D01*
X97175812Y-111914482D01*
X97188072Y-111790000D01*
X97188072Y-110997665D01*
X97199361Y-111054419D01*
X97345225Y-111406566D01*
X97556987Y-111723491D01*
X97826509Y-111993013D01*
X98143434Y-112204775D01*
X98495581Y-112350639D01*
X98869419Y-112425000D01*
X99250581Y-112425000D01*
X99624419Y-112350639D01*
X99976566Y-112204775D01*
X100293491Y-111993013D01*
X100563013Y-111723491D01*
X100774775Y-111406566D01*
X100920639Y-111054419D01*
X100965000Y-110831401D01*
X101009361Y-111054419D01*
X101155225Y-111406566D01*
X101366987Y-111723491D01*
X101636509Y-111993013D01*
X101953434Y-112204775D01*
X102305581Y-112350639D01*
X102679419Y-112425000D01*
X103060581Y-112425000D01*
X103434419Y-112350639D01*
X103786566Y-112204775D01*
X104103491Y-111993013D01*
X104373013Y-111723491D01*
X104584775Y-111406566D01*
X104730639Y-111054419D01*
X104775000Y-110831401D01*
X104819361Y-111054419D01*
X104965225Y-111406566D01*
X105176987Y-111723491D01*
X105446509Y-111993013D01*
X105763434Y-112204775D01*
X106115581Y-112350639D01*
X106489419Y-112425000D01*
X106870581Y-112425000D01*
X107021401Y-112395000D01*
X108554918Y-112395000D01*
X108648500Y-112404217D01*
X108742082Y-112395000D01*
X110148599Y-112395000D01*
X110299419Y-112425000D01*
X110680581Y-112425000D01*
X111054419Y-112350639D01*
X111406566Y-112204775D01*
X111723491Y-111993013D01*
X111993013Y-111723491D01*
X112204775Y-111406566D01*
X112350639Y-111054419D01*
X112395000Y-110831401D01*
X112439361Y-111054419D01*
X112585225Y-111406566D01*
X112796987Y-111723491D01*
X113066509Y-111993013D01*
X113383434Y-112204775D01*
X113735581Y-112350639D01*
X114109419Y-112425000D01*
X114490581Y-112425000D01*
X114864419Y-112350639D01*
X115216566Y-112204775D01*
X115533491Y-111993013D01*
X115803013Y-111723491D01*
X116014775Y-111406566D01*
X116160639Y-111054419D01*
X116235000Y-110680581D01*
X116235000Y-110299419D01*
X116160639Y-109925581D01*
X116014775Y-109573434D01*
X115887500Y-109382953D01*
X115887500Y-93817047D01*
X116014775Y-93626566D01*
X116160639Y-93274419D01*
X116235000Y-92900581D01*
X116235000Y-92519419D01*
X116160639Y-92145581D01*
X116014775Y-91793434D01*
X115887500Y-91602953D01*
X115887500Y-48097047D01*
X116014775Y-47906566D01*
X116160639Y-47554419D01*
X116235000Y-47180581D01*
X116235000Y-46799419D01*
X116160639Y-46425581D01*
X116014775Y-46073434D01*
X115803013Y-45756509D01*
X115736504Y-45690000D01*
X117441928Y-45690000D01*
X117441928Y-48290000D01*
X117454188Y-48414482D01*
X117490498Y-48534180D01*
X117549463Y-48644494D01*
X117628815Y-48741185D01*
X117725506Y-48820537D01*
X117792500Y-48856347D01*
X117792501Y-90843653D01*
X117725506Y-90879463D01*
X117628815Y-90958815D01*
X117549463Y-91055506D01*
X117490498Y-91165820D01*
X117454188Y-91285518D01*
X117441928Y-91410000D01*
X117441928Y-94010000D01*
X117454188Y-94134482D01*
X117490498Y-94254180D01*
X117549463Y-94364494D01*
X117628815Y-94461185D01*
X117725506Y-94540537D01*
X117792500Y-94576347D01*
X117792501Y-108623653D01*
X117725506Y-108659463D01*
X117628815Y-108738815D01*
X117549463Y-108835506D01*
X117490498Y-108945820D01*
X117454188Y-109065518D01*
X117441928Y-109190000D01*
X117441928Y-111790000D01*
X117454188Y-111914482D01*
X117490498Y-112034180D01*
X117549463Y-112144494D01*
X117628815Y-112241185D01*
X117725506Y-112320537D01*
X117835820Y-112379502D01*
X117955518Y-112415812D01*
X118080000Y-112428072D01*
X120680000Y-112428072D01*
X120804482Y-112415812D01*
X120924180Y-112379502D01*
X121034494Y-112320537D01*
X121131185Y-112241185D01*
X121210537Y-112144494D01*
X121269502Y-112034180D01*
X121305812Y-111914482D01*
X121318072Y-111790000D01*
X121318072Y-110997665D01*
X121329361Y-111054419D01*
X121475225Y-111406566D01*
X121686987Y-111723491D01*
X121956509Y-111993013D01*
X122273434Y-112204775D01*
X122625581Y-112350639D01*
X122999419Y-112425000D01*
X123380581Y-112425000D01*
X123754419Y-112350639D01*
X124106566Y-112204775D01*
X124423491Y-111993013D01*
X124693013Y-111723491D01*
X124904775Y-111406566D01*
X125050639Y-111054419D01*
X125095000Y-110831401D01*
X125139361Y-111054419D01*
X125285225Y-111406566D01*
X125496987Y-111723491D01*
X125766509Y-111993013D01*
X126083434Y-112204775D01*
X126435581Y-112350639D01*
X126809419Y-112425000D01*
X127190581Y-112425000D01*
X127564419Y-112350639D01*
X127916566Y-112204775D01*
X128233491Y-111993013D01*
X128503013Y-111723491D01*
X128714775Y-111406566D01*
X128860639Y-111054419D01*
X128905000Y-110831401D01*
X128949361Y-111054419D01*
X129095225Y-111406566D01*
X129306987Y-111723491D01*
X129576509Y-111993013D01*
X129893434Y-112204775D01*
X130245581Y-112350639D01*
X130619419Y-112425000D01*
X131000581Y-112425000D01*
X131374419Y-112350639D01*
X131726566Y-112204775D01*
X132043491Y-111993013D01*
X132313013Y-111723491D01*
X132524775Y-111406566D01*
X132670639Y-111054419D01*
X132715000Y-110831401D01*
X132759361Y-111054419D01*
X132905225Y-111406566D01*
X133116987Y-111723491D01*
X133386509Y-111993013D01*
X133703434Y-112204775D01*
X134055581Y-112350639D01*
X134429419Y-112425000D01*
X134810581Y-112425000D01*
X135184419Y-112350639D01*
X135536566Y-112204775D01*
X135853491Y-111993013D01*
X136123013Y-111723491D01*
X136334775Y-111406566D01*
X136480639Y-111054419D01*
X136525000Y-110831401D01*
X136569361Y-111054419D01*
X136715225Y-111406566D01*
X136926987Y-111723491D01*
X137196509Y-111993013D01*
X137513434Y-112204775D01*
X137865581Y-112350639D01*
X138239419Y-112425000D01*
X138620581Y-112425000D01*
X138994419Y-112350639D01*
X139346566Y-112204775D01*
X139663491Y-111993013D01*
X139933013Y-111723491D01*
X140144775Y-111406566D01*
X140290639Y-111054419D01*
X140365000Y-110680581D01*
X140365000Y-110299419D01*
X140290639Y-109925581D01*
X140144775Y-109573434D01*
X140017500Y-109382953D01*
X140017500Y-93817047D01*
X140144775Y-93626566D01*
X140290639Y-93274419D01*
X140365000Y-92900581D01*
X140365000Y-92519419D01*
X140290639Y-92145581D01*
X140144775Y-91793434D01*
X140017500Y-91602953D01*
X140017500Y-48097047D01*
X140144775Y-47906566D01*
X140290639Y-47554419D01*
X140365000Y-47180581D01*
X140365000Y-46799419D01*
X140290639Y-46425581D01*
X140144775Y-46073434D01*
X139933013Y-45756509D01*
X139866504Y-45690000D01*
X141571928Y-45690000D01*
X141571928Y-48290000D01*
X141584188Y-48414482D01*
X141620498Y-48534180D01*
X141679463Y-48644494D01*
X141758815Y-48741185D01*
X141855506Y-48820537D01*
X141922500Y-48856347D01*
X141922501Y-90843653D01*
X141855506Y-90879463D01*
X141758815Y-90958815D01*
X141679463Y-91055506D01*
X141620498Y-91165820D01*
X141584188Y-91285518D01*
X141571928Y-91410000D01*
X141571928Y-94010000D01*
X141584188Y-94134482D01*
X141620498Y-94254180D01*
X141679463Y-94364494D01*
X141758815Y-94461185D01*
X141855506Y-94540537D01*
X141922500Y-94576347D01*
X141922501Y-108623653D01*
X141855506Y-108659463D01*
X141758815Y-108738815D01*
X141679463Y-108835506D01*
X141620498Y-108945820D01*
X141584188Y-109065518D01*
X141571928Y-109190000D01*
X141571928Y-111790000D01*
X141584188Y-111914482D01*
X141620498Y-112034180D01*
X141679463Y-112144494D01*
X141758815Y-112241185D01*
X141855506Y-112320537D01*
X141965820Y-112379502D01*
X142085518Y-112415812D01*
X142210000Y-112428072D01*
X144810000Y-112428072D01*
X144934482Y-112415812D01*
X145054180Y-112379502D01*
X145164494Y-112320537D01*
X145261185Y-112241185D01*
X145340537Y-112144494D01*
X145399502Y-112034180D01*
X145435812Y-111914482D01*
X145448072Y-111790000D01*
X145448072Y-110997665D01*
X145459361Y-111054419D01*
X145605225Y-111406566D01*
X145816987Y-111723491D01*
X146086509Y-111993013D01*
X146403434Y-112204775D01*
X146755581Y-112350639D01*
X147129419Y-112425000D01*
X147510581Y-112425000D01*
X147884419Y-112350639D01*
X148236566Y-112204775D01*
X148553491Y-111993013D01*
X148823013Y-111723491D01*
X149034775Y-111406566D01*
X149180639Y-111054419D01*
X149225000Y-110831401D01*
X149269361Y-111054419D01*
X149415225Y-111406566D01*
X149626987Y-111723491D01*
X149896509Y-111993013D01*
X150213434Y-112204775D01*
X150565581Y-112350639D01*
X150939419Y-112425000D01*
X151320581Y-112425000D01*
X151694419Y-112350639D01*
X152046566Y-112204775D01*
X152363491Y-111993013D01*
X152633013Y-111723491D01*
X152844775Y-111406566D01*
X152990639Y-111054419D01*
X153035000Y-110831401D01*
X153079361Y-111054419D01*
X153225225Y-111406566D01*
X153436987Y-111723491D01*
X153706509Y-111993013D01*
X154023434Y-112204775D01*
X154375581Y-112350639D01*
X154749419Y-112425000D01*
X155130581Y-112425000D01*
X155504419Y-112350639D01*
X155856566Y-112204775D01*
X156173491Y-111993013D01*
X156443013Y-111723491D01*
X156654775Y-111406566D01*
X156800639Y-111054419D01*
X156845000Y-110831401D01*
X156889361Y-111054419D01*
X157035225Y-111406566D01*
X157246987Y-111723491D01*
X157516509Y-111993013D01*
X157833434Y-112204775D01*
X158185581Y-112350639D01*
X158559419Y-112425000D01*
X158940581Y-112425000D01*
X159314419Y-112350639D01*
X159666566Y-112204775D01*
X159983491Y-111993013D01*
X160253013Y-111723491D01*
X160464775Y-111406566D01*
X160610639Y-111054419D01*
X160655000Y-110831401D01*
X160699361Y-111054419D01*
X160845225Y-111406566D01*
X161056987Y-111723491D01*
X161326509Y-111993013D01*
X161643434Y-112204775D01*
X161995581Y-112350639D01*
X162369419Y-112425000D01*
X162750581Y-112425000D01*
X163124419Y-112350639D01*
X163476566Y-112204775D01*
X163793491Y-111993013D01*
X164063013Y-111723491D01*
X164274775Y-111406566D01*
X164420639Y-111054419D01*
X164495000Y-110680581D01*
X164495000Y-110299419D01*
X164420639Y-109925581D01*
X164274775Y-109573434D01*
X164147500Y-109382953D01*
X164147500Y-93817047D01*
X164274775Y-93626566D01*
X164420639Y-93274419D01*
X164495000Y-92900581D01*
X164495000Y-92519419D01*
X164420639Y-92145581D01*
X164274775Y-91793434D01*
X164147500Y-91602953D01*
X164147500Y-48097047D01*
X164274775Y-47906566D01*
X164420639Y-47554419D01*
X164495000Y-47180581D01*
X164495000Y-46799419D01*
X164420639Y-46425581D01*
X164274775Y-46073434D01*
X164063013Y-45756509D01*
X163996504Y-45690000D01*
X165701928Y-45690000D01*
X165701928Y-48290000D01*
X165714188Y-48414482D01*
X165750498Y-48534180D01*
X165809463Y-48644494D01*
X165888815Y-48741185D01*
X165985506Y-48820537D01*
X166052500Y-48856347D01*
X166052501Y-90843653D01*
X165985506Y-90879463D01*
X165888815Y-90958815D01*
X165809463Y-91055506D01*
X165750498Y-91165820D01*
X165714188Y-91285518D01*
X165701928Y-91410000D01*
X165701928Y-94010000D01*
X165714188Y-94134482D01*
X165750498Y-94254180D01*
X165809463Y-94364494D01*
X165888815Y-94461185D01*
X165985506Y-94540537D01*
X166052500Y-94576347D01*
X166052501Y-108623653D01*
X165985506Y-108659463D01*
X165888815Y-108738815D01*
X165809463Y-108835506D01*
X165750498Y-108945820D01*
X165714188Y-109065518D01*
X165701928Y-109190000D01*
X165701928Y-111790000D01*
X165714188Y-111914482D01*
X165750498Y-112034180D01*
X165809463Y-112144494D01*
X165888815Y-112241185D01*
X165985506Y-112320537D01*
X166095820Y-112379502D01*
X166215518Y-112415812D01*
X166340000Y-112428072D01*
X168940000Y-112428072D01*
X169064482Y-112415812D01*
X169184180Y-112379502D01*
X169294494Y-112320537D01*
X169391185Y-112241185D01*
X169470537Y-112144494D01*
X169529502Y-112034180D01*
X169565812Y-111914482D01*
X169578072Y-111790000D01*
X169578072Y-110997665D01*
X169589361Y-111054419D01*
X169735225Y-111406566D01*
X169946987Y-111723491D01*
X170216509Y-111993013D01*
X170533434Y-112204775D01*
X170885581Y-112350639D01*
X171259419Y-112425000D01*
X171640581Y-112425000D01*
X172014419Y-112350639D01*
X172366566Y-112204775D01*
X172683491Y-111993013D01*
X172953013Y-111723491D01*
X173164775Y-111406566D01*
X173310639Y-111054419D01*
X173355000Y-110831401D01*
X173399361Y-111054419D01*
X173545225Y-111406566D01*
X173756987Y-111723491D01*
X174026509Y-111993013D01*
X174343434Y-112204775D01*
X174695581Y-112350639D01*
X175069419Y-112425000D01*
X175450581Y-112425000D01*
X175824419Y-112350639D01*
X176176566Y-112204775D01*
X176493491Y-111993013D01*
X176763013Y-111723491D01*
X176974775Y-111406566D01*
X177120639Y-111054419D01*
X177165000Y-110831401D01*
X177209361Y-111054419D01*
X177355225Y-111406566D01*
X177566987Y-111723491D01*
X177836509Y-111993013D01*
X178153434Y-112204775D01*
X178505581Y-112350639D01*
X178879419Y-112425000D01*
X179260581Y-112425000D01*
X179634419Y-112350639D01*
X179986566Y-112204775D01*
X180303491Y-111993013D01*
X180573013Y-111723491D01*
X180784775Y-111406566D01*
X180930639Y-111054419D01*
X180975000Y-110831401D01*
X181019361Y-111054419D01*
X181165225Y-111406566D01*
X181376987Y-111723491D01*
X181646509Y-111993013D01*
X181963434Y-112204775D01*
X182315581Y-112350639D01*
X182689419Y-112425000D01*
X183070581Y-112425000D01*
X183444419Y-112350639D01*
X183796566Y-112204775D01*
X184113491Y-111993013D01*
X184383013Y-111723491D01*
X184594775Y-111406566D01*
X184740639Y-111054419D01*
X184785000Y-110831401D01*
X184829361Y-111054419D01*
X184975225Y-111406566D01*
X185186987Y-111723491D01*
X185456509Y-111993013D01*
X185773434Y-112204775D01*
X186125581Y-112350639D01*
X186499419Y-112425000D01*
X186880581Y-112425000D01*
X187254419Y-112350639D01*
X187606566Y-112204775D01*
X187923491Y-111993013D01*
X188193013Y-111723491D01*
X188404775Y-111406566D01*
X188550639Y-111054419D01*
X188625000Y-110680581D01*
X188625000Y-110299419D01*
X188550639Y-109925581D01*
X188404775Y-109573434D01*
X188277500Y-109382953D01*
X188277500Y-93817047D01*
X188404775Y-93626566D01*
X188550639Y-93274419D01*
X188625000Y-92900581D01*
X188625000Y-92519419D01*
X188550639Y-92145581D01*
X188404775Y-91793434D01*
X188277500Y-91602953D01*
X188277500Y-48097047D01*
X188404775Y-47906566D01*
X188550639Y-47554419D01*
X188625000Y-47180581D01*
X188625000Y-46799419D01*
X188550639Y-46425581D01*
X188404775Y-46073434D01*
X188193013Y-45756509D01*
X188126504Y-45690000D01*
X189831928Y-45690000D01*
X189831928Y-48290000D01*
X189844188Y-48414482D01*
X189880498Y-48534180D01*
X189939463Y-48644494D01*
X190018815Y-48741185D01*
X190115506Y-48820537D01*
X190182500Y-48856347D01*
X190182501Y-90843653D01*
X190115506Y-90879463D01*
X190018815Y-90958815D01*
X189939463Y-91055506D01*
X189880498Y-91165820D01*
X189844188Y-91285518D01*
X189831928Y-91410000D01*
X189831928Y-94010000D01*
X189844188Y-94134482D01*
X189880498Y-94254180D01*
X189939463Y-94364494D01*
X190018815Y-94461185D01*
X190115506Y-94540537D01*
X190182500Y-94576347D01*
X190182501Y-108623653D01*
X190115506Y-108659463D01*
X190018815Y-108738815D01*
X189939463Y-108835506D01*
X189880498Y-108945820D01*
X189844188Y-109065518D01*
X189831928Y-109190000D01*
X189831928Y-111790000D01*
X189844188Y-111914482D01*
X189880498Y-112034180D01*
X189939463Y-112144494D01*
X190018815Y-112241185D01*
X190115506Y-112320537D01*
X190225820Y-112379502D01*
X190345518Y-112415812D01*
X190470000Y-112428072D01*
X193070000Y-112428072D01*
X193194482Y-112415812D01*
X193314180Y-112379502D01*
X193424494Y-112320537D01*
X193521185Y-112241185D01*
X193600537Y-112144494D01*
X193659502Y-112034180D01*
X193695812Y-111914482D01*
X193708072Y-111790000D01*
X193708072Y-110997665D01*
X193719361Y-111054419D01*
X193865225Y-111406566D01*
X194076987Y-111723491D01*
X194346509Y-111993013D01*
X194663434Y-112204775D01*
X195015581Y-112350639D01*
X195389419Y-112425000D01*
X195770581Y-112425000D01*
X196144419Y-112350639D01*
X196496566Y-112204775D01*
X196813491Y-111993013D01*
X197083013Y-111723491D01*
X197294775Y-111406566D01*
X197440639Y-111054419D01*
X197485000Y-110831401D01*
X197529361Y-111054419D01*
X197675225Y-111406566D01*
X197886987Y-111723491D01*
X198156509Y-111993013D01*
X198473434Y-112204775D01*
X198825581Y-112350639D01*
X199199419Y-112425000D01*
X199580581Y-112425000D01*
X199954419Y-112350639D01*
X200306566Y-112204775D01*
X200623491Y-111993013D01*
X200893013Y-111723491D01*
X201104775Y-111406566D01*
X201250639Y-111054419D01*
X201295000Y-110831401D01*
X201339361Y-111054419D01*
X201485225Y-111406566D01*
X201696987Y-111723491D01*
X201966509Y-111993013D01*
X202283434Y-112204775D01*
X202635581Y-112350639D01*
X203009419Y-112425000D01*
X203390581Y-112425000D01*
X203764419Y-112350639D01*
X204116566Y-112204775D01*
X204433491Y-111993013D01*
X204703013Y-111723491D01*
X204914775Y-111406566D01*
X205060639Y-111054419D01*
X205105000Y-110831401D01*
X205149361Y-111054419D01*
X205295225Y-111406566D01*
X205506987Y-111723491D01*
X205776509Y-111993013D01*
X206093434Y-112204775D01*
X206445581Y-112350639D01*
X206819419Y-112425000D01*
X207200581Y-112425000D01*
X207574419Y-112350639D01*
X207926566Y-112204775D01*
X208243491Y-111993013D01*
X208397280Y-111839224D01*
X209650381Y-111839224D01*
X209782317Y-112134312D01*
X210123045Y-112305159D01*
X210490557Y-112406250D01*
X210870729Y-112433701D01*
X211248951Y-112386457D01*
X211610690Y-112266333D01*
X211857683Y-112134312D01*
X211989619Y-111839224D01*
X210820000Y-110669605D01*
X209650381Y-111839224D01*
X208397280Y-111839224D01*
X208513013Y-111723491D01*
X208724775Y-111406566D01*
X208870639Y-111054419D01*
X208913530Y-110838791D01*
X208923543Y-110918951D01*
X209043667Y-111280690D01*
X209175688Y-111527683D01*
X209470776Y-111659619D01*
X210640395Y-110490000D01*
X210999605Y-110490000D01*
X212169224Y-111659619D01*
X212464312Y-111527683D01*
X212635159Y-111186955D01*
X212736250Y-110819443D01*
X212763701Y-110439271D01*
X212716457Y-110061049D01*
X212596333Y-109699310D01*
X212464312Y-109452317D01*
X212169224Y-109320381D01*
X210999605Y-110490000D01*
X210640395Y-110490000D01*
X209470776Y-109320381D01*
X209175688Y-109452317D01*
X209004841Y-109793045D01*
X208911659Y-110131803D01*
X208870639Y-109925581D01*
X208724775Y-109573434D01*
X208597500Y-109382953D01*
X208597500Y-109140776D01*
X209650381Y-109140776D01*
X210820000Y-110310395D01*
X211989619Y-109140776D01*
X211857683Y-108845688D01*
X211516955Y-108674841D01*
X211149443Y-108573750D01*
X210769271Y-108546299D01*
X210391049Y-108593543D01*
X210029310Y-108713667D01*
X209782317Y-108845688D01*
X209650381Y-109140776D01*
X208597500Y-109140776D01*
X208597500Y-94059224D01*
X209650381Y-94059224D01*
X209782317Y-94354312D01*
X210123045Y-94525159D01*
X210490557Y-94626250D01*
X210870729Y-94653701D01*
X211248951Y-94606457D01*
X211610690Y-94486333D01*
X211857683Y-94354312D01*
X211989619Y-94059224D01*
X210820000Y-92889605D01*
X209650381Y-94059224D01*
X208597500Y-94059224D01*
X208597500Y-93817047D01*
X208724775Y-93626566D01*
X208870639Y-93274419D01*
X208913530Y-93058791D01*
X208923543Y-93138951D01*
X209043667Y-93500690D01*
X209175688Y-93747683D01*
X209470776Y-93879619D01*
X210640395Y-92710000D01*
X210999605Y-92710000D01*
X212169224Y-93879619D01*
X212464312Y-93747683D01*
X212635159Y-93406955D01*
X212736250Y-93039443D01*
X212763701Y-92659271D01*
X212716457Y-92281049D01*
X212596333Y-91919310D01*
X212464312Y-91672317D01*
X212169224Y-91540381D01*
X210999605Y-92710000D01*
X210640395Y-92710000D01*
X209470776Y-91540381D01*
X209175688Y-91672317D01*
X209004841Y-92013045D01*
X208911659Y-92351803D01*
X208870639Y-92145581D01*
X208724775Y-91793434D01*
X208597500Y-91602953D01*
X208597500Y-91360776D01*
X209650381Y-91360776D01*
X210820000Y-92530395D01*
X211989619Y-91360776D01*
X211857683Y-91065688D01*
X211516955Y-90894841D01*
X211149443Y-90793750D01*
X210769271Y-90766299D01*
X210391049Y-90813543D01*
X210029310Y-90933667D01*
X209782317Y-91065688D01*
X209650381Y-91360776D01*
X208597500Y-91360776D01*
X208597500Y-48339224D01*
X209650381Y-48339224D01*
X209782317Y-48634312D01*
X210123045Y-48805159D01*
X210490557Y-48906250D01*
X210870729Y-48933701D01*
X211248951Y-48886457D01*
X211610690Y-48766333D01*
X211857683Y-48634312D01*
X211989619Y-48339224D01*
X210820000Y-47169605D01*
X209650381Y-48339224D01*
X208597500Y-48339224D01*
X208597500Y-48097047D01*
X208724775Y-47906566D01*
X208870639Y-47554419D01*
X208913530Y-47338791D01*
X208923543Y-47418951D01*
X209043667Y-47780690D01*
X209175688Y-48027683D01*
X209470776Y-48159619D01*
X210640395Y-46990000D01*
X210999605Y-46990000D01*
X212169224Y-48159619D01*
X212464312Y-48027683D01*
X212635159Y-47686955D01*
X212736250Y-47319443D01*
X212763701Y-46939271D01*
X212716457Y-46561049D01*
X212596333Y-46199310D01*
X212464312Y-45952317D01*
X212169224Y-45820381D01*
X210999605Y-46990000D01*
X210640395Y-46990000D01*
X209470776Y-45820381D01*
X209175688Y-45952317D01*
X209004841Y-46293045D01*
X208911659Y-46631803D01*
X208870639Y-46425581D01*
X208724775Y-46073434D01*
X208513013Y-45756509D01*
X208397280Y-45640776D01*
X209650381Y-45640776D01*
X210820000Y-46810395D01*
X211989619Y-45640776D01*
X211857683Y-45345688D01*
X211516955Y-45174841D01*
X211149443Y-45073750D01*
X210769271Y-45046299D01*
X210391049Y-45093543D01*
X210029310Y-45213667D01*
X209782317Y-45345688D01*
X209650381Y-45640776D01*
X208397280Y-45640776D01*
X208243491Y-45486987D01*
X207926566Y-45275225D01*
X207574419Y-45129361D01*
X207200581Y-45055000D01*
X206819419Y-45055000D01*
X206445581Y-45129361D01*
X206093434Y-45275225D01*
X205776509Y-45486987D01*
X205506987Y-45756509D01*
X205295225Y-46073434D01*
X205149361Y-46425581D01*
X205105000Y-46648599D01*
X205060639Y-46425581D01*
X204914775Y-46073434D01*
X204703013Y-45756509D01*
X204433491Y-45486987D01*
X204116566Y-45275225D01*
X203764419Y-45129361D01*
X203390581Y-45055000D01*
X203009419Y-45055000D01*
X202635581Y-45129361D01*
X202283434Y-45275225D01*
X201966509Y-45486987D01*
X201696987Y-45756509D01*
X201485225Y-46073434D01*
X201339361Y-46425581D01*
X201295000Y-46648599D01*
X201250639Y-46425581D01*
X201104775Y-46073434D01*
X200893013Y-45756509D01*
X200623491Y-45486987D01*
X200306566Y-45275225D01*
X199954419Y-45129361D01*
X199580581Y-45055000D01*
X199199419Y-45055000D01*
X198825581Y-45129361D01*
X198473434Y-45275225D01*
X198156509Y-45486987D01*
X197886987Y-45756509D01*
X197675225Y-46073434D01*
X197529361Y-46425581D01*
X197485000Y-46648599D01*
X197440639Y-46425581D01*
X197294775Y-46073434D01*
X197083013Y-45756509D01*
X196813491Y-45486987D01*
X196496566Y-45275225D01*
X196144419Y-45129361D01*
X195770581Y-45055000D01*
X195389419Y-45055000D01*
X195015581Y-45129361D01*
X194663434Y-45275225D01*
X194346509Y-45486987D01*
X194076987Y-45756509D01*
X193865225Y-46073434D01*
X193719361Y-46425581D01*
X193708072Y-46482335D01*
X193708072Y-45690000D01*
X193695812Y-45565518D01*
X193659502Y-45445820D01*
X193600537Y-45335506D01*
X193521185Y-45238815D01*
X193424494Y-45159463D01*
X193314180Y-45100498D01*
X193194482Y-45064188D01*
X193070000Y-45051928D01*
X190470000Y-45051928D01*
X190345518Y-45064188D01*
X190225820Y-45100498D01*
X190115506Y-45159463D01*
X190018815Y-45238815D01*
X189939463Y-45335506D01*
X189880498Y-45445820D01*
X189844188Y-45565518D01*
X189831928Y-45690000D01*
X188126504Y-45690000D01*
X187923491Y-45486987D01*
X187606566Y-45275225D01*
X187254419Y-45129361D01*
X186880581Y-45055000D01*
X186499419Y-45055000D01*
X186125581Y-45129361D01*
X185773434Y-45275225D01*
X185456509Y-45486987D01*
X185186987Y-45756509D01*
X184975225Y-46073434D01*
X184829361Y-46425581D01*
X184785000Y-46648599D01*
X184740639Y-46425581D01*
X184594775Y-46073434D01*
X184383013Y-45756509D01*
X184113491Y-45486987D01*
X183796566Y-45275225D01*
X183444419Y-45129361D01*
X183070581Y-45055000D01*
X182689419Y-45055000D01*
X182315581Y-45129361D01*
X181963434Y-45275225D01*
X181646509Y-45486987D01*
X181376987Y-45756509D01*
X181165225Y-46073434D01*
X181019361Y-46425581D01*
X180975000Y-46648599D01*
X180930639Y-46425581D01*
X180784775Y-46073434D01*
X180573013Y-45756509D01*
X180303491Y-45486987D01*
X179986566Y-45275225D01*
X179634419Y-45129361D01*
X179260581Y-45055000D01*
X178879419Y-45055000D01*
X178505581Y-45129361D01*
X178153434Y-45275225D01*
X177836509Y-45486987D01*
X177566987Y-45756509D01*
X177355225Y-46073434D01*
X177209361Y-46425581D01*
X177165000Y-46648599D01*
X177120639Y-46425581D01*
X176974775Y-46073434D01*
X176763013Y-45756509D01*
X176493491Y-45486987D01*
X176176566Y-45275225D01*
X175824419Y-45129361D01*
X175450581Y-45055000D01*
X175069419Y-45055000D01*
X174695581Y-45129361D01*
X174343434Y-45275225D01*
X174026509Y-45486987D01*
X173756987Y-45756509D01*
X173545225Y-46073434D01*
X173399361Y-46425581D01*
X173355000Y-46648599D01*
X173310639Y-46425581D01*
X173164775Y-46073434D01*
X172953013Y-45756509D01*
X172683491Y-45486987D01*
X172366566Y-45275225D01*
X172014419Y-45129361D01*
X171640581Y-45055000D01*
X171259419Y-45055000D01*
X170885581Y-45129361D01*
X170533434Y-45275225D01*
X170216509Y-45486987D01*
X169946987Y-45756509D01*
X169735225Y-46073434D01*
X169589361Y-46425581D01*
X169578072Y-46482335D01*
X169578072Y-45690000D01*
X169565812Y-45565518D01*
X169529502Y-45445820D01*
X169470537Y-45335506D01*
X169391185Y-45238815D01*
X169294494Y-45159463D01*
X169184180Y-45100498D01*
X169064482Y-45064188D01*
X168940000Y-45051928D01*
X166340000Y-45051928D01*
X166215518Y-45064188D01*
X166095820Y-45100498D01*
X165985506Y-45159463D01*
X165888815Y-45238815D01*
X165809463Y-45335506D01*
X165750498Y-45445820D01*
X165714188Y-45565518D01*
X165701928Y-45690000D01*
X163996504Y-45690000D01*
X163793491Y-45486987D01*
X163476566Y-45275225D01*
X163124419Y-45129361D01*
X162750581Y-45055000D01*
X162369419Y-45055000D01*
X161995581Y-45129361D01*
X161643434Y-45275225D01*
X161326509Y-45486987D01*
X161056987Y-45756509D01*
X160845225Y-46073434D01*
X160699361Y-46425581D01*
X160655000Y-46648599D01*
X160610639Y-46425581D01*
X160464775Y-46073434D01*
X160253013Y-45756509D01*
X159983491Y-45486987D01*
X159666566Y-45275225D01*
X159314419Y-45129361D01*
X158940581Y-45055000D01*
X158559419Y-45055000D01*
X158185581Y-45129361D01*
X157833434Y-45275225D01*
X157516509Y-45486987D01*
X157246987Y-45756509D01*
X157035225Y-46073434D01*
X156889361Y-46425581D01*
X156845000Y-46648599D01*
X156800639Y-46425581D01*
X156654775Y-46073434D01*
X156443013Y-45756509D01*
X156173491Y-45486987D01*
X155856566Y-45275225D01*
X155504419Y-45129361D01*
X155130581Y-45055000D01*
X154749419Y-45055000D01*
X154375581Y-45129361D01*
X154023434Y-45275225D01*
X153706509Y-45486987D01*
X153436987Y-45756509D01*
X153225225Y-46073434D01*
X153079361Y-46425581D01*
X153035000Y-46648599D01*
X152990639Y-46425581D01*
X152844775Y-46073434D01*
X152633013Y-45756509D01*
X152363491Y-45486987D01*
X152046566Y-45275225D01*
X151694419Y-45129361D01*
X151320581Y-45055000D01*
X150939419Y-45055000D01*
X150565581Y-45129361D01*
X150213434Y-45275225D01*
X149896509Y-45486987D01*
X149626987Y-45756509D01*
X149415225Y-46073434D01*
X149269361Y-46425581D01*
X149225000Y-46648599D01*
X149180639Y-46425581D01*
X149034775Y-46073434D01*
X148823013Y-45756509D01*
X148553491Y-45486987D01*
X148236566Y-45275225D01*
X147884419Y-45129361D01*
X147510581Y-45055000D01*
X147129419Y-45055000D01*
X146755581Y-45129361D01*
X146403434Y-45275225D01*
X146086509Y-45486987D01*
X145816987Y-45756509D01*
X145605225Y-46073434D01*
X145459361Y-46425581D01*
X145448072Y-46482335D01*
X145448072Y-45690000D01*
X145435812Y-45565518D01*
X145399502Y-45445820D01*
X145340537Y-45335506D01*
X145261185Y-45238815D01*
X145164494Y-45159463D01*
X145054180Y-45100498D01*
X144934482Y-45064188D01*
X144810000Y-45051928D01*
X142210000Y-45051928D01*
X142085518Y-45064188D01*
X141965820Y-45100498D01*
X141855506Y-45159463D01*
X141758815Y-45238815D01*
X141679463Y-45335506D01*
X141620498Y-45445820D01*
X141584188Y-45565518D01*
X141571928Y-45690000D01*
X139866504Y-45690000D01*
X139663491Y-45486987D01*
X139346566Y-45275225D01*
X138994419Y-45129361D01*
X138620581Y-45055000D01*
X138239419Y-45055000D01*
X137865581Y-45129361D01*
X137513434Y-45275225D01*
X137196509Y-45486987D01*
X136926987Y-45756509D01*
X136715225Y-46073434D01*
X136569361Y-46425581D01*
X136525000Y-46648599D01*
X136480639Y-46425581D01*
X136334775Y-46073434D01*
X136123013Y-45756509D01*
X135853491Y-45486987D01*
X135536566Y-45275225D01*
X135184419Y-45129361D01*
X134810581Y-45055000D01*
X134429419Y-45055000D01*
X134055581Y-45129361D01*
X133703434Y-45275225D01*
X133386509Y-45486987D01*
X133116987Y-45756509D01*
X132905225Y-46073434D01*
X132759361Y-46425581D01*
X132715000Y-46648599D01*
X132670639Y-46425581D01*
X132524775Y-46073434D01*
X132313013Y-45756509D01*
X132043491Y-45486987D01*
X131726566Y-45275225D01*
X131374419Y-45129361D01*
X131000581Y-45055000D01*
X130619419Y-45055000D01*
X130245581Y-45129361D01*
X129893434Y-45275225D01*
X129576509Y-45486987D01*
X129306987Y-45756509D01*
X129095225Y-46073434D01*
X128949361Y-46425581D01*
X128905000Y-46648599D01*
X128860639Y-46425581D01*
X128714775Y-46073434D01*
X128503013Y-45756509D01*
X128233491Y-45486987D01*
X127916566Y-45275225D01*
X127564419Y-45129361D01*
X127190581Y-45055000D01*
X126809419Y-45055000D01*
X126435581Y-45129361D01*
X126083434Y-45275225D01*
X125766509Y-45486987D01*
X125496987Y-45756509D01*
X125285225Y-46073434D01*
X125139361Y-46425581D01*
X125095000Y-46648599D01*
X125050639Y-46425581D01*
X124904775Y-46073434D01*
X124693013Y-45756509D01*
X124423491Y-45486987D01*
X124106566Y-45275225D01*
X123754419Y-45129361D01*
X123380581Y-45055000D01*
X122999419Y-45055000D01*
X122625581Y-45129361D01*
X122273434Y-45275225D01*
X121956509Y-45486987D01*
X121686987Y-45756509D01*
X121475225Y-46073434D01*
X121329361Y-46425581D01*
X121318072Y-46482335D01*
X121318072Y-45690000D01*
X121305812Y-45565518D01*
X121269502Y-45445820D01*
X121210537Y-45335506D01*
X121131185Y-45238815D01*
X121034494Y-45159463D01*
X120924180Y-45100498D01*
X120804482Y-45064188D01*
X120680000Y-45051928D01*
X118080000Y-45051928D01*
X117955518Y-45064188D01*
X117835820Y-45100498D01*
X117725506Y-45159463D01*
X117628815Y-45238815D01*
X117549463Y-45335506D01*
X117490498Y-45445820D01*
X117454188Y-45565518D01*
X117441928Y-45690000D01*
X115736504Y-45690000D01*
X115533491Y-45486987D01*
X115216566Y-45275225D01*
X114864419Y-45129361D01*
X114490581Y-45055000D01*
X114109419Y-45055000D01*
X113735581Y-45129361D01*
X113383434Y-45275225D01*
X113066509Y-45486987D01*
X112796987Y-45756509D01*
X112585225Y-46073434D01*
X112439361Y-46425581D01*
X112395000Y-46648599D01*
X112350639Y-46425581D01*
X112204775Y-46073434D01*
X111993013Y-45756509D01*
X111723491Y-45486987D01*
X111406566Y-45275225D01*
X111054419Y-45129361D01*
X110680581Y-45055000D01*
X110299419Y-45055000D01*
X110148599Y-45085000D01*
X108742082Y-45085000D01*
X108648500Y-45075783D01*
X108554918Y-45085000D01*
X107021401Y-45085000D01*
X106870581Y-45055000D01*
X106489419Y-45055000D01*
X106115581Y-45129361D01*
X105763434Y-45275225D01*
X105446509Y-45486987D01*
X105176987Y-45756509D01*
X104965225Y-46073434D01*
X104819361Y-46425581D01*
X104775000Y-46648599D01*
X104730639Y-46425581D01*
X104584775Y-46073434D01*
X104373013Y-45756509D01*
X104103491Y-45486987D01*
X103786566Y-45275225D01*
X103434419Y-45129361D01*
X103060581Y-45055000D01*
X102679419Y-45055000D01*
X102305581Y-45129361D01*
X101953434Y-45275225D01*
X101636509Y-45486987D01*
X101366987Y-45756509D01*
X101155225Y-46073434D01*
X101009361Y-46425581D01*
X100965000Y-46648599D01*
X100920639Y-46425581D01*
X100774775Y-46073434D01*
X100563013Y-45756509D01*
X100293491Y-45486987D01*
X99976566Y-45275225D01*
X99624419Y-45129361D01*
X99250581Y-45055000D01*
X98869419Y-45055000D01*
X98495581Y-45129361D01*
X98143434Y-45275225D01*
X97826509Y-45486987D01*
X97556987Y-45756509D01*
X97345225Y-46073434D01*
X97199361Y-46425581D01*
X97188072Y-46482335D01*
X97188072Y-45690000D01*
X97175812Y-45565518D01*
X97139502Y-45445820D01*
X97080537Y-45335506D01*
X97001185Y-45238815D01*
X96904494Y-45159463D01*
X96794180Y-45100498D01*
X96674482Y-45064188D01*
X96550000Y-45051928D01*
X93950000Y-45051928D01*
X93825518Y-45064188D01*
X93705820Y-45100498D01*
X93595506Y-45159463D01*
X93498815Y-45238815D01*
X93419463Y-45335506D01*
X93360498Y-45445820D01*
X93324188Y-45565518D01*
X93311928Y-45690000D01*
X91606504Y-45690000D01*
X91403491Y-45486987D01*
X91086566Y-45275225D01*
X90734419Y-45129361D01*
X90360581Y-45055000D01*
X89979419Y-45055000D01*
X89605581Y-45129361D01*
X89253434Y-45275225D01*
X88936509Y-45486987D01*
X88666987Y-45756509D01*
X88455225Y-46073434D01*
X88309361Y-46425581D01*
X88265000Y-46648599D01*
X88220639Y-46425581D01*
X88074775Y-46073434D01*
X87863013Y-45756509D01*
X87593491Y-45486987D01*
X87276566Y-45275225D01*
X86924419Y-45129361D01*
X86550581Y-45055000D01*
X86169419Y-45055000D01*
X85795581Y-45129361D01*
X85443434Y-45275225D01*
X85126509Y-45486987D01*
X84856987Y-45756509D01*
X84645225Y-46073434D01*
X84499361Y-46425581D01*
X84455000Y-46648599D01*
X84410639Y-46425581D01*
X84264775Y-46073434D01*
X84053013Y-45756509D01*
X83783491Y-45486987D01*
X83466566Y-45275225D01*
X83114419Y-45129361D01*
X82740581Y-45055000D01*
X82359419Y-45055000D01*
X81985581Y-45129361D01*
X81633434Y-45275225D01*
X81316509Y-45486987D01*
X81046987Y-45756509D01*
X80835225Y-46073434D01*
X80689361Y-46425581D01*
X80645000Y-46648599D01*
X80600639Y-46425581D01*
X80454775Y-46073434D01*
X80243013Y-45756509D01*
X79973491Y-45486987D01*
X79656566Y-45275225D01*
X79304419Y-45129361D01*
X78930581Y-45055000D01*
X78549419Y-45055000D01*
X78175581Y-45129361D01*
X77823434Y-45275225D01*
X77506509Y-45486987D01*
X77236987Y-45756509D01*
X77025225Y-46073434D01*
X76879361Y-46425581D01*
X76835000Y-46648599D01*
X76790639Y-46425581D01*
X76644775Y-46073434D01*
X76433013Y-45756509D01*
X76163491Y-45486987D01*
X75846566Y-45275225D01*
X75494419Y-45129361D01*
X75120581Y-45055000D01*
X74739419Y-45055000D01*
X74365581Y-45129361D01*
X74013434Y-45275225D01*
X73696509Y-45486987D01*
X73426987Y-45756509D01*
X73215225Y-46073434D01*
X73069361Y-46425581D01*
X73058072Y-46482335D01*
X73058072Y-45690000D01*
X73045812Y-45565518D01*
X73009502Y-45445820D01*
X72950537Y-45335506D01*
X72871185Y-45238815D01*
X72774494Y-45159463D01*
X72664180Y-45100498D01*
X72544482Y-45064188D01*
X72420000Y-45051928D01*
X69820000Y-45051928D01*
X69695518Y-45064188D01*
X69575820Y-45100498D01*
X69465506Y-45159463D01*
X69368815Y-45238815D01*
X69289463Y-45335506D01*
X69230498Y-45445820D01*
X69194188Y-45565518D01*
X69181928Y-45690000D01*
X59817000Y-45690000D01*
X59817000Y-43307000D01*
X220853000Y-43307000D01*
X220853000Y-56136275D01*
G37*
X220853000Y-56136275D02*
X220833584Y-56038664D01*
X220546378Y-55345288D01*
X220129420Y-54721267D01*
X219598733Y-54190580D01*
X218974712Y-53773622D01*
X218281336Y-53486416D01*
X217545252Y-53340000D01*
X216794748Y-53340000D01*
X216058664Y-53486416D01*
X215365288Y-53773622D01*
X214741267Y-54190580D01*
X214210580Y-54721267D01*
X213793622Y-55345288D01*
X213506416Y-56038664D01*
X213360000Y-56774748D01*
X213360000Y-57525252D01*
X213506416Y-58261336D01*
X213793622Y-58954712D01*
X214210580Y-59578733D01*
X214741267Y-60109420D01*
X215365288Y-60526378D01*
X216058664Y-60813584D01*
X216794748Y-60960000D01*
X217545252Y-60960000D01*
X218281336Y-60813584D01*
X218974712Y-60526378D01*
X219598733Y-60109420D01*
X220129420Y-59578733D01*
X220546378Y-58954712D01*
X220833584Y-58261336D01*
X220853000Y-58163725D01*
X220853000Y-100586275D01*
X220833584Y-100488664D01*
X220546378Y-99795288D01*
X220129420Y-99171267D01*
X219598733Y-98640580D01*
X218974712Y-98223622D01*
X218281336Y-97936416D01*
X217545252Y-97790000D01*
X216794748Y-97790000D01*
X216058664Y-97936416D01*
X215365288Y-98223622D01*
X214741267Y-98640580D01*
X214210580Y-99171267D01*
X213793622Y-99795288D01*
X213506416Y-100488664D01*
X213360000Y-101224748D01*
X213360000Y-101975252D01*
X213506416Y-102711336D01*
X213793622Y-103404712D01*
X214210580Y-104028733D01*
X214741267Y-104559420D01*
X215365288Y-104976378D01*
X216058664Y-105263584D01*
X216794748Y-105410000D01*
X217545252Y-105410000D01*
X218281336Y-105263584D01*
X218974712Y-104976378D01*
X219598733Y-104559420D01*
X220129420Y-104028733D01*
X220546378Y-103404712D01*
X220833584Y-102711336D01*
X220853000Y-102613725D01*
X220853000Y-114173000D01*
X59817000Y-114173000D01*
X59817000Y-102613725D01*
X59836416Y-102711336D01*
X60123622Y-103404712D01*
X60540580Y-104028733D01*
X61071267Y-104559420D01*
X61695288Y-104976378D01*
X62388664Y-105263584D01*
X63124748Y-105410000D01*
X63875252Y-105410000D01*
X64611336Y-105263584D01*
X65304712Y-104976378D01*
X65928733Y-104559420D01*
X66459420Y-104028733D01*
X66876378Y-103404712D01*
X67163584Y-102711336D01*
X67310000Y-101975252D01*
X67310000Y-101224748D01*
X67163584Y-100488664D01*
X66876378Y-99795288D01*
X66459420Y-99171267D01*
X65928733Y-98640580D01*
X65304712Y-98223622D01*
X64611336Y-97936416D01*
X63875252Y-97790000D01*
X63124748Y-97790000D01*
X62388664Y-97936416D01*
X61695288Y-98223622D01*
X61071267Y-98640580D01*
X60540580Y-99171267D01*
X60123622Y-99795288D01*
X59836416Y-100488664D01*
X59817000Y-100586275D01*
X59817000Y-58163725D01*
X59836416Y-58261336D01*
X60123622Y-58954712D01*
X60540580Y-59578733D01*
X61071267Y-60109420D01*
X61695288Y-60526378D01*
X62388664Y-60813584D01*
X63124748Y-60960000D01*
X63875252Y-60960000D01*
X64611336Y-60813584D01*
X65304712Y-60526378D01*
X65928733Y-60109420D01*
X66459420Y-59578733D01*
X66876378Y-58954712D01*
X67163584Y-58261336D01*
X67310000Y-57525252D01*
X67310000Y-56774748D01*
X67163584Y-56038664D01*
X66876378Y-55345288D01*
X66459420Y-54721267D01*
X65928733Y-54190580D01*
X65304712Y-53773622D01*
X64611336Y-53486416D01*
X63875252Y-53340000D01*
X63124748Y-53340000D01*
X62388664Y-53486416D01*
X61695288Y-53773622D01*
X61071267Y-54190580D01*
X60540580Y-54721267D01*
X60123622Y-55345288D01*
X59836416Y-56038664D01*
X59817000Y-56136275D01*
X59817000Y-45690000D01*
X69181928Y-45690000D01*
X69181928Y-48290000D01*
X69194188Y-48414482D01*
X69230498Y-48534180D01*
X69289463Y-48644494D01*
X69368815Y-48741185D01*
X69465506Y-48820537D01*
X69532500Y-48856347D01*
X69532501Y-90843653D01*
X69465506Y-90879463D01*
X69368815Y-90958815D01*
X69289463Y-91055506D01*
X69230498Y-91165820D01*
X69194188Y-91285518D01*
X69181928Y-91410000D01*
X69181928Y-94010000D01*
X69194188Y-94134482D01*
X69230498Y-94254180D01*
X69289463Y-94364494D01*
X69368815Y-94461185D01*
X69465506Y-94540537D01*
X69532500Y-94576347D01*
X69532501Y-108623653D01*
X69465506Y-108659463D01*
X69368815Y-108738815D01*
X69289463Y-108835506D01*
X69230498Y-108945820D01*
X69194188Y-109065518D01*
X69181928Y-109190000D01*
X69181928Y-111790000D01*
X69194188Y-111914482D01*
X69230498Y-112034180D01*
X69289463Y-112144494D01*
X69368815Y-112241185D01*
X69465506Y-112320537D01*
X69575820Y-112379502D01*
X69695518Y-112415812D01*
X69820000Y-112428072D01*
X72420000Y-112428072D01*
X72544482Y-112415812D01*
X72664180Y-112379502D01*
X72774494Y-112320537D01*
X72871185Y-112241185D01*
X72950537Y-112144494D01*
X73009502Y-112034180D01*
X73045812Y-111914482D01*
X73058072Y-111790000D01*
X73058072Y-110997665D01*
X73069361Y-111054419D01*
X73215225Y-111406566D01*
X73426987Y-111723491D01*
X73696509Y-111993013D01*
X74013434Y-112204775D01*
X74365581Y-112350639D01*
X74739419Y-112425000D01*
X75120581Y-112425000D01*
X75494419Y-112350639D01*
X75846566Y-112204775D01*
X76163491Y-111993013D01*
X76433013Y-111723491D01*
X76644775Y-111406566D01*
X76790639Y-111054419D01*
X76835000Y-110831401D01*
X76879361Y-111054419D01*
X77025225Y-111406566D01*
X77236987Y-111723491D01*
X77506509Y-111993013D01*
X77823434Y-112204775D01*
X78175581Y-112350639D01*
X78549419Y-112425000D01*
X78930581Y-112425000D01*
X79304419Y-112350639D01*
X79656566Y-112204775D01*
X79973491Y-111993013D01*
X80243013Y-111723491D01*
X80454775Y-111406566D01*
X80600639Y-111054419D01*
X80645000Y-110831401D01*
X80689361Y-111054419D01*
X80835225Y-111406566D01*
X81046987Y-111723491D01*
X81316509Y-111993013D01*
X81633434Y-112204775D01*
X81985581Y-112350639D01*
X82359419Y-112425000D01*
X82740581Y-112425000D01*
X83114419Y-112350639D01*
X83466566Y-112204775D01*
X83783491Y-111993013D01*
X84053013Y-111723491D01*
X84264775Y-111406566D01*
X84410639Y-111054419D01*
X84455000Y-110831401D01*
X84499361Y-111054419D01*
X84645225Y-111406566D01*
X84856987Y-111723491D01*
X85126509Y-111993013D01*
X85443434Y-112204775D01*
X85795581Y-112350639D01*
X86169419Y-112425000D01*
X86550581Y-112425000D01*
X86924419Y-112350639D01*
X87276566Y-112204775D01*
X87593491Y-111993013D01*
X87863013Y-111723491D01*
X88074775Y-111406566D01*
X88220639Y-111054419D01*
X88265000Y-110831401D01*
X88309361Y-111054419D01*
X88455225Y-111406566D01*
X88666987Y-111723491D01*
X88936509Y-111993013D01*
X89253434Y-112204775D01*
X89605581Y-112350639D01*
X89979419Y-112425000D01*
X90360581Y-112425000D01*
X90734419Y-112350639D01*
X91086566Y-112204775D01*
X91403491Y-111993013D01*
X91673013Y-111723491D01*
X91884775Y-111406566D01*
X92030639Y-111054419D01*
X92105000Y-110680581D01*
X92105000Y-110299419D01*
X92030639Y-109925581D01*
X91884775Y-109573434D01*
X91757500Y-109382953D01*
X91757500Y-93817047D01*
X91884775Y-93626566D01*
X92030639Y-93274419D01*
X92105000Y-92900581D01*
X92105000Y-92519419D01*
X92030639Y-92145581D01*
X91884775Y-91793434D01*
X91757500Y-91602953D01*
X91757500Y-48097047D01*
X91884775Y-47906566D01*
X92030639Y-47554419D01*
X92105000Y-47180581D01*
X92105000Y-46799419D01*
X92030639Y-46425581D01*
X91884775Y-46073434D01*
X91673013Y-45756509D01*
X91606504Y-45690000D01*
X93311928Y-45690000D01*
X93311928Y-48290000D01*
X93324188Y-48414482D01*
X93360498Y-48534180D01*
X93419463Y-48644494D01*
X93498815Y-48741185D01*
X93595506Y-48820537D01*
X93662501Y-48856347D01*
X93662500Y-90843653D01*
X93595506Y-90879463D01*
X93498815Y-90958815D01*
X93419463Y-91055506D01*
X93360498Y-91165820D01*
X93324188Y-91285518D01*
X93311928Y-91410000D01*
X93311928Y-94010000D01*
X93324188Y-94134482D01*
X93360498Y-94254180D01*
X93419463Y-94364494D01*
X93498815Y-94461185D01*
X93595506Y-94540537D01*
X93662501Y-94576347D01*
X93662500Y-108623653D01*
X93595506Y-108659463D01*
X93498815Y-108738815D01*
X93419463Y-108835506D01*
X93360498Y-108945820D01*
X93324188Y-109065518D01*
X93311928Y-109190000D01*
X93311928Y-111790000D01*
X93324188Y-111914482D01*
X93360498Y-112034180D01*
X93419463Y-112144494D01*
X93498815Y-112241185D01*
X93595506Y-112320537D01*
X93705820Y-112379502D01*
X93825518Y-112415812D01*
X93950000Y-112428072D01*
X96550000Y-112428072D01*
X96674482Y-112415812D01*
X96794180Y-112379502D01*
X96904494Y-112320537D01*
X97001185Y-112241185D01*
X97080537Y-112144494D01*
X97139502Y-112034180D01*
X97175812Y-111914482D01*
X97188072Y-111790000D01*
X97188072Y-110997665D01*
X97199361Y-111054419D01*
X97345225Y-111406566D01*
X97556987Y-111723491D01*
X97826509Y-111993013D01*
X98143434Y-112204775D01*
X98495581Y-112350639D01*
X98869419Y-112425000D01*
X99250581Y-112425000D01*
X99624419Y-112350639D01*
X99976566Y-112204775D01*
X100293491Y-111993013D01*
X100563013Y-111723491D01*
X100774775Y-111406566D01*
X100920639Y-111054419D01*
X100965000Y-110831401D01*
X101009361Y-111054419D01*
X101155225Y-111406566D01*
X101366987Y-111723491D01*
X101636509Y-111993013D01*
X101953434Y-112204775D01*
X102305581Y-112350639D01*
X102679419Y-112425000D01*
X103060581Y-112425000D01*
X103434419Y-112350639D01*
X103786566Y-112204775D01*
X104103491Y-111993013D01*
X104373013Y-111723491D01*
X104584775Y-111406566D01*
X104730639Y-111054419D01*
X104775000Y-110831401D01*
X104819361Y-111054419D01*
X104965225Y-111406566D01*
X105176987Y-111723491D01*
X105446509Y-111993013D01*
X105763434Y-112204775D01*
X106115581Y-112350639D01*
X106489419Y-112425000D01*
X106870581Y-112425000D01*
X107021401Y-112395000D01*
X108554918Y-112395000D01*
X108648500Y-112404217D01*
X108742082Y-112395000D01*
X110148599Y-112395000D01*
X110299419Y-112425000D01*
X110680581Y-112425000D01*
X111054419Y-112350639D01*
X111406566Y-112204775D01*
X111723491Y-111993013D01*
X111993013Y-111723491D01*
X112204775Y-111406566D01*
X112350639Y-111054419D01*
X112395000Y-110831401D01*
X112439361Y-111054419D01*
X112585225Y-111406566D01*
X112796987Y-111723491D01*
X113066509Y-111993013D01*
X113383434Y-112204775D01*
X113735581Y-112350639D01*
X114109419Y-112425000D01*
X114490581Y-112425000D01*
X114864419Y-112350639D01*
X115216566Y-112204775D01*
X115533491Y-111993013D01*
X115803013Y-111723491D01*
X116014775Y-111406566D01*
X116160639Y-111054419D01*
X116235000Y-110680581D01*
X116235000Y-110299419D01*
X116160639Y-109925581D01*
X116014775Y-109573434D01*
X115887500Y-109382953D01*
X115887500Y-93817047D01*
X116014775Y-93626566D01*
X116160639Y-93274419D01*
X116235000Y-92900581D01*
X116235000Y-92519419D01*
X116160639Y-92145581D01*
X116014775Y-91793434D01*
X115887500Y-91602953D01*
X115887500Y-48097047D01*
X116014775Y-47906566D01*
X116160639Y-47554419D01*
X116235000Y-47180581D01*
X116235000Y-46799419D01*
X116160639Y-46425581D01*
X116014775Y-46073434D01*
X115803013Y-45756509D01*
X115736504Y-45690000D01*
X117441928Y-45690000D01*
X117441928Y-48290000D01*
X117454188Y-48414482D01*
X117490498Y-48534180D01*
X117549463Y-48644494D01*
X117628815Y-48741185D01*
X117725506Y-48820537D01*
X117792500Y-48856347D01*
X117792501Y-90843653D01*
X117725506Y-90879463D01*
X117628815Y-90958815D01*
X117549463Y-91055506D01*
X117490498Y-91165820D01*
X117454188Y-91285518D01*
X117441928Y-91410000D01*
X117441928Y-94010000D01*
X117454188Y-94134482D01*
X117490498Y-94254180D01*
X117549463Y-94364494D01*
X117628815Y-94461185D01*
X117725506Y-94540537D01*
X117792500Y-94576347D01*
X117792501Y-108623653D01*
X117725506Y-108659463D01*
X117628815Y-108738815D01*
X117549463Y-108835506D01*
X117490498Y-108945820D01*
X117454188Y-109065518D01*
X117441928Y-109190000D01*
X117441928Y-111790000D01*
X117454188Y-111914482D01*
X117490498Y-112034180D01*
X117549463Y-112144494D01*
X117628815Y-112241185D01*
X117725506Y-112320537D01*
X117835820Y-112379502D01*
X117955518Y-112415812D01*
X118080000Y-112428072D01*
X120680000Y-112428072D01*
X120804482Y-112415812D01*
X120924180Y-112379502D01*
X121034494Y-112320537D01*
X121131185Y-112241185D01*
X121210537Y-112144494D01*
X121269502Y-112034180D01*
X121305812Y-111914482D01*
X121318072Y-111790000D01*
X121318072Y-110997665D01*
X121329361Y-111054419D01*
X121475225Y-111406566D01*
X121686987Y-111723491D01*
X121956509Y-111993013D01*
X122273434Y-112204775D01*
X122625581Y-112350639D01*
X122999419Y-112425000D01*
X123380581Y-112425000D01*
X123754419Y-112350639D01*
X124106566Y-112204775D01*
X124423491Y-111993013D01*
X124693013Y-111723491D01*
X124904775Y-111406566D01*
X125050639Y-111054419D01*
X125095000Y-110831401D01*
X125139361Y-111054419D01*
X125285225Y-111406566D01*
X125496987Y-111723491D01*
X125766509Y-111993013D01*
X126083434Y-112204775D01*
X126435581Y-112350639D01*
X126809419Y-112425000D01*
X127190581Y-112425000D01*
X127564419Y-112350639D01*
X127916566Y-112204775D01*
X128233491Y-111993013D01*
X128503013Y-111723491D01*
X128714775Y-111406566D01*
X128860639Y-111054419D01*
X128905000Y-110831401D01*
X128949361Y-111054419D01*
X129095225Y-111406566D01*
X129306987Y-111723491D01*
X129576509Y-111993013D01*
X129893434Y-112204775D01*
X130245581Y-112350639D01*
X130619419Y-112425000D01*
X131000581Y-112425000D01*
X131374419Y-112350639D01*
X131726566Y-112204775D01*
X132043491Y-111993013D01*
X132313013Y-111723491D01*
X132524775Y-111406566D01*
X132670639Y-111054419D01*
X132715000Y-110831401D01*
X132759361Y-111054419D01*
X132905225Y-111406566D01*
X133116987Y-111723491D01*
X133386509Y-111993013D01*
X133703434Y-112204775D01*
X134055581Y-112350639D01*
X134429419Y-112425000D01*
X134810581Y-112425000D01*
X135184419Y-112350639D01*
X135536566Y-112204775D01*
X135853491Y-111993013D01*
X136123013Y-111723491D01*
X136334775Y-111406566D01*
X136480639Y-111054419D01*
X136525000Y-110831401D01*
X136569361Y-111054419D01*
X136715225Y-111406566D01*
X136926987Y-111723491D01*
X137196509Y-111993013D01*
X137513434Y-112204775D01*
X137865581Y-112350639D01*
X138239419Y-112425000D01*
X138620581Y-112425000D01*
X138994419Y-112350639D01*
X139346566Y-112204775D01*
X139663491Y-111993013D01*
X139933013Y-111723491D01*
X140144775Y-111406566D01*
X140290639Y-111054419D01*
X140365000Y-110680581D01*
X140365000Y-110299419D01*
X140290639Y-109925581D01*
X140144775Y-109573434D01*
X140017500Y-109382953D01*
X140017500Y-93817047D01*
X140144775Y-93626566D01*
X140290639Y-93274419D01*
X140365000Y-92900581D01*
X140365000Y-92519419D01*
X140290639Y-92145581D01*
X140144775Y-91793434D01*
X140017500Y-91602953D01*
X140017500Y-48097047D01*
X140144775Y-47906566D01*
X140290639Y-47554419D01*
X140365000Y-47180581D01*
X140365000Y-46799419D01*
X140290639Y-46425581D01*
X140144775Y-46073434D01*
X139933013Y-45756509D01*
X139866504Y-45690000D01*
X141571928Y-45690000D01*
X141571928Y-48290000D01*
X141584188Y-48414482D01*
X141620498Y-48534180D01*
X141679463Y-48644494D01*
X141758815Y-48741185D01*
X141855506Y-48820537D01*
X141922500Y-48856347D01*
X141922501Y-90843653D01*
X141855506Y-90879463D01*
X141758815Y-90958815D01*
X141679463Y-91055506D01*
X141620498Y-91165820D01*
X141584188Y-91285518D01*
X141571928Y-91410000D01*
X141571928Y-94010000D01*
X141584188Y-94134482D01*
X141620498Y-94254180D01*
X141679463Y-94364494D01*
X141758815Y-94461185D01*
X141855506Y-94540537D01*
X141922500Y-94576347D01*
X141922501Y-108623653D01*
X141855506Y-108659463D01*
X141758815Y-108738815D01*
X141679463Y-108835506D01*
X141620498Y-108945820D01*
X141584188Y-109065518D01*
X141571928Y-109190000D01*
X141571928Y-111790000D01*
X141584188Y-111914482D01*
X141620498Y-112034180D01*
X141679463Y-112144494D01*
X141758815Y-112241185D01*
X141855506Y-112320537D01*
X141965820Y-112379502D01*
X142085518Y-112415812D01*
X142210000Y-112428072D01*
X144810000Y-112428072D01*
X144934482Y-112415812D01*
X145054180Y-112379502D01*
X145164494Y-112320537D01*
X145261185Y-112241185D01*
X145340537Y-112144494D01*
X145399502Y-112034180D01*
X145435812Y-111914482D01*
X145448072Y-111790000D01*
X145448072Y-110997665D01*
X145459361Y-111054419D01*
X145605225Y-111406566D01*
X145816987Y-111723491D01*
X146086509Y-111993013D01*
X146403434Y-112204775D01*
X146755581Y-112350639D01*
X147129419Y-112425000D01*
X147510581Y-112425000D01*
X147884419Y-112350639D01*
X148236566Y-112204775D01*
X148553491Y-111993013D01*
X148823013Y-111723491D01*
X149034775Y-111406566D01*
X149180639Y-111054419D01*
X149225000Y-110831401D01*
X149269361Y-111054419D01*
X149415225Y-111406566D01*
X149626987Y-111723491D01*
X149896509Y-111993013D01*
X150213434Y-112204775D01*
X150565581Y-112350639D01*
X150939419Y-112425000D01*
X151320581Y-112425000D01*
X151694419Y-112350639D01*
X152046566Y-112204775D01*
X152363491Y-111993013D01*
X152633013Y-111723491D01*
X152844775Y-111406566D01*
X152990639Y-111054419D01*
X153035000Y-110831401D01*
X153079361Y-111054419D01*
X153225225Y-111406566D01*
X153436987Y-111723491D01*
X153706509Y-111993013D01*
X154023434Y-112204775D01*
X154375581Y-112350639D01*
X154749419Y-112425000D01*
X155130581Y-112425000D01*
X155504419Y-112350639D01*
X155856566Y-112204775D01*
X156173491Y-111993013D01*
X156443013Y-111723491D01*
X156654775Y-111406566D01*
X156800639Y-111054419D01*
X156845000Y-110831401D01*
X156889361Y-111054419D01*
X157035225Y-111406566D01*
X157246987Y-111723491D01*
X157516509Y-111993013D01*
X157833434Y-112204775D01*
X158185581Y-112350639D01*
X158559419Y-112425000D01*
X158940581Y-112425000D01*
X159314419Y-112350639D01*
X159666566Y-112204775D01*
X159983491Y-111993013D01*
X160253013Y-111723491D01*
X160464775Y-111406566D01*
X160610639Y-111054419D01*
X160655000Y-110831401D01*
X160699361Y-111054419D01*
X160845225Y-111406566D01*
X161056987Y-111723491D01*
X161326509Y-111993013D01*
X161643434Y-112204775D01*
X161995581Y-112350639D01*
X162369419Y-112425000D01*
X162750581Y-112425000D01*
X163124419Y-112350639D01*
X163476566Y-112204775D01*
X163793491Y-111993013D01*
X164063013Y-111723491D01*
X164274775Y-111406566D01*
X164420639Y-111054419D01*
X164495000Y-110680581D01*
X164495000Y-110299419D01*
X164420639Y-109925581D01*
X164274775Y-109573434D01*
X164147500Y-109382953D01*
X164147500Y-93817047D01*
X164274775Y-93626566D01*
X164420639Y-93274419D01*
X164495000Y-92900581D01*
X164495000Y-92519419D01*
X164420639Y-92145581D01*
X164274775Y-91793434D01*
X164147500Y-91602953D01*
X164147500Y-48097047D01*
X164274775Y-47906566D01*
X164420639Y-47554419D01*
X164495000Y-47180581D01*
X164495000Y-46799419D01*
X164420639Y-46425581D01*
X164274775Y-46073434D01*
X164063013Y-45756509D01*
X163996504Y-45690000D01*
X165701928Y-45690000D01*
X165701928Y-48290000D01*
X165714188Y-48414482D01*
X165750498Y-48534180D01*
X165809463Y-48644494D01*
X165888815Y-48741185D01*
X165985506Y-48820537D01*
X166052500Y-48856347D01*
X166052501Y-90843653D01*
X165985506Y-90879463D01*
X165888815Y-90958815D01*
X165809463Y-91055506D01*
X165750498Y-91165820D01*
X165714188Y-91285518D01*
X165701928Y-91410000D01*
X165701928Y-94010000D01*
X165714188Y-94134482D01*
X165750498Y-94254180D01*
X165809463Y-94364494D01*
X165888815Y-94461185D01*
X165985506Y-94540537D01*
X166052500Y-94576347D01*
X166052501Y-108623653D01*
X165985506Y-108659463D01*
X165888815Y-108738815D01*
X165809463Y-108835506D01*
X165750498Y-108945820D01*
X165714188Y-109065518D01*
X165701928Y-109190000D01*
X165701928Y-111790000D01*
X165714188Y-111914482D01*
X165750498Y-112034180D01*
X165809463Y-112144494D01*
X165888815Y-112241185D01*
X165985506Y-112320537D01*
X166095820Y-112379502D01*
X166215518Y-112415812D01*
X166340000Y-112428072D01*
X168940000Y-112428072D01*
X169064482Y-112415812D01*
X169184180Y-112379502D01*
X169294494Y-112320537D01*
X169391185Y-112241185D01*
X169470537Y-112144494D01*
X169529502Y-112034180D01*
X169565812Y-111914482D01*
X169578072Y-111790000D01*
X169578072Y-110997665D01*
X169589361Y-111054419D01*
X169735225Y-111406566D01*
X169946987Y-111723491D01*
X170216509Y-111993013D01*
X170533434Y-112204775D01*
X170885581Y-112350639D01*
X171259419Y-112425000D01*
X171640581Y-112425000D01*
X172014419Y-112350639D01*
X172366566Y-112204775D01*
X172683491Y-111993013D01*
X172953013Y-111723491D01*
X173164775Y-111406566D01*
X173310639Y-111054419D01*
X173355000Y-110831401D01*
X173399361Y-111054419D01*
X173545225Y-111406566D01*
X173756987Y-111723491D01*
X174026509Y-111993013D01*
X174343434Y-112204775D01*
X174695581Y-112350639D01*
X175069419Y-112425000D01*
X175450581Y-112425000D01*
X175824419Y-112350639D01*
X176176566Y-112204775D01*
X176493491Y-111993013D01*
X176763013Y-111723491D01*
X176974775Y-111406566D01*
X177120639Y-111054419D01*
X177165000Y-110831401D01*
X177209361Y-111054419D01*
X177355225Y-111406566D01*
X177566987Y-111723491D01*
X177836509Y-111993013D01*
X178153434Y-112204775D01*
X178505581Y-112350639D01*
X178879419Y-112425000D01*
X179260581Y-112425000D01*
X179634419Y-112350639D01*
X179986566Y-112204775D01*
X180303491Y-111993013D01*
X180573013Y-111723491D01*
X180784775Y-111406566D01*
X180930639Y-111054419D01*
X180975000Y-110831401D01*
X181019361Y-111054419D01*
X181165225Y-111406566D01*
X181376987Y-111723491D01*
X181646509Y-111993013D01*
X181963434Y-112204775D01*
X182315581Y-112350639D01*
X182689419Y-112425000D01*
X183070581Y-112425000D01*
X183444419Y-112350639D01*
X183796566Y-112204775D01*
X184113491Y-111993013D01*
X184383013Y-111723491D01*
X184594775Y-111406566D01*
X184740639Y-111054419D01*
X184785000Y-110831401D01*
X184829361Y-111054419D01*
X184975225Y-111406566D01*
X185186987Y-111723491D01*
X185456509Y-111993013D01*
X185773434Y-112204775D01*
X186125581Y-112350639D01*
X186499419Y-112425000D01*
X186880581Y-112425000D01*
X187254419Y-112350639D01*
X187606566Y-112204775D01*
X187923491Y-111993013D01*
X188193013Y-111723491D01*
X188404775Y-111406566D01*
X188550639Y-111054419D01*
X188625000Y-110680581D01*
X188625000Y-110299419D01*
X188550639Y-109925581D01*
X188404775Y-109573434D01*
X188277500Y-109382953D01*
X188277500Y-93817047D01*
X188404775Y-93626566D01*
X188550639Y-93274419D01*
X188625000Y-92900581D01*
X188625000Y-92519419D01*
X188550639Y-92145581D01*
X188404775Y-91793434D01*
X188277500Y-91602953D01*
X188277500Y-48097047D01*
X188404775Y-47906566D01*
X188550639Y-47554419D01*
X188625000Y-47180581D01*
X188625000Y-46799419D01*
X188550639Y-46425581D01*
X188404775Y-46073434D01*
X188193013Y-45756509D01*
X188126504Y-45690000D01*
X189831928Y-45690000D01*
X189831928Y-48290000D01*
X189844188Y-48414482D01*
X189880498Y-48534180D01*
X189939463Y-48644494D01*
X190018815Y-48741185D01*
X190115506Y-48820537D01*
X190182500Y-48856347D01*
X190182501Y-90843653D01*
X190115506Y-90879463D01*
X190018815Y-90958815D01*
X189939463Y-91055506D01*
X189880498Y-91165820D01*
X189844188Y-91285518D01*
X189831928Y-91410000D01*
X189831928Y-94010000D01*
X189844188Y-94134482D01*
X189880498Y-94254180D01*
X189939463Y-94364494D01*
X190018815Y-94461185D01*
X190115506Y-94540537D01*
X190182500Y-94576347D01*
X190182501Y-108623653D01*
X190115506Y-108659463D01*
X190018815Y-108738815D01*
X189939463Y-108835506D01*
X189880498Y-108945820D01*
X189844188Y-109065518D01*
X189831928Y-109190000D01*
X189831928Y-111790000D01*
X189844188Y-111914482D01*
X189880498Y-112034180D01*
X189939463Y-112144494D01*
X190018815Y-112241185D01*
X190115506Y-112320537D01*
X190225820Y-112379502D01*
X190345518Y-112415812D01*
X190470000Y-112428072D01*
X193070000Y-112428072D01*
X193194482Y-112415812D01*
X193314180Y-112379502D01*
X193424494Y-112320537D01*
X193521185Y-112241185D01*
X193600537Y-112144494D01*
X193659502Y-112034180D01*
X193695812Y-111914482D01*
X193708072Y-111790000D01*
X193708072Y-110997665D01*
X193719361Y-111054419D01*
X193865225Y-111406566D01*
X194076987Y-111723491D01*
X194346509Y-111993013D01*
X194663434Y-112204775D01*
X195015581Y-112350639D01*
X195389419Y-112425000D01*
X195770581Y-112425000D01*
X196144419Y-112350639D01*
X196496566Y-112204775D01*
X196813491Y-111993013D01*
X197083013Y-111723491D01*
X197294775Y-111406566D01*
X197440639Y-111054419D01*
X197485000Y-110831401D01*
X197529361Y-111054419D01*
X197675225Y-111406566D01*
X197886987Y-111723491D01*
X198156509Y-111993013D01*
X198473434Y-112204775D01*
X198825581Y-112350639D01*
X199199419Y-112425000D01*
X199580581Y-112425000D01*
X199954419Y-112350639D01*
X200306566Y-112204775D01*
X200623491Y-111993013D01*
X200893013Y-111723491D01*
X201104775Y-111406566D01*
X201250639Y-111054419D01*
X201295000Y-110831401D01*
X201339361Y-111054419D01*
X201485225Y-111406566D01*
X201696987Y-111723491D01*
X201966509Y-111993013D01*
X202283434Y-112204775D01*
X202635581Y-112350639D01*
X203009419Y-112425000D01*
X203390581Y-112425000D01*
X203764419Y-112350639D01*
X204116566Y-112204775D01*
X204433491Y-111993013D01*
X204703013Y-111723491D01*
X204914775Y-111406566D01*
X205060639Y-111054419D01*
X205105000Y-110831401D01*
X205149361Y-111054419D01*
X205295225Y-111406566D01*
X205506987Y-111723491D01*
X205776509Y-111993013D01*
X206093434Y-112204775D01*
X206445581Y-112350639D01*
X206819419Y-112425000D01*
X207200581Y-112425000D01*
X207574419Y-112350639D01*
X207926566Y-112204775D01*
X208243491Y-111993013D01*
X208397280Y-111839224D01*
X209650381Y-111839224D01*
X209782317Y-112134312D01*
X210123045Y-112305159D01*
X210490557Y-112406250D01*
X210870729Y-112433701D01*
X211248951Y-112386457D01*
X211610690Y-112266333D01*
X211857683Y-112134312D01*
X211989619Y-111839224D01*
X210820000Y-110669605D01*
X209650381Y-111839224D01*
X208397280Y-111839224D01*
X208513013Y-111723491D01*
X208724775Y-111406566D01*
X208870639Y-111054419D01*
X208913530Y-110838791D01*
X208923543Y-110918951D01*
X209043667Y-111280690D01*
X209175688Y-111527683D01*
X209470776Y-111659619D01*
X210640395Y-110490000D01*
X210999605Y-110490000D01*
X212169224Y-111659619D01*
X212464312Y-111527683D01*
X212635159Y-111186955D01*
X212736250Y-110819443D01*
X212763701Y-110439271D01*
X212716457Y-110061049D01*
X212596333Y-109699310D01*
X212464312Y-109452317D01*
X212169224Y-109320381D01*
X210999605Y-110490000D01*
X210640395Y-110490000D01*
X209470776Y-109320381D01*
X209175688Y-109452317D01*
X209004841Y-109793045D01*
X208911659Y-110131803D01*
X208870639Y-109925581D01*
X208724775Y-109573434D01*
X208597500Y-109382953D01*
X208597500Y-109140776D01*
X209650381Y-109140776D01*
X210820000Y-110310395D01*
X211989619Y-109140776D01*
X211857683Y-108845688D01*
X211516955Y-108674841D01*
X211149443Y-108573750D01*
X210769271Y-108546299D01*
X210391049Y-108593543D01*
X210029310Y-108713667D01*
X209782317Y-108845688D01*
X209650381Y-109140776D01*
X208597500Y-109140776D01*
X208597500Y-94059224D01*
X209650381Y-94059224D01*
X209782317Y-94354312D01*
X210123045Y-94525159D01*
X210490557Y-94626250D01*
X210870729Y-94653701D01*
X211248951Y-94606457D01*
X211610690Y-94486333D01*
X211857683Y-94354312D01*
X211989619Y-94059224D01*
X210820000Y-92889605D01*
X209650381Y-94059224D01*
X208597500Y-94059224D01*
X208597500Y-93817047D01*
X208724775Y-93626566D01*
X208870639Y-93274419D01*
X208913530Y-93058791D01*
X208923543Y-93138951D01*
X209043667Y-93500690D01*
X209175688Y-93747683D01*
X209470776Y-93879619D01*
X210640395Y-92710000D01*
X210999605Y-92710000D01*
X212169224Y-93879619D01*
X212464312Y-93747683D01*
X212635159Y-93406955D01*
X212736250Y-93039443D01*
X212763701Y-92659271D01*
X212716457Y-92281049D01*
X212596333Y-91919310D01*
X212464312Y-91672317D01*
X212169224Y-91540381D01*
X210999605Y-92710000D01*
X210640395Y-92710000D01*
X209470776Y-91540381D01*
X209175688Y-91672317D01*
X209004841Y-92013045D01*
X208911659Y-92351803D01*
X208870639Y-92145581D01*
X208724775Y-91793434D01*
X208597500Y-91602953D01*
X208597500Y-91360776D01*
X209650381Y-91360776D01*
X210820000Y-92530395D01*
X211989619Y-91360776D01*
X211857683Y-91065688D01*
X211516955Y-90894841D01*
X211149443Y-90793750D01*
X210769271Y-90766299D01*
X210391049Y-90813543D01*
X210029310Y-90933667D01*
X209782317Y-91065688D01*
X209650381Y-91360776D01*
X208597500Y-91360776D01*
X208597500Y-48339224D01*
X209650381Y-48339224D01*
X209782317Y-48634312D01*
X210123045Y-48805159D01*
X210490557Y-48906250D01*
X210870729Y-48933701D01*
X211248951Y-48886457D01*
X211610690Y-48766333D01*
X211857683Y-48634312D01*
X211989619Y-48339224D01*
X210820000Y-47169605D01*
X209650381Y-48339224D01*
X208597500Y-48339224D01*
X208597500Y-48097047D01*
X208724775Y-47906566D01*
X208870639Y-47554419D01*
X208913530Y-47338791D01*
X208923543Y-47418951D01*
X209043667Y-47780690D01*
X209175688Y-48027683D01*
X209470776Y-48159619D01*
X210640395Y-46990000D01*
X210999605Y-46990000D01*
X212169224Y-48159619D01*
X212464312Y-48027683D01*
X212635159Y-47686955D01*
X212736250Y-47319443D01*
X212763701Y-46939271D01*
X212716457Y-46561049D01*
X212596333Y-46199310D01*
X212464312Y-45952317D01*
X212169224Y-45820381D01*
X210999605Y-46990000D01*
X210640395Y-46990000D01*
X209470776Y-45820381D01*
X209175688Y-45952317D01*
X209004841Y-46293045D01*
X208911659Y-46631803D01*
X208870639Y-46425581D01*
X208724775Y-46073434D01*
X208513013Y-45756509D01*
X208397280Y-45640776D01*
X209650381Y-45640776D01*
X210820000Y-46810395D01*
X211989619Y-45640776D01*
X211857683Y-45345688D01*
X211516955Y-45174841D01*
X211149443Y-45073750D01*
X210769271Y-45046299D01*
X210391049Y-45093543D01*
X210029310Y-45213667D01*
X209782317Y-45345688D01*
X209650381Y-45640776D01*
X208397280Y-45640776D01*
X208243491Y-45486987D01*
X207926566Y-45275225D01*
X207574419Y-45129361D01*
X207200581Y-45055000D01*
X206819419Y-45055000D01*
X206445581Y-45129361D01*
X206093434Y-45275225D01*
X205776509Y-45486987D01*
X205506987Y-45756509D01*
X205295225Y-46073434D01*
X205149361Y-46425581D01*
X205105000Y-46648599D01*
X205060639Y-46425581D01*
X204914775Y-46073434D01*
X204703013Y-45756509D01*
X204433491Y-45486987D01*
X204116566Y-45275225D01*
X203764419Y-45129361D01*
X203390581Y-45055000D01*
X203009419Y-45055000D01*
X202635581Y-45129361D01*
X202283434Y-45275225D01*
X201966509Y-45486987D01*
X201696987Y-45756509D01*
X201485225Y-46073434D01*
X201339361Y-46425581D01*
X201295000Y-46648599D01*
X201250639Y-46425581D01*
X201104775Y-46073434D01*
X200893013Y-45756509D01*
X200623491Y-45486987D01*
X200306566Y-45275225D01*
X199954419Y-45129361D01*
X199580581Y-45055000D01*
X199199419Y-45055000D01*
X198825581Y-45129361D01*
X198473434Y-45275225D01*
X198156509Y-45486987D01*
X197886987Y-45756509D01*
X197675225Y-46073434D01*
X197529361Y-46425581D01*
X197485000Y-46648599D01*
X197440639Y-46425581D01*
X197294775Y-46073434D01*
X197083013Y-45756509D01*
X196813491Y-45486987D01*
X196496566Y-45275225D01*
X196144419Y-45129361D01*
X195770581Y-45055000D01*
X195389419Y-45055000D01*
X195015581Y-45129361D01*
X194663434Y-45275225D01*
X194346509Y-45486987D01*
X194076987Y-45756509D01*
X193865225Y-46073434D01*
X193719361Y-46425581D01*
X193708072Y-46482335D01*
X193708072Y-45690000D01*
X193695812Y-45565518D01*
X193659502Y-45445820D01*
X193600537Y-45335506D01*
X193521185Y-45238815D01*
X193424494Y-45159463D01*
X193314180Y-45100498D01*
X193194482Y-45064188D01*
X193070000Y-45051928D01*
X190470000Y-45051928D01*
X190345518Y-45064188D01*
X190225820Y-45100498D01*
X190115506Y-45159463D01*
X190018815Y-45238815D01*
X189939463Y-45335506D01*
X189880498Y-45445820D01*
X189844188Y-45565518D01*
X189831928Y-45690000D01*
X188126504Y-45690000D01*
X187923491Y-45486987D01*
X187606566Y-45275225D01*
X187254419Y-45129361D01*
X186880581Y-45055000D01*
X186499419Y-45055000D01*
X186125581Y-45129361D01*
X185773434Y-45275225D01*
X185456509Y-45486987D01*
X185186987Y-45756509D01*
X184975225Y-46073434D01*
X184829361Y-46425581D01*
X184785000Y-46648599D01*
X184740639Y-46425581D01*
X184594775Y-46073434D01*
X184383013Y-45756509D01*
X184113491Y-45486987D01*
X183796566Y-45275225D01*
X183444419Y-45129361D01*
X183070581Y-45055000D01*
X182689419Y-45055000D01*
X182315581Y-45129361D01*
X181963434Y-45275225D01*
X181646509Y-45486987D01*
X181376987Y-45756509D01*
X181165225Y-46073434D01*
X181019361Y-46425581D01*
X180975000Y-46648599D01*
X180930639Y-46425581D01*
X180784775Y-46073434D01*
X180573013Y-45756509D01*
X180303491Y-45486987D01*
X179986566Y-45275225D01*
X179634419Y-45129361D01*
X179260581Y-45055000D01*
X178879419Y-45055000D01*
X178505581Y-45129361D01*
X178153434Y-45275225D01*
X177836509Y-45486987D01*
X177566987Y-45756509D01*
X177355225Y-46073434D01*
X177209361Y-46425581D01*
X177165000Y-46648599D01*
X177120639Y-46425581D01*
X176974775Y-46073434D01*
X176763013Y-45756509D01*
X176493491Y-45486987D01*
X176176566Y-45275225D01*
X175824419Y-45129361D01*
X175450581Y-45055000D01*
X175069419Y-45055000D01*
X174695581Y-45129361D01*
X174343434Y-45275225D01*
X174026509Y-45486987D01*
X173756987Y-45756509D01*
X173545225Y-46073434D01*
X173399361Y-46425581D01*
X173355000Y-46648599D01*
X173310639Y-46425581D01*
X173164775Y-46073434D01*
X172953013Y-45756509D01*
X172683491Y-45486987D01*
X172366566Y-45275225D01*
X172014419Y-45129361D01*
X171640581Y-45055000D01*
X171259419Y-45055000D01*
X170885581Y-45129361D01*
X170533434Y-45275225D01*
X170216509Y-45486987D01*
X169946987Y-45756509D01*
X169735225Y-46073434D01*
X169589361Y-46425581D01*
X169578072Y-46482335D01*
X169578072Y-45690000D01*
X169565812Y-45565518D01*
X169529502Y-45445820D01*
X169470537Y-45335506D01*
X169391185Y-45238815D01*
X169294494Y-45159463D01*
X169184180Y-45100498D01*
X169064482Y-45064188D01*
X168940000Y-45051928D01*
X166340000Y-45051928D01*
X166215518Y-45064188D01*
X166095820Y-45100498D01*
X165985506Y-45159463D01*
X165888815Y-45238815D01*
X165809463Y-45335506D01*
X165750498Y-45445820D01*
X165714188Y-45565518D01*
X165701928Y-45690000D01*
X163996504Y-45690000D01*
X163793491Y-45486987D01*
X163476566Y-45275225D01*
X163124419Y-45129361D01*
X162750581Y-45055000D01*
X162369419Y-45055000D01*
X161995581Y-45129361D01*
X161643434Y-45275225D01*
X161326509Y-45486987D01*
X161056987Y-45756509D01*
X160845225Y-46073434D01*
X160699361Y-46425581D01*
X160655000Y-46648599D01*
X160610639Y-46425581D01*
X160464775Y-46073434D01*
X160253013Y-45756509D01*
X159983491Y-45486987D01*
X159666566Y-45275225D01*
X159314419Y-45129361D01*
X158940581Y-45055000D01*
X158559419Y-45055000D01*
X158185581Y-45129361D01*
X157833434Y-45275225D01*
X157516509Y-45486987D01*
X157246987Y-45756509D01*
X157035225Y-46073434D01*
X156889361Y-46425581D01*
X156845000Y-46648599D01*
X156800639Y-46425581D01*
X156654775Y-46073434D01*
X156443013Y-45756509D01*
X156173491Y-45486987D01*
X155856566Y-45275225D01*
X155504419Y-45129361D01*
X155130581Y-45055000D01*
X154749419Y-45055000D01*
X154375581Y-45129361D01*
X154023434Y-45275225D01*
X153706509Y-45486987D01*
X153436987Y-45756509D01*
X153225225Y-46073434D01*
X153079361Y-46425581D01*
X153035000Y-46648599D01*
X152990639Y-46425581D01*
X152844775Y-46073434D01*
X152633013Y-45756509D01*
X152363491Y-45486987D01*
X152046566Y-45275225D01*
X151694419Y-45129361D01*
X151320581Y-45055000D01*
X150939419Y-45055000D01*
X150565581Y-45129361D01*
X150213434Y-45275225D01*
X149896509Y-45486987D01*
X149626987Y-45756509D01*
X149415225Y-46073434D01*
X149269361Y-46425581D01*
X149225000Y-46648599D01*
X149180639Y-46425581D01*
X149034775Y-46073434D01*
X148823013Y-45756509D01*
X148553491Y-45486987D01*
X148236566Y-45275225D01*
X147884419Y-45129361D01*
X147510581Y-45055000D01*
X147129419Y-45055000D01*
X146755581Y-45129361D01*
X146403434Y-45275225D01*
X146086509Y-45486987D01*
X145816987Y-45756509D01*
X145605225Y-46073434D01*
X145459361Y-46425581D01*
X145448072Y-46482335D01*
X145448072Y-45690000D01*
X145435812Y-45565518D01*
X145399502Y-45445820D01*
X145340537Y-45335506D01*
X145261185Y-45238815D01*
X145164494Y-45159463D01*
X145054180Y-45100498D01*
X144934482Y-45064188D01*
X144810000Y-45051928D01*
X142210000Y-45051928D01*
X142085518Y-45064188D01*
X141965820Y-45100498D01*
X141855506Y-45159463D01*
X141758815Y-45238815D01*
X141679463Y-45335506D01*
X141620498Y-45445820D01*
X141584188Y-45565518D01*
X141571928Y-45690000D01*
X139866504Y-45690000D01*
X139663491Y-45486987D01*
X139346566Y-45275225D01*
X138994419Y-45129361D01*
X138620581Y-45055000D01*
X138239419Y-45055000D01*
X137865581Y-45129361D01*
X137513434Y-45275225D01*
X137196509Y-45486987D01*
X136926987Y-45756509D01*
X136715225Y-46073434D01*
X136569361Y-46425581D01*
X136525000Y-46648599D01*
X136480639Y-46425581D01*
X136334775Y-46073434D01*
X136123013Y-45756509D01*
X135853491Y-45486987D01*
X135536566Y-45275225D01*
X135184419Y-45129361D01*
X134810581Y-45055000D01*
X134429419Y-45055000D01*
X134055581Y-45129361D01*
X133703434Y-45275225D01*
X133386509Y-45486987D01*
X133116987Y-45756509D01*
X132905225Y-46073434D01*
X132759361Y-46425581D01*
X132715000Y-46648599D01*
X132670639Y-46425581D01*
X132524775Y-46073434D01*
X132313013Y-45756509D01*
X132043491Y-45486987D01*
X131726566Y-45275225D01*
X131374419Y-45129361D01*
X131000581Y-45055000D01*
X130619419Y-45055000D01*
X130245581Y-45129361D01*
X129893434Y-45275225D01*
X129576509Y-45486987D01*
X129306987Y-45756509D01*
X129095225Y-46073434D01*
X128949361Y-46425581D01*
X128905000Y-46648599D01*
X128860639Y-46425581D01*
X128714775Y-46073434D01*
X128503013Y-45756509D01*
X128233491Y-45486987D01*
X127916566Y-45275225D01*
X127564419Y-45129361D01*
X127190581Y-45055000D01*
X126809419Y-45055000D01*
X126435581Y-45129361D01*
X126083434Y-45275225D01*
X125766509Y-45486987D01*
X125496987Y-45756509D01*
X125285225Y-46073434D01*
X125139361Y-46425581D01*
X125095000Y-46648599D01*
X125050639Y-46425581D01*
X124904775Y-46073434D01*
X124693013Y-45756509D01*
X124423491Y-45486987D01*
X124106566Y-45275225D01*
X123754419Y-45129361D01*
X123380581Y-45055000D01*
X122999419Y-45055000D01*
X122625581Y-45129361D01*
X122273434Y-45275225D01*
X121956509Y-45486987D01*
X121686987Y-45756509D01*
X121475225Y-46073434D01*
X121329361Y-46425581D01*
X121318072Y-46482335D01*
X121318072Y-45690000D01*
X121305812Y-45565518D01*
X121269502Y-45445820D01*
X121210537Y-45335506D01*
X121131185Y-45238815D01*
X121034494Y-45159463D01*
X120924180Y-45100498D01*
X120804482Y-45064188D01*
X120680000Y-45051928D01*
X118080000Y-45051928D01*
X117955518Y-45064188D01*
X117835820Y-45100498D01*
X117725506Y-45159463D01*
X117628815Y-45238815D01*
X117549463Y-45335506D01*
X117490498Y-45445820D01*
X117454188Y-45565518D01*
X117441928Y-45690000D01*
X115736504Y-45690000D01*
X115533491Y-45486987D01*
X115216566Y-45275225D01*
X114864419Y-45129361D01*
X114490581Y-45055000D01*
X114109419Y-45055000D01*
X113735581Y-45129361D01*
X113383434Y-45275225D01*
X113066509Y-45486987D01*
X112796987Y-45756509D01*
X112585225Y-46073434D01*
X112439361Y-46425581D01*
X112395000Y-46648599D01*
X112350639Y-46425581D01*
X112204775Y-46073434D01*
X111993013Y-45756509D01*
X111723491Y-45486987D01*
X111406566Y-45275225D01*
X111054419Y-45129361D01*
X110680581Y-45055000D01*
X110299419Y-45055000D01*
X110148599Y-45085000D01*
X108742082Y-45085000D01*
X108648500Y-45075783D01*
X108554918Y-45085000D01*
X107021401Y-45085000D01*
X106870581Y-45055000D01*
X106489419Y-45055000D01*
X106115581Y-45129361D01*
X105763434Y-45275225D01*
X105446509Y-45486987D01*
X105176987Y-45756509D01*
X104965225Y-46073434D01*
X104819361Y-46425581D01*
X104775000Y-46648599D01*
X104730639Y-46425581D01*
X104584775Y-46073434D01*
X104373013Y-45756509D01*
X104103491Y-45486987D01*
X103786566Y-45275225D01*
X103434419Y-45129361D01*
X103060581Y-45055000D01*
X102679419Y-45055000D01*
X102305581Y-45129361D01*
X101953434Y-45275225D01*
X101636509Y-45486987D01*
X101366987Y-45756509D01*
X101155225Y-46073434D01*
X101009361Y-46425581D01*
X100965000Y-46648599D01*
X100920639Y-46425581D01*
X100774775Y-46073434D01*
X100563013Y-45756509D01*
X100293491Y-45486987D01*
X99976566Y-45275225D01*
X99624419Y-45129361D01*
X99250581Y-45055000D01*
X98869419Y-45055000D01*
X98495581Y-45129361D01*
X98143434Y-45275225D01*
X97826509Y-45486987D01*
X97556987Y-45756509D01*
X97345225Y-46073434D01*
X97199361Y-46425581D01*
X97188072Y-46482335D01*
X97188072Y-45690000D01*
X97175812Y-45565518D01*
X97139502Y-45445820D01*
X97080537Y-45335506D01*
X97001185Y-45238815D01*
X96904494Y-45159463D01*
X96794180Y-45100498D01*
X96674482Y-45064188D01*
X96550000Y-45051928D01*
X93950000Y-45051928D01*
X93825518Y-45064188D01*
X93705820Y-45100498D01*
X93595506Y-45159463D01*
X93498815Y-45238815D01*
X93419463Y-45335506D01*
X93360498Y-45445820D01*
X93324188Y-45565518D01*
X93311928Y-45690000D01*
X91606504Y-45690000D01*
X91403491Y-45486987D01*
X91086566Y-45275225D01*
X90734419Y-45129361D01*
X90360581Y-45055000D01*
X89979419Y-45055000D01*
X89605581Y-45129361D01*
X89253434Y-45275225D01*
X88936509Y-45486987D01*
X88666987Y-45756509D01*
X88455225Y-46073434D01*
X88309361Y-46425581D01*
X88265000Y-46648599D01*
X88220639Y-46425581D01*
X88074775Y-46073434D01*
X87863013Y-45756509D01*
X87593491Y-45486987D01*
X87276566Y-45275225D01*
X86924419Y-45129361D01*
X86550581Y-45055000D01*
X86169419Y-45055000D01*
X85795581Y-45129361D01*
X85443434Y-45275225D01*
X85126509Y-45486987D01*
X84856987Y-45756509D01*
X84645225Y-46073434D01*
X84499361Y-46425581D01*
X84455000Y-46648599D01*
X84410639Y-46425581D01*
X84264775Y-46073434D01*
X84053013Y-45756509D01*
X83783491Y-45486987D01*
X83466566Y-45275225D01*
X83114419Y-45129361D01*
X82740581Y-45055000D01*
X82359419Y-45055000D01*
X81985581Y-45129361D01*
X81633434Y-45275225D01*
X81316509Y-45486987D01*
X81046987Y-45756509D01*
X80835225Y-46073434D01*
X80689361Y-46425581D01*
X80645000Y-46648599D01*
X80600639Y-46425581D01*
X80454775Y-46073434D01*
X80243013Y-45756509D01*
X79973491Y-45486987D01*
X79656566Y-45275225D01*
X79304419Y-45129361D01*
X78930581Y-45055000D01*
X78549419Y-45055000D01*
X78175581Y-45129361D01*
X77823434Y-45275225D01*
X77506509Y-45486987D01*
X77236987Y-45756509D01*
X77025225Y-46073434D01*
X76879361Y-46425581D01*
X76835000Y-46648599D01*
X76790639Y-46425581D01*
X76644775Y-46073434D01*
X76433013Y-45756509D01*
X76163491Y-45486987D01*
X75846566Y-45275225D01*
X75494419Y-45129361D01*
X75120581Y-45055000D01*
X74739419Y-45055000D01*
X74365581Y-45129361D01*
X74013434Y-45275225D01*
X73696509Y-45486987D01*
X73426987Y-45756509D01*
X73215225Y-46073434D01*
X73069361Y-46425581D01*
X73058072Y-46482335D01*
X73058072Y-45690000D01*
X73045812Y-45565518D01*
X73009502Y-45445820D01*
X72950537Y-45335506D01*
X72871185Y-45238815D01*
X72774494Y-45159463D01*
X72664180Y-45100498D01*
X72544482Y-45064188D01*
X72420000Y-45051928D01*
X69820000Y-45051928D01*
X69695518Y-45064188D01*
X69575820Y-45100498D01*
X69465506Y-45159463D01*
X69368815Y-45238815D01*
X69289463Y-45335506D01*
X69230498Y-45445820D01*
X69194188Y-45565518D01*
X69181928Y-45690000D01*
X59817000Y-45690000D01*
X59817000Y-43307000D01*
X220853000Y-43307000D01*
X220853000Y-56136275D01*
G36*
X128949361Y-93274419D02*
G01*
X129095225Y-93626566D01*
X129222500Y-93817047D01*
X129222501Y-109382952D01*
X129095225Y-109573434D01*
X128949361Y-109925581D01*
X128905000Y-110148599D01*
X128860639Y-109925581D01*
X128714775Y-109573434D01*
X128587500Y-109382953D01*
X128587500Y-93817047D01*
X128714775Y-93626566D01*
X128860639Y-93274419D01*
X128905000Y-93051401D01*
X128949361Y-93274419D01*
G37*
X128949361Y-93274419D02*
X129095225Y-93626566D01*
X129222500Y-93817047D01*
X129222501Y-109382952D01*
X129095225Y-109573434D01*
X128949361Y-109925581D01*
X128905000Y-110148599D01*
X128860639Y-109925581D01*
X128714775Y-109573434D01*
X128587500Y-109382953D01*
X128587500Y-93817047D01*
X128714775Y-93626566D01*
X128860639Y-93274419D01*
X128905000Y-93051401D01*
X128949361Y-93274419D01*
G36*
X125139361Y-93274419D02*
G01*
X125285225Y-93626566D01*
X125412500Y-93817047D01*
X125412501Y-109382952D01*
X125285225Y-109573434D01*
X125139361Y-109925581D01*
X125095000Y-110148599D01*
X125050639Y-109925581D01*
X124904775Y-109573434D01*
X124777500Y-109382953D01*
X124777500Y-93817047D01*
X124904775Y-93626566D01*
X125050639Y-93274419D01*
X125095000Y-93051401D01*
X125139361Y-93274419D01*
G37*
X125139361Y-93274419D02*
X125285225Y-93626566D01*
X125412500Y-93817047D01*
X125412501Y-109382952D01*
X125285225Y-109573434D01*
X125139361Y-109925581D01*
X125095000Y-110148599D01*
X125050639Y-109925581D01*
X124904775Y-109573434D01*
X124777500Y-109382953D01*
X124777500Y-93817047D01*
X124904775Y-93626566D01*
X125050639Y-93274419D01*
X125095000Y-93051401D01*
X125139361Y-93274419D01*
G36*
X136569361Y-93274419D02*
G01*
X136715225Y-93626566D01*
X136842500Y-93817047D01*
X136842501Y-109382952D01*
X136715225Y-109573434D01*
X136569361Y-109925581D01*
X136525000Y-110148599D01*
X136480639Y-109925581D01*
X136334775Y-109573434D01*
X136207500Y-109382953D01*
X136207500Y-93817047D01*
X136334775Y-93626566D01*
X136480639Y-93274419D01*
X136525000Y-93051401D01*
X136569361Y-93274419D01*
G37*
X136569361Y-93274419D02*
X136715225Y-93626566D01*
X136842500Y-93817047D01*
X136842501Y-109382952D01*
X136715225Y-109573434D01*
X136569361Y-109925581D01*
X136525000Y-110148599D01*
X136480639Y-109925581D01*
X136334775Y-109573434D01*
X136207500Y-109382953D01*
X136207500Y-93817047D01*
X136334775Y-93626566D01*
X136480639Y-93274419D01*
X136525000Y-93051401D01*
X136569361Y-93274419D01*
G36*
X132759361Y-93274419D02*
G01*
X132905225Y-93626566D01*
X133032500Y-93817047D01*
X133032501Y-109382952D01*
X132905225Y-109573434D01*
X132759361Y-109925581D01*
X132715000Y-110148599D01*
X132670639Y-109925581D01*
X132524775Y-109573434D01*
X132397500Y-109382953D01*
X132397500Y-93817047D01*
X132524775Y-93626566D01*
X132670639Y-93274419D01*
X132715000Y-93051401D01*
X132759361Y-93274419D01*
G37*
X132759361Y-93274419D02*
X132905225Y-93626566D01*
X133032500Y-93817047D01*
X133032501Y-109382952D01*
X132905225Y-109573434D01*
X132759361Y-109925581D01*
X132715000Y-110148599D01*
X132670639Y-109925581D01*
X132524775Y-109573434D01*
X132397500Y-109382953D01*
X132397500Y-93817047D01*
X132524775Y-93626566D01*
X132670639Y-93274419D01*
X132715000Y-93051401D01*
X132759361Y-93274419D01*
G36*
X121329361Y-93274419D02*
G01*
X121475225Y-93626566D01*
X121602500Y-93817047D01*
X121602501Y-109382952D01*
X121475225Y-109573434D01*
X121329361Y-109925581D01*
X121318072Y-109982335D01*
X121318072Y-109190000D01*
X121305812Y-109065518D01*
X121269502Y-108945820D01*
X121210537Y-108835506D01*
X121131185Y-108738815D01*
X121034494Y-108659463D01*
X120967500Y-108623653D01*
X120967500Y-94576347D01*
X121034494Y-94540537D01*
X121131185Y-94461185D01*
X121210537Y-94364494D01*
X121269502Y-94254180D01*
X121305812Y-94134482D01*
X121318072Y-94010000D01*
X121318072Y-93217665D01*
X121329361Y-93274419D01*
G37*
X121329361Y-93274419D02*
X121475225Y-93626566D01*
X121602500Y-93817047D01*
X121602501Y-109382952D01*
X121475225Y-109573434D01*
X121329361Y-109925581D01*
X121318072Y-109982335D01*
X121318072Y-109190000D01*
X121305812Y-109065518D01*
X121269502Y-108945820D01*
X121210537Y-108835506D01*
X121131185Y-108738815D01*
X121034494Y-108659463D01*
X120967500Y-108623653D01*
X120967500Y-94576347D01*
X121034494Y-94540537D01*
X121131185Y-94461185D01*
X121210537Y-94364494D01*
X121269502Y-94254180D01*
X121305812Y-94134482D01*
X121318072Y-94010000D01*
X121318072Y-93217665D01*
X121329361Y-93274419D01*
G36*
X136569361Y-47554419D02*
G01*
X136715225Y-47906566D01*
X136842500Y-48097047D01*
X136842501Y-91602952D01*
X136715225Y-91793434D01*
X136569361Y-92145581D01*
X136525000Y-92368599D01*
X136480639Y-92145581D01*
X136334775Y-91793434D01*
X136207500Y-91602953D01*
X136207500Y-48097047D01*
X136334775Y-47906566D01*
X136480639Y-47554419D01*
X136525000Y-47331401D01*
X136569361Y-47554419D01*
G37*
X136569361Y-47554419D02*
X136715225Y-47906566D01*
X136842500Y-48097047D01*
X136842501Y-91602952D01*
X136715225Y-91793434D01*
X136569361Y-92145581D01*
X136525000Y-92368599D01*
X136480639Y-92145581D01*
X136334775Y-91793434D01*
X136207500Y-91602953D01*
X136207500Y-48097047D01*
X136334775Y-47906566D01*
X136480639Y-47554419D01*
X136525000Y-47331401D01*
X136569361Y-47554419D01*
G36*
X132759361Y-47554419D02*
G01*
X132905225Y-47906566D01*
X133032500Y-48097047D01*
X133032501Y-91602952D01*
X132905225Y-91793434D01*
X132759361Y-92145581D01*
X132715000Y-92368599D01*
X132670639Y-92145581D01*
X132524775Y-91793434D01*
X132397500Y-91602953D01*
X132397500Y-48097047D01*
X132524775Y-47906566D01*
X132670639Y-47554419D01*
X132715000Y-47331401D01*
X132759361Y-47554419D01*
G37*
X132759361Y-47554419D02*
X132905225Y-47906566D01*
X133032500Y-48097047D01*
X133032501Y-91602952D01*
X132905225Y-91793434D01*
X132759361Y-92145581D01*
X132715000Y-92368599D01*
X132670639Y-92145581D01*
X132524775Y-91793434D01*
X132397500Y-91602953D01*
X132397500Y-48097047D01*
X132524775Y-47906566D01*
X132670639Y-47554419D01*
X132715000Y-47331401D01*
X132759361Y-47554419D01*
G36*
X128949361Y-47554419D02*
G01*
X129095225Y-47906566D01*
X129222500Y-48097047D01*
X129222501Y-91602952D01*
X129095225Y-91793434D01*
X128949361Y-92145581D01*
X128905000Y-92368599D01*
X128860639Y-92145581D01*
X128714775Y-91793434D01*
X128587500Y-91602953D01*
X128587500Y-48097047D01*
X128714775Y-47906566D01*
X128860639Y-47554419D01*
X128905000Y-47331401D01*
X128949361Y-47554419D01*
G37*
X128949361Y-47554419D02*
X129095225Y-47906566D01*
X129222500Y-48097047D01*
X129222501Y-91602952D01*
X129095225Y-91793434D01*
X128949361Y-92145581D01*
X128905000Y-92368599D01*
X128860639Y-92145581D01*
X128714775Y-91793434D01*
X128587500Y-91602953D01*
X128587500Y-48097047D01*
X128714775Y-47906566D01*
X128860639Y-47554419D01*
X128905000Y-47331401D01*
X128949361Y-47554419D01*
G36*
X125139361Y-47554419D02*
G01*
X125285225Y-47906566D01*
X125412500Y-48097047D01*
X125412501Y-91602952D01*
X125285225Y-91793434D01*
X125139361Y-92145581D01*
X125095000Y-92368599D01*
X125050639Y-92145581D01*
X124904775Y-91793434D01*
X124777500Y-91602953D01*
X124777500Y-48097047D01*
X124904775Y-47906566D01*
X125050639Y-47554419D01*
X125095000Y-47331401D01*
X125139361Y-47554419D01*
G37*
X125139361Y-47554419D02*
X125285225Y-47906566D01*
X125412500Y-48097047D01*
X125412501Y-91602952D01*
X125285225Y-91793434D01*
X125139361Y-92145581D01*
X125095000Y-92368599D01*
X125050639Y-92145581D01*
X124904775Y-91793434D01*
X124777500Y-91602953D01*
X124777500Y-48097047D01*
X124904775Y-47906566D01*
X125050639Y-47554419D01*
X125095000Y-47331401D01*
X125139361Y-47554419D01*
G36*
X121329361Y-47554419D02*
G01*
X121475225Y-47906566D01*
X121602500Y-48097047D01*
X121602501Y-91602952D01*
X121475225Y-91793434D01*
X121329361Y-92145581D01*
X121318072Y-92202335D01*
X121318072Y-91410000D01*
X121305812Y-91285518D01*
X121269502Y-91165820D01*
X121210537Y-91055506D01*
X121131185Y-90958815D01*
X121034494Y-90879463D01*
X120967500Y-90843653D01*
X120967500Y-48856347D01*
X121034494Y-48820537D01*
X121131185Y-48741185D01*
X121210537Y-48644494D01*
X121269502Y-48534180D01*
X121305812Y-48414482D01*
X121318072Y-48290000D01*
X121318072Y-47497665D01*
X121329361Y-47554419D01*
G37*
X121329361Y-47554419D02*
X121475225Y-47906566D01*
X121602500Y-48097047D01*
X121602501Y-91602952D01*
X121475225Y-91793434D01*
X121329361Y-92145581D01*
X121318072Y-92202335D01*
X121318072Y-91410000D01*
X121305812Y-91285518D01*
X121269502Y-91165820D01*
X121210537Y-91055506D01*
X121131185Y-90958815D01*
X121034494Y-90879463D01*
X120967500Y-90843653D01*
X120967500Y-48856347D01*
X121034494Y-48820537D01*
X121131185Y-48741185D01*
X121210537Y-48644494D01*
X121269502Y-48534180D01*
X121305812Y-48414482D01*
X121318072Y-48290000D01*
X121318072Y-47497665D01*
X121329361Y-47554419D01*
G36*
X184829361Y-93274419D02*
G01*
X184975225Y-93626566D01*
X185102500Y-93817047D01*
X185102501Y-109382952D01*
X184975225Y-109573434D01*
X184829361Y-109925581D01*
X184785000Y-110148599D01*
X184740639Y-109925581D01*
X184594775Y-109573434D01*
X184467500Y-109382953D01*
X184467500Y-93817047D01*
X184594775Y-93626566D01*
X184740639Y-93274419D01*
X184785000Y-93051401D01*
X184829361Y-93274419D01*
G37*
X184829361Y-93274419D02*
X184975225Y-93626566D01*
X185102500Y-93817047D01*
X185102501Y-109382952D01*
X184975225Y-109573434D01*
X184829361Y-109925581D01*
X184785000Y-110148599D01*
X184740639Y-109925581D01*
X184594775Y-109573434D01*
X184467500Y-109382953D01*
X184467500Y-93817047D01*
X184594775Y-93626566D01*
X184740639Y-93274419D01*
X184785000Y-93051401D01*
X184829361Y-93274419D01*
G36*
X181019361Y-93274419D02*
G01*
X181165225Y-93626566D01*
X181292500Y-93817047D01*
X181292501Y-109382952D01*
X181165225Y-109573434D01*
X181019361Y-109925581D01*
X180975000Y-110148599D01*
X180930639Y-109925581D01*
X180784775Y-109573434D01*
X180657500Y-109382953D01*
X180657500Y-93817047D01*
X180784775Y-93626566D01*
X180930639Y-93274419D01*
X180975000Y-93051401D01*
X181019361Y-93274419D01*
G37*
X181019361Y-93274419D02*
X181165225Y-93626566D01*
X181292500Y-93817047D01*
X181292501Y-109382952D01*
X181165225Y-109573434D01*
X181019361Y-109925581D01*
X180975000Y-110148599D01*
X180930639Y-109925581D01*
X180784775Y-109573434D01*
X180657500Y-109382953D01*
X180657500Y-93817047D01*
X180784775Y-93626566D01*
X180930639Y-93274419D01*
X180975000Y-93051401D01*
X181019361Y-93274419D01*
G36*
X177209361Y-93274419D02*
G01*
X177355225Y-93626566D01*
X177482500Y-93817047D01*
X177482501Y-109382952D01*
X177355225Y-109573434D01*
X177209361Y-109925581D01*
X177165000Y-110148599D01*
X177120639Y-109925581D01*
X176974775Y-109573434D01*
X176847500Y-109382953D01*
X176847500Y-93817047D01*
X176974775Y-93626566D01*
X177120639Y-93274419D01*
X177165000Y-93051401D01*
X177209361Y-93274419D01*
G37*
X177209361Y-93274419D02*
X177355225Y-93626566D01*
X177482500Y-93817047D01*
X177482501Y-109382952D01*
X177355225Y-109573434D01*
X177209361Y-109925581D01*
X177165000Y-110148599D01*
X177120639Y-109925581D01*
X176974775Y-109573434D01*
X176847500Y-109382953D01*
X176847500Y-93817047D01*
X176974775Y-93626566D01*
X177120639Y-93274419D01*
X177165000Y-93051401D01*
X177209361Y-93274419D01*
G36*
X173399361Y-93274419D02*
G01*
X173545225Y-93626566D01*
X173672501Y-93817048D01*
X173672500Y-109382953D01*
X173545225Y-109573434D01*
X173399361Y-109925581D01*
X173355000Y-110148599D01*
X173310639Y-109925581D01*
X173164775Y-109573434D01*
X173037500Y-109382953D01*
X173037500Y-93817047D01*
X173164775Y-93626566D01*
X173310639Y-93274419D01*
X173355000Y-93051401D01*
X173399361Y-93274419D01*
G37*
X173399361Y-93274419D02*
X173545225Y-93626566D01*
X173672501Y-93817048D01*
X173672500Y-109382953D01*
X173545225Y-109573434D01*
X173399361Y-109925581D01*
X173355000Y-110148599D01*
X173310639Y-109925581D01*
X173164775Y-109573434D01*
X173037500Y-109382953D01*
X173037500Y-93817047D01*
X173164775Y-93626566D01*
X173310639Y-93274419D01*
X173355000Y-93051401D01*
X173399361Y-93274419D01*
G36*
X169589361Y-93274419D02*
G01*
X169735225Y-93626566D01*
X169862500Y-93817047D01*
X169862501Y-109382952D01*
X169735225Y-109573434D01*
X169589361Y-109925581D01*
X169578072Y-109982335D01*
X169578072Y-109190000D01*
X169565812Y-109065518D01*
X169529502Y-108945820D01*
X169470537Y-108835506D01*
X169391185Y-108738815D01*
X169294494Y-108659463D01*
X169227500Y-108623653D01*
X169227500Y-94576347D01*
X169294494Y-94540537D01*
X169391185Y-94461185D01*
X169470537Y-94364494D01*
X169529502Y-94254180D01*
X169565812Y-94134482D01*
X169578072Y-94010000D01*
X169578072Y-93217665D01*
X169589361Y-93274419D01*
G37*
X169589361Y-93274419D02*
X169735225Y-93626566D01*
X169862500Y-93817047D01*
X169862501Y-109382952D01*
X169735225Y-109573434D01*
X169589361Y-109925581D01*
X169578072Y-109982335D01*
X169578072Y-109190000D01*
X169565812Y-109065518D01*
X169529502Y-108945820D01*
X169470537Y-108835506D01*
X169391185Y-108738815D01*
X169294494Y-108659463D01*
X169227500Y-108623653D01*
X169227500Y-94576347D01*
X169294494Y-94540537D01*
X169391185Y-94461185D01*
X169470537Y-94364494D01*
X169529502Y-94254180D01*
X169565812Y-94134482D01*
X169578072Y-94010000D01*
X169578072Y-93217665D01*
X169589361Y-93274419D01*
G36*
X184829361Y-47554419D02*
G01*
X184975225Y-47906566D01*
X185102501Y-48097048D01*
X185102501Y-48750483D01*
X185102500Y-48750492D01*
X185102501Y-91602952D01*
X184975225Y-91793434D01*
X184829361Y-92145581D01*
X184785000Y-92368599D01*
X184740639Y-92145581D01*
X184594775Y-91793434D01*
X184467500Y-91602953D01*
X184467500Y-48097047D01*
X184594775Y-47906566D01*
X184740639Y-47554419D01*
X184785000Y-47331401D01*
X184829361Y-47554419D01*
G37*
X184829361Y-47554419D02*
X184975225Y-47906566D01*
X185102501Y-48097048D01*
X185102501Y-48750483D01*
X185102500Y-48750492D01*
X185102501Y-91602952D01*
X184975225Y-91793434D01*
X184829361Y-92145581D01*
X184785000Y-92368599D01*
X184740639Y-92145581D01*
X184594775Y-91793434D01*
X184467500Y-91602953D01*
X184467500Y-48097047D01*
X184594775Y-47906566D01*
X184740639Y-47554419D01*
X184785000Y-47331401D01*
X184829361Y-47554419D01*
G36*
X181019361Y-47554419D02*
G01*
X181165225Y-47906566D01*
X181292500Y-48097047D01*
X181292501Y-91602952D01*
X181165225Y-91793434D01*
X181019361Y-92145581D01*
X180975000Y-92368599D01*
X180930639Y-92145581D01*
X180784775Y-91793434D01*
X180657500Y-91602953D01*
X180657500Y-48097047D01*
X180784775Y-47906566D01*
X180930639Y-47554419D01*
X180975000Y-47331401D01*
X181019361Y-47554419D01*
G37*
X181019361Y-47554419D02*
X181165225Y-47906566D01*
X181292500Y-48097047D01*
X181292501Y-91602952D01*
X181165225Y-91793434D01*
X181019361Y-92145581D01*
X180975000Y-92368599D01*
X180930639Y-92145581D01*
X180784775Y-91793434D01*
X180657500Y-91602953D01*
X180657500Y-48097047D01*
X180784775Y-47906566D01*
X180930639Y-47554419D01*
X180975000Y-47331401D01*
X181019361Y-47554419D01*
G36*
X177209361Y-47554419D02*
G01*
X177355225Y-47906566D01*
X177482501Y-48097048D01*
X177482501Y-48750483D01*
X177482500Y-48750492D01*
X177482501Y-91602952D01*
X177355225Y-91793434D01*
X177209361Y-92145581D01*
X177165000Y-92368599D01*
X177120639Y-92145581D01*
X176974775Y-91793434D01*
X176847500Y-91602953D01*
X176847500Y-48097047D01*
X176974775Y-47906566D01*
X177120639Y-47554419D01*
X177165000Y-47331401D01*
X177209361Y-47554419D01*
G37*
X177209361Y-47554419D02*
X177355225Y-47906566D01*
X177482501Y-48097048D01*
X177482501Y-48750483D01*
X177482500Y-48750492D01*
X177482501Y-91602952D01*
X177355225Y-91793434D01*
X177209361Y-92145581D01*
X177165000Y-92368599D01*
X177120639Y-92145581D01*
X176974775Y-91793434D01*
X176847500Y-91602953D01*
X176847500Y-48097047D01*
X176974775Y-47906566D01*
X177120639Y-47554419D01*
X177165000Y-47331401D01*
X177209361Y-47554419D01*
G36*
X173399361Y-47554419D02*
G01*
X173545225Y-47906566D01*
X173672500Y-48097047D01*
X173672501Y-91602952D01*
X173545225Y-91793434D01*
X173399361Y-92145581D01*
X173355000Y-92368599D01*
X173310639Y-92145581D01*
X173164775Y-91793434D01*
X173037500Y-91602953D01*
X173037500Y-48097047D01*
X173164775Y-47906566D01*
X173310639Y-47554419D01*
X173355000Y-47331401D01*
X173399361Y-47554419D01*
G37*
X173399361Y-47554419D02*
X173545225Y-47906566D01*
X173672500Y-48097047D01*
X173672501Y-91602952D01*
X173545225Y-91793434D01*
X173399361Y-92145581D01*
X173355000Y-92368599D01*
X173310639Y-92145581D01*
X173164775Y-91793434D01*
X173037500Y-91602953D01*
X173037500Y-48097047D01*
X173164775Y-47906566D01*
X173310639Y-47554419D01*
X173355000Y-47331401D01*
X173399361Y-47554419D01*
G36*
X169589361Y-47554419D02*
G01*
X169735225Y-47906566D01*
X169862500Y-48097047D01*
X169862501Y-91602952D01*
X169735225Y-91793434D01*
X169589361Y-92145581D01*
X169578072Y-92202335D01*
X169578072Y-91410000D01*
X169565812Y-91285518D01*
X169529502Y-91165820D01*
X169470537Y-91055506D01*
X169391185Y-90958815D01*
X169294494Y-90879463D01*
X169227500Y-90843653D01*
X169227500Y-48856347D01*
X169294494Y-48820537D01*
X169391185Y-48741185D01*
X169470537Y-48644494D01*
X169529502Y-48534180D01*
X169565812Y-48414482D01*
X169578072Y-48290000D01*
X169578072Y-47497665D01*
X169589361Y-47554419D01*
G37*
X169589361Y-47554419D02*
X169735225Y-47906566D01*
X169862500Y-48097047D01*
X169862501Y-91602952D01*
X169735225Y-91793434D01*
X169589361Y-92145581D01*
X169578072Y-92202335D01*
X169578072Y-91410000D01*
X169565812Y-91285518D01*
X169529502Y-91165820D01*
X169470537Y-91055506D01*
X169391185Y-90958815D01*
X169294494Y-90879463D01*
X169227500Y-90843653D01*
X169227500Y-48856347D01*
X169294494Y-48820537D01*
X169391185Y-48741185D01*
X169470537Y-48644494D01*
X169529502Y-48534180D01*
X169565812Y-48414482D01*
X169578072Y-48290000D01*
X169578072Y-47497665D01*
X169589361Y-47554419D01*
G36*
X101009361Y-93274419D02*
G01*
X101155225Y-93626566D01*
X101282500Y-93817047D01*
X101282501Y-109382952D01*
X101155225Y-109573434D01*
X101009361Y-109925581D01*
X100965000Y-110148599D01*
X100920639Y-109925581D01*
X100774775Y-109573434D01*
X100647500Y-109382953D01*
X100647500Y-93817047D01*
X100774775Y-93626566D01*
X100920639Y-93274419D01*
X100965000Y-93051401D01*
X101009361Y-93274419D01*
G37*
X101009361Y-93274419D02*
X101155225Y-93626566D01*
X101282500Y-93817047D01*
X101282501Y-109382952D01*
X101155225Y-109573434D01*
X101009361Y-109925581D01*
X100965000Y-110148599D01*
X100920639Y-109925581D01*
X100774775Y-109573434D01*
X100647500Y-109382953D01*
X100647500Y-93817047D01*
X100774775Y-93626566D01*
X100920639Y-93274419D01*
X100965000Y-93051401D01*
X101009361Y-93274419D01*
G36*
X112439361Y-93274419D02*
G01*
X112585225Y-93626566D01*
X112712500Y-93817047D01*
X112712501Y-109382952D01*
X112585225Y-109573434D01*
X112439361Y-109925581D01*
X112395000Y-110148599D01*
X112350639Y-109925581D01*
X112204775Y-109573434D01*
X112077500Y-109382953D01*
X112077500Y-93817047D01*
X112204775Y-93626566D01*
X112350639Y-93274419D01*
X112395000Y-93051401D01*
X112439361Y-93274419D01*
G37*
X112439361Y-93274419D02*
X112585225Y-93626566D01*
X112712500Y-93817047D01*
X112712501Y-109382952D01*
X112585225Y-109573434D01*
X112439361Y-109925581D01*
X112395000Y-110148599D01*
X112350639Y-109925581D01*
X112204775Y-109573434D01*
X112077500Y-109382953D01*
X112077500Y-93817047D01*
X112204775Y-93626566D01*
X112350639Y-93274419D01*
X112395000Y-93051401D01*
X112439361Y-93274419D01*
G36*
X104819361Y-93274419D02*
G01*
X104965225Y-93626566D01*
X105092500Y-93817047D01*
X105092501Y-109382952D01*
X104965225Y-109573434D01*
X104819361Y-109925581D01*
X104775000Y-110148599D01*
X104730639Y-109925581D01*
X104584775Y-109573434D01*
X104457500Y-109382953D01*
X104457500Y-93817047D01*
X104584775Y-93626566D01*
X104730639Y-93274419D01*
X104775000Y-93051401D01*
X104819361Y-93274419D01*
G37*
X104819361Y-93274419D02*
X104965225Y-93626566D01*
X105092500Y-93817047D01*
X105092501Y-109382952D01*
X104965225Y-109573434D01*
X104819361Y-109925581D01*
X104775000Y-110148599D01*
X104730639Y-109925581D01*
X104584775Y-109573434D01*
X104457500Y-109382953D01*
X104457500Y-93817047D01*
X104584775Y-93626566D01*
X104730639Y-93274419D01*
X104775000Y-93051401D01*
X104819361Y-93274419D01*
G36*
X97199361Y-93274419D02*
G01*
X97345225Y-93626566D01*
X97472500Y-93817047D01*
X97472501Y-109382952D01*
X97345225Y-109573434D01*
X97199361Y-109925581D01*
X97188072Y-109982335D01*
X97188072Y-109190000D01*
X97175812Y-109065518D01*
X97139502Y-108945820D01*
X97080537Y-108835506D01*
X97001185Y-108738815D01*
X96904494Y-108659463D01*
X96837500Y-108623653D01*
X96837500Y-94576347D01*
X96904494Y-94540537D01*
X97001185Y-94461185D01*
X97080537Y-94364494D01*
X97139502Y-94254180D01*
X97175812Y-94134482D01*
X97188072Y-94010000D01*
X97188072Y-93217665D01*
X97199361Y-93274419D01*
G37*
X97199361Y-93274419D02*
X97345225Y-93626566D01*
X97472500Y-93817047D01*
X97472501Y-109382952D01*
X97345225Y-109573434D01*
X97199361Y-109925581D01*
X97188072Y-109982335D01*
X97188072Y-109190000D01*
X97175812Y-109065518D01*
X97139502Y-108945820D01*
X97080537Y-108835506D01*
X97001185Y-108738815D01*
X96904494Y-108659463D01*
X96837500Y-108623653D01*
X96837500Y-94576347D01*
X96904494Y-94540537D01*
X97001185Y-94461185D01*
X97080537Y-94364494D01*
X97139502Y-94254180D01*
X97175812Y-94134482D01*
X97188072Y-94010000D01*
X97188072Y-93217665D01*
X97199361Y-93274419D01*
G36*
X112439361Y-47554419D02*
G01*
X112585225Y-47906566D01*
X112712500Y-48097047D01*
X112712501Y-91602952D01*
X112585225Y-91793434D01*
X112439361Y-92145581D01*
X112395000Y-92368599D01*
X112350639Y-92145581D01*
X112204775Y-91793434D01*
X112077500Y-91602953D01*
X112077500Y-48097047D01*
X112204775Y-47906566D01*
X112350639Y-47554419D01*
X112395000Y-47331401D01*
X112439361Y-47554419D01*
G37*
X112439361Y-47554419D02*
X112585225Y-47906566D01*
X112712500Y-48097047D01*
X112712501Y-91602952D01*
X112585225Y-91793434D01*
X112439361Y-92145581D01*
X112395000Y-92368599D01*
X112350639Y-92145581D01*
X112204775Y-91793434D01*
X112077500Y-91602953D01*
X112077500Y-48097047D01*
X112204775Y-47906566D01*
X112350639Y-47554419D01*
X112395000Y-47331401D01*
X112439361Y-47554419D01*
G36*
X104819361Y-47554419D02*
G01*
X104965225Y-47906566D01*
X105092500Y-48097047D01*
X105092501Y-91602952D01*
X104965225Y-91793434D01*
X104819361Y-92145581D01*
X104775000Y-92368599D01*
X104730639Y-92145581D01*
X104584775Y-91793434D01*
X104457500Y-91602953D01*
X104457500Y-48097047D01*
X104584775Y-47906566D01*
X104730639Y-47554419D01*
X104775000Y-47331401D01*
X104819361Y-47554419D01*
G37*
X104819361Y-47554419D02*
X104965225Y-47906566D01*
X105092500Y-48097047D01*
X105092501Y-91602952D01*
X104965225Y-91793434D01*
X104819361Y-92145581D01*
X104775000Y-92368599D01*
X104730639Y-92145581D01*
X104584775Y-91793434D01*
X104457500Y-91602953D01*
X104457500Y-48097047D01*
X104584775Y-47906566D01*
X104730639Y-47554419D01*
X104775000Y-47331401D01*
X104819361Y-47554419D01*
G36*
X101009361Y-47554419D02*
G01*
X101155225Y-47906566D01*
X101282500Y-48097047D01*
X101282501Y-91602952D01*
X101155225Y-91793434D01*
X101009361Y-92145581D01*
X100965000Y-92368599D01*
X100920639Y-92145581D01*
X100774775Y-91793434D01*
X100647500Y-91602953D01*
X100647500Y-48097047D01*
X100774775Y-47906566D01*
X100920639Y-47554419D01*
X100965000Y-47331401D01*
X101009361Y-47554419D01*
G37*
X101009361Y-47554419D02*
X101155225Y-47906566D01*
X101282500Y-48097047D01*
X101282501Y-91602952D01*
X101155225Y-91793434D01*
X101009361Y-92145581D01*
X100965000Y-92368599D01*
X100920639Y-92145581D01*
X100774775Y-91793434D01*
X100647500Y-91602953D01*
X100647500Y-48097047D01*
X100774775Y-47906566D01*
X100920639Y-47554419D01*
X100965000Y-47331401D01*
X101009361Y-47554419D01*
G36*
X97199361Y-47554419D02*
G01*
X97345225Y-47906566D01*
X97472500Y-48097047D01*
X97472501Y-91602952D01*
X97345225Y-91793434D01*
X97199361Y-92145581D01*
X97188072Y-92202335D01*
X97188072Y-91410000D01*
X97175812Y-91285518D01*
X97139502Y-91165820D01*
X97080537Y-91055506D01*
X97001185Y-90958815D01*
X96904494Y-90879463D01*
X96837500Y-90843653D01*
X96837500Y-48856347D01*
X96904494Y-48820537D01*
X97001185Y-48741185D01*
X97080537Y-48644494D01*
X97139502Y-48534180D01*
X97175812Y-48414482D01*
X97188072Y-48290000D01*
X97188072Y-47497665D01*
X97199361Y-47554419D01*
G37*
X97199361Y-47554419D02*
X97345225Y-47906566D01*
X97472500Y-48097047D01*
X97472501Y-91602952D01*
X97345225Y-91793434D01*
X97199361Y-92145581D01*
X97188072Y-92202335D01*
X97188072Y-91410000D01*
X97175812Y-91285518D01*
X97139502Y-91165820D01*
X97080537Y-91055506D01*
X97001185Y-90958815D01*
X96904494Y-90879463D01*
X96837500Y-90843653D01*
X96837500Y-48856347D01*
X96904494Y-48820537D01*
X97001185Y-48741185D01*
X97080537Y-48644494D01*
X97139502Y-48534180D01*
X97175812Y-48414482D01*
X97188072Y-48290000D01*
X97188072Y-47497665D01*
X97199361Y-47554419D01*
G36*
X153079361Y-93274419D02*
G01*
X153225225Y-93626566D01*
X153352500Y-93817047D01*
X153352501Y-109382952D01*
X153225225Y-109573434D01*
X153079361Y-109925581D01*
X153035000Y-110148599D01*
X152990639Y-109925581D01*
X152844775Y-109573434D01*
X152717500Y-109382953D01*
X152717500Y-93817047D01*
X152844775Y-93626566D01*
X152990639Y-93274419D01*
X153035000Y-93051401D01*
X153079361Y-93274419D01*
G37*
X153079361Y-93274419D02*
X153225225Y-93626566D01*
X153352500Y-93817047D01*
X153352501Y-109382952D01*
X153225225Y-109573434D01*
X153079361Y-109925581D01*
X153035000Y-110148599D01*
X152990639Y-109925581D01*
X152844775Y-109573434D01*
X152717500Y-109382953D01*
X152717500Y-93817047D01*
X152844775Y-93626566D01*
X152990639Y-93274419D01*
X153035000Y-93051401D01*
X153079361Y-93274419D01*
G36*
X156889361Y-93274419D02*
G01*
X157035225Y-93626566D01*
X157162500Y-93817047D01*
X157162501Y-109382952D01*
X157035225Y-109573434D01*
X156889361Y-109925581D01*
X156845000Y-110148599D01*
X156800639Y-109925581D01*
X156654775Y-109573434D01*
X156527500Y-109382953D01*
X156527500Y-93817047D01*
X156654775Y-93626566D01*
X156800639Y-93274419D01*
X156845000Y-93051401D01*
X156889361Y-93274419D01*
G37*
X156889361Y-93274419D02*
X157035225Y-93626566D01*
X157162500Y-93817047D01*
X157162501Y-109382952D01*
X157035225Y-109573434D01*
X156889361Y-109925581D01*
X156845000Y-110148599D01*
X156800639Y-109925581D01*
X156654775Y-109573434D01*
X156527500Y-109382953D01*
X156527500Y-93817047D01*
X156654775Y-93626566D01*
X156800639Y-93274419D01*
X156845000Y-93051401D01*
X156889361Y-93274419D01*
G36*
X160699361Y-93274419D02*
G01*
X160845225Y-93626566D01*
X160972500Y-93817047D01*
X160972501Y-109382952D01*
X160845225Y-109573434D01*
X160699361Y-109925581D01*
X160655000Y-110148599D01*
X160610639Y-109925581D01*
X160464775Y-109573434D01*
X160337500Y-109382953D01*
X160337500Y-93817047D01*
X160464775Y-93626566D01*
X160610639Y-93274419D01*
X160655000Y-93051401D01*
X160699361Y-93274419D01*
G37*
X160699361Y-93274419D02*
X160845225Y-93626566D01*
X160972500Y-93817047D01*
X160972501Y-109382952D01*
X160845225Y-109573434D01*
X160699361Y-109925581D01*
X160655000Y-110148599D01*
X160610639Y-109925581D01*
X160464775Y-109573434D01*
X160337500Y-109382953D01*
X160337500Y-93817047D01*
X160464775Y-93626566D01*
X160610639Y-93274419D01*
X160655000Y-93051401D01*
X160699361Y-93274419D01*
G36*
X149269361Y-93274419D02*
G01*
X149415225Y-93626566D01*
X149542500Y-93817047D01*
X149542501Y-109382952D01*
X149415225Y-109573434D01*
X149269361Y-109925581D01*
X149225000Y-110148599D01*
X149180639Y-109925581D01*
X149034775Y-109573434D01*
X148907500Y-109382953D01*
X148907500Y-93817047D01*
X149034775Y-93626566D01*
X149180639Y-93274419D01*
X149225000Y-93051401D01*
X149269361Y-93274419D01*
G37*
X149269361Y-93274419D02*
X149415225Y-93626566D01*
X149542500Y-93817047D01*
X149542501Y-109382952D01*
X149415225Y-109573434D01*
X149269361Y-109925581D01*
X149225000Y-110148599D01*
X149180639Y-109925581D01*
X149034775Y-109573434D01*
X148907500Y-109382953D01*
X148907500Y-93817047D01*
X149034775Y-93626566D01*
X149180639Y-93274419D01*
X149225000Y-93051401D01*
X149269361Y-93274419D01*
G36*
X145459361Y-93274419D02*
G01*
X145605225Y-93626566D01*
X145732500Y-93817047D01*
X145732501Y-109382952D01*
X145605225Y-109573434D01*
X145459361Y-109925581D01*
X145448072Y-109982335D01*
X145448072Y-109190000D01*
X145435812Y-109065518D01*
X145399502Y-108945820D01*
X145340537Y-108835506D01*
X145261185Y-108738815D01*
X145164494Y-108659463D01*
X145097500Y-108623653D01*
X145097500Y-94576347D01*
X145164494Y-94540537D01*
X145261185Y-94461185D01*
X145340537Y-94364494D01*
X145399502Y-94254180D01*
X145435812Y-94134482D01*
X145448072Y-94010000D01*
X145448072Y-93217665D01*
X145459361Y-93274419D01*
G37*
X145459361Y-93274419D02*
X145605225Y-93626566D01*
X145732500Y-93817047D01*
X145732501Y-109382952D01*
X145605225Y-109573434D01*
X145459361Y-109925581D01*
X145448072Y-109982335D01*
X145448072Y-109190000D01*
X145435812Y-109065518D01*
X145399502Y-108945820D01*
X145340537Y-108835506D01*
X145261185Y-108738815D01*
X145164494Y-108659463D01*
X145097500Y-108623653D01*
X145097500Y-94576347D01*
X145164494Y-94540537D01*
X145261185Y-94461185D01*
X145340537Y-94364494D01*
X145399502Y-94254180D01*
X145435812Y-94134482D01*
X145448072Y-94010000D01*
X145448072Y-93217665D01*
X145459361Y-93274419D01*
G36*
X160699361Y-47554419D02*
G01*
X160845225Y-47906566D01*
X160972500Y-48097047D01*
X160972501Y-91602952D01*
X160845225Y-91793434D01*
X160699361Y-92145581D01*
X160655000Y-92368599D01*
X160610639Y-92145581D01*
X160464775Y-91793434D01*
X160337500Y-91602953D01*
X160337500Y-48097047D01*
X160464775Y-47906566D01*
X160610639Y-47554419D01*
X160655000Y-47331401D01*
X160699361Y-47554419D01*
G37*
X160699361Y-47554419D02*
X160845225Y-47906566D01*
X160972500Y-48097047D01*
X160972501Y-91602952D01*
X160845225Y-91793434D01*
X160699361Y-92145581D01*
X160655000Y-92368599D01*
X160610639Y-92145581D01*
X160464775Y-91793434D01*
X160337500Y-91602953D01*
X160337500Y-48097047D01*
X160464775Y-47906566D01*
X160610639Y-47554419D01*
X160655000Y-47331401D01*
X160699361Y-47554419D01*
G36*
X156889361Y-47554419D02*
G01*
X157035225Y-47906566D01*
X157162500Y-48097047D01*
X157162501Y-91602952D01*
X157035225Y-91793434D01*
X156889361Y-92145581D01*
X156845000Y-92368599D01*
X156800639Y-92145581D01*
X156654775Y-91793434D01*
X156527500Y-91602953D01*
X156527500Y-48097047D01*
X156654775Y-47906566D01*
X156800639Y-47554419D01*
X156845000Y-47331401D01*
X156889361Y-47554419D01*
G37*
X156889361Y-47554419D02*
X157035225Y-47906566D01*
X157162500Y-48097047D01*
X157162501Y-91602952D01*
X157035225Y-91793434D01*
X156889361Y-92145581D01*
X156845000Y-92368599D01*
X156800639Y-92145581D01*
X156654775Y-91793434D01*
X156527500Y-91602953D01*
X156527500Y-48097047D01*
X156654775Y-47906566D01*
X156800639Y-47554419D01*
X156845000Y-47331401D01*
X156889361Y-47554419D01*
G36*
X153079361Y-47554419D02*
G01*
X153225225Y-47906566D01*
X153352500Y-48097047D01*
X153352501Y-91602952D01*
X153225225Y-91793434D01*
X153079361Y-92145581D01*
X153035000Y-92368599D01*
X152990639Y-92145581D01*
X152844775Y-91793434D01*
X152717500Y-91602953D01*
X152717500Y-48097047D01*
X152844775Y-47906566D01*
X152990639Y-47554419D01*
X153035000Y-47331401D01*
X153079361Y-47554419D01*
G37*
X153079361Y-47554419D02*
X153225225Y-47906566D01*
X153352500Y-48097047D01*
X153352501Y-91602952D01*
X153225225Y-91793434D01*
X153079361Y-92145581D01*
X153035000Y-92368599D01*
X152990639Y-92145581D01*
X152844775Y-91793434D01*
X152717500Y-91602953D01*
X152717500Y-48097047D01*
X152844775Y-47906566D01*
X152990639Y-47554419D01*
X153035000Y-47331401D01*
X153079361Y-47554419D01*
G36*
X149269361Y-47554419D02*
G01*
X149415225Y-47906566D01*
X149542500Y-48097047D01*
X149542501Y-91602952D01*
X149415225Y-91793434D01*
X149269361Y-92145581D01*
X149225000Y-92368599D01*
X149180639Y-92145581D01*
X149034775Y-91793434D01*
X148907500Y-91602953D01*
X148907500Y-48097047D01*
X149034775Y-47906566D01*
X149180639Y-47554419D01*
X149225000Y-47331401D01*
X149269361Y-47554419D01*
G37*
X149269361Y-47554419D02*
X149415225Y-47906566D01*
X149542500Y-48097047D01*
X149542501Y-91602952D01*
X149415225Y-91793434D01*
X149269361Y-92145581D01*
X149225000Y-92368599D01*
X149180639Y-92145581D01*
X149034775Y-91793434D01*
X148907500Y-91602953D01*
X148907500Y-48097047D01*
X149034775Y-47906566D01*
X149180639Y-47554419D01*
X149225000Y-47331401D01*
X149269361Y-47554419D01*
G36*
X145459361Y-47554419D02*
G01*
X145605225Y-47906566D01*
X145732500Y-48097047D01*
X145732501Y-91602952D01*
X145605225Y-91793434D01*
X145459361Y-92145581D01*
X145448072Y-92202335D01*
X145448072Y-91410000D01*
X145435812Y-91285518D01*
X145399502Y-91165820D01*
X145340537Y-91055506D01*
X145261185Y-90958815D01*
X145164494Y-90879463D01*
X145097500Y-90843653D01*
X145097500Y-48856347D01*
X145164494Y-48820537D01*
X145261185Y-48741185D01*
X145340537Y-48644494D01*
X145399502Y-48534180D01*
X145435812Y-48414482D01*
X145448072Y-48290000D01*
X145448072Y-47497665D01*
X145459361Y-47554419D01*
G37*
X145459361Y-47554419D02*
X145605225Y-47906566D01*
X145732500Y-48097047D01*
X145732501Y-91602952D01*
X145605225Y-91793434D01*
X145459361Y-92145581D01*
X145448072Y-92202335D01*
X145448072Y-91410000D01*
X145435812Y-91285518D01*
X145399502Y-91165820D01*
X145340537Y-91055506D01*
X145261185Y-90958815D01*
X145164494Y-90879463D01*
X145097500Y-90843653D01*
X145097500Y-48856347D01*
X145164494Y-48820537D01*
X145261185Y-48741185D01*
X145340537Y-48644494D01*
X145399502Y-48534180D01*
X145435812Y-48414482D01*
X145448072Y-48290000D01*
X145448072Y-47497665D01*
X145459361Y-47554419D01*
G36*
X76879361Y-93274419D02*
G01*
X77025225Y-93626566D01*
X77152500Y-93817047D01*
X77152501Y-109382952D01*
X77025225Y-109573434D01*
X76879361Y-109925581D01*
X76835000Y-110148599D01*
X76790639Y-109925581D01*
X76644775Y-109573434D01*
X76517500Y-109382953D01*
X76517500Y-93817047D01*
X76644775Y-93626566D01*
X76790639Y-93274419D01*
X76835000Y-93051401D01*
X76879361Y-93274419D01*
G37*
X76879361Y-93274419D02*
X77025225Y-93626566D01*
X77152500Y-93817047D01*
X77152501Y-109382952D01*
X77025225Y-109573434D01*
X76879361Y-109925581D01*
X76835000Y-110148599D01*
X76790639Y-109925581D01*
X76644775Y-109573434D01*
X76517500Y-109382953D01*
X76517500Y-93817047D01*
X76644775Y-93626566D01*
X76790639Y-93274419D01*
X76835000Y-93051401D01*
X76879361Y-93274419D01*
G36*
X84499361Y-93274419D02*
G01*
X84645225Y-93626566D01*
X84772500Y-93817047D01*
X84772501Y-109382952D01*
X84645225Y-109573434D01*
X84499361Y-109925581D01*
X84455000Y-110148599D01*
X84410639Y-109925581D01*
X84264775Y-109573434D01*
X84137500Y-109382953D01*
X84137500Y-93817047D01*
X84264775Y-93626566D01*
X84410639Y-93274419D01*
X84455000Y-93051401D01*
X84499361Y-93274419D01*
G37*
X84499361Y-93274419D02*
X84645225Y-93626566D01*
X84772500Y-93817047D01*
X84772501Y-109382952D01*
X84645225Y-109573434D01*
X84499361Y-109925581D01*
X84455000Y-110148599D01*
X84410639Y-109925581D01*
X84264775Y-109573434D01*
X84137500Y-109382953D01*
X84137500Y-93817047D01*
X84264775Y-93626566D01*
X84410639Y-93274419D01*
X84455000Y-93051401D01*
X84499361Y-93274419D01*
G36*
X80689361Y-93274419D02*
G01*
X80835225Y-93626566D01*
X80962500Y-93817047D01*
X80962501Y-109382952D01*
X80835225Y-109573434D01*
X80689361Y-109925581D01*
X80645000Y-110148599D01*
X80600639Y-109925581D01*
X80454775Y-109573434D01*
X80327500Y-109382953D01*
X80327500Y-93817047D01*
X80454775Y-93626566D01*
X80600639Y-93274419D01*
X80645000Y-93051401D01*
X80689361Y-93274419D01*
G37*
X80689361Y-93274419D02*
X80835225Y-93626566D01*
X80962500Y-93817047D01*
X80962501Y-109382952D01*
X80835225Y-109573434D01*
X80689361Y-109925581D01*
X80645000Y-110148599D01*
X80600639Y-109925581D01*
X80454775Y-109573434D01*
X80327500Y-109382953D01*
X80327500Y-93817047D01*
X80454775Y-93626566D01*
X80600639Y-93274419D01*
X80645000Y-93051401D01*
X80689361Y-93274419D01*
G36*
X88309361Y-93274419D02*
G01*
X88455225Y-93626566D01*
X88582500Y-93817047D01*
X88582501Y-109382952D01*
X88455225Y-109573434D01*
X88309361Y-109925581D01*
X88265000Y-110148599D01*
X88220639Y-109925581D01*
X88074775Y-109573434D01*
X87947500Y-109382953D01*
X87947500Y-93817047D01*
X88074775Y-93626566D01*
X88220639Y-93274419D01*
X88265000Y-93051401D01*
X88309361Y-93274419D01*
G37*
X88309361Y-93274419D02*
X88455225Y-93626566D01*
X88582500Y-93817047D01*
X88582501Y-109382952D01*
X88455225Y-109573434D01*
X88309361Y-109925581D01*
X88265000Y-110148599D01*
X88220639Y-109925581D01*
X88074775Y-109573434D01*
X87947500Y-109382953D01*
X87947500Y-93817047D01*
X88074775Y-93626566D01*
X88220639Y-93274419D01*
X88265000Y-93051401D01*
X88309361Y-93274419D01*
G36*
X73069361Y-93274419D02*
G01*
X73215225Y-93626566D01*
X73342500Y-93817047D01*
X73342501Y-109382952D01*
X73215225Y-109573434D01*
X73069361Y-109925581D01*
X73058072Y-109982335D01*
X73058072Y-109190000D01*
X73045812Y-109065518D01*
X73009502Y-108945820D01*
X72950537Y-108835506D01*
X72871185Y-108738815D01*
X72774494Y-108659463D01*
X72707500Y-108623653D01*
X72707500Y-94576347D01*
X72774494Y-94540537D01*
X72871185Y-94461185D01*
X72950537Y-94364494D01*
X73009502Y-94254180D01*
X73045812Y-94134482D01*
X73058072Y-94010000D01*
X73058072Y-93217665D01*
X73069361Y-93274419D01*
G37*
X73069361Y-93274419D02*
X73215225Y-93626566D01*
X73342500Y-93817047D01*
X73342501Y-109382952D01*
X73215225Y-109573434D01*
X73069361Y-109925581D01*
X73058072Y-109982335D01*
X73058072Y-109190000D01*
X73045812Y-109065518D01*
X73009502Y-108945820D01*
X72950537Y-108835506D01*
X72871185Y-108738815D01*
X72774494Y-108659463D01*
X72707500Y-108623653D01*
X72707500Y-94576347D01*
X72774494Y-94540537D01*
X72871185Y-94461185D01*
X72950537Y-94364494D01*
X73009502Y-94254180D01*
X73045812Y-94134482D01*
X73058072Y-94010000D01*
X73058072Y-93217665D01*
X73069361Y-93274419D01*
G36*
X76879361Y-47554419D02*
G01*
X77025225Y-47906566D01*
X77152500Y-48097047D01*
X77152501Y-91602952D01*
X77025225Y-91793434D01*
X76879361Y-92145581D01*
X76835000Y-92368599D01*
X76790639Y-92145581D01*
X76644775Y-91793434D01*
X76517500Y-91602953D01*
X76517500Y-48097047D01*
X76644775Y-47906566D01*
X76790639Y-47554419D01*
X76835000Y-47331401D01*
X76879361Y-47554419D01*
G37*
X76879361Y-47554419D02*
X77025225Y-47906566D01*
X77152500Y-48097047D01*
X77152501Y-91602952D01*
X77025225Y-91793434D01*
X76879361Y-92145581D01*
X76835000Y-92368599D01*
X76790639Y-92145581D01*
X76644775Y-91793434D01*
X76517500Y-91602953D01*
X76517500Y-48097047D01*
X76644775Y-47906566D01*
X76790639Y-47554419D01*
X76835000Y-47331401D01*
X76879361Y-47554419D01*
G36*
X88309361Y-47554419D02*
G01*
X88455225Y-47906566D01*
X88582501Y-48097048D01*
X88582501Y-48750483D01*
X88582500Y-48750492D01*
X88582501Y-91602952D01*
X88455225Y-91793434D01*
X88309361Y-92145581D01*
X88265000Y-92368599D01*
X88220639Y-92145581D01*
X88074775Y-91793434D01*
X87947500Y-91602953D01*
X87947500Y-48097047D01*
X88074775Y-47906566D01*
X88220639Y-47554419D01*
X88265000Y-47331401D01*
X88309361Y-47554419D01*
G37*
X88309361Y-47554419D02*
X88455225Y-47906566D01*
X88582501Y-48097048D01*
X88582501Y-48750483D01*
X88582500Y-48750492D01*
X88582501Y-91602952D01*
X88455225Y-91793434D01*
X88309361Y-92145581D01*
X88265000Y-92368599D01*
X88220639Y-92145581D01*
X88074775Y-91793434D01*
X87947500Y-91602953D01*
X87947500Y-48097047D01*
X88074775Y-47906566D01*
X88220639Y-47554419D01*
X88265000Y-47331401D01*
X88309361Y-47554419D01*
G36*
X80689361Y-47554419D02*
G01*
X80835225Y-47906566D01*
X80962500Y-48097047D01*
X80962501Y-91602952D01*
X80835225Y-91793434D01*
X80689361Y-92145581D01*
X80645000Y-92368599D01*
X80600639Y-92145581D01*
X80454775Y-91793434D01*
X80327500Y-91602953D01*
X80327500Y-48097047D01*
X80454775Y-47906566D01*
X80600639Y-47554419D01*
X80645000Y-47331401D01*
X80689361Y-47554419D01*
G37*
X80689361Y-47554419D02*
X80835225Y-47906566D01*
X80962500Y-48097047D01*
X80962501Y-91602952D01*
X80835225Y-91793434D01*
X80689361Y-92145581D01*
X80645000Y-92368599D01*
X80600639Y-92145581D01*
X80454775Y-91793434D01*
X80327500Y-91602953D01*
X80327500Y-48097047D01*
X80454775Y-47906566D01*
X80600639Y-47554419D01*
X80645000Y-47331401D01*
X80689361Y-47554419D01*
G36*
X84499361Y-47554419D02*
G01*
X84645225Y-47906566D01*
X84772500Y-48097047D01*
X84772501Y-91602952D01*
X84645225Y-91793434D01*
X84499361Y-92145581D01*
X84455000Y-92368599D01*
X84410639Y-92145581D01*
X84264775Y-91793434D01*
X84137500Y-91602953D01*
X84137500Y-48097047D01*
X84264775Y-47906566D01*
X84410639Y-47554419D01*
X84455000Y-47331401D01*
X84499361Y-47554419D01*
G37*
X84499361Y-47554419D02*
X84645225Y-47906566D01*
X84772500Y-48097047D01*
X84772501Y-91602952D01*
X84645225Y-91793434D01*
X84499361Y-92145581D01*
X84455000Y-92368599D01*
X84410639Y-92145581D01*
X84264775Y-91793434D01*
X84137500Y-91602953D01*
X84137500Y-48097047D01*
X84264775Y-47906566D01*
X84410639Y-47554419D01*
X84455000Y-47331401D01*
X84499361Y-47554419D01*
G36*
X73069361Y-47554419D02*
G01*
X73215225Y-47906566D01*
X73342500Y-48097047D01*
X73342501Y-91602952D01*
X73215225Y-91793434D01*
X73069361Y-92145581D01*
X73058072Y-92202335D01*
X73058072Y-91410000D01*
X73045812Y-91285518D01*
X73009502Y-91165820D01*
X72950537Y-91055506D01*
X72871185Y-90958815D01*
X72774494Y-90879463D01*
X72707500Y-90843653D01*
X72707500Y-48856347D01*
X72774494Y-48820537D01*
X72871185Y-48741185D01*
X72950537Y-48644494D01*
X73009502Y-48534180D01*
X73045812Y-48414482D01*
X73058072Y-48290000D01*
X73058072Y-47497665D01*
X73069361Y-47554419D01*
G37*
X73069361Y-47554419D02*
X73215225Y-47906566D01*
X73342500Y-48097047D01*
X73342501Y-91602952D01*
X73215225Y-91793434D01*
X73069361Y-92145581D01*
X73058072Y-92202335D01*
X73058072Y-91410000D01*
X73045812Y-91285518D01*
X73009502Y-91165820D01*
X72950537Y-91055506D01*
X72871185Y-90958815D01*
X72774494Y-90879463D01*
X72707500Y-90843653D01*
X72707500Y-48856347D01*
X72774494Y-48820537D01*
X72871185Y-48741185D01*
X72950537Y-48644494D01*
X73009502Y-48534180D01*
X73045812Y-48414482D01*
X73058072Y-48290000D01*
X73058072Y-47497665D01*
X73069361Y-47554419D01*
G36*
X197529361Y-93274419D02*
G01*
X197675225Y-93626566D01*
X197802500Y-93817047D01*
X197802501Y-109382952D01*
X197675225Y-109573434D01*
X197529361Y-109925581D01*
X197485000Y-110148599D01*
X197440639Y-109925581D01*
X197294775Y-109573434D01*
X197167500Y-109382953D01*
X197167500Y-93817047D01*
X197294775Y-93626566D01*
X197440639Y-93274419D01*
X197485000Y-93051401D01*
X197529361Y-93274419D01*
G37*
X197529361Y-93274419D02*
X197675225Y-93626566D01*
X197802500Y-93817047D01*
X197802501Y-109382952D01*
X197675225Y-109573434D01*
X197529361Y-109925581D01*
X197485000Y-110148599D01*
X197440639Y-109925581D01*
X197294775Y-109573434D01*
X197167500Y-109382953D01*
X197167500Y-93817047D01*
X197294775Y-93626566D01*
X197440639Y-93274419D01*
X197485000Y-93051401D01*
X197529361Y-93274419D01*
G36*
X205149361Y-93274419D02*
G01*
X205295225Y-93626566D01*
X205422500Y-93817047D01*
X205422501Y-109382952D01*
X205295225Y-109573434D01*
X205149361Y-109925581D01*
X205105000Y-110148599D01*
X205060639Y-109925581D01*
X204914775Y-109573434D01*
X204787500Y-109382953D01*
X204787500Y-93817047D01*
X204914775Y-93626566D01*
X205060639Y-93274419D01*
X205105000Y-93051401D01*
X205149361Y-93274419D01*
G37*
X205149361Y-93274419D02*
X205295225Y-93626566D01*
X205422500Y-93817047D01*
X205422501Y-109382952D01*
X205295225Y-109573434D01*
X205149361Y-109925581D01*
X205105000Y-110148599D01*
X205060639Y-109925581D01*
X204914775Y-109573434D01*
X204787500Y-109382953D01*
X204787500Y-93817047D01*
X204914775Y-93626566D01*
X205060639Y-93274419D01*
X205105000Y-93051401D01*
X205149361Y-93274419D01*
G36*
X201339361Y-93274419D02*
G01*
X201485225Y-93626566D01*
X201612500Y-93817047D01*
X201612501Y-109382952D01*
X201485225Y-109573434D01*
X201339361Y-109925581D01*
X201295000Y-110148599D01*
X201250639Y-109925581D01*
X201104775Y-109573434D01*
X200977500Y-109382953D01*
X200977500Y-93817047D01*
X201104775Y-93626566D01*
X201250639Y-93274419D01*
X201295000Y-93051401D01*
X201339361Y-93274419D01*
G37*
X201339361Y-93274419D02*
X201485225Y-93626566D01*
X201612500Y-93817047D01*
X201612501Y-109382952D01*
X201485225Y-109573434D01*
X201339361Y-109925581D01*
X201295000Y-110148599D01*
X201250639Y-109925581D01*
X201104775Y-109573434D01*
X200977500Y-109382953D01*
X200977500Y-93817047D01*
X201104775Y-93626566D01*
X201250639Y-93274419D01*
X201295000Y-93051401D01*
X201339361Y-93274419D01*
G36*
X193719361Y-93274419D02*
G01*
X193865225Y-93626566D01*
X193992500Y-93817047D01*
X193992501Y-109382952D01*
X193865225Y-109573434D01*
X193719361Y-109925581D01*
X193708072Y-109982335D01*
X193708072Y-109190000D01*
X193695812Y-109065518D01*
X193659502Y-108945820D01*
X193600537Y-108835506D01*
X193521185Y-108738815D01*
X193424494Y-108659463D01*
X193357500Y-108623653D01*
X193357500Y-94576347D01*
X193424494Y-94540537D01*
X193521185Y-94461185D01*
X193600537Y-94364494D01*
X193659502Y-94254180D01*
X193695812Y-94134482D01*
X193708072Y-94010000D01*
X193708072Y-93217665D01*
X193719361Y-93274419D01*
G37*
X193719361Y-93274419D02*
X193865225Y-93626566D01*
X193992500Y-93817047D01*
X193992501Y-109382952D01*
X193865225Y-109573434D01*
X193719361Y-109925581D01*
X193708072Y-109982335D01*
X193708072Y-109190000D01*
X193695812Y-109065518D01*
X193659502Y-108945820D01*
X193600537Y-108835506D01*
X193521185Y-108738815D01*
X193424494Y-108659463D01*
X193357500Y-108623653D01*
X193357500Y-94576347D01*
X193424494Y-94540537D01*
X193521185Y-94461185D01*
X193600537Y-94364494D01*
X193659502Y-94254180D01*
X193695812Y-94134482D01*
X193708072Y-94010000D01*
X193708072Y-93217665D01*
X193719361Y-93274419D01*
G36*
X205149361Y-47554419D02*
G01*
X205295225Y-47906566D01*
X205422501Y-48097048D01*
X205422501Y-48750483D01*
X205422500Y-48750492D01*
X205422501Y-91602952D01*
X205295225Y-91793434D01*
X205149361Y-92145581D01*
X205105000Y-92368599D01*
X205060639Y-92145581D01*
X204914775Y-91793434D01*
X204787500Y-91602953D01*
X204787500Y-48097047D01*
X204914775Y-47906566D01*
X205060639Y-47554419D01*
X205105000Y-47331401D01*
X205149361Y-47554419D01*
G37*
X205149361Y-47554419D02*
X205295225Y-47906566D01*
X205422501Y-48097048D01*
X205422501Y-48750483D01*
X205422500Y-48750492D01*
X205422501Y-91602952D01*
X205295225Y-91793434D01*
X205149361Y-92145581D01*
X205105000Y-92368599D01*
X205060639Y-92145581D01*
X204914775Y-91793434D01*
X204787500Y-91602953D01*
X204787500Y-48097047D01*
X204914775Y-47906566D01*
X205060639Y-47554419D01*
X205105000Y-47331401D01*
X205149361Y-47554419D01*
G36*
X201339361Y-47554419D02*
G01*
X201485225Y-47906566D01*
X201612500Y-48097047D01*
X201612501Y-91602952D01*
X201485225Y-91793434D01*
X201339361Y-92145581D01*
X201295000Y-92368599D01*
X201250639Y-92145581D01*
X201104775Y-91793434D01*
X200977500Y-91602953D01*
X200977500Y-48097047D01*
X201104775Y-47906566D01*
X201250639Y-47554419D01*
X201295000Y-47331401D01*
X201339361Y-47554419D01*
G37*
X201339361Y-47554419D02*
X201485225Y-47906566D01*
X201612500Y-48097047D01*
X201612501Y-91602952D01*
X201485225Y-91793434D01*
X201339361Y-92145581D01*
X201295000Y-92368599D01*
X201250639Y-92145581D01*
X201104775Y-91793434D01*
X200977500Y-91602953D01*
X200977500Y-48097047D01*
X201104775Y-47906566D01*
X201250639Y-47554419D01*
X201295000Y-47331401D01*
X201339361Y-47554419D01*
G36*
X197529361Y-47554419D02*
G01*
X197675225Y-47906566D01*
X197802501Y-48097048D01*
X197802501Y-48750483D01*
X197802500Y-48750492D01*
X197802501Y-91602952D01*
X197675225Y-91793434D01*
X197529361Y-92145581D01*
X197485000Y-92368599D01*
X197440639Y-92145581D01*
X197294775Y-91793434D01*
X197167500Y-91602953D01*
X197167500Y-48097047D01*
X197294775Y-47906566D01*
X197440639Y-47554419D01*
X197485000Y-47331401D01*
X197529361Y-47554419D01*
G37*
X197529361Y-47554419D02*
X197675225Y-47906566D01*
X197802501Y-48097048D01*
X197802501Y-48750483D01*
X197802500Y-48750492D01*
X197802501Y-91602952D01*
X197675225Y-91793434D01*
X197529361Y-92145581D01*
X197485000Y-92368599D01*
X197440639Y-92145581D01*
X197294775Y-91793434D01*
X197167500Y-91602953D01*
X197167500Y-48097047D01*
X197294775Y-47906566D01*
X197440639Y-47554419D01*
X197485000Y-47331401D01*
X197529361Y-47554419D01*
G36*
X193719361Y-47554419D02*
G01*
X193865225Y-47906566D01*
X193992500Y-48097047D01*
X193992501Y-91602952D01*
X193865225Y-91793434D01*
X193719361Y-92145581D01*
X193708072Y-92202335D01*
X193708072Y-91410000D01*
X193695812Y-91285518D01*
X193659502Y-91165820D01*
X193600537Y-91055506D01*
X193521185Y-90958815D01*
X193424494Y-90879463D01*
X193357500Y-90843653D01*
X193357500Y-48856347D01*
X193424494Y-48820537D01*
X193521185Y-48741185D01*
X193600537Y-48644494D01*
X193659502Y-48534180D01*
X193695812Y-48414482D01*
X193708072Y-48290000D01*
X193708072Y-47497665D01*
X193719361Y-47554419D01*
G37*
X193719361Y-47554419D02*
X193865225Y-47906566D01*
X193992500Y-48097047D01*
X193992501Y-91602952D01*
X193865225Y-91793434D01*
X193719361Y-92145581D01*
X193708072Y-92202335D01*
X193708072Y-91410000D01*
X193695812Y-91285518D01*
X193659502Y-91165820D01*
X193600537Y-91055506D01*
X193521185Y-90958815D01*
X193424494Y-90879463D01*
X193357500Y-90843653D01*
X193357500Y-48856347D01*
X193424494Y-48820537D01*
X193521185Y-48741185D01*
X193600537Y-48644494D01*
X193659502Y-48534180D01*
X193695812Y-48414482D01*
X193708072Y-48290000D01*
X193708072Y-47497665D01*
X193719361Y-47554419D01*
%TD*%
M02*
