M48
; DRILL file {KiCad (5.1.6)-1} date 08/29/21 15:44:11
; FORMAT={-:-/ absolute / inch / decimal}
; #@! TF.CreationDate,2021-08-29T15:44:11-07:00
; #@! TF.GenerationSoftware,Kicad,Pcbnew,(5.1.6)-1
; #@! TF.FileFunction,Plated,1,2,PTH
FMAT,2
INCH
T1C0.0157
T2C0.0315
T3C0.0394
T4C0.1591
%
G90
G05
T1
X5.15Y-2.575
X5.15Y-3.05
X5.175Y-2.05
X5.625Y-2.575
X5.775Y-2.05
X5.775Y-3.05
X6.0Y-2.525
X6.2Y-3.05
X6.225Y-2.825
X6.3Y-2.05
X6.3Y-2.425
T2
X6.011Y-2.75
X6.011Y-2.85
X6.011Y-2.95
X6.011Y-3.05
X6.311Y-2.75
X6.311Y-2.85
X6.311Y-2.95
X6.311Y-3.05
T3
X5.9Y-2.303
X5.9Y-2.403
X5.9Y-2.503
X5.9Y-2.603
X5.9Y-2.703
X5.9Y-2.803
T4
X5.4Y-2.103
X5.4Y-3.003
T0
M30
