%TF.GenerationSoftware,KiCad,Pcbnew,(5.1.6)-1*%
%TF.CreationDate,2021-08-29T15:44:04-07:00*%
%TF.ProjectId,MPX4115AP Adapter,4d505834-3131-4354-9150-204164617074,rev?*%
%TF.SameCoordinates,Original*%
%TF.FileFunction,Legend,Top*%
%TF.FilePolarity,Positive*%
%FSLAX46Y46*%
G04 Gerber Fmt 4.6, Leading zero omitted, Abs format (unit mm)*
G04 Created by KiCad (PCBNEW (5.1.6)-1) date 2021-08-29 15:44:04*
%MOMM*%
%LPD*%
G01*
G04 APERTURE LIST*
%ADD10C,0.150000*%
%ADD11C,0.120000*%
G04 APERTURE END LIST*
D10*
X154822380Y-67023333D02*
X153822380Y-67023333D01*
X154536666Y-66690000D01*
X153822380Y-66356666D01*
X154822380Y-66356666D01*
X154822380Y-65880476D02*
X153822380Y-65880476D01*
X153822380Y-65499523D01*
X153870000Y-65404285D01*
X153917619Y-65356666D01*
X154012857Y-65309047D01*
X154155714Y-65309047D01*
X154250952Y-65356666D01*
X154298571Y-65404285D01*
X154346190Y-65499523D01*
X154346190Y-65880476D01*
X153822380Y-64975714D02*
X154822380Y-64309047D01*
X153822380Y-64309047D02*
X154822380Y-64975714D01*
X154155714Y-63499523D02*
X154822380Y-63499523D01*
X153774761Y-63737619D02*
X154489047Y-63975714D01*
X154489047Y-63356666D01*
X154822380Y-62451904D02*
X154822380Y-63023333D01*
X154822380Y-62737619D02*
X153822380Y-62737619D01*
X153965238Y-62832857D01*
X154060476Y-62928095D01*
X154108095Y-63023333D01*
X154822380Y-61499523D02*
X154822380Y-62070952D01*
X154822380Y-61785238D02*
X153822380Y-61785238D01*
X153965238Y-61880476D01*
X154060476Y-61975714D01*
X154108095Y-62070952D01*
X153822380Y-60594761D02*
X153822380Y-61070952D01*
X154298571Y-61118571D01*
X154250952Y-61070952D01*
X154203333Y-60975714D01*
X154203333Y-60737619D01*
X154250952Y-60642380D01*
X154298571Y-60594761D01*
X154393809Y-60547142D01*
X154631904Y-60547142D01*
X154727142Y-60594761D01*
X154774761Y-60642380D01*
X154822380Y-60737619D01*
X154822380Y-60975714D01*
X154774761Y-61070952D01*
X154727142Y-61118571D01*
X154536666Y-60166190D02*
X154536666Y-59690000D01*
X154822380Y-60261428D02*
X153822380Y-59928095D01*
X154822380Y-59594761D01*
X154822380Y-59261428D02*
X153822380Y-59261428D01*
X153822380Y-58880476D01*
X153870000Y-58785238D01*
X153917619Y-58737619D01*
X154012857Y-58690000D01*
X154155714Y-58690000D01*
X154250952Y-58737619D01*
X154298571Y-58785238D01*
X154346190Y-58880476D01*
X154346190Y-59261428D01*
X154536666Y-57547142D02*
X154536666Y-57070952D01*
X154822380Y-57642380D02*
X153822380Y-57309047D01*
X154822380Y-56975714D01*
X154822380Y-56213809D02*
X153822380Y-56213809D01*
X154774761Y-56213809D02*
X154822380Y-56309047D01*
X154822380Y-56499523D01*
X154774761Y-56594761D01*
X154727142Y-56642380D01*
X154631904Y-56690000D01*
X154346190Y-56690000D01*
X154250952Y-56642380D01*
X154203333Y-56594761D01*
X154155714Y-56499523D01*
X154155714Y-56309047D01*
X154203333Y-56213809D01*
X154822380Y-55309047D02*
X154298571Y-55309047D01*
X154203333Y-55356666D01*
X154155714Y-55451904D01*
X154155714Y-55642380D01*
X154203333Y-55737619D01*
X154774761Y-55309047D02*
X154822380Y-55404285D01*
X154822380Y-55642380D01*
X154774761Y-55737619D01*
X154679523Y-55785238D01*
X154584285Y-55785238D01*
X154489047Y-55737619D01*
X154441428Y-55642380D01*
X154441428Y-55404285D01*
X154393809Y-55309047D01*
X154155714Y-54832857D02*
X155155714Y-54832857D01*
X154203333Y-54832857D02*
X154155714Y-54737619D01*
X154155714Y-54547142D01*
X154203333Y-54451904D01*
X154250952Y-54404285D01*
X154346190Y-54356666D01*
X154631904Y-54356666D01*
X154727142Y-54404285D01*
X154774761Y-54451904D01*
X154822380Y-54547142D01*
X154822380Y-54737619D01*
X154774761Y-54832857D01*
X154155714Y-54070952D02*
X154155714Y-53690000D01*
X153822380Y-53928095D02*
X154679523Y-53928095D01*
X154774761Y-53880476D01*
X154822380Y-53785238D01*
X154822380Y-53690000D01*
X154774761Y-52975714D02*
X154822380Y-53070952D01*
X154822380Y-53261428D01*
X154774761Y-53356666D01*
X154679523Y-53404285D01*
X154298571Y-53404285D01*
X154203333Y-53356666D01*
X154155714Y-53261428D01*
X154155714Y-53070952D01*
X154203333Y-52975714D01*
X154298571Y-52928095D01*
X154393809Y-52928095D01*
X154489047Y-53404285D01*
X154822380Y-52499523D02*
X154155714Y-52499523D01*
X154346190Y-52499523D02*
X154250952Y-52451904D01*
X154203333Y-52404285D01*
X154155714Y-52309047D01*
X154155714Y-52213809D01*
X156472380Y-64404285D02*
X155472380Y-64404285D01*
X155472380Y-64166190D01*
X155520000Y-64023333D01*
X155615238Y-63928095D01*
X155710476Y-63880476D01*
X155900952Y-63832857D01*
X156043809Y-63832857D01*
X156234285Y-63880476D01*
X156329523Y-63928095D01*
X156424761Y-64023333D01*
X156472380Y-64166190D01*
X156472380Y-64404285D01*
X156424761Y-63023333D02*
X156472380Y-63118571D01*
X156472380Y-63309047D01*
X156424761Y-63404285D01*
X156329523Y-63451904D01*
X155948571Y-63451904D01*
X155853333Y-63404285D01*
X155805714Y-63309047D01*
X155805714Y-63118571D01*
X155853333Y-63023333D01*
X155948571Y-62975714D01*
X156043809Y-62975714D01*
X156139047Y-63451904D01*
X156424761Y-62594761D02*
X156472380Y-62499523D01*
X156472380Y-62309047D01*
X156424761Y-62213809D01*
X156329523Y-62166190D01*
X156281904Y-62166190D01*
X156186666Y-62213809D01*
X156139047Y-62309047D01*
X156139047Y-62451904D01*
X156091428Y-62547142D01*
X155996190Y-62594761D01*
X155948571Y-62594761D01*
X155853333Y-62547142D01*
X155805714Y-62451904D01*
X155805714Y-62309047D01*
X155853333Y-62213809D01*
X156472380Y-61737619D02*
X155805714Y-61737619D01*
X155472380Y-61737619D02*
X155520000Y-61785238D01*
X155567619Y-61737619D01*
X155520000Y-61690000D01*
X155472380Y-61737619D01*
X155567619Y-61737619D01*
X155805714Y-60832857D02*
X156615238Y-60832857D01*
X156710476Y-60880476D01*
X156758095Y-60928095D01*
X156805714Y-61023333D01*
X156805714Y-61166190D01*
X156758095Y-61261428D01*
X156424761Y-60832857D02*
X156472380Y-60928095D01*
X156472380Y-61118571D01*
X156424761Y-61213809D01*
X156377142Y-61261428D01*
X156281904Y-61309047D01*
X155996190Y-61309047D01*
X155900952Y-61261428D01*
X155853333Y-61213809D01*
X155805714Y-61118571D01*
X155805714Y-60928095D01*
X155853333Y-60832857D01*
X155805714Y-60356666D02*
X156472380Y-60356666D01*
X155900952Y-60356666D02*
X155853333Y-60309047D01*
X155805714Y-60213809D01*
X155805714Y-60070952D01*
X155853333Y-59975714D01*
X155948571Y-59928095D01*
X156472380Y-59928095D01*
X156424761Y-59070952D02*
X156472380Y-59166190D01*
X156472380Y-59356666D01*
X156424761Y-59451904D01*
X156329523Y-59499523D01*
X155948571Y-59499523D01*
X155853333Y-59451904D01*
X155805714Y-59356666D01*
X155805714Y-59166190D01*
X155853333Y-59070952D01*
X155948571Y-59023333D01*
X156043809Y-59023333D01*
X156139047Y-59499523D01*
X156472380Y-58166190D02*
X155472380Y-58166190D01*
X156424761Y-58166190D02*
X156472380Y-58261428D01*
X156472380Y-58451904D01*
X156424761Y-58547142D01*
X156377142Y-58594761D01*
X156281904Y-58642380D01*
X155996190Y-58642380D01*
X155900952Y-58594761D01*
X155853333Y-58547142D01*
X155805714Y-58451904D01*
X155805714Y-58261428D01*
X155853333Y-58166190D01*
X156472380Y-56928095D02*
X155472380Y-56928095D01*
X155853333Y-56928095D02*
X155805714Y-56832857D01*
X155805714Y-56642380D01*
X155853333Y-56547142D01*
X155900952Y-56499523D01*
X155996190Y-56451904D01*
X156281904Y-56451904D01*
X156377142Y-56499523D01*
X156424761Y-56547142D01*
X156472380Y-56642380D01*
X156472380Y-56832857D01*
X156424761Y-56928095D01*
X155805714Y-56118571D02*
X156472380Y-55880476D01*
X155805714Y-55642380D02*
X156472380Y-55880476D01*
X156710476Y-55975714D01*
X156758095Y-56023333D01*
X156805714Y-56118571D01*
X158122380Y-64356666D02*
X157646190Y-64690000D01*
X158122380Y-64928095D02*
X157122380Y-64928095D01*
X157122380Y-64547142D01*
X157170000Y-64451904D01*
X157217619Y-64404285D01*
X157312857Y-64356666D01*
X157455714Y-64356666D01*
X157550952Y-64404285D01*
X157598571Y-64451904D01*
X157646190Y-64547142D01*
X157646190Y-64928095D01*
X158122380Y-63785238D02*
X158074761Y-63880476D01*
X158027142Y-63928095D01*
X157931904Y-63975714D01*
X157646190Y-63975714D01*
X157550952Y-63928095D01*
X157503333Y-63880476D01*
X157455714Y-63785238D01*
X157455714Y-63642380D01*
X157503333Y-63547142D01*
X157550952Y-63499523D01*
X157646190Y-63451904D01*
X157931904Y-63451904D01*
X158027142Y-63499523D01*
X158074761Y-63547142D01*
X158122380Y-63642380D01*
X158122380Y-63785238D01*
X158122380Y-63023333D02*
X157122380Y-63023333D01*
X157503333Y-63023333D02*
X157455714Y-62928095D01*
X157455714Y-62737619D01*
X157503333Y-62642380D01*
X157550952Y-62594761D01*
X157646190Y-62547142D01*
X157931904Y-62547142D01*
X158027142Y-62594761D01*
X158074761Y-62642380D01*
X158122380Y-62737619D01*
X158122380Y-62928095D01*
X158074761Y-63023333D01*
X158074761Y-61737619D02*
X158122380Y-61832857D01*
X158122380Y-62023333D01*
X158074761Y-62118571D01*
X157979523Y-62166190D01*
X157598571Y-62166190D01*
X157503333Y-62118571D01*
X157455714Y-62023333D01*
X157455714Y-61832857D01*
X157503333Y-61737619D01*
X157598571Y-61690000D01*
X157693809Y-61690000D01*
X157789047Y-62166190D01*
X158122380Y-61261428D02*
X157455714Y-61261428D01*
X157646190Y-61261428D02*
X157550952Y-61213809D01*
X157503333Y-61166190D01*
X157455714Y-61070952D01*
X157455714Y-60975714D01*
X157455714Y-60785238D02*
X157455714Y-60404285D01*
X157122380Y-60642380D02*
X157979523Y-60642380D01*
X158074761Y-60594761D01*
X158122380Y-60499523D01*
X158122380Y-60404285D01*
X158122380Y-59309047D02*
X157122380Y-59309047D01*
X157598571Y-59309047D02*
X157598571Y-58737619D01*
X158122380Y-58737619D02*
X157122380Y-58737619D01*
X158122380Y-58261428D02*
X157455714Y-58261428D01*
X157122380Y-58261428D02*
X157170000Y-58309047D01*
X157217619Y-58261428D01*
X157170000Y-58213809D01*
X157122380Y-58261428D01*
X157217619Y-58261428D01*
X158074761Y-57404285D02*
X158122380Y-57499523D01*
X158122380Y-57690000D01*
X158074761Y-57785238D01*
X157979523Y-57832857D01*
X157598571Y-57832857D01*
X157503333Y-57785238D01*
X157455714Y-57690000D01*
X157455714Y-57499523D01*
X157503333Y-57404285D01*
X157598571Y-57356666D01*
X157693809Y-57356666D01*
X157789047Y-57832857D01*
X158122380Y-56928095D02*
X157122380Y-56928095D01*
X157503333Y-56928095D02*
X157455714Y-56832857D01*
X157455714Y-56642380D01*
X157503333Y-56547142D01*
X157550952Y-56499523D01*
X157646190Y-56451904D01*
X157931904Y-56451904D01*
X158027142Y-56499523D01*
X158074761Y-56547142D01*
X158122380Y-56642380D01*
X158122380Y-56832857D01*
X158074761Y-56928095D01*
X158074761Y-55642380D02*
X158122380Y-55737619D01*
X158122380Y-55928095D01*
X158074761Y-56023333D01*
X157979523Y-56070952D01*
X157598571Y-56070952D01*
X157503333Y-56023333D01*
X157455714Y-55928095D01*
X157455714Y-55737619D01*
X157503333Y-55642380D01*
X157598571Y-55594761D01*
X157693809Y-55594761D01*
X157789047Y-56070952D01*
X158122380Y-55166190D02*
X157455714Y-55166190D01*
X157646190Y-55166190D02*
X157550952Y-55118571D01*
X157503333Y-55070952D01*
X157455714Y-54975714D01*
X157455714Y-54880476D01*
X157455714Y-54690000D02*
X157455714Y-54309047D01*
X157122380Y-54547142D02*
X157979523Y-54547142D01*
X158074761Y-54499523D01*
X158122380Y-54404285D01*
X158122380Y-54309047D01*
X159486666Y-64451904D02*
X159486666Y-63975714D01*
X159772380Y-64547142D02*
X158772380Y-64213809D01*
X159772380Y-63880476D01*
X159105714Y-63118571D02*
X159772380Y-63118571D01*
X159105714Y-63547142D02*
X159629523Y-63547142D01*
X159724761Y-63499523D01*
X159772380Y-63404285D01*
X159772380Y-63261428D01*
X159724761Y-63166190D01*
X159677142Y-63118571D01*
X159105714Y-62213809D02*
X159915238Y-62213809D01*
X160010476Y-62261428D01*
X160058095Y-62309047D01*
X160105714Y-62404285D01*
X160105714Y-62547142D01*
X160058095Y-62642380D01*
X159724761Y-62213809D02*
X159772380Y-62309047D01*
X159772380Y-62499523D01*
X159724761Y-62594761D01*
X159677142Y-62642380D01*
X159581904Y-62690000D01*
X159296190Y-62690000D01*
X159200952Y-62642380D01*
X159153333Y-62594761D01*
X159105714Y-62499523D01*
X159105714Y-62309047D01*
X159153333Y-62213809D01*
X158867619Y-61023333D02*
X158820000Y-60975714D01*
X158772380Y-60880476D01*
X158772380Y-60642380D01*
X158820000Y-60547142D01*
X158867619Y-60499523D01*
X158962857Y-60451904D01*
X159058095Y-60451904D01*
X159200952Y-60499523D01*
X159772380Y-61070952D01*
X159772380Y-60451904D01*
X159200952Y-59880476D02*
X159153333Y-59975714D01*
X159105714Y-60023333D01*
X159010476Y-60070952D01*
X158962857Y-60070952D01*
X158867619Y-60023333D01*
X158820000Y-59975714D01*
X158772380Y-59880476D01*
X158772380Y-59690000D01*
X158820000Y-59594761D01*
X158867619Y-59547142D01*
X158962857Y-59499523D01*
X159010476Y-59499523D01*
X159105714Y-59547142D01*
X159153333Y-59594761D01*
X159200952Y-59690000D01*
X159200952Y-59880476D01*
X159248571Y-59975714D01*
X159296190Y-60023333D01*
X159391428Y-60070952D01*
X159581904Y-60070952D01*
X159677142Y-60023333D01*
X159724761Y-59975714D01*
X159772380Y-59880476D01*
X159772380Y-59690000D01*
X159724761Y-59594761D01*
X159677142Y-59547142D01*
X159581904Y-59499523D01*
X159391428Y-59499523D01*
X159296190Y-59547142D01*
X159248571Y-59594761D01*
X159200952Y-59690000D01*
X158867619Y-58356666D02*
X158820000Y-58309047D01*
X158772380Y-58213809D01*
X158772380Y-57975714D01*
X158820000Y-57880476D01*
X158867619Y-57832857D01*
X158962857Y-57785238D01*
X159058095Y-57785238D01*
X159200952Y-57832857D01*
X159772380Y-58404285D01*
X159772380Y-57785238D01*
X158772380Y-57166190D02*
X158772380Y-57070952D01*
X158820000Y-56975714D01*
X158867619Y-56928095D01*
X158962857Y-56880476D01*
X159153333Y-56832857D01*
X159391428Y-56832857D01*
X159581904Y-56880476D01*
X159677142Y-56928095D01*
X159724761Y-56975714D01*
X159772380Y-57070952D01*
X159772380Y-57166190D01*
X159724761Y-57261428D01*
X159677142Y-57309047D01*
X159581904Y-57356666D01*
X159391428Y-57404285D01*
X159153333Y-57404285D01*
X158962857Y-57356666D01*
X158867619Y-57309047D01*
X158820000Y-57261428D01*
X158772380Y-57166190D01*
X158867619Y-56451904D02*
X158820000Y-56404285D01*
X158772380Y-56309047D01*
X158772380Y-56070952D01*
X158820000Y-55975714D01*
X158867619Y-55928095D01*
X158962857Y-55880476D01*
X159058095Y-55880476D01*
X159200952Y-55928095D01*
X159772380Y-56499523D01*
X159772380Y-55880476D01*
X159772380Y-54928095D02*
X159772380Y-55499523D01*
X159772380Y-55213809D02*
X158772380Y-55213809D01*
X158915238Y-55309047D01*
X159010476Y-55404285D01*
X159058095Y-55499523D01*
X155956190Y-69302380D02*
X156289523Y-70302380D01*
X156622857Y-69302380D01*
X157099047Y-70302380D02*
X157003809Y-70254761D01*
X156956190Y-70207142D01*
X156908571Y-70111904D01*
X156908571Y-69826190D01*
X156956190Y-69730952D01*
X157003809Y-69683333D01*
X157099047Y-69635714D01*
X157241904Y-69635714D01*
X157337142Y-69683333D01*
X157384761Y-69730952D01*
X157432380Y-69826190D01*
X157432380Y-70111904D01*
X157384761Y-70207142D01*
X157337142Y-70254761D01*
X157241904Y-70302380D01*
X157099047Y-70302380D01*
X158289523Y-69635714D02*
X158289523Y-70302380D01*
X157860952Y-69635714D02*
X157860952Y-70159523D01*
X157908571Y-70254761D01*
X158003809Y-70302380D01*
X158146666Y-70302380D01*
X158241904Y-70254761D01*
X158289523Y-70207142D01*
X158622857Y-69635714D02*
X159003809Y-69635714D01*
X158765714Y-69302380D02*
X158765714Y-70159523D01*
X158813333Y-70254761D01*
X158908571Y-70302380D01*
X159003809Y-70302380D01*
X156837142Y-71890000D02*
X156741904Y-71842380D01*
X156599047Y-71842380D01*
X156456190Y-71890000D01*
X156360952Y-71985238D01*
X156313333Y-72080476D01*
X156265714Y-72270952D01*
X156265714Y-72413809D01*
X156313333Y-72604285D01*
X156360952Y-72699523D01*
X156456190Y-72794761D01*
X156599047Y-72842380D01*
X156694285Y-72842380D01*
X156837142Y-72794761D01*
X156884761Y-72747142D01*
X156884761Y-72413809D01*
X156694285Y-72413809D01*
X157313333Y-72175714D02*
X157313333Y-72842380D01*
X157313333Y-72270952D02*
X157360952Y-72223333D01*
X157456190Y-72175714D01*
X157599047Y-72175714D01*
X157694285Y-72223333D01*
X157741904Y-72318571D01*
X157741904Y-72842380D01*
X158646666Y-72842380D02*
X158646666Y-71842380D01*
X158646666Y-72794761D02*
X158551428Y-72842380D01*
X158360952Y-72842380D01*
X158265714Y-72794761D01*
X158218095Y-72747142D01*
X158170476Y-72651904D01*
X158170476Y-72366190D01*
X158218095Y-72270952D01*
X158265714Y-72223333D01*
X158360952Y-72175714D01*
X158551428Y-72175714D01*
X158646666Y-72223333D01*
X156146666Y-74382380D02*
X156480000Y-75382380D01*
X156813333Y-74382380D01*
X157718095Y-75287142D02*
X157670476Y-75334761D01*
X157527619Y-75382380D01*
X157432380Y-75382380D01*
X157289523Y-75334761D01*
X157194285Y-75239523D01*
X157146666Y-75144285D01*
X157099047Y-74953809D01*
X157099047Y-74810952D01*
X157146666Y-74620476D01*
X157194285Y-74525238D01*
X157289523Y-74430000D01*
X157432380Y-74382380D01*
X157527619Y-74382380D01*
X157670476Y-74430000D01*
X157718095Y-74477619D01*
X158718095Y-75287142D02*
X158670476Y-75334761D01*
X158527619Y-75382380D01*
X158432380Y-75382380D01*
X158289523Y-75334761D01*
X158194285Y-75239523D01*
X158146666Y-75144285D01*
X158099047Y-74953809D01*
X158099047Y-74810952D01*
X158146666Y-74620476D01*
X158194285Y-74525238D01*
X158289523Y-74430000D01*
X158432380Y-74382380D01*
X158527619Y-74382380D01*
X158670476Y-74430000D01*
X158718095Y-74477619D01*
X145986666Y-65492380D02*
X146320000Y-66492380D01*
X146653333Y-65492380D01*
X147558095Y-66397142D02*
X147510476Y-66444761D01*
X147367619Y-66492380D01*
X147272380Y-66492380D01*
X147129523Y-66444761D01*
X147034285Y-66349523D01*
X146986666Y-66254285D01*
X146939047Y-66063809D01*
X146939047Y-65920952D01*
X146986666Y-65730476D01*
X147034285Y-65635238D01*
X147129523Y-65540000D01*
X147272380Y-65492380D01*
X147367619Y-65492380D01*
X147510476Y-65540000D01*
X147558095Y-65587619D01*
X148558095Y-66397142D02*
X148510476Y-66444761D01*
X148367619Y-66492380D01*
X148272380Y-66492380D01*
X148129523Y-66444761D01*
X148034285Y-66349523D01*
X147986666Y-66254285D01*
X147939047Y-66063809D01*
X147939047Y-65920952D01*
X147986666Y-65730476D01*
X148034285Y-65635238D01*
X148129523Y-65540000D01*
X148272380Y-65492380D01*
X148367619Y-65492380D01*
X148510476Y-65540000D01*
X148558095Y-65587619D01*
X146677142Y-68080000D02*
X146581904Y-68032380D01*
X146439047Y-68032380D01*
X146296190Y-68080000D01*
X146200952Y-68175238D01*
X146153333Y-68270476D01*
X146105714Y-68460952D01*
X146105714Y-68603809D01*
X146153333Y-68794285D01*
X146200952Y-68889523D01*
X146296190Y-68984761D01*
X146439047Y-69032380D01*
X146534285Y-69032380D01*
X146677142Y-68984761D01*
X146724761Y-68937142D01*
X146724761Y-68603809D01*
X146534285Y-68603809D01*
X147153333Y-68365714D02*
X147153333Y-69032380D01*
X147153333Y-68460952D02*
X147200952Y-68413333D01*
X147296190Y-68365714D01*
X147439047Y-68365714D01*
X147534285Y-68413333D01*
X147581904Y-68508571D01*
X147581904Y-69032380D01*
X148486666Y-69032380D02*
X148486666Y-68032380D01*
X148486666Y-68984761D02*
X148391428Y-69032380D01*
X148200952Y-69032380D01*
X148105714Y-68984761D01*
X148058095Y-68937142D01*
X148010476Y-68841904D01*
X148010476Y-68556190D01*
X148058095Y-68460952D01*
X148105714Y-68413333D01*
X148200952Y-68365714D01*
X148391428Y-68365714D01*
X148486666Y-68413333D01*
X145161190Y-70572380D02*
X145494523Y-71572380D01*
X145827857Y-70572380D01*
X146304047Y-71572380D02*
X146208809Y-71524761D01*
X146161190Y-71477142D01*
X146113571Y-71381904D01*
X146113571Y-71096190D01*
X146161190Y-71000952D01*
X146208809Y-70953333D01*
X146304047Y-70905714D01*
X146446904Y-70905714D01*
X146542142Y-70953333D01*
X146589761Y-71000952D01*
X146637380Y-71096190D01*
X146637380Y-71381904D01*
X146589761Y-71477142D01*
X146542142Y-71524761D01*
X146446904Y-71572380D01*
X146304047Y-71572380D01*
X147494523Y-70905714D02*
X147494523Y-71572380D01*
X147065952Y-70905714D02*
X147065952Y-71429523D01*
X147113571Y-71524761D01*
X147208809Y-71572380D01*
X147351666Y-71572380D01*
X147446904Y-71524761D01*
X147494523Y-71477142D01*
X147827857Y-70905714D02*
X148208809Y-70905714D01*
X147970714Y-70572380D02*
X147970714Y-71429523D01*
X148018333Y-71524761D01*
X148113571Y-71572380D01*
X148208809Y-71572380D01*
D11*
%TO.C,U1*%
X140725060Y-53416200D02*
G75*
G03*
X140725060Y-53416200I-3565060J0D01*
G01*
X140614774Y-76276200D02*
G75*
G03*
X140614774Y-76276200I-3454774J0D01*
G01*
X133858000Y-52146200D02*
X129032000Y-61036200D01*
X140716000Y-76276200D02*
X145288000Y-68656200D01*
X133705227Y-76276200D02*
X129286000Y-68910200D01*
X130302000Y-58496200D02*
X116840000Y-58496200D01*
X116840000Y-58496200D02*
X116840000Y-63322200D01*
X145540330Y-61077868D02*
X140462000Y-52146200D01*
X143510000Y-57226200D02*
X151130000Y-57226200D01*
X151130000Y-57226200D02*
X151130000Y-72466200D01*
X151130000Y-72466200D02*
X143002000Y-72466200D01*
X116840000Y-63322200D02*
X128270000Y-63322200D01*
X145540330Y-61077868D02*
G75*
G02*
X145287999Y-68656199I-8380330J-3514332D01*
G01*
X129183153Y-68963283D02*
G75*
G02*
X129032001Y-61036201I7976847J4117083D01*
G01*
%TO.C,U2*%
X153839400Y-78800000D02*
X155489400Y-78800000D01*
X153839400Y-68520000D02*
X153839400Y-78800000D01*
X159139400Y-68520000D02*
X153839400Y-68520000D01*
X159139400Y-78800000D02*
X159139400Y-68520000D01*
X157489400Y-78800000D02*
X159139400Y-78800000D01*
X155489400Y-78800000D02*
G75*
G02*
X157489400Y-78800000I1000000J0D01*
G01*
%TO.C,U1*%
D10*
X130048095Y-50252380D02*
X130048095Y-51061904D01*
X130095714Y-51157142D01*
X130143333Y-51204761D01*
X130238571Y-51252380D01*
X130429047Y-51252380D01*
X130524285Y-51204761D01*
X130571904Y-51157142D01*
X130619523Y-51061904D01*
X130619523Y-50252380D01*
X131619523Y-51252380D02*
X131048095Y-51252380D01*
X131333809Y-51252380D02*
X131333809Y-50252380D01*
X131238571Y-50395238D01*
X131143333Y-50490476D01*
X131048095Y-50538095D01*
X141907142Y-51252380D02*
X141907142Y-50252380D01*
X142240476Y-50966666D01*
X142573809Y-50252380D01*
X142573809Y-51252380D01*
X143050000Y-51252380D02*
X143050000Y-50252380D01*
X143430952Y-50252380D01*
X143526190Y-50300000D01*
X143573809Y-50347619D01*
X143621428Y-50442857D01*
X143621428Y-50585714D01*
X143573809Y-50680952D01*
X143526190Y-50728571D01*
X143430952Y-50776190D01*
X143050000Y-50776190D01*
X143954761Y-50252380D02*
X144621428Y-51252380D01*
X144621428Y-50252380D02*
X143954761Y-51252380D01*
X145430952Y-50585714D02*
X145430952Y-51252380D01*
X145192857Y-50204761D02*
X144954761Y-50919047D01*
X145573809Y-50919047D01*
X146478571Y-51252380D02*
X145907142Y-51252380D01*
X146192857Y-51252380D02*
X146192857Y-50252380D01*
X146097619Y-50395238D01*
X146002380Y-50490476D01*
X145907142Y-50538095D01*
X147430952Y-51252380D02*
X146859523Y-51252380D01*
X147145238Y-51252380D02*
X147145238Y-50252380D01*
X147050000Y-50395238D01*
X146954761Y-50490476D01*
X146859523Y-50538095D01*
X148335714Y-50252380D02*
X147859523Y-50252380D01*
X147811904Y-50728571D01*
X147859523Y-50680952D01*
X147954761Y-50633333D01*
X148192857Y-50633333D01*
X148288095Y-50680952D01*
X148335714Y-50728571D01*
X148383333Y-50823809D01*
X148383333Y-51061904D01*
X148335714Y-51157142D01*
X148288095Y-51204761D01*
X148192857Y-51252380D01*
X147954761Y-51252380D01*
X147859523Y-51204761D01*
X147811904Y-51157142D01*
X148764285Y-50966666D02*
X149240476Y-50966666D01*
X148669047Y-51252380D02*
X149002380Y-50252380D01*
X149335714Y-51252380D01*
X149669047Y-51252380D02*
X149669047Y-50252380D01*
X150050000Y-50252380D01*
X150145238Y-50300000D01*
X150192857Y-50347619D01*
X150240476Y-50442857D01*
X150240476Y-50585714D01*
X150192857Y-50680952D01*
X150145238Y-50728571D01*
X150050000Y-50776190D01*
X149669047Y-50776190D01*
%TD*%
M02*
