%TF.GenerationSoftware,KiCad,Pcbnew,(5.1.6)-1*%
%TF.CreationDate,2021-08-29T15:44:04-07:00*%
%TF.ProjectId,MPX4115AP Adapter,4d505834-3131-4354-9150-204164617074,rev?*%
%TF.SameCoordinates,Original*%
%TF.FileFunction,Copper,L1,Top*%
%TF.FilePolarity,Positive*%
%FSLAX46Y46*%
G04 Gerber Fmt 4.6, Leading zero omitted, Abs format (unit mm)*
G04 Created by KiCad (PCBNEW (5.1.6)-1) date 2021-08-29 15:44:04*
%MOMM*%
%LPD*%
G01*
G04 APERTURE LIST*
%TA.AperFunction,ComponentPad*%
%ADD10R,1.700000X1.700000*%
%TD*%
%TA.AperFunction,ComponentPad*%
%ADD11C,1.700000*%
%TD*%
%TA.AperFunction,ComponentPad*%
%ADD12C,5.000000*%
%TD*%
%TA.AperFunction,ComponentPad*%
%ADD13O,1.600000X1.600000*%
%TD*%
%TA.AperFunction,ComponentPad*%
%ADD14R,1.600000X1.600000*%
%TD*%
%TA.AperFunction,ViaPad*%
%ADD15C,0.800000*%
%TD*%
%TA.AperFunction,Conductor*%
%ADD16C,0.762000*%
%TD*%
%TA.AperFunction,Conductor*%
%ADD17C,0.254000*%
%TD*%
G04 APERTURE END LIST*
D10*
%TO.P,U1,1*%
%TO.N,Net-(U1-Pad1)*%
X149860000Y-71196200D03*
D11*
%TO.P,U1,2*%
%TO.N,GND*%
X149860000Y-68656200D03*
%TO.P,U1,3*%
%TO.N,VCC*%
X149860000Y-66116200D03*
%TO.P,U1,4*%
%TO.N,N/C*%
X149860000Y-63576200D03*
%TO.P,U1,5*%
%TO.N,Net-(U1-Pad5)*%
X149860000Y-61036200D03*
%TO.P,U1,6*%
%TO.N,Net-(U1-Pad6)*%
X149860000Y-58496200D03*
D12*
%TO.P,U1,*%
%TO.N,*%
X137160000Y-53416200D03*
X137160000Y-76276200D03*
%TD*%
D13*
%TO.P,U2,8*%
%TO.N,Net-(U2-Pad8)*%
X152679400Y-77470000D03*
%TO.P,U2,4*%
%TO.N,Net-(U1-Pad1)*%
X160299400Y-69850000D03*
%TO.P,U2,7*%
%TO.N,Net-(U2-Pad7)*%
X152679400Y-74930000D03*
%TO.P,U2,3*%
%TO.N,GND*%
X160299400Y-72390000D03*
%TO.P,U2,6*%
%TO.N,Net-(U2-Pad6)*%
X152679400Y-72390000D03*
%TO.P,U2,2*%
%TO.N,VCC*%
X160299400Y-74930000D03*
%TO.P,U2,5*%
%TO.N,Net-(U2-Pad5)*%
X152679400Y-69850000D03*
D14*
%TO.P,U2,1*%
%TO.N,Net-(U2-Pad1)*%
X160299400Y-77470000D03*
%TD*%
D15*
%TO.N,GND*%
X160020000Y-52070000D03*
X146685000Y-52070000D03*
X131445000Y-52070000D03*
X130810000Y-77470000D03*
X146685000Y-77470000D03*
X157480000Y-77470000D03*
X160020000Y-61595000D03*
X142875000Y-65405000D03*
X130810000Y-65405000D03*
X152400000Y-64135000D03*
X158115000Y-71755000D03*
%TD*%
D16*
%TO.N,VCC*%
X149860000Y-66116200D02*
X153746200Y-66116200D01*
X153746200Y-66116200D02*
X156210000Y-68580000D01*
X156210000Y-68580000D02*
X156210000Y-73660000D01*
X157480000Y-74930000D02*
X160299400Y-74930000D01*
X156210000Y-73660000D02*
X157480000Y-74930000D01*
%TO.N,Net-(U1-Pad1)*%
X148666200Y-71196200D02*
X147320000Y-69850000D01*
X147320000Y-69850000D02*
X147320000Y-57150000D01*
X147320000Y-57150000D02*
X148590000Y-55880000D01*
X148590000Y-55880000D02*
X151130000Y-55880000D01*
X151130000Y-55880000D02*
X152400000Y-57150000D01*
X152400000Y-61950600D02*
X160299400Y-69850000D01*
X152400000Y-57150000D02*
X152400000Y-61950600D01*
X148666200Y-71196200D02*
X149860000Y-71196200D01*
%TD*%
D17*
%TO.N,GND*%
G36*
X135675021Y-50637999D02*
G01*
X135161554Y-50981086D01*
X134724886Y-51417754D01*
X134381799Y-51931221D01*
X134145476Y-52501754D01*
X134025000Y-53107429D01*
X134025000Y-53724971D01*
X134145476Y-54330646D01*
X134381799Y-54901179D01*
X134724886Y-55414646D01*
X135161554Y-55851314D01*
X135675021Y-56194401D01*
X136245554Y-56430724D01*
X136851229Y-56551200D01*
X137468771Y-56551200D01*
X138074446Y-56430724D01*
X138644979Y-56194401D01*
X139158446Y-55851314D01*
X139595114Y-55414646D01*
X139938201Y-54901179D01*
X140174524Y-54330646D01*
X140295000Y-53724971D01*
X140295000Y-53107429D01*
X140174524Y-52501754D01*
X139938201Y-51931221D01*
X139595114Y-51417754D01*
X139158446Y-50981086D01*
X138644979Y-50637999D01*
X138116270Y-50419000D01*
X161900000Y-50419000D01*
X161900001Y-79121000D01*
X138484195Y-79121000D01*
X138644979Y-79054401D01*
X139158446Y-78711314D01*
X139595114Y-78274646D01*
X139938201Y-77761179D01*
X140174524Y-77190646D01*
X140295000Y-76584971D01*
X140295000Y-75967429D01*
X140174524Y-75361754D01*
X139938201Y-74791221D01*
X139595114Y-74277754D01*
X139158446Y-73841086D01*
X138644979Y-73497999D01*
X138074446Y-73261676D01*
X137468771Y-73141200D01*
X136851229Y-73141200D01*
X136245554Y-73261676D01*
X135675021Y-73497999D01*
X135161554Y-73841086D01*
X134724886Y-74277754D01*
X134381799Y-74791221D01*
X134145476Y-75361754D01*
X134025000Y-75967429D01*
X134025000Y-76584971D01*
X134145476Y-77190646D01*
X134381799Y-77761179D01*
X134724886Y-78274646D01*
X135161554Y-78711314D01*
X135675021Y-79054401D01*
X135835805Y-79121000D01*
X129159000Y-79121000D01*
X129159000Y-57150000D01*
X146299085Y-57150000D01*
X146304001Y-57199912D01*
X146304000Y-69800098D01*
X146299085Y-69850000D01*
X146304000Y-69899901D01*
X146318702Y-70049170D01*
X146376798Y-70240686D01*
X146471140Y-70417190D01*
X146598104Y-70571896D01*
X146636872Y-70603712D01*
X147912492Y-71879333D01*
X147944304Y-71918096D01*
X148099010Y-72045060D01*
X148275513Y-72139402D01*
X148384751Y-72172539D01*
X148420498Y-72290380D01*
X148479463Y-72400694D01*
X148558815Y-72497385D01*
X148655506Y-72576737D01*
X148765820Y-72635702D01*
X148885518Y-72672012D01*
X149010000Y-72684272D01*
X150710000Y-72684272D01*
X150834482Y-72672012D01*
X150954180Y-72635702D01*
X151064494Y-72576737D01*
X151161185Y-72497385D01*
X151240537Y-72400694D01*
X151244400Y-72393467D01*
X151244400Y-72531335D01*
X151299547Y-72808574D01*
X151407720Y-73069727D01*
X151564763Y-73304759D01*
X151764641Y-73504637D01*
X151997159Y-73660000D01*
X151764641Y-73815363D01*
X151564763Y-74015241D01*
X151407720Y-74250273D01*
X151299547Y-74511426D01*
X151244400Y-74788665D01*
X151244400Y-75071335D01*
X151299547Y-75348574D01*
X151407720Y-75609727D01*
X151564763Y-75844759D01*
X151764641Y-76044637D01*
X151997159Y-76200000D01*
X151764641Y-76355363D01*
X151564763Y-76555241D01*
X151407720Y-76790273D01*
X151299547Y-77051426D01*
X151244400Y-77328665D01*
X151244400Y-77611335D01*
X151299547Y-77888574D01*
X151407720Y-78149727D01*
X151564763Y-78384759D01*
X151764641Y-78584637D01*
X151999673Y-78741680D01*
X152260826Y-78849853D01*
X152538065Y-78905000D01*
X152820735Y-78905000D01*
X153097974Y-78849853D01*
X153359127Y-78741680D01*
X153594159Y-78584637D01*
X153794037Y-78384759D01*
X153951080Y-78149727D01*
X154059253Y-77888574D01*
X154114400Y-77611335D01*
X154114400Y-77328665D01*
X154059253Y-77051426D01*
X153951080Y-76790273D01*
X153794037Y-76555241D01*
X153594159Y-76355363D01*
X153361641Y-76200000D01*
X153594159Y-76044637D01*
X153794037Y-75844759D01*
X153951080Y-75609727D01*
X154059253Y-75348574D01*
X154114400Y-75071335D01*
X154114400Y-74788665D01*
X154059253Y-74511426D01*
X153951080Y-74250273D01*
X153794037Y-74015241D01*
X153594159Y-73815363D01*
X153361641Y-73660000D01*
X153594159Y-73504637D01*
X153794037Y-73304759D01*
X153951080Y-73069727D01*
X154059253Y-72808574D01*
X154114400Y-72531335D01*
X154114400Y-72248665D01*
X154059253Y-71971426D01*
X153951080Y-71710273D01*
X153794037Y-71475241D01*
X153594159Y-71275363D01*
X153361641Y-71120000D01*
X153594159Y-70964637D01*
X153794037Y-70764759D01*
X153951080Y-70529727D01*
X154059253Y-70268574D01*
X154114400Y-69991335D01*
X154114400Y-69708665D01*
X154059253Y-69431426D01*
X153951080Y-69170273D01*
X153794037Y-68935241D01*
X153594159Y-68735363D01*
X153359127Y-68578320D01*
X153097974Y-68470147D01*
X152820735Y-68415000D01*
X152538065Y-68415000D01*
X152260826Y-68470147D01*
X151999673Y-68578320D01*
X151764641Y-68735363D01*
X151564763Y-68935241D01*
X151407720Y-69170273D01*
X151299547Y-69431426D01*
X151244400Y-69708665D01*
X151244400Y-69991335D01*
X151246807Y-70003436D01*
X151240537Y-69991706D01*
X151161185Y-69895015D01*
X151064494Y-69815663D01*
X150954180Y-69756698D01*
X150834482Y-69720388D01*
X150710000Y-69708128D01*
X150701458Y-69708128D01*
X150708792Y-69684597D01*
X149860000Y-68835805D01*
X149011208Y-69684597D01*
X149018542Y-69708128D01*
X149010000Y-69708128D01*
X148885518Y-69720388D01*
X148765820Y-69756698D01*
X148699166Y-69792326D01*
X148336000Y-69429160D01*
X148336000Y-68724731D01*
X148369389Y-68724731D01*
X148411401Y-69014219D01*
X148509081Y-69289947D01*
X148582528Y-69427357D01*
X148831603Y-69504992D01*
X149680395Y-68656200D01*
X150039605Y-68656200D01*
X150888397Y-69504992D01*
X151137472Y-69427357D01*
X151263371Y-69163317D01*
X151335339Y-68879789D01*
X151350611Y-68587669D01*
X151308599Y-68298181D01*
X151210919Y-68022453D01*
X151137472Y-67885043D01*
X150888397Y-67807408D01*
X150039605Y-68656200D01*
X149680395Y-68656200D01*
X148831603Y-67807408D01*
X148582528Y-67885043D01*
X148456629Y-68149083D01*
X148384661Y-68432611D01*
X148369389Y-68724731D01*
X148336000Y-68724731D01*
X148336000Y-57570840D01*
X149010841Y-56896000D01*
X150709160Y-56896000D01*
X151384000Y-57570841D01*
X151384001Y-61900688D01*
X151379085Y-61950600D01*
X151398702Y-62149770D01*
X151432204Y-62260210D01*
X151456799Y-62341287D01*
X151551141Y-62517790D01*
X151678105Y-62672496D01*
X151716868Y-62704308D01*
X154241444Y-65228884D01*
X154136887Y-65172998D01*
X153945371Y-65114902D01*
X153796102Y-65100200D01*
X153746200Y-65095285D01*
X153696298Y-65100200D01*
X150944107Y-65100200D01*
X150806632Y-64962725D01*
X150632240Y-64846200D01*
X150806632Y-64729675D01*
X151013475Y-64522832D01*
X151175990Y-64279611D01*
X151287932Y-64009358D01*
X151345000Y-63722460D01*
X151345000Y-63429940D01*
X151287932Y-63143042D01*
X151175990Y-62872789D01*
X151013475Y-62629568D01*
X150806632Y-62422725D01*
X150632240Y-62306200D01*
X150806632Y-62189675D01*
X151013475Y-61982832D01*
X151175990Y-61739611D01*
X151287932Y-61469358D01*
X151345000Y-61182460D01*
X151345000Y-60889940D01*
X151287932Y-60603042D01*
X151175990Y-60332789D01*
X151013475Y-60089568D01*
X150806632Y-59882725D01*
X150632240Y-59766200D01*
X150806632Y-59649675D01*
X151013475Y-59442832D01*
X151175990Y-59199611D01*
X151287932Y-58929358D01*
X151345000Y-58642460D01*
X151345000Y-58349940D01*
X151287932Y-58063042D01*
X151175990Y-57792789D01*
X151013475Y-57549568D01*
X150806632Y-57342725D01*
X150563411Y-57180210D01*
X150293158Y-57068268D01*
X150006260Y-57011200D01*
X149713740Y-57011200D01*
X149426842Y-57068268D01*
X149156589Y-57180210D01*
X148913368Y-57342725D01*
X148706525Y-57549568D01*
X148544010Y-57792789D01*
X148432068Y-58063042D01*
X148375000Y-58349940D01*
X148375000Y-58642460D01*
X148432068Y-58929358D01*
X148544010Y-59199611D01*
X148706525Y-59442832D01*
X148913368Y-59649675D01*
X149087760Y-59766200D01*
X148913368Y-59882725D01*
X148706525Y-60089568D01*
X148544010Y-60332789D01*
X148432068Y-60603042D01*
X148375000Y-60889940D01*
X148375000Y-61182460D01*
X148432068Y-61469358D01*
X148544010Y-61739611D01*
X148706525Y-61982832D01*
X148913368Y-62189675D01*
X149087760Y-62306200D01*
X148913368Y-62422725D01*
X148706525Y-62629568D01*
X148544010Y-62872789D01*
X148432068Y-63143042D01*
X148375000Y-63429940D01*
X148375000Y-63722460D01*
X148432068Y-64009358D01*
X148544010Y-64279611D01*
X148706525Y-64522832D01*
X148913368Y-64729675D01*
X149087760Y-64846200D01*
X148913368Y-64962725D01*
X148706525Y-65169568D01*
X148544010Y-65412789D01*
X148432068Y-65683042D01*
X148375000Y-65969940D01*
X148375000Y-66262460D01*
X148432068Y-66549358D01*
X148544010Y-66819611D01*
X148706525Y-67062832D01*
X148913368Y-67269675D01*
X149086729Y-67385511D01*
X149011208Y-67627803D01*
X149860000Y-68476595D01*
X150708792Y-67627803D01*
X150633271Y-67385511D01*
X150806632Y-67269675D01*
X150944107Y-67132200D01*
X153325360Y-67132200D01*
X155194000Y-69000841D01*
X155194001Y-73610088D01*
X155189085Y-73660000D01*
X155208702Y-73859170D01*
X155266799Y-74050687D01*
X155361141Y-74227190D01*
X155488105Y-74381896D01*
X155526868Y-74413708D01*
X156726292Y-75613133D01*
X156758104Y-75651896D01*
X156912810Y-75778860D01*
X157089313Y-75873202D01*
X157280829Y-75931298D01*
X157430098Y-75946000D01*
X157430105Y-75946000D01*
X157479999Y-75950914D01*
X157529893Y-75946000D01*
X159286004Y-75946000D01*
X159383361Y-76043357D01*
X159374918Y-76044188D01*
X159255220Y-76080498D01*
X159144906Y-76139463D01*
X159048215Y-76218815D01*
X158968863Y-76315506D01*
X158909898Y-76425820D01*
X158873588Y-76545518D01*
X158861328Y-76670000D01*
X158861328Y-78270000D01*
X158873588Y-78394482D01*
X158909898Y-78514180D01*
X158968863Y-78624494D01*
X159048215Y-78721185D01*
X159144906Y-78800537D01*
X159255220Y-78859502D01*
X159374918Y-78895812D01*
X159499400Y-78908072D01*
X161099400Y-78908072D01*
X161223882Y-78895812D01*
X161343580Y-78859502D01*
X161453894Y-78800537D01*
X161550585Y-78721185D01*
X161629937Y-78624494D01*
X161688902Y-78514180D01*
X161725212Y-78394482D01*
X161737472Y-78270000D01*
X161737472Y-76670000D01*
X161725212Y-76545518D01*
X161688902Y-76425820D01*
X161629937Y-76315506D01*
X161550585Y-76218815D01*
X161453894Y-76139463D01*
X161343580Y-76080498D01*
X161223882Y-76044188D01*
X161215439Y-76043357D01*
X161414037Y-75844759D01*
X161571080Y-75609727D01*
X161679253Y-75348574D01*
X161734400Y-75071335D01*
X161734400Y-74788665D01*
X161679253Y-74511426D01*
X161571080Y-74250273D01*
X161414037Y-74015241D01*
X161214159Y-73815363D01*
X160979127Y-73658320D01*
X160968535Y-73653933D01*
X161154531Y-73542385D01*
X161362919Y-73353414D01*
X161530437Y-73127420D01*
X161650646Y-72873087D01*
X161691304Y-72739039D01*
X161569315Y-72517000D01*
X160426400Y-72517000D01*
X160426400Y-72537000D01*
X160172400Y-72537000D01*
X160172400Y-72517000D01*
X159029485Y-72517000D01*
X158907496Y-72739039D01*
X158948154Y-72873087D01*
X159068363Y-73127420D01*
X159235881Y-73353414D01*
X159444269Y-73542385D01*
X159630265Y-73653933D01*
X159619673Y-73658320D01*
X159384641Y-73815363D01*
X159286004Y-73914000D01*
X157900841Y-73914000D01*
X157226000Y-73239160D01*
X157226000Y-68629893D01*
X157230914Y-68579999D01*
X157226000Y-68530105D01*
X157226000Y-68530098D01*
X157211298Y-68380829D01*
X157153202Y-68189313D01*
X157097316Y-68084757D01*
X158864400Y-69851841D01*
X158864400Y-69991335D01*
X158919547Y-70268574D01*
X159027720Y-70529727D01*
X159184763Y-70764759D01*
X159384641Y-70964637D01*
X159619673Y-71121680D01*
X159630265Y-71126067D01*
X159444269Y-71237615D01*
X159235881Y-71426586D01*
X159068363Y-71652580D01*
X158948154Y-71906913D01*
X158907496Y-72040961D01*
X159029485Y-72263000D01*
X160172400Y-72263000D01*
X160172400Y-72243000D01*
X160426400Y-72243000D01*
X160426400Y-72263000D01*
X161569315Y-72263000D01*
X161691304Y-72040961D01*
X161650646Y-71906913D01*
X161530437Y-71652580D01*
X161362919Y-71426586D01*
X161154531Y-71237615D01*
X160968535Y-71126067D01*
X160979127Y-71121680D01*
X161214159Y-70964637D01*
X161414037Y-70764759D01*
X161571080Y-70529727D01*
X161679253Y-70268574D01*
X161734400Y-69991335D01*
X161734400Y-69708665D01*
X161679253Y-69431426D01*
X161571080Y-69170273D01*
X161414037Y-68935241D01*
X161214159Y-68735363D01*
X160979127Y-68578320D01*
X160717974Y-68470147D01*
X160440735Y-68415000D01*
X160301241Y-68415000D01*
X153416000Y-61529760D01*
X153416000Y-57199893D01*
X153420914Y-57149999D01*
X153416000Y-57100105D01*
X153416000Y-57100098D01*
X153401298Y-56950829D01*
X153343202Y-56759313D01*
X153248860Y-56582810D01*
X153121896Y-56428104D01*
X153083133Y-56396292D01*
X151883712Y-55196872D01*
X151851896Y-55158104D01*
X151697190Y-55031140D01*
X151520687Y-54936798D01*
X151329171Y-54878702D01*
X151179902Y-54864000D01*
X151130000Y-54859085D01*
X151080098Y-54864000D01*
X148639893Y-54864000D01*
X148589999Y-54859086D01*
X148540105Y-54864000D01*
X148540098Y-54864000D01*
X148390829Y-54878702D01*
X148199313Y-54936798D01*
X148022810Y-55031140D01*
X147868104Y-55158104D01*
X147836292Y-55196867D01*
X146636868Y-56396292D01*
X146598105Y-56428104D01*
X146471141Y-56582810D01*
X146393076Y-56728860D01*
X146376799Y-56759313D01*
X146318702Y-56950830D01*
X146299085Y-57150000D01*
X129159000Y-57150000D01*
X129159000Y-50419000D01*
X136203730Y-50419000D01*
X135675021Y-50637999D01*
G37*
X135675021Y-50637999D02*
X135161554Y-50981086D01*
X134724886Y-51417754D01*
X134381799Y-51931221D01*
X134145476Y-52501754D01*
X134025000Y-53107429D01*
X134025000Y-53724971D01*
X134145476Y-54330646D01*
X134381799Y-54901179D01*
X134724886Y-55414646D01*
X135161554Y-55851314D01*
X135675021Y-56194401D01*
X136245554Y-56430724D01*
X136851229Y-56551200D01*
X137468771Y-56551200D01*
X138074446Y-56430724D01*
X138644979Y-56194401D01*
X139158446Y-55851314D01*
X139595114Y-55414646D01*
X139938201Y-54901179D01*
X140174524Y-54330646D01*
X140295000Y-53724971D01*
X140295000Y-53107429D01*
X140174524Y-52501754D01*
X139938201Y-51931221D01*
X139595114Y-51417754D01*
X139158446Y-50981086D01*
X138644979Y-50637999D01*
X138116270Y-50419000D01*
X161900000Y-50419000D01*
X161900001Y-79121000D01*
X138484195Y-79121000D01*
X138644979Y-79054401D01*
X139158446Y-78711314D01*
X139595114Y-78274646D01*
X139938201Y-77761179D01*
X140174524Y-77190646D01*
X140295000Y-76584971D01*
X140295000Y-75967429D01*
X140174524Y-75361754D01*
X139938201Y-74791221D01*
X139595114Y-74277754D01*
X139158446Y-73841086D01*
X138644979Y-73497999D01*
X138074446Y-73261676D01*
X137468771Y-73141200D01*
X136851229Y-73141200D01*
X136245554Y-73261676D01*
X135675021Y-73497999D01*
X135161554Y-73841086D01*
X134724886Y-74277754D01*
X134381799Y-74791221D01*
X134145476Y-75361754D01*
X134025000Y-75967429D01*
X134025000Y-76584971D01*
X134145476Y-77190646D01*
X134381799Y-77761179D01*
X134724886Y-78274646D01*
X135161554Y-78711314D01*
X135675021Y-79054401D01*
X135835805Y-79121000D01*
X129159000Y-79121000D01*
X129159000Y-57150000D01*
X146299085Y-57150000D01*
X146304001Y-57199912D01*
X146304000Y-69800098D01*
X146299085Y-69850000D01*
X146304000Y-69899901D01*
X146318702Y-70049170D01*
X146376798Y-70240686D01*
X146471140Y-70417190D01*
X146598104Y-70571896D01*
X146636872Y-70603712D01*
X147912492Y-71879333D01*
X147944304Y-71918096D01*
X148099010Y-72045060D01*
X148275513Y-72139402D01*
X148384751Y-72172539D01*
X148420498Y-72290380D01*
X148479463Y-72400694D01*
X148558815Y-72497385D01*
X148655506Y-72576737D01*
X148765820Y-72635702D01*
X148885518Y-72672012D01*
X149010000Y-72684272D01*
X150710000Y-72684272D01*
X150834482Y-72672012D01*
X150954180Y-72635702D01*
X151064494Y-72576737D01*
X151161185Y-72497385D01*
X151240537Y-72400694D01*
X151244400Y-72393467D01*
X151244400Y-72531335D01*
X151299547Y-72808574D01*
X151407720Y-73069727D01*
X151564763Y-73304759D01*
X151764641Y-73504637D01*
X151997159Y-73660000D01*
X151764641Y-73815363D01*
X151564763Y-74015241D01*
X151407720Y-74250273D01*
X151299547Y-74511426D01*
X151244400Y-74788665D01*
X151244400Y-75071335D01*
X151299547Y-75348574D01*
X151407720Y-75609727D01*
X151564763Y-75844759D01*
X151764641Y-76044637D01*
X151997159Y-76200000D01*
X151764641Y-76355363D01*
X151564763Y-76555241D01*
X151407720Y-76790273D01*
X151299547Y-77051426D01*
X151244400Y-77328665D01*
X151244400Y-77611335D01*
X151299547Y-77888574D01*
X151407720Y-78149727D01*
X151564763Y-78384759D01*
X151764641Y-78584637D01*
X151999673Y-78741680D01*
X152260826Y-78849853D01*
X152538065Y-78905000D01*
X152820735Y-78905000D01*
X153097974Y-78849853D01*
X153359127Y-78741680D01*
X153594159Y-78584637D01*
X153794037Y-78384759D01*
X153951080Y-78149727D01*
X154059253Y-77888574D01*
X154114400Y-77611335D01*
X154114400Y-77328665D01*
X154059253Y-77051426D01*
X153951080Y-76790273D01*
X153794037Y-76555241D01*
X153594159Y-76355363D01*
X153361641Y-76200000D01*
X153594159Y-76044637D01*
X153794037Y-75844759D01*
X153951080Y-75609727D01*
X154059253Y-75348574D01*
X154114400Y-75071335D01*
X154114400Y-74788665D01*
X154059253Y-74511426D01*
X153951080Y-74250273D01*
X153794037Y-74015241D01*
X153594159Y-73815363D01*
X153361641Y-73660000D01*
X153594159Y-73504637D01*
X153794037Y-73304759D01*
X153951080Y-73069727D01*
X154059253Y-72808574D01*
X154114400Y-72531335D01*
X154114400Y-72248665D01*
X154059253Y-71971426D01*
X153951080Y-71710273D01*
X153794037Y-71475241D01*
X153594159Y-71275363D01*
X153361641Y-71120000D01*
X153594159Y-70964637D01*
X153794037Y-70764759D01*
X153951080Y-70529727D01*
X154059253Y-70268574D01*
X154114400Y-69991335D01*
X154114400Y-69708665D01*
X154059253Y-69431426D01*
X153951080Y-69170273D01*
X153794037Y-68935241D01*
X153594159Y-68735363D01*
X153359127Y-68578320D01*
X153097974Y-68470147D01*
X152820735Y-68415000D01*
X152538065Y-68415000D01*
X152260826Y-68470147D01*
X151999673Y-68578320D01*
X151764641Y-68735363D01*
X151564763Y-68935241D01*
X151407720Y-69170273D01*
X151299547Y-69431426D01*
X151244400Y-69708665D01*
X151244400Y-69991335D01*
X151246807Y-70003436D01*
X151240537Y-69991706D01*
X151161185Y-69895015D01*
X151064494Y-69815663D01*
X150954180Y-69756698D01*
X150834482Y-69720388D01*
X150710000Y-69708128D01*
X150701458Y-69708128D01*
X150708792Y-69684597D01*
X149860000Y-68835805D01*
X149011208Y-69684597D01*
X149018542Y-69708128D01*
X149010000Y-69708128D01*
X148885518Y-69720388D01*
X148765820Y-69756698D01*
X148699166Y-69792326D01*
X148336000Y-69429160D01*
X148336000Y-68724731D01*
X148369389Y-68724731D01*
X148411401Y-69014219D01*
X148509081Y-69289947D01*
X148582528Y-69427357D01*
X148831603Y-69504992D01*
X149680395Y-68656200D01*
X150039605Y-68656200D01*
X150888397Y-69504992D01*
X151137472Y-69427357D01*
X151263371Y-69163317D01*
X151335339Y-68879789D01*
X151350611Y-68587669D01*
X151308599Y-68298181D01*
X151210919Y-68022453D01*
X151137472Y-67885043D01*
X150888397Y-67807408D01*
X150039605Y-68656200D01*
X149680395Y-68656200D01*
X148831603Y-67807408D01*
X148582528Y-67885043D01*
X148456629Y-68149083D01*
X148384661Y-68432611D01*
X148369389Y-68724731D01*
X148336000Y-68724731D01*
X148336000Y-57570840D01*
X149010841Y-56896000D01*
X150709160Y-56896000D01*
X151384000Y-57570841D01*
X151384001Y-61900688D01*
X151379085Y-61950600D01*
X151398702Y-62149770D01*
X151432204Y-62260210D01*
X151456799Y-62341287D01*
X151551141Y-62517790D01*
X151678105Y-62672496D01*
X151716868Y-62704308D01*
X154241444Y-65228884D01*
X154136887Y-65172998D01*
X153945371Y-65114902D01*
X153796102Y-65100200D01*
X153746200Y-65095285D01*
X153696298Y-65100200D01*
X150944107Y-65100200D01*
X150806632Y-64962725D01*
X150632240Y-64846200D01*
X150806632Y-64729675D01*
X151013475Y-64522832D01*
X151175990Y-64279611D01*
X151287932Y-64009358D01*
X151345000Y-63722460D01*
X151345000Y-63429940D01*
X151287932Y-63143042D01*
X151175990Y-62872789D01*
X151013475Y-62629568D01*
X150806632Y-62422725D01*
X150632240Y-62306200D01*
X150806632Y-62189675D01*
X151013475Y-61982832D01*
X151175990Y-61739611D01*
X151287932Y-61469358D01*
X151345000Y-61182460D01*
X151345000Y-60889940D01*
X151287932Y-60603042D01*
X151175990Y-60332789D01*
X151013475Y-60089568D01*
X150806632Y-59882725D01*
X150632240Y-59766200D01*
X150806632Y-59649675D01*
X151013475Y-59442832D01*
X151175990Y-59199611D01*
X151287932Y-58929358D01*
X151345000Y-58642460D01*
X151345000Y-58349940D01*
X151287932Y-58063042D01*
X151175990Y-57792789D01*
X151013475Y-57549568D01*
X150806632Y-57342725D01*
X150563411Y-57180210D01*
X150293158Y-57068268D01*
X150006260Y-57011200D01*
X149713740Y-57011200D01*
X149426842Y-57068268D01*
X149156589Y-57180210D01*
X148913368Y-57342725D01*
X148706525Y-57549568D01*
X148544010Y-57792789D01*
X148432068Y-58063042D01*
X148375000Y-58349940D01*
X148375000Y-58642460D01*
X148432068Y-58929358D01*
X148544010Y-59199611D01*
X148706525Y-59442832D01*
X148913368Y-59649675D01*
X149087760Y-59766200D01*
X148913368Y-59882725D01*
X148706525Y-60089568D01*
X148544010Y-60332789D01*
X148432068Y-60603042D01*
X148375000Y-60889940D01*
X148375000Y-61182460D01*
X148432068Y-61469358D01*
X148544010Y-61739611D01*
X148706525Y-61982832D01*
X148913368Y-62189675D01*
X149087760Y-62306200D01*
X148913368Y-62422725D01*
X148706525Y-62629568D01*
X148544010Y-62872789D01*
X148432068Y-63143042D01*
X148375000Y-63429940D01*
X148375000Y-63722460D01*
X148432068Y-64009358D01*
X148544010Y-64279611D01*
X148706525Y-64522832D01*
X148913368Y-64729675D01*
X149087760Y-64846200D01*
X148913368Y-64962725D01*
X148706525Y-65169568D01*
X148544010Y-65412789D01*
X148432068Y-65683042D01*
X148375000Y-65969940D01*
X148375000Y-66262460D01*
X148432068Y-66549358D01*
X148544010Y-66819611D01*
X148706525Y-67062832D01*
X148913368Y-67269675D01*
X149086729Y-67385511D01*
X149011208Y-67627803D01*
X149860000Y-68476595D01*
X150708792Y-67627803D01*
X150633271Y-67385511D01*
X150806632Y-67269675D01*
X150944107Y-67132200D01*
X153325360Y-67132200D01*
X155194000Y-69000841D01*
X155194001Y-73610088D01*
X155189085Y-73660000D01*
X155208702Y-73859170D01*
X155266799Y-74050687D01*
X155361141Y-74227190D01*
X155488105Y-74381896D01*
X155526868Y-74413708D01*
X156726292Y-75613133D01*
X156758104Y-75651896D01*
X156912810Y-75778860D01*
X157089313Y-75873202D01*
X157280829Y-75931298D01*
X157430098Y-75946000D01*
X157430105Y-75946000D01*
X157479999Y-75950914D01*
X157529893Y-75946000D01*
X159286004Y-75946000D01*
X159383361Y-76043357D01*
X159374918Y-76044188D01*
X159255220Y-76080498D01*
X159144906Y-76139463D01*
X159048215Y-76218815D01*
X158968863Y-76315506D01*
X158909898Y-76425820D01*
X158873588Y-76545518D01*
X158861328Y-76670000D01*
X158861328Y-78270000D01*
X158873588Y-78394482D01*
X158909898Y-78514180D01*
X158968863Y-78624494D01*
X159048215Y-78721185D01*
X159144906Y-78800537D01*
X159255220Y-78859502D01*
X159374918Y-78895812D01*
X159499400Y-78908072D01*
X161099400Y-78908072D01*
X161223882Y-78895812D01*
X161343580Y-78859502D01*
X161453894Y-78800537D01*
X161550585Y-78721185D01*
X161629937Y-78624494D01*
X161688902Y-78514180D01*
X161725212Y-78394482D01*
X161737472Y-78270000D01*
X161737472Y-76670000D01*
X161725212Y-76545518D01*
X161688902Y-76425820D01*
X161629937Y-76315506D01*
X161550585Y-76218815D01*
X161453894Y-76139463D01*
X161343580Y-76080498D01*
X161223882Y-76044188D01*
X161215439Y-76043357D01*
X161414037Y-75844759D01*
X161571080Y-75609727D01*
X161679253Y-75348574D01*
X161734400Y-75071335D01*
X161734400Y-74788665D01*
X161679253Y-74511426D01*
X161571080Y-74250273D01*
X161414037Y-74015241D01*
X161214159Y-73815363D01*
X160979127Y-73658320D01*
X160968535Y-73653933D01*
X161154531Y-73542385D01*
X161362919Y-73353414D01*
X161530437Y-73127420D01*
X161650646Y-72873087D01*
X161691304Y-72739039D01*
X161569315Y-72517000D01*
X160426400Y-72517000D01*
X160426400Y-72537000D01*
X160172400Y-72537000D01*
X160172400Y-72517000D01*
X159029485Y-72517000D01*
X158907496Y-72739039D01*
X158948154Y-72873087D01*
X159068363Y-73127420D01*
X159235881Y-73353414D01*
X159444269Y-73542385D01*
X159630265Y-73653933D01*
X159619673Y-73658320D01*
X159384641Y-73815363D01*
X159286004Y-73914000D01*
X157900841Y-73914000D01*
X157226000Y-73239160D01*
X157226000Y-68629893D01*
X157230914Y-68579999D01*
X157226000Y-68530105D01*
X157226000Y-68530098D01*
X157211298Y-68380829D01*
X157153202Y-68189313D01*
X157097316Y-68084757D01*
X158864400Y-69851841D01*
X158864400Y-69991335D01*
X158919547Y-70268574D01*
X159027720Y-70529727D01*
X159184763Y-70764759D01*
X159384641Y-70964637D01*
X159619673Y-71121680D01*
X159630265Y-71126067D01*
X159444269Y-71237615D01*
X159235881Y-71426586D01*
X159068363Y-71652580D01*
X158948154Y-71906913D01*
X158907496Y-72040961D01*
X159029485Y-72263000D01*
X160172400Y-72263000D01*
X160172400Y-72243000D01*
X160426400Y-72243000D01*
X160426400Y-72263000D01*
X161569315Y-72263000D01*
X161691304Y-72040961D01*
X161650646Y-71906913D01*
X161530437Y-71652580D01*
X161362919Y-71426586D01*
X161154531Y-71237615D01*
X160968535Y-71126067D01*
X160979127Y-71121680D01*
X161214159Y-70964637D01*
X161414037Y-70764759D01*
X161571080Y-70529727D01*
X161679253Y-70268574D01*
X161734400Y-69991335D01*
X161734400Y-69708665D01*
X161679253Y-69431426D01*
X161571080Y-69170273D01*
X161414037Y-68935241D01*
X161214159Y-68735363D01*
X160979127Y-68578320D01*
X160717974Y-68470147D01*
X160440735Y-68415000D01*
X160301241Y-68415000D01*
X153416000Y-61529760D01*
X153416000Y-57199893D01*
X153420914Y-57149999D01*
X153416000Y-57100105D01*
X153416000Y-57100098D01*
X153401298Y-56950829D01*
X153343202Y-56759313D01*
X153248860Y-56582810D01*
X153121896Y-56428104D01*
X153083133Y-56396292D01*
X151883712Y-55196872D01*
X151851896Y-55158104D01*
X151697190Y-55031140D01*
X151520687Y-54936798D01*
X151329171Y-54878702D01*
X151179902Y-54864000D01*
X151130000Y-54859085D01*
X151080098Y-54864000D01*
X148639893Y-54864000D01*
X148589999Y-54859086D01*
X148540105Y-54864000D01*
X148540098Y-54864000D01*
X148390829Y-54878702D01*
X148199313Y-54936798D01*
X148022810Y-55031140D01*
X147868104Y-55158104D01*
X147836292Y-55196867D01*
X146636868Y-56396292D01*
X146598105Y-56428104D01*
X146471141Y-56582810D01*
X146393076Y-56728860D01*
X146376799Y-56759313D01*
X146318702Y-56950830D01*
X146299085Y-57150000D01*
X129159000Y-57150000D01*
X129159000Y-50419000D01*
X136203730Y-50419000D01*
X135675021Y-50637999D01*
%TD*%
M02*
