M48
; DRILL file {KiCad (5.1.6)-1} date 02/12/21 11:45:45
; FORMAT={-:-/ absolute / inch / decimal}
; #@! TF.CreationDate,2021-02-12T11:45:45-08:00
; #@! TF.GenerationSoftware,Kicad,Pcbnew,(5.1.6)-1
; #@! TF.FileFunction,Plated,1,2,PTH
FMAT,2
INCH
T1C0.0315
T2C0.0354
T3C0.0512
T4C0.1870
%
G90
G05
T1
X6.425Y-4.125
X6.25Y-3.825
X7.0Y-3.825
X7.0Y-4.125
X7.175Y-3.825
X7.175Y-4.125
X8.225Y-4.125
X8.325Y-4.025
X8.425Y-4.125
X7.7Y-3.825
X7.7Y-4.125
X8.075Y-3.825
X8.075Y-4.125
X8.575Y-3.825
X8.575Y-4.125
X6.975Y-3.7
X7.275Y-3.7
X6.525Y-4.025
X6.625Y-4.125
X7.9Y-3.825
X7.9Y-4.125
X6.25Y-4.125
X7.35Y-4.125
X7.45Y-4.025
X7.55Y-4.125
X6.8Y-3.825
X6.8Y-4.125
X8.75Y-3.825
X8.75Y-4.125
X7.875Y-3.7
X8.175Y-3.7
X6.05Y-3.7
X6.35Y-3.7
T2
X7.4Y-3.8
X7.5Y-3.8
X6.475Y-3.8
X6.575Y-3.8
X8.275Y-3.8
X8.375Y-3.8
T3
X6.325Y-4.525
X6.475Y-4.525
X6.625Y-4.525
X6.775Y-4.525
X7.0Y-4.525
X7.15Y-4.525
X7.3Y-4.525
X8.1Y-4.525
X8.25Y-4.525
X8.4Y-4.525
X7.55Y-4.525
X7.7Y-4.525
X7.85Y-4.525
T4
X9.0Y-4.175
X6.0Y-4.175
T0
M30
