%TF.GenerationSoftware,KiCad,Pcbnew,(5.1.6)-1*%
%TF.CreationDate,2021-02-12T11:45:35-08:00*%
%TF.ProjectId,CMP-CKP-Tach Signal Conditioner,434d502d-434b-4502-9d54-616368205369,rev?*%
%TF.SameCoordinates,Original*%
%TF.FileFunction,Soldermask,Bot*%
%TF.FilePolarity,Negative*%
%FSLAX46Y46*%
G04 Gerber Fmt 4.6, Leading zero omitted, Abs format (unit mm)*
G04 Created by KiCad (PCBNEW (5.1.6)-1) date 2021-02-12 11:45:35*
%MOMM*%
%LPD*%
G01*
G04 APERTURE LIST*
%ADD10O,1.700000X1.700000*%
%ADD11C,1.700000*%
%ADD12R,1.600000X1.600000*%
%ADD13C,1.600000*%
%ADD14C,2.700000*%
%ADD15R,2.700000X2.700000*%
%ADD16C,1.900000*%
%ADD17R,1.900000X1.900000*%
%ADD18C,6.450000*%
G04 APERTURE END LIST*
D10*
%TO.C,R12*%
X184785000Y-93980000D03*
D11*
X177165000Y-93980000D03*
%TD*%
D10*
%TO.C,R11*%
X161290000Y-93980000D03*
D11*
X153670000Y-93980000D03*
%TD*%
D10*
%TO.C,R10*%
X207645000Y-93980000D03*
D11*
X200025000Y-93980000D03*
%TD*%
D10*
%TO.C,R3*%
X217805000Y-104775000D03*
D11*
X217805000Y-97155000D03*
%TD*%
D10*
%TO.C,R2*%
X222250000Y-104775000D03*
D11*
X222250000Y-97155000D03*
%TD*%
D10*
%TO.C,R1*%
X205105000Y-97155000D03*
D11*
X205105000Y-104775000D03*
%TD*%
D12*
%TO.C,Q3*%
X186690000Y-104775000D03*
D13*
X191770000Y-104775000D03*
X189230000Y-102235000D03*
%TD*%
D12*
%TO.C,Q2*%
X163195000Y-104775000D03*
D13*
X168275000Y-104775000D03*
X165735000Y-102235000D03*
%TD*%
D12*
%TO.C,Q1*%
X208915000Y-104775000D03*
D13*
X213995000Y-104775000D03*
X211455000Y-102235000D03*
%TD*%
D14*
%TO.C,J3*%
X213360000Y-114935000D03*
D15*
X205740000Y-114935000D03*
D14*
X209550000Y-114935000D03*
%TD*%
D16*
%TO.C,D1*%
X212725000Y-96520000D03*
D17*
X210185000Y-96520000D03*
%TD*%
D18*
%TO.C,REF\u002A\u002A*%
X152400000Y-106045000D03*
%TD*%
%TO.C,REF\u002A\u002A*%
X228600000Y-106045000D03*
%TD*%
D10*
%TO.C,R9*%
X195580000Y-104775000D03*
D11*
X195580000Y-97155000D03*
%TD*%
D10*
%TO.C,R8*%
X200660000Y-104775000D03*
D11*
X200660000Y-97155000D03*
%TD*%
D10*
%TO.C,R7*%
X182245000Y-97155000D03*
D11*
X182245000Y-104775000D03*
%TD*%
D10*
%TO.C,R6*%
X172720000Y-104775000D03*
D11*
X172720000Y-97155000D03*
%TD*%
D10*
%TO.C,R5*%
X177800000Y-104775000D03*
D11*
X177800000Y-97155000D03*
%TD*%
D10*
%TO.C,R4*%
X158750000Y-97155000D03*
D11*
X158750000Y-104775000D03*
%TD*%
D14*
%TO.C,J2*%
X199390000Y-114935000D03*
D15*
X191770000Y-114935000D03*
D14*
X195580000Y-114935000D03*
%TD*%
%TO.C,J1*%
X185420000Y-114935000D03*
D15*
X177800000Y-114935000D03*
D14*
X181610000Y-114935000D03*
%TD*%
D15*
%TO.C,J4*%
X172085000Y-114935000D03*
D14*
X160655000Y-114935000D03*
X168275000Y-114935000D03*
X164465000Y-114935000D03*
%TD*%
D16*
%TO.C,D3*%
X190500000Y-96520000D03*
D17*
X187960000Y-96520000D03*
%TD*%
D16*
%TO.C,D2*%
X167005000Y-96520000D03*
D17*
X164465000Y-96520000D03*
%TD*%
M02*
