%TF.GenerationSoftware,KiCad,Pcbnew,(5.1.6)-1*%
%TF.CreationDate,2021-02-12T11:45:35-08:00*%
%TF.ProjectId,CMP-CKP-Tach Signal Conditioner,434d502d-434b-4502-9d54-616368205369,rev?*%
%TF.SameCoordinates,Original*%
%TF.FileFunction,Copper,L2,Bot*%
%TF.FilePolarity,Positive*%
%FSLAX46Y46*%
G04 Gerber Fmt 4.6, Leading zero omitted, Abs format (unit mm)*
G04 Created by KiCad (PCBNEW (5.1.6)-1) date 2021-02-12 11:45:35*
%MOMM*%
%LPD*%
G01*
G04 APERTURE LIST*
%TA.AperFunction,ComponentPad*%
%ADD10O,1.600000X1.600000*%
%TD*%
%TA.AperFunction,ComponentPad*%
%ADD11C,1.600000*%
%TD*%
%TA.AperFunction,ComponentPad*%
%ADD12R,1.500000X1.500000*%
%TD*%
%TA.AperFunction,ComponentPad*%
%ADD13C,1.500000*%
%TD*%
%TA.AperFunction,ComponentPad*%
%ADD14C,2.600000*%
%TD*%
%TA.AperFunction,ComponentPad*%
%ADD15R,2.600000X2.600000*%
%TD*%
%TA.AperFunction,ComponentPad*%
%ADD16C,1.800000*%
%TD*%
%TA.AperFunction,ComponentPad*%
%ADD17R,1.800000X1.800000*%
%TD*%
%TA.AperFunction,ComponentPad*%
%ADD18C,6.350000*%
%TD*%
%TA.AperFunction,Conductor*%
%ADD19C,0.762000*%
%TD*%
%TA.AperFunction,Conductor*%
%ADD20C,0.254000*%
%TD*%
G04 APERTURE END LIST*
D10*
%TO.P,R12,2*%
%TO.N,+8V*%
X184785000Y-93980000D03*
D11*
%TO.P,R12,1*%
%TO.N,Net-(Q3-Pad2)*%
X177165000Y-93980000D03*
%TD*%
D10*
%TO.P,R11,2*%
%TO.N,+8V*%
X161290000Y-93980000D03*
D11*
%TO.P,R11,1*%
%TO.N,Net-(Q2-Pad2)*%
X153670000Y-93980000D03*
%TD*%
D10*
%TO.P,R10,2*%
%TO.N,+12V*%
X207645000Y-93980000D03*
D11*
%TO.P,R10,1*%
%TO.N,Net-(Q1-Pad2)*%
X200025000Y-93980000D03*
%TD*%
D10*
%TO.P,R3,2*%
%TO.N,Net-(Q1-Pad3)*%
X217805000Y-104775000D03*
D11*
%TO.P,R3,1*%
%TO.N,Net-(D1-Pad2)*%
X217805000Y-97155000D03*
%TD*%
D10*
%TO.P,R2,2*%
%TO.N,Net-(Q1-Pad3)*%
X222250000Y-104775000D03*
D11*
%TO.P,R2,1*%
%TO.N,/TachSignal*%
X222250000Y-97155000D03*
%TD*%
D10*
%TO.P,R1,2*%
%TO.N,Net-(Q1-Pad2)*%
X205105000Y-97155000D03*
D11*
%TO.P,R1,1*%
%TO.N,/PP5out*%
X205105000Y-104775000D03*
%TD*%
D12*
%TO.P,Q3,1*%
%TO.N,+8V*%
X186690000Y-104775000D03*
D13*
%TO.P,Q3,3*%
%TO.N,Net-(Q3-Pad3)*%
X191770000Y-104775000D03*
%TO.P,Q3,2*%
%TO.N,Net-(Q3-Pad2)*%
X189230000Y-102235000D03*
%TD*%
D12*
%TO.P,Q2,1*%
%TO.N,+8V*%
X163195000Y-104775000D03*
D13*
%TO.P,Q2,3*%
%TO.N,Net-(Q2-Pad3)*%
X168275000Y-104775000D03*
%TO.P,Q2,2*%
%TO.N,Net-(Q2-Pad2)*%
X165735000Y-102235000D03*
%TD*%
D12*
%TO.P,Q1,1*%
%TO.N,+12V*%
X208915000Y-104775000D03*
D13*
%TO.P,Q1,3*%
%TO.N,Net-(Q1-Pad3)*%
X213995000Y-104775000D03*
%TO.P,Q1,2*%
%TO.N,Net-(Q1-Pad2)*%
X211455000Y-102235000D03*
%TD*%
D14*
%TO.P,J3,3*%
%TO.N,/TachSignal*%
X213360000Y-114935000D03*
D15*
%TO.P,J3,1*%
%TO.N,+12V*%
X205740000Y-114935000D03*
D14*
%TO.P,J3,2*%
%TO.N,/PP5out*%
X209550000Y-114935000D03*
%TD*%
D16*
%TO.P,D1,2*%
%TO.N,Net-(D1-Pad2)*%
X212725000Y-96520000D03*
D17*
%TO.P,D1,1*%
%TO.N,GND*%
X210185000Y-96520000D03*
%TD*%
D18*
%TO.P,REF\u002A\u002A,*%
%TO.N,*%
X152400000Y-106045000D03*
%TD*%
%TO.P,REF\u002A\u002A,*%
%TO.N,*%
X228600000Y-106045000D03*
%TD*%
D10*
%TO.P,R9,2*%
%TO.N,Net-(Q3-Pad3)*%
X195580000Y-104775000D03*
D11*
%TO.P,R9,1*%
%TO.N,Net-(D3-Pad2)*%
X195580000Y-97155000D03*
%TD*%
D10*
%TO.P,R8,2*%
%TO.N,Net-(Q3-Pad3)*%
X200660000Y-104775000D03*
D11*
%TO.P,R8,1*%
%TO.N,/CKPsignal*%
X200660000Y-97155000D03*
%TD*%
D10*
%TO.P,R7,2*%
%TO.N,Net-(Q3-Pad2)*%
X182245000Y-97155000D03*
D11*
%TO.P,R7,1*%
%TO.N,/CKPsensor*%
X182245000Y-104775000D03*
%TD*%
D10*
%TO.P,R6,2*%
%TO.N,Net-(Q2-Pad3)*%
X172720000Y-104775000D03*
D11*
%TO.P,R6,1*%
%TO.N,Net-(D2-Pad2)*%
X172720000Y-97155000D03*
%TD*%
D10*
%TO.P,R5,2*%
%TO.N,Net-(Q2-Pad3)*%
X177800000Y-104775000D03*
D11*
%TO.P,R5,1*%
%TO.N,/CMPsignal*%
X177800000Y-97155000D03*
%TD*%
D10*
%TO.P,R4,2*%
%TO.N,Net-(Q2-Pad2)*%
X158750000Y-97155000D03*
D11*
%TO.P,R4,1*%
%TO.N,/CMPsensor*%
X158750000Y-104775000D03*
%TD*%
D14*
%TO.P,J2,3*%
%TO.N,GND*%
X199390000Y-114935000D03*
D15*
%TO.P,J2,1*%
%TO.N,+8V*%
X191770000Y-114935000D03*
D14*
%TO.P,J2,2*%
%TO.N,/CKPsensor*%
X195580000Y-114935000D03*
%TD*%
%TO.P,J1,3*%
%TO.N,GND*%
X185420000Y-114935000D03*
D15*
%TO.P,J1,1*%
%TO.N,+8V*%
X177800000Y-114935000D03*
D14*
%TO.P,J1,2*%
%TO.N,/CMPsensor*%
X181610000Y-114935000D03*
%TD*%
D15*
%TO.P,J4,1*%
%TO.N,+8V*%
X172085000Y-114935000D03*
D14*
%TO.P,J4,4*%
%TO.N,GND*%
X160655000Y-114935000D03*
%TO.P,J4,2*%
%TO.N,/CKPsignal*%
X168275000Y-114935000D03*
%TO.P,J4,3*%
%TO.N,/CMPsignal*%
X164465000Y-114935000D03*
%TD*%
D16*
%TO.P,D3,2*%
%TO.N,Net-(D3-Pad2)*%
X190500000Y-96520000D03*
D17*
%TO.P,D3,1*%
%TO.N,GND*%
X187960000Y-96520000D03*
%TD*%
D16*
%TO.P,D2,2*%
%TO.N,Net-(D2-Pad2)*%
X167005000Y-96520000D03*
D17*
%TO.P,D2,1*%
%TO.N,GND*%
X164465000Y-96520000D03*
%TD*%
D19*
%TO.N,+8V*%
X172085000Y-114935000D02*
X172085000Y-115570000D01*
X172085000Y-115570000D02*
X169545000Y-118110000D01*
X169545000Y-118110000D02*
X159385000Y-118110000D01*
X159385000Y-118110000D02*
X157480000Y-116205000D01*
X157480000Y-110490000D02*
X163195000Y-104775000D01*
X157480000Y-116205000D02*
X157480000Y-110490000D01*
X161290000Y-102870000D02*
X163195000Y-104775000D01*
X161290000Y-93980000D02*
X161290000Y-102870000D01*
X184785000Y-102870000D02*
X186690000Y-104775000D01*
X184785000Y-93980000D02*
X184785000Y-102870000D01*
%TO.N,/CMPsignal*%
X177800000Y-97155000D02*
X176530000Y-97155000D01*
X176530000Y-97155000D02*
X175260000Y-98425000D01*
X175260000Y-98425000D02*
X175260000Y-106045000D01*
X175260000Y-106045000D02*
X173990000Y-107315000D01*
X173990000Y-107315000D02*
X165735000Y-107315000D01*
X164465000Y-108585000D02*
X164465000Y-114935000D01*
X165735000Y-107315000D02*
X164465000Y-108585000D01*
%TO.N,/CKPsignal*%
X198120000Y-107315000D02*
X195580000Y-109855000D01*
X169545000Y-109855000D02*
X168275000Y-111125000D01*
X200660000Y-97155000D02*
X198120000Y-99695000D01*
X198120000Y-99695000D02*
X198120000Y-107315000D01*
X195580000Y-109855000D02*
X169545000Y-109855000D01*
X168275000Y-111125000D02*
X168275000Y-114935000D01*
%TO.N,/TachSignal*%
X222250000Y-97155000D02*
X222250000Y-98552000D01*
X222250000Y-98552000D02*
X219964000Y-100838000D01*
X219964000Y-100838000D02*
X219964000Y-106172000D01*
X213360000Y-112776000D02*
X213360000Y-114935000D01*
X219964000Y-106172000D02*
X213360000Y-112776000D01*
%TO.N,+12V*%
X207645000Y-103505000D02*
X208915000Y-104775000D01*
X207645000Y-93980000D02*
X207645000Y-103505000D01*
%TO.N,/PP5out*%
X209550000Y-114935000D02*
X209550000Y-112395000D01*
X205105000Y-107950000D02*
X205105000Y-104775000D01*
X209550000Y-112395000D02*
X205105000Y-107950000D01*
%TD*%
D20*
%TO.N,GND*%
G36*
X233020001Y-120625000D02*
G01*
X147980000Y-120625000D01*
X147980000Y-110490000D01*
X156459085Y-110490000D01*
X156464001Y-110539912D01*
X156464000Y-116155098D01*
X156459085Y-116205000D01*
X156464000Y-116254901D01*
X156478702Y-116404170D01*
X156536798Y-116595686D01*
X156631140Y-116772190D01*
X156758104Y-116926896D01*
X156796872Y-116958712D01*
X158631292Y-118793133D01*
X158663104Y-118831896D01*
X158817810Y-118958860D01*
X158994311Y-119053201D01*
X158994313Y-119053202D01*
X159185829Y-119111298D01*
X159385000Y-119130915D01*
X159434902Y-119126000D01*
X169495098Y-119126000D01*
X169545000Y-119130915D01*
X169594902Y-119126000D01*
X169744171Y-119111298D01*
X169935687Y-119053202D01*
X170112190Y-118958860D01*
X170266896Y-118831896D01*
X170298712Y-118793128D01*
X172218769Y-116873072D01*
X173385000Y-116873072D01*
X173509482Y-116860812D01*
X173629180Y-116824502D01*
X173739494Y-116765537D01*
X173836185Y-116686185D01*
X173915537Y-116589494D01*
X173974502Y-116479180D01*
X174010812Y-116359482D01*
X174023072Y-116235000D01*
X174023072Y-113635000D01*
X175861928Y-113635000D01*
X175861928Y-116235000D01*
X175874188Y-116359482D01*
X175910498Y-116479180D01*
X175969463Y-116589494D01*
X176048815Y-116686185D01*
X176145506Y-116765537D01*
X176255820Y-116824502D01*
X176375518Y-116860812D01*
X176500000Y-116873072D01*
X179100000Y-116873072D01*
X179224482Y-116860812D01*
X179344180Y-116824502D01*
X179454494Y-116765537D01*
X179551185Y-116686185D01*
X179630537Y-116589494D01*
X179689502Y-116479180D01*
X179725812Y-116359482D01*
X179738072Y-116235000D01*
X179738072Y-115442665D01*
X179749361Y-115499419D01*
X179895225Y-115851566D01*
X180106987Y-116168491D01*
X180376509Y-116438013D01*
X180693434Y-116649775D01*
X181045581Y-116795639D01*
X181419419Y-116870000D01*
X181800581Y-116870000D01*
X182174419Y-116795639D01*
X182526566Y-116649775D01*
X182843491Y-116438013D01*
X182997280Y-116284224D01*
X184250381Y-116284224D01*
X184382317Y-116579312D01*
X184723045Y-116750159D01*
X185090557Y-116851250D01*
X185470729Y-116878701D01*
X185848951Y-116831457D01*
X186210690Y-116711333D01*
X186457683Y-116579312D01*
X186589619Y-116284224D01*
X185420000Y-115114605D01*
X184250381Y-116284224D01*
X182997280Y-116284224D01*
X183113013Y-116168491D01*
X183324775Y-115851566D01*
X183470639Y-115499419D01*
X183513530Y-115283791D01*
X183523543Y-115363951D01*
X183643667Y-115725690D01*
X183775688Y-115972683D01*
X184070776Y-116104619D01*
X185240395Y-114935000D01*
X185599605Y-114935000D01*
X186769224Y-116104619D01*
X187064312Y-115972683D01*
X187235159Y-115631955D01*
X187336250Y-115264443D01*
X187363701Y-114884271D01*
X187316457Y-114506049D01*
X187196333Y-114144310D01*
X187064312Y-113897317D01*
X186769224Y-113765381D01*
X185599605Y-114935000D01*
X185240395Y-114935000D01*
X184070776Y-113765381D01*
X183775688Y-113897317D01*
X183604841Y-114238045D01*
X183511659Y-114576803D01*
X183470639Y-114370581D01*
X183324775Y-114018434D01*
X183113013Y-113701509D01*
X182997280Y-113585776D01*
X184250381Y-113585776D01*
X185420000Y-114755395D01*
X186540395Y-113635000D01*
X189831928Y-113635000D01*
X189831928Y-116235000D01*
X189844188Y-116359482D01*
X189880498Y-116479180D01*
X189939463Y-116589494D01*
X190018815Y-116686185D01*
X190115506Y-116765537D01*
X190225820Y-116824502D01*
X190345518Y-116860812D01*
X190470000Y-116873072D01*
X193070000Y-116873072D01*
X193194482Y-116860812D01*
X193314180Y-116824502D01*
X193424494Y-116765537D01*
X193521185Y-116686185D01*
X193600537Y-116589494D01*
X193659502Y-116479180D01*
X193695812Y-116359482D01*
X193708072Y-116235000D01*
X193708072Y-115442665D01*
X193719361Y-115499419D01*
X193865225Y-115851566D01*
X194076987Y-116168491D01*
X194346509Y-116438013D01*
X194663434Y-116649775D01*
X195015581Y-116795639D01*
X195389419Y-116870000D01*
X195770581Y-116870000D01*
X196144419Y-116795639D01*
X196496566Y-116649775D01*
X196813491Y-116438013D01*
X196967280Y-116284224D01*
X198220381Y-116284224D01*
X198352317Y-116579312D01*
X198693045Y-116750159D01*
X199060557Y-116851250D01*
X199440729Y-116878701D01*
X199818951Y-116831457D01*
X200180690Y-116711333D01*
X200427683Y-116579312D01*
X200559619Y-116284224D01*
X199390000Y-115114605D01*
X198220381Y-116284224D01*
X196967280Y-116284224D01*
X197083013Y-116168491D01*
X197294775Y-115851566D01*
X197440639Y-115499419D01*
X197483530Y-115283791D01*
X197493543Y-115363951D01*
X197613667Y-115725690D01*
X197745688Y-115972683D01*
X198040776Y-116104619D01*
X199210395Y-114935000D01*
X199569605Y-114935000D01*
X200739224Y-116104619D01*
X201034312Y-115972683D01*
X201205159Y-115631955D01*
X201306250Y-115264443D01*
X201333701Y-114884271D01*
X201286457Y-114506049D01*
X201166333Y-114144310D01*
X201034312Y-113897317D01*
X200739224Y-113765381D01*
X199569605Y-114935000D01*
X199210395Y-114935000D01*
X198040776Y-113765381D01*
X197745688Y-113897317D01*
X197574841Y-114238045D01*
X197481659Y-114576803D01*
X197440639Y-114370581D01*
X197294775Y-114018434D01*
X197083013Y-113701509D01*
X196967280Y-113585776D01*
X198220381Y-113585776D01*
X199390000Y-114755395D01*
X200559619Y-113585776D01*
X200427683Y-113290688D01*
X200086955Y-113119841D01*
X199719443Y-113018750D01*
X199339271Y-112991299D01*
X198961049Y-113038543D01*
X198599310Y-113158667D01*
X198352317Y-113290688D01*
X198220381Y-113585776D01*
X196967280Y-113585776D01*
X196813491Y-113431987D01*
X196496566Y-113220225D01*
X196144419Y-113074361D01*
X195770581Y-113000000D01*
X195389419Y-113000000D01*
X195015581Y-113074361D01*
X194663434Y-113220225D01*
X194346509Y-113431987D01*
X194076987Y-113701509D01*
X193865225Y-114018434D01*
X193719361Y-114370581D01*
X193708072Y-114427335D01*
X193708072Y-113635000D01*
X193695812Y-113510518D01*
X193659502Y-113390820D01*
X193600537Y-113280506D01*
X193521185Y-113183815D01*
X193424494Y-113104463D01*
X193314180Y-113045498D01*
X193194482Y-113009188D01*
X193070000Y-112996928D01*
X190470000Y-112996928D01*
X190345518Y-113009188D01*
X190225820Y-113045498D01*
X190115506Y-113104463D01*
X190018815Y-113183815D01*
X189939463Y-113280506D01*
X189880498Y-113390820D01*
X189844188Y-113510518D01*
X189831928Y-113635000D01*
X186540395Y-113635000D01*
X186589619Y-113585776D01*
X186457683Y-113290688D01*
X186116955Y-113119841D01*
X185749443Y-113018750D01*
X185369271Y-112991299D01*
X184991049Y-113038543D01*
X184629310Y-113158667D01*
X184382317Y-113290688D01*
X184250381Y-113585776D01*
X182997280Y-113585776D01*
X182843491Y-113431987D01*
X182526566Y-113220225D01*
X182174419Y-113074361D01*
X181800581Y-113000000D01*
X181419419Y-113000000D01*
X181045581Y-113074361D01*
X180693434Y-113220225D01*
X180376509Y-113431987D01*
X180106987Y-113701509D01*
X179895225Y-114018434D01*
X179749361Y-114370581D01*
X179738072Y-114427335D01*
X179738072Y-113635000D01*
X179725812Y-113510518D01*
X179689502Y-113390820D01*
X179630537Y-113280506D01*
X179551185Y-113183815D01*
X179454494Y-113104463D01*
X179344180Y-113045498D01*
X179224482Y-113009188D01*
X179100000Y-112996928D01*
X176500000Y-112996928D01*
X176375518Y-113009188D01*
X176255820Y-113045498D01*
X176145506Y-113104463D01*
X176048815Y-113183815D01*
X175969463Y-113280506D01*
X175910498Y-113390820D01*
X175874188Y-113510518D01*
X175861928Y-113635000D01*
X174023072Y-113635000D01*
X174010812Y-113510518D01*
X173974502Y-113390820D01*
X173915537Y-113280506D01*
X173836185Y-113183815D01*
X173739494Y-113104463D01*
X173629180Y-113045498D01*
X173509482Y-113009188D01*
X173385000Y-112996928D01*
X170785000Y-112996928D01*
X170660518Y-113009188D01*
X170540820Y-113045498D01*
X170430506Y-113104463D01*
X170333815Y-113183815D01*
X170254463Y-113280506D01*
X170195498Y-113390820D01*
X170159188Y-113510518D01*
X170146928Y-113635000D01*
X170146928Y-114427335D01*
X170135639Y-114370581D01*
X169989775Y-114018434D01*
X169778013Y-113701509D01*
X169508491Y-113431987D01*
X169291000Y-113286665D01*
X169291000Y-111545840D01*
X169965841Y-110871000D01*
X195530098Y-110871000D01*
X195580000Y-110875915D01*
X195629902Y-110871000D01*
X195779171Y-110856298D01*
X195970687Y-110798202D01*
X196147190Y-110703860D01*
X196301896Y-110576896D01*
X196333712Y-110538128D01*
X198803135Y-108068706D01*
X198841896Y-108036896D01*
X198968860Y-107882190D01*
X199063202Y-107705687D01*
X199121298Y-107514171D01*
X199136000Y-107364902D01*
X199136000Y-107364895D01*
X199140914Y-107315001D01*
X199136000Y-107265107D01*
X199136000Y-104633665D01*
X199225000Y-104633665D01*
X199225000Y-104916335D01*
X199280147Y-105193574D01*
X199388320Y-105454727D01*
X199545363Y-105689759D01*
X199745241Y-105889637D01*
X199980273Y-106046680D01*
X200241426Y-106154853D01*
X200518665Y-106210000D01*
X200801335Y-106210000D01*
X201078574Y-106154853D01*
X201339727Y-106046680D01*
X201574759Y-105889637D01*
X201774637Y-105689759D01*
X201931680Y-105454727D01*
X202039853Y-105193574D01*
X202095000Y-104916335D01*
X202095000Y-104633665D01*
X203670000Y-104633665D01*
X203670000Y-104916335D01*
X203725147Y-105193574D01*
X203833320Y-105454727D01*
X203990363Y-105689759D01*
X204089001Y-105788397D01*
X204089000Y-107900098D01*
X204084085Y-107950000D01*
X204089000Y-107999901D01*
X204103702Y-108149170D01*
X204161798Y-108340686D01*
X204256140Y-108517190D01*
X204383104Y-108671896D01*
X204421872Y-108703712D01*
X208534001Y-112815842D01*
X208534001Y-113286664D01*
X208316509Y-113431987D01*
X208046987Y-113701509D01*
X207835225Y-114018434D01*
X207689361Y-114370581D01*
X207678072Y-114427335D01*
X207678072Y-113635000D01*
X207665812Y-113510518D01*
X207629502Y-113390820D01*
X207570537Y-113280506D01*
X207491185Y-113183815D01*
X207394494Y-113104463D01*
X207284180Y-113045498D01*
X207164482Y-113009188D01*
X207040000Y-112996928D01*
X204440000Y-112996928D01*
X204315518Y-113009188D01*
X204195820Y-113045498D01*
X204085506Y-113104463D01*
X203988815Y-113183815D01*
X203909463Y-113280506D01*
X203850498Y-113390820D01*
X203814188Y-113510518D01*
X203801928Y-113635000D01*
X203801928Y-116235000D01*
X203814188Y-116359482D01*
X203850498Y-116479180D01*
X203909463Y-116589494D01*
X203988815Y-116686185D01*
X204085506Y-116765537D01*
X204195820Y-116824502D01*
X204315518Y-116860812D01*
X204440000Y-116873072D01*
X207040000Y-116873072D01*
X207164482Y-116860812D01*
X207284180Y-116824502D01*
X207394494Y-116765537D01*
X207491185Y-116686185D01*
X207570537Y-116589494D01*
X207629502Y-116479180D01*
X207665812Y-116359482D01*
X207678072Y-116235000D01*
X207678072Y-115442665D01*
X207689361Y-115499419D01*
X207835225Y-115851566D01*
X208046987Y-116168491D01*
X208316509Y-116438013D01*
X208633434Y-116649775D01*
X208985581Y-116795639D01*
X209359419Y-116870000D01*
X209740581Y-116870000D01*
X210114419Y-116795639D01*
X210466566Y-116649775D01*
X210783491Y-116438013D01*
X211053013Y-116168491D01*
X211264775Y-115851566D01*
X211410639Y-115499419D01*
X211455000Y-115276401D01*
X211499361Y-115499419D01*
X211645225Y-115851566D01*
X211856987Y-116168491D01*
X212126509Y-116438013D01*
X212443434Y-116649775D01*
X212795581Y-116795639D01*
X213169419Y-116870000D01*
X213550581Y-116870000D01*
X213924419Y-116795639D01*
X214276566Y-116649775D01*
X214593491Y-116438013D01*
X214863013Y-116168491D01*
X215074775Y-115851566D01*
X215220639Y-115499419D01*
X215295000Y-115125581D01*
X215295000Y-114744419D01*
X215220639Y-114370581D01*
X215074775Y-114018434D01*
X214863013Y-113701509D01*
X214593491Y-113431987D01*
X214376000Y-113286665D01*
X214376000Y-113196840D01*
X220647133Y-106925708D01*
X220685896Y-106893896D01*
X220812860Y-106739190D01*
X220907202Y-106562687D01*
X220950409Y-106420252D01*
X220965298Y-106371172D01*
X220972890Y-106294086D01*
X220980000Y-106221902D01*
X220980000Y-106221895D01*
X220984914Y-106172001D01*
X220980000Y-106122107D01*
X220980000Y-105457241D01*
X221135363Y-105689759D01*
X221335241Y-105889637D01*
X221570273Y-106046680D01*
X221831426Y-106154853D01*
X222108665Y-106210000D01*
X222391335Y-106210000D01*
X222668574Y-106154853D01*
X222929727Y-106046680D01*
X223164759Y-105889637D01*
X223364637Y-105689759D01*
X223378007Y-105669748D01*
X224790000Y-105669748D01*
X224790000Y-106420252D01*
X224936416Y-107156336D01*
X225223622Y-107849712D01*
X225640580Y-108473733D01*
X226171267Y-109004420D01*
X226795288Y-109421378D01*
X227488664Y-109708584D01*
X228224748Y-109855000D01*
X228975252Y-109855000D01*
X229711336Y-109708584D01*
X230404712Y-109421378D01*
X231028733Y-109004420D01*
X231559420Y-108473733D01*
X231976378Y-107849712D01*
X232263584Y-107156336D01*
X232410000Y-106420252D01*
X232410000Y-105669748D01*
X232263584Y-104933664D01*
X231976378Y-104240288D01*
X231559420Y-103616267D01*
X231028733Y-103085580D01*
X230404712Y-102668622D01*
X229711336Y-102381416D01*
X228975252Y-102235000D01*
X228224748Y-102235000D01*
X227488664Y-102381416D01*
X226795288Y-102668622D01*
X226171267Y-103085580D01*
X225640580Y-103616267D01*
X225223622Y-104240288D01*
X224936416Y-104933664D01*
X224790000Y-105669748D01*
X223378007Y-105669748D01*
X223521680Y-105454727D01*
X223629853Y-105193574D01*
X223685000Y-104916335D01*
X223685000Y-104633665D01*
X223629853Y-104356426D01*
X223521680Y-104095273D01*
X223364637Y-103860241D01*
X223164759Y-103660363D01*
X222929727Y-103503320D01*
X222668574Y-103395147D01*
X222391335Y-103340000D01*
X222108665Y-103340000D01*
X221831426Y-103395147D01*
X221570273Y-103503320D01*
X221335241Y-103660363D01*
X221135363Y-103860241D01*
X220980000Y-104092759D01*
X220980000Y-101258840D01*
X222933133Y-99305708D01*
X222971896Y-99273896D01*
X223098860Y-99119190D01*
X223193202Y-98942687D01*
X223251298Y-98751171D01*
X223266000Y-98601902D01*
X223266000Y-98601895D01*
X223270914Y-98552001D01*
X223266000Y-98502107D01*
X223266000Y-98168396D01*
X223364637Y-98069759D01*
X223521680Y-97834727D01*
X223629853Y-97573574D01*
X223685000Y-97296335D01*
X223685000Y-97013665D01*
X223629853Y-96736426D01*
X223521680Y-96475273D01*
X223364637Y-96240241D01*
X223164759Y-96040363D01*
X222929727Y-95883320D01*
X222668574Y-95775147D01*
X222391335Y-95720000D01*
X222108665Y-95720000D01*
X221831426Y-95775147D01*
X221570273Y-95883320D01*
X221335241Y-96040363D01*
X221135363Y-96240241D01*
X220978320Y-96475273D01*
X220870147Y-96736426D01*
X220815000Y-97013665D01*
X220815000Y-97296335D01*
X220870147Y-97573574D01*
X220978320Y-97834727D01*
X221135363Y-98069759D01*
X221215382Y-98149778D01*
X219280872Y-100084288D01*
X219242104Y-100116104D01*
X219115140Y-100270810D01*
X219020798Y-100447314D01*
X218962893Y-100638201D01*
X218962702Y-100638830D01*
X218943085Y-100838000D01*
X218948000Y-100887902D01*
X218948001Y-103902690D01*
X218919637Y-103860241D01*
X218719759Y-103660363D01*
X218484727Y-103503320D01*
X218223574Y-103395147D01*
X217946335Y-103340000D01*
X217663665Y-103340000D01*
X217386426Y-103395147D01*
X217125273Y-103503320D01*
X216890241Y-103660363D01*
X216690363Y-103860241D01*
X216533320Y-104095273D01*
X216425147Y-104356426D01*
X216370000Y-104633665D01*
X216370000Y-104916335D01*
X216425147Y-105193574D01*
X216533320Y-105454727D01*
X216690363Y-105689759D01*
X216890241Y-105889637D01*
X217125273Y-106046680D01*
X217386426Y-106154853D01*
X217663665Y-106210000D01*
X217946335Y-106210000D01*
X218223574Y-106154853D01*
X218484727Y-106046680D01*
X218719759Y-105889637D01*
X218919637Y-105689759D01*
X218948001Y-105647309D01*
X218948001Y-105751158D01*
X212676872Y-112022288D01*
X212638104Y-112054104D01*
X212511140Y-112208810D01*
X212416798Y-112385314D01*
X212358702Y-112576829D01*
X212358702Y-112576830D01*
X212339085Y-112776000D01*
X212344000Y-112825902D01*
X212344000Y-113286664D01*
X212126509Y-113431987D01*
X211856987Y-113701509D01*
X211645225Y-114018434D01*
X211499361Y-114370581D01*
X211455000Y-114593599D01*
X211410639Y-114370581D01*
X211264775Y-114018434D01*
X211053013Y-113701509D01*
X210783491Y-113431987D01*
X210566000Y-113286665D01*
X210566000Y-112444893D01*
X210570914Y-112394999D01*
X210566000Y-112345105D01*
X210566000Y-112345098D01*
X210551298Y-112195829D01*
X210493202Y-112004313D01*
X210398860Y-111827810D01*
X210271896Y-111673104D01*
X210233133Y-111641292D01*
X206121000Y-107529160D01*
X206121000Y-105788396D01*
X206219637Y-105689759D01*
X206376680Y-105454727D01*
X206484853Y-105193574D01*
X206540000Y-104916335D01*
X206540000Y-104633665D01*
X206484853Y-104356426D01*
X206376680Y-104095273D01*
X206219637Y-103860241D01*
X206019759Y-103660363D01*
X205784727Y-103503320D01*
X205523574Y-103395147D01*
X205246335Y-103340000D01*
X204963665Y-103340000D01*
X204686426Y-103395147D01*
X204425273Y-103503320D01*
X204190241Y-103660363D01*
X203990363Y-103860241D01*
X203833320Y-104095273D01*
X203725147Y-104356426D01*
X203670000Y-104633665D01*
X202095000Y-104633665D01*
X202039853Y-104356426D01*
X201931680Y-104095273D01*
X201774637Y-103860241D01*
X201574759Y-103660363D01*
X201339727Y-103503320D01*
X201078574Y-103395147D01*
X200801335Y-103340000D01*
X200518665Y-103340000D01*
X200241426Y-103395147D01*
X199980273Y-103503320D01*
X199745241Y-103660363D01*
X199545363Y-103860241D01*
X199388320Y-104095273D01*
X199280147Y-104356426D01*
X199225000Y-104633665D01*
X199136000Y-104633665D01*
X199136000Y-100115840D01*
X200661841Y-98590000D01*
X200801335Y-98590000D01*
X201078574Y-98534853D01*
X201339727Y-98426680D01*
X201574759Y-98269637D01*
X201774637Y-98069759D01*
X201931680Y-97834727D01*
X202039853Y-97573574D01*
X202095000Y-97296335D01*
X202095000Y-97013665D01*
X203670000Y-97013665D01*
X203670000Y-97296335D01*
X203725147Y-97573574D01*
X203833320Y-97834727D01*
X203990363Y-98069759D01*
X204190241Y-98269637D01*
X204425273Y-98426680D01*
X204686426Y-98534853D01*
X204963665Y-98590000D01*
X205246335Y-98590000D01*
X205523574Y-98534853D01*
X205784727Y-98426680D01*
X206019759Y-98269637D01*
X206219637Y-98069759D01*
X206376680Y-97834727D01*
X206484853Y-97573574D01*
X206540000Y-97296335D01*
X206540000Y-97013665D01*
X206484853Y-96736426D01*
X206376680Y-96475273D01*
X206219637Y-96240241D01*
X206019759Y-96040363D01*
X205784727Y-95883320D01*
X205523574Y-95775147D01*
X205246335Y-95720000D01*
X204963665Y-95720000D01*
X204686426Y-95775147D01*
X204425273Y-95883320D01*
X204190241Y-96040363D01*
X203990363Y-96240241D01*
X203833320Y-96475273D01*
X203725147Y-96736426D01*
X203670000Y-97013665D01*
X202095000Y-97013665D01*
X202039853Y-96736426D01*
X201931680Y-96475273D01*
X201774637Y-96240241D01*
X201574759Y-96040363D01*
X201339727Y-95883320D01*
X201078574Y-95775147D01*
X200801335Y-95720000D01*
X200518665Y-95720000D01*
X200241426Y-95775147D01*
X199980273Y-95883320D01*
X199745241Y-96040363D01*
X199545363Y-96240241D01*
X199388320Y-96475273D01*
X199280147Y-96736426D01*
X199225000Y-97013665D01*
X199225000Y-97153159D01*
X197436872Y-98941288D01*
X197398104Y-98973104D01*
X197271140Y-99127810D01*
X197176798Y-99304314D01*
X197133844Y-99445915D01*
X197118702Y-99495830D01*
X197099085Y-99695000D01*
X197104000Y-99744902D01*
X197104001Y-106894158D01*
X195159160Y-108839000D01*
X169594893Y-108839000D01*
X169544999Y-108834086D01*
X169495105Y-108839000D01*
X169495098Y-108839000D01*
X169345829Y-108853702D01*
X169154313Y-108911798D01*
X168977810Y-109006140D01*
X168823104Y-109133104D01*
X168791293Y-109171866D01*
X167591872Y-110371288D01*
X167553104Y-110403104D01*
X167426140Y-110557810D01*
X167331798Y-110734314D01*
X167290335Y-110871000D01*
X167273702Y-110925830D01*
X167254085Y-111125000D01*
X167259000Y-111174902D01*
X167259001Y-113286664D01*
X167041509Y-113431987D01*
X166771987Y-113701509D01*
X166560225Y-114018434D01*
X166414361Y-114370581D01*
X166370000Y-114593599D01*
X166325639Y-114370581D01*
X166179775Y-114018434D01*
X165968013Y-113701509D01*
X165698491Y-113431987D01*
X165481000Y-113286665D01*
X165481000Y-109005840D01*
X166155841Y-108331000D01*
X173940098Y-108331000D01*
X173990000Y-108335915D01*
X174039902Y-108331000D01*
X174189171Y-108316298D01*
X174380687Y-108258202D01*
X174557190Y-108163860D01*
X174711896Y-108036896D01*
X174743712Y-107998128D01*
X175943133Y-106798708D01*
X175981896Y-106766896D01*
X176108860Y-106612190D01*
X176203202Y-106435687D01*
X176261298Y-106244171D01*
X176276000Y-106094902D01*
X176276000Y-106094895D01*
X176280914Y-106045001D01*
X176276000Y-105995107D01*
X176276000Y-104633665D01*
X176365000Y-104633665D01*
X176365000Y-104916335D01*
X176420147Y-105193574D01*
X176528320Y-105454727D01*
X176685363Y-105689759D01*
X176885241Y-105889637D01*
X177120273Y-106046680D01*
X177381426Y-106154853D01*
X177658665Y-106210000D01*
X177941335Y-106210000D01*
X178218574Y-106154853D01*
X178479727Y-106046680D01*
X178714759Y-105889637D01*
X178914637Y-105689759D01*
X179071680Y-105454727D01*
X179179853Y-105193574D01*
X179235000Y-104916335D01*
X179235000Y-104633665D01*
X180810000Y-104633665D01*
X180810000Y-104916335D01*
X180865147Y-105193574D01*
X180973320Y-105454727D01*
X181130363Y-105689759D01*
X181330241Y-105889637D01*
X181565273Y-106046680D01*
X181826426Y-106154853D01*
X182103665Y-106210000D01*
X182386335Y-106210000D01*
X182663574Y-106154853D01*
X182924727Y-106046680D01*
X183159759Y-105889637D01*
X183359637Y-105689759D01*
X183516680Y-105454727D01*
X183624853Y-105193574D01*
X183680000Y-104916335D01*
X183680000Y-104633665D01*
X183624853Y-104356426D01*
X183516680Y-104095273D01*
X183359637Y-103860241D01*
X183159759Y-103660363D01*
X182924727Y-103503320D01*
X182663574Y-103395147D01*
X182386335Y-103340000D01*
X182103665Y-103340000D01*
X181826426Y-103395147D01*
X181565273Y-103503320D01*
X181330241Y-103660363D01*
X181130363Y-103860241D01*
X180973320Y-104095273D01*
X180865147Y-104356426D01*
X180810000Y-104633665D01*
X179235000Y-104633665D01*
X179179853Y-104356426D01*
X179071680Y-104095273D01*
X178914637Y-103860241D01*
X178714759Y-103660363D01*
X178479727Y-103503320D01*
X178218574Y-103395147D01*
X177941335Y-103340000D01*
X177658665Y-103340000D01*
X177381426Y-103395147D01*
X177120273Y-103503320D01*
X176885241Y-103660363D01*
X176685363Y-103860241D01*
X176528320Y-104095273D01*
X176420147Y-104356426D01*
X176365000Y-104633665D01*
X176276000Y-104633665D01*
X176276000Y-98845840D01*
X176868722Y-98253118D01*
X176885241Y-98269637D01*
X177120273Y-98426680D01*
X177381426Y-98534853D01*
X177658665Y-98590000D01*
X177941335Y-98590000D01*
X178218574Y-98534853D01*
X178479727Y-98426680D01*
X178714759Y-98269637D01*
X178914637Y-98069759D01*
X179071680Y-97834727D01*
X179179853Y-97573574D01*
X179235000Y-97296335D01*
X179235000Y-97013665D01*
X180810000Y-97013665D01*
X180810000Y-97296335D01*
X180865147Y-97573574D01*
X180973320Y-97834727D01*
X181130363Y-98069759D01*
X181330241Y-98269637D01*
X181565273Y-98426680D01*
X181826426Y-98534853D01*
X182103665Y-98590000D01*
X182386335Y-98590000D01*
X182663574Y-98534853D01*
X182924727Y-98426680D01*
X183159759Y-98269637D01*
X183359637Y-98069759D01*
X183516680Y-97834727D01*
X183624853Y-97573574D01*
X183680000Y-97296335D01*
X183680000Y-97013665D01*
X183624853Y-96736426D01*
X183516680Y-96475273D01*
X183359637Y-96240241D01*
X183159759Y-96040363D01*
X182924727Y-95883320D01*
X182663574Y-95775147D01*
X182386335Y-95720000D01*
X182103665Y-95720000D01*
X181826426Y-95775147D01*
X181565273Y-95883320D01*
X181330241Y-96040363D01*
X181130363Y-96240241D01*
X180973320Y-96475273D01*
X180865147Y-96736426D01*
X180810000Y-97013665D01*
X179235000Y-97013665D01*
X179179853Y-96736426D01*
X179071680Y-96475273D01*
X178914637Y-96240241D01*
X178714759Y-96040363D01*
X178479727Y-95883320D01*
X178218574Y-95775147D01*
X177941335Y-95720000D01*
X177658665Y-95720000D01*
X177381426Y-95775147D01*
X177120273Y-95883320D01*
X176885241Y-96040363D01*
X176786604Y-96139000D01*
X176579893Y-96139000D01*
X176529999Y-96134086D01*
X176480105Y-96139000D01*
X176480098Y-96139000D01*
X176330829Y-96153702D01*
X176139313Y-96211798D01*
X175962810Y-96306140D01*
X175808104Y-96433104D01*
X175776292Y-96471867D01*
X174576872Y-97671288D01*
X174538104Y-97703104D01*
X174411140Y-97857810D01*
X174316798Y-98034314D01*
X174278273Y-98161314D01*
X174258702Y-98225830D01*
X174239085Y-98425000D01*
X174244000Y-98474902D01*
X174244001Y-105624158D01*
X173569160Y-106299000D01*
X165784893Y-106299000D01*
X165734999Y-106294086D01*
X165685105Y-106299000D01*
X165685098Y-106299000D01*
X165535829Y-106313702D01*
X165344313Y-106371798D01*
X165167810Y-106466140D01*
X165013104Y-106593104D01*
X164981293Y-106631866D01*
X163781872Y-107831288D01*
X163743104Y-107863104D01*
X163616140Y-108017810D01*
X163521798Y-108194314D01*
X163477396Y-108340687D01*
X163463702Y-108385830D01*
X163444085Y-108585000D01*
X163449000Y-108634902D01*
X163449001Y-113286664D01*
X163231509Y-113431987D01*
X162961987Y-113701509D01*
X162750225Y-114018434D01*
X162604361Y-114370581D01*
X162561470Y-114586209D01*
X162551457Y-114506049D01*
X162431333Y-114144310D01*
X162299312Y-113897317D01*
X162004224Y-113765381D01*
X160834605Y-114935000D01*
X162004224Y-116104619D01*
X162299312Y-115972683D01*
X162470159Y-115631955D01*
X162563341Y-115293197D01*
X162604361Y-115499419D01*
X162750225Y-115851566D01*
X162961987Y-116168491D01*
X163231509Y-116438013D01*
X163548434Y-116649775D01*
X163900581Y-116795639D01*
X164274419Y-116870000D01*
X164655581Y-116870000D01*
X165029419Y-116795639D01*
X165381566Y-116649775D01*
X165698491Y-116438013D01*
X165968013Y-116168491D01*
X166179775Y-115851566D01*
X166325639Y-115499419D01*
X166370000Y-115276401D01*
X166414361Y-115499419D01*
X166560225Y-115851566D01*
X166771987Y-116168491D01*
X167041509Y-116438013D01*
X167358434Y-116649775D01*
X167710581Y-116795639D01*
X168084419Y-116870000D01*
X168465581Y-116870000D01*
X168839419Y-116795639D01*
X169191566Y-116649775D01*
X169508491Y-116438013D01*
X169778013Y-116168491D01*
X169989775Y-115851566D01*
X170135639Y-115499419D01*
X170146928Y-115442665D01*
X170146928Y-116071231D01*
X169124160Y-117094000D01*
X159805841Y-117094000D01*
X158996065Y-116284224D01*
X159485381Y-116284224D01*
X159617317Y-116579312D01*
X159958045Y-116750159D01*
X160325557Y-116851250D01*
X160705729Y-116878701D01*
X161083951Y-116831457D01*
X161445690Y-116711333D01*
X161692683Y-116579312D01*
X161824619Y-116284224D01*
X160655000Y-115114605D01*
X159485381Y-116284224D01*
X158996065Y-116284224D01*
X158496000Y-115784160D01*
X158496000Y-114985729D01*
X158711299Y-114985729D01*
X158758543Y-115363951D01*
X158878667Y-115725690D01*
X159010688Y-115972683D01*
X159305776Y-116104619D01*
X160475395Y-114935000D01*
X159305776Y-113765381D01*
X159010688Y-113897317D01*
X158839841Y-114238045D01*
X158738750Y-114605557D01*
X158711299Y-114985729D01*
X158496000Y-114985729D01*
X158496000Y-113585776D01*
X159485381Y-113585776D01*
X160655000Y-114755395D01*
X161824619Y-113585776D01*
X161692683Y-113290688D01*
X161351955Y-113119841D01*
X160984443Y-113018750D01*
X160604271Y-112991299D01*
X160226049Y-113038543D01*
X159864310Y-113158667D01*
X159617317Y-113290688D01*
X159485381Y-113585776D01*
X158496000Y-113585776D01*
X158496000Y-110910840D01*
X163243769Y-106163072D01*
X163945000Y-106163072D01*
X164069482Y-106150812D01*
X164189180Y-106114502D01*
X164299494Y-106055537D01*
X164396185Y-105976185D01*
X164475537Y-105879494D01*
X164534502Y-105769180D01*
X164570812Y-105649482D01*
X164583072Y-105525000D01*
X164583072Y-104638589D01*
X166890000Y-104638589D01*
X166890000Y-104911411D01*
X166943225Y-105178989D01*
X167047629Y-105431043D01*
X167199201Y-105657886D01*
X167392114Y-105850799D01*
X167618957Y-106002371D01*
X167871011Y-106106775D01*
X168138589Y-106160000D01*
X168411411Y-106160000D01*
X168678989Y-106106775D01*
X168931043Y-106002371D01*
X169157886Y-105850799D01*
X169350799Y-105657886D01*
X169502371Y-105431043D01*
X169606775Y-105178989D01*
X169660000Y-104911411D01*
X169660000Y-104638589D01*
X169659021Y-104633665D01*
X171285000Y-104633665D01*
X171285000Y-104916335D01*
X171340147Y-105193574D01*
X171448320Y-105454727D01*
X171605363Y-105689759D01*
X171805241Y-105889637D01*
X172040273Y-106046680D01*
X172301426Y-106154853D01*
X172578665Y-106210000D01*
X172861335Y-106210000D01*
X173138574Y-106154853D01*
X173399727Y-106046680D01*
X173634759Y-105889637D01*
X173834637Y-105689759D01*
X173991680Y-105454727D01*
X174099853Y-105193574D01*
X174155000Y-104916335D01*
X174155000Y-104633665D01*
X174099853Y-104356426D01*
X173991680Y-104095273D01*
X173834637Y-103860241D01*
X173634759Y-103660363D01*
X173399727Y-103503320D01*
X173138574Y-103395147D01*
X172861335Y-103340000D01*
X172578665Y-103340000D01*
X172301426Y-103395147D01*
X172040273Y-103503320D01*
X171805241Y-103660363D01*
X171605363Y-103860241D01*
X171448320Y-104095273D01*
X171340147Y-104356426D01*
X171285000Y-104633665D01*
X169659021Y-104633665D01*
X169606775Y-104371011D01*
X169502371Y-104118957D01*
X169350799Y-103892114D01*
X169157886Y-103699201D01*
X168931043Y-103547629D01*
X168678989Y-103443225D01*
X168411411Y-103390000D01*
X168138589Y-103390000D01*
X167871011Y-103443225D01*
X167618957Y-103547629D01*
X167392114Y-103699201D01*
X167199201Y-103892114D01*
X167047629Y-104118957D01*
X166943225Y-104371011D01*
X166890000Y-104638589D01*
X164583072Y-104638589D01*
X164583072Y-104025000D01*
X164570812Y-103900518D01*
X164534502Y-103780820D01*
X164475537Y-103670506D01*
X164396185Y-103573815D01*
X164299494Y-103494463D01*
X164189180Y-103435498D01*
X164069482Y-103399188D01*
X163945000Y-103386928D01*
X163243769Y-103386928D01*
X162306000Y-102449160D01*
X162306000Y-102098589D01*
X164350000Y-102098589D01*
X164350000Y-102371411D01*
X164403225Y-102638989D01*
X164507629Y-102891043D01*
X164659201Y-103117886D01*
X164852114Y-103310799D01*
X165078957Y-103462371D01*
X165331011Y-103566775D01*
X165598589Y-103620000D01*
X165871411Y-103620000D01*
X166138989Y-103566775D01*
X166391043Y-103462371D01*
X166617886Y-103310799D01*
X166810799Y-103117886D01*
X166962371Y-102891043D01*
X167066775Y-102638989D01*
X167120000Y-102371411D01*
X167120000Y-102098589D01*
X167066775Y-101831011D01*
X166962371Y-101578957D01*
X166810799Y-101352114D01*
X166617886Y-101159201D01*
X166391043Y-101007629D01*
X166138989Y-100903225D01*
X165871411Y-100850000D01*
X165598589Y-100850000D01*
X165331011Y-100903225D01*
X165078957Y-101007629D01*
X164852114Y-101159201D01*
X164659201Y-101352114D01*
X164507629Y-101578957D01*
X164403225Y-101831011D01*
X164350000Y-102098589D01*
X162306000Y-102098589D01*
X162306000Y-97420000D01*
X162926928Y-97420000D01*
X162939188Y-97544482D01*
X162975498Y-97664180D01*
X163034463Y-97774494D01*
X163113815Y-97871185D01*
X163210506Y-97950537D01*
X163320820Y-98009502D01*
X163440518Y-98045812D01*
X163565000Y-98058072D01*
X164179250Y-98055000D01*
X164338000Y-97896250D01*
X164338000Y-96647000D01*
X163088750Y-96647000D01*
X162930000Y-96805750D01*
X162926928Y-97420000D01*
X162306000Y-97420000D01*
X162306000Y-95620000D01*
X162926928Y-95620000D01*
X162930000Y-96234250D01*
X163088750Y-96393000D01*
X164338000Y-96393000D01*
X164338000Y-95143750D01*
X164592000Y-95143750D01*
X164592000Y-96393000D01*
X164612000Y-96393000D01*
X164612000Y-96647000D01*
X164592000Y-96647000D01*
X164592000Y-97896250D01*
X164750750Y-98055000D01*
X165365000Y-98058072D01*
X165489482Y-98045812D01*
X165609180Y-98009502D01*
X165719494Y-97950537D01*
X165816185Y-97871185D01*
X165895537Y-97774494D01*
X165954502Y-97664180D01*
X165960056Y-97645873D01*
X166026495Y-97712312D01*
X166277905Y-97880299D01*
X166557257Y-97996011D01*
X166853816Y-98055000D01*
X167156184Y-98055000D01*
X167452743Y-97996011D01*
X167732095Y-97880299D01*
X167983505Y-97712312D01*
X168197312Y-97498505D01*
X168365299Y-97247095D01*
X168461989Y-97013665D01*
X171285000Y-97013665D01*
X171285000Y-97296335D01*
X171340147Y-97573574D01*
X171448320Y-97834727D01*
X171605363Y-98069759D01*
X171805241Y-98269637D01*
X172040273Y-98426680D01*
X172301426Y-98534853D01*
X172578665Y-98590000D01*
X172861335Y-98590000D01*
X173138574Y-98534853D01*
X173399727Y-98426680D01*
X173634759Y-98269637D01*
X173834637Y-98069759D01*
X173991680Y-97834727D01*
X174099853Y-97573574D01*
X174155000Y-97296335D01*
X174155000Y-97013665D01*
X174099853Y-96736426D01*
X173991680Y-96475273D01*
X173834637Y-96240241D01*
X173634759Y-96040363D01*
X173399727Y-95883320D01*
X173138574Y-95775147D01*
X172861335Y-95720000D01*
X172578665Y-95720000D01*
X172301426Y-95775147D01*
X172040273Y-95883320D01*
X171805241Y-96040363D01*
X171605363Y-96240241D01*
X171448320Y-96475273D01*
X171340147Y-96736426D01*
X171285000Y-97013665D01*
X168461989Y-97013665D01*
X168481011Y-96967743D01*
X168540000Y-96671184D01*
X168540000Y-96368816D01*
X168481011Y-96072257D01*
X168365299Y-95792905D01*
X168197312Y-95541495D01*
X167983505Y-95327688D01*
X167732095Y-95159701D01*
X167452743Y-95043989D01*
X167156184Y-94985000D01*
X166853816Y-94985000D01*
X166557257Y-95043989D01*
X166277905Y-95159701D01*
X166026495Y-95327688D01*
X165960056Y-95394127D01*
X165954502Y-95375820D01*
X165895537Y-95265506D01*
X165816185Y-95168815D01*
X165719494Y-95089463D01*
X165609180Y-95030498D01*
X165489482Y-94994188D01*
X165365000Y-94981928D01*
X164750750Y-94985000D01*
X164592000Y-95143750D01*
X164338000Y-95143750D01*
X164179250Y-94985000D01*
X163565000Y-94981928D01*
X163440518Y-94994188D01*
X163320820Y-95030498D01*
X163210506Y-95089463D01*
X163113815Y-95168815D01*
X163034463Y-95265506D01*
X162975498Y-95375820D01*
X162939188Y-95495518D01*
X162926928Y-95620000D01*
X162306000Y-95620000D01*
X162306000Y-94993396D01*
X162404637Y-94894759D01*
X162561680Y-94659727D01*
X162669853Y-94398574D01*
X162725000Y-94121335D01*
X162725000Y-93838665D01*
X175730000Y-93838665D01*
X175730000Y-94121335D01*
X175785147Y-94398574D01*
X175893320Y-94659727D01*
X176050363Y-94894759D01*
X176250241Y-95094637D01*
X176485273Y-95251680D01*
X176746426Y-95359853D01*
X177023665Y-95415000D01*
X177306335Y-95415000D01*
X177583574Y-95359853D01*
X177844727Y-95251680D01*
X178079759Y-95094637D01*
X178279637Y-94894759D01*
X178436680Y-94659727D01*
X178544853Y-94398574D01*
X178600000Y-94121335D01*
X178600000Y-93838665D01*
X183350000Y-93838665D01*
X183350000Y-94121335D01*
X183405147Y-94398574D01*
X183513320Y-94659727D01*
X183670363Y-94894759D01*
X183769000Y-94993396D01*
X183769001Y-102820088D01*
X183764085Y-102870000D01*
X183783702Y-103069170D01*
X183841799Y-103260687D01*
X183936141Y-103437190D01*
X184063105Y-103591896D01*
X184101868Y-103623708D01*
X185301928Y-104823769D01*
X185301928Y-105525000D01*
X185314188Y-105649482D01*
X185350498Y-105769180D01*
X185409463Y-105879494D01*
X185488815Y-105976185D01*
X185585506Y-106055537D01*
X185695820Y-106114502D01*
X185815518Y-106150812D01*
X185940000Y-106163072D01*
X187440000Y-106163072D01*
X187564482Y-106150812D01*
X187684180Y-106114502D01*
X187794494Y-106055537D01*
X187891185Y-105976185D01*
X187970537Y-105879494D01*
X188029502Y-105769180D01*
X188065812Y-105649482D01*
X188078072Y-105525000D01*
X188078072Y-104638589D01*
X190385000Y-104638589D01*
X190385000Y-104911411D01*
X190438225Y-105178989D01*
X190542629Y-105431043D01*
X190694201Y-105657886D01*
X190887114Y-105850799D01*
X191113957Y-106002371D01*
X191366011Y-106106775D01*
X191633589Y-106160000D01*
X191906411Y-106160000D01*
X192173989Y-106106775D01*
X192426043Y-106002371D01*
X192652886Y-105850799D01*
X192845799Y-105657886D01*
X192997371Y-105431043D01*
X193101775Y-105178989D01*
X193155000Y-104911411D01*
X193155000Y-104638589D01*
X193154021Y-104633665D01*
X194145000Y-104633665D01*
X194145000Y-104916335D01*
X194200147Y-105193574D01*
X194308320Y-105454727D01*
X194465363Y-105689759D01*
X194665241Y-105889637D01*
X194900273Y-106046680D01*
X195161426Y-106154853D01*
X195438665Y-106210000D01*
X195721335Y-106210000D01*
X195998574Y-106154853D01*
X196259727Y-106046680D01*
X196494759Y-105889637D01*
X196694637Y-105689759D01*
X196851680Y-105454727D01*
X196959853Y-105193574D01*
X197015000Y-104916335D01*
X197015000Y-104633665D01*
X196959853Y-104356426D01*
X196851680Y-104095273D01*
X196694637Y-103860241D01*
X196494759Y-103660363D01*
X196259727Y-103503320D01*
X195998574Y-103395147D01*
X195721335Y-103340000D01*
X195438665Y-103340000D01*
X195161426Y-103395147D01*
X194900273Y-103503320D01*
X194665241Y-103660363D01*
X194465363Y-103860241D01*
X194308320Y-104095273D01*
X194200147Y-104356426D01*
X194145000Y-104633665D01*
X193154021Y-104633665D01*
X193101775Y-104371011D01*
X192997371Y-104118957D01*
X192845799Y-103892114D01*
X192652886Y-103699201D01*
X192426043Y-103547629D01*
X192173989Y-103443225D01*
X191906411Y-103390000D01*
X191633589Y-103390000D01*
X191366011Y-103443225D01*
X191113957Y-103547629D01*
X190887114Y-103699201D01*
X190694201Y-103892114D01*
X190542629Y-104118957D01*
X190438225Y-104371011D01*
X190385000Y-104638589D01*
X188078072Y-104638589D01*
X188078072Y-104025000D01*
X188065812Y-103900518D01*
X188029502Y-103780820D01*
X187970537Y-103670506D01*
X187891185Y-103573815D01*
X187794494Y-103494463D01*
X187684180Y-103435498D01*
X187564482Y-103399188D01*
X187440000Y-103386928D01*
X186738769Y-103386928D01*
X185801000Y-102449160D01*
X185801000Y-102098589D01*
X187845000Y-102098589D01*
X187845000Y-102371411D01*
X187898225Y-102638989D01*
X188002629Y-102891043D01*
X188154201Y-103117886D01*
X188347114Y-103310799D01*
X188573957Y-103462371D01*
X188826011Y-103566775D01*
X189093589Y-103620000D01*
X189366411Y-103620000D01*
X189633989Y-103566775D01*
X189886043Y-103462371D01*
X190112886Y-103310799D01*
X190305799Y-103117886D01*
X190457371Y-102891043D01*
X190561775Y-102638989D01*
X190615000Y-102371411D01*
X190615000Y-102098589D01*
X190561775Y-101831011D01*
X190457371Y-101578957D01*
X190305799Y-101352114D01*
X190112886Y-101159201D01*
X189886043Y-101007629D01*
X189633989Y-100903225D01*
X189366411Y-100850000D01*
X189093589Y-100850000D01*
X188826011Y-100903225D01*
X188573957Y-101007629D01*
X188347114Y-101159201D01*
X188154201Y-101352114D01*
X188002629Y-101578957D01*
X187898225Y-101831011D01*
X187845000Y-102098589D01*
X185801000Y-102098589D01*
X185801000Y-97420000D01*
X186421928Y-97420000D01*
X186434188Y-97544482D01*
X186470498Y-97664180D01*
X186529463Y-97774494D01*
X186608815Y-97871185D01*
X186705506Y-97950537D01*
X186815820Y-98009502D01*
X186935518Y-98045812D01*
X187060000Y-98058072D01*
X187674250Y-98055000D01*
X187833000Y-97896250D01*
X187833000Y-96647000D01*
X186583750Y-96647000D01*
X186425000Y-96805750D01*
X186421928Y-97420000D01*
X185801000Y-97420000D01*
X185801000Y-95620000D01*
X186421928Y-95620000D01*
X186425000Y-96234250D01*
X186583750Y-96393000D01*
X187833000Y-96393000D01*
X187833000Y-95143750D01*
X188087000Y-95143750D01*
X188087000Y-96393000D01*
X188107000Y-96393000D01*
X188107000Y-96647000D01*
X188087000Y-96647000D01*
X188087000Y-97896250D01*
X188245750Y-98055000D01*
X188860000Y-98058072D01*
X188984482Y-98045812D01*
X189104180Y-98009502D01*
X189214494Y-97950537D01*
X189311185Y-97871185D01*
X189390537Y-97774494D01*
X189449502Y-97664180D01*
X189455056Y-97645873D01*
X189521495Y-97712312D01*
X189772905Y-97880299D01*
X190052257Y-97996011D01*
X190348816Y-98055000D01*
X190651184Y-98055000D01*
X190947743Y-97996011D01*
X191227095Y-97880299D01*
X191478505Y-97712312D01*
X191692312Y-97498505D01*
X191860299Y-97247095D01*
X191956989Y-97013665D01*
X194145000Y-97013665D01*
X194145000Y-97296335D01*
X194200147Y-97573574D01*
X194308320Y-97834727D01*
X194465363Y-98069759D01*
X194665241Y-98269637D01*
X194900273Y-98426680D01*
X195161426Y-98534853D01*
X195438665Y-98590000D01*
X195721335Y-98590000D01*
X195998574Y-98534853D01*
X196259727Y-98426680D01*
X196494759Y-98269637D01*
X196694637Y-98069759D01*
X196851680Y-97834727D01*
X196959853Y-97573574D01*
X197015000Y-97296335D01*
X197015000Y-97013665D01*
X196959853Y-96736426D01*
X196851680Y-96475273D01*
X196694637Y-96240241D01*
X196494759Y-96040363D01*
X196259727Y-95883320D01*
X195998574Y-95775147D01*
X195721335Y-95720000D01*
X195438665Y-95720000D01*
X195161426Y-95775147D01*
X194900273Y-95883320D01*
X194665241Y-96040363D01*
X194465363Y-96240241D01*
X194308320Y-96475273D01*
X194200147Y-96736426D01*
X194145000Y-97013665D01*
X191956989Y-97013665D01*
X191976011Y-96967743D01*
X192035000Y-96671184D01*
X192035000Y-96368816D01*
X191976011Y-96072257D01*
X191860299Y-95792905D01*
X191692312Y-95541495D01*
X191478505Y-95327688D01*
X191227095Y-95159701D01*
X190947743Y-95043989D01*
X190651184Y-94985000D01*
X190348816Y-94985000D01*
X190052257Y-95043989D01*
X189772905Y-95159701D01*
X189521495Y-95327688D01*
X189455056Y-95394127D01*
X189449502Y-95375820D01*
X189390537Y-95265506D01*
X189311185Y-95168815D01*
X189214494Y-95089463D01*
X189104180Y-95030498D01*
X188984482Y-94994188D01*
X188860000Y-94981928D01*
X188245750Y-94985000D01*
X188087000Y-95143750D01*
X187833000Y-95143750D01*
X187674250Y-94985000D01*
X187060000Y-94981928D01*
X186935518Y-94994188D01*
X186815820Y-95030498D01*
X186705506Y-95089463D01*
X186608815Y-95168815D01*
X186529463Y-95265506D01*
X186470498Y-95375820D01*
X186434188Y-95495518D01*
X186421928Y-95620000D01*
X185801000Y-95620000D01*
X185801000Y-94993396D01*
X185899637Y-94894759D01*
X186056680Y-94659727D01*
X186164853Y-94398574D01*
X186220000Y-94121335D01*
X186220000Y-93838665D01*
X198590000Y-93838665D01*
X198590000Y-94121335D01*
X198645147Y-94398574D01*
X198753320Y-94659727D01*
X198910363Y-94894759D01*
X199110241Y-95094637D01*
X199345273Y-95251680D01*
X199606426Y-95359853D01*
X199883665Y-95415000D01*
X200166335Y-95415000D01*
X200443574Y-95359853D01*
X200704727Y-95251680D01*
X200939759Y-95094637D01*
X201139637Y-94894759D01*
X201296680Y-94659727D01*
X201404853Y-94398574D01*
X201460000Y-94121335D01*
X201460000Y-93838665D01*
X206210000Y-93838665D01*
X206210000Y-94121335D01*
X206265147Y-94398574D01*
X206373320Y-94659727D01*
X206530363Y-94894759D01*
X206629000Y-94993396D01*
X206629001Y-103455088D01*
X206624085Y-103505000D01*
X206643702Y-103704170D01*
X206694401Y-103871298D01*
X206701799Y-103895687D01*
X206796141Y-104072190D01*
X206923105Y-104226896D01*
X206961868Y-104258708D01*
X207526928Y-104823768D01*
X207526928Y-105525000D01*
X207539188Y-105649482D01*
X207575498Y-105769180D01*
X207634463Y-105879494D01*
X207713815Y-105976185D01*
X207810506Y-106055537D01*
X207920820Y-106114502D01*
X208040518Y-106150812D01*
X208165000Y-106163072D01*
X209665000Y-106163072D01*
X209789482Y-106150812D01*
X209909180Y-106114502D01*
X210019494Y-106055537D01*
X210116185Y-105976185D01*
X210195537Y-105879494D01*
X210254502Y-105769180D01*
X210290812Y-105649482D01*
X210303072Y-105525000D01*
X210303072Y-104638589D01*
X212610000Y-104638589D01*
X212610000Y-104911411D01*
X212663225Y-105178989D01*
X212767629Y-105431043D01*
X212919201Y-105657886D01*
X213112114Y-105850799D01*
X213338957Y-106002371D01*
X213591011Y-106106775D01*
X213858589Y-106160000D01*
X214131411Y-106160000D01*
X214398989Y-106106775D01*
X214651043Y-106002371D01*
X214877886Y-105850799D01*
X215070799Y-105657886D01*
X215222371Y-105431043D01*
X215326775Y-105178989D01*
X215380000Y-104911411D01*
X215380000Y-104638589D01*
X215326775Y-104371011D01*
X215222371Y-104118957D01*
X215070799Y-103892114D01*
X214877886Y-103699201D01*
X214651043Y-103547629D01*
X214398989Y-103443225D01*
X214131411Y-103390000D01*
X213858589Y-103390000D01*
X213591011Y-103443225D01*
X213338957Y-103547629D01*
X213112114Y-103699201D01*
X212919201Y-103892114D01*
X212767629Y-104118957D01*
X212663225Y-104371011D01*
X212610000Y-104638589D01*
X210303072Y-104638589D01*
X210303072Y-104025000D01*
X210290812Y-103900518D01*
X210254502Y-103780820D01*
X210195537Y-103670506D01*
X210116185Y-103573815D01*
X210019494Y-103494463D01*
X209909180Y-103435498D01*
X209789482Y-103399188D01*
X209665000Y-103386928D01*
X208963768Y-103386928D01*
X208661000Y-103084160D01*
X208661000Y-102098589D01*
X210070000Y-102098589D01*
X210070000Y-102371411D01*
X210123225Y-102638989D01*
X210227629Y-102891043D01*
X210379201Y-103117886D01*
X210572114Y-103310799D01*
X210798957Y-103462371D01*
X211051011Y-103566775D01*
X211318589Y-103620000D01*
X211591411Y-103620000D01*
X211858989Y-103566775D01*
X212111043Y-103462371D01*
X212337886Y-103310799D01*
X212530799Y-103117886D01*
X212682371Y-102891043D01*
X212786775Y-102638989D01*
X212840000Y-102371411D01*
X212840000Y-102098589D01*
X212786775Y-101831011D01*
X212682371Y-101578957D01*
X212530799Y-101352114D01*
X212337886Y-101159201D01*
X212111043Y-101007629D01*
X211858989Y-100903225D01*
X211591411Y-100850000D01*
X211318589Y-100850000D01*
X211051011Y-100903225D01*
X210798957Y-101007629D01*
X210572114Y-101159201D01*
X210379201Y-101352114D01*
X210227629Y-101578957D01*
X210123225Y-101831011D01*
X210070000Y-102098589D01*
X208661000Y-102098589D01*
X208661000Y-97550455D01*
X208695498Y-97664180D01*
X208754463Y-97774494D01*
X208833815Y-97871185D01*
X208930506Y-97950537D01*
X209040820Y-98009502D01*
X209160518Y-98045812D01*
X209285000Y-98058072D01*
X209899250Y-98055000D01*
X210058000Y-97896250D01*
X210058000Y-96647000D01*
X210038000Y-96647000D01*
X210038000Y-96393000D01*
X210058000Y-96393000D01*
X210058000Y-95143750D01*
X210312000Y-95143750D01*
X210312000Y-96393000D01*
X210332000Y-96393000D01*
X210332000Y-96647000D01*
X210312000Y-96647000D01*
X210312000Y-97896250D01*
X210470750Y-98055000D01*
X211085000Y-98058072D01*
X211209482Y-98045812D01*
X211329180Y-98009502D01*
X211439494Y-97950537D01*
X211536185Y-97871185D01*
X211615537Y-97774494D01*
X211674502Y-97664180D01*
X211680056Y-97645873D01*
X211746495Y-97712312D01*
X211997905Y-97880299D01*
X212277257Y-97996011D01*
X212573816Y-98055000D01*
X212876184Y-98055000D01*
X213172743Y-97996011D01*
X213452095Y-97880299D01*
X213703505Y-97712312D01*
X213917312Y-97498505D01*
X214085299Y-97247095D01*
X214181989Y-97013665D01*
X216370000Y-97013665D01*
X216370000Y-97296335D01*
X216425147Y-97573574D01*
X216533320Y-97834727D01*
X216690363Y-98069759D01*
X216890241Y-98269637D01*
X217125273Y-98426680D01*
X217386426Y-98534853D01*
X217663665Y-98590000D01*
X217946335Y-98590000D01*
X218223574Y-98534853D01*
X218484727Y-98426680D01*
X218719759Y-98269637D01*
X218919637Y-98069759D01*
X219076680Y-97834727D01*
X219184853Y-97573574D01*
X219240000Y-97296335D01*
X219240000Y-97013665D01*
X219184853Y-96736426D01*
X219076680Y-96475273D01*
X218919637Y-96240241D01*
X218719759Y-96040363D01*
X218484727Y-95883320D01*
X218223574Y-95775147D01*
X217946335Y-95720000D01*
X217663665Y-95720000D01*
X217386426Y-95775147D01*
X217125273Y-95883320D01*
X216890241Y-96040363D01*
X216690363Y-96240241D01*
X216533320Y-96475273D01*
X216425147Y-96736426D01*
X216370000Y-97013665D01*
X214181989Y-97013665D01*
X214201011Y-96967743D01*
X214260000Y-96671184D01*
X214260000Y-96368816D01*
X214201011Y-96072257D01*
X214085299Y-95792905D01*
X213917312Y-95541495D01*
X213703505Y-95327688D01*
X213452095Y-95159701D01*
X213172743Y-95043989D01*
X212876184Y-94985000D01*
X212573816Y-94985000D01*
X212277257Y-95043989D01*
X211997905Y-95159701D01*
X211746495Y-95327688D01*
X211680056Y-95394127D01*
X211674502Y-95375820D01*
X211615537Y-95265506D01*
X211536185Y-95168815D01*
X211439494Y-95089463D01*
X211329180Y-95030498D01*
X211209482Y-94994188D01*
X211085000Y-94981928D01*
X210470750Y-94985000D01*
X210312000Y-95143750D01*
X210058000Y-95143750D01*
X209899250Y-94985000D01*
X209285000Y-94981928D01*
X209160518Y-94994188D01*
X209040820Y-95030498D01*
X208930506Y-95089463D01*
X208833815Y-95168815D01*
X208754463Y-95265506D01*
X208695498Y-95375820D01*
X208661000Y-95489545D01*
X208661000Y-94993396D01*
X208759637Y-94894759D01*
X208916680Y-94659727D01*
X209024853Y-94398574D01*
X209080000Y-94121335D01*
X209080000Y-93838665D01*
X209024853Y-93561426D01*
X208916680Y-93300273D01*
X208759637Y-93065241D01*
X208559759Y-92865363D01*
X208324727Y-92708320D01*
X208063574Y-92600147D01*
X207786335Y-92545000D01*
X207503665Y-92545000D01*
X207226426Y-92600147D01*
X206965273Y-92708320D01*
X206730241Y-92865363D01*
X206530363Y-93065241D01*
X206373320Y-93300273D01*
X206265147Y-93561426D01*
X206210000Y-93838665D01*
X201460000Y-93838665D01*
X201404853Y-93561426D01*
X201296680Y-93300273D01*
X201139637Y-93065241D01*
X200939759Y-92865363D01*
X200704727Y-92708320D01*
X200443574Y-92600147D01*
X200166335Y-92545000D01*
X199883665Y-92545000D01*
X199606426Y-92600147D01*
X199345273Y-92708320D01*
X199110241Y-92865363D01*
X198910363Y-93065241D01*
X198753320Y-93300273D01*
X198645147Y-93561426D01*
X198590000Y-93838665D01*
X186220000Y-93838665D01*
X186164853Y-93561426D01*
X186056680Y-93300273D01*
X185899637Y-93065241D01*
X185699759Y-92865363D01*
X185464727Y-92708320D01*
X185203574Y-92600147D01*
X184926335Y-92545000D01*
X184643665Y-92545000D01*
X184366426Y-92600147D01*
X184105273Y-92708320D01*
X183870241Y-92865363D01*
X183670363Y-93065241D01*
X183513320Y-93300273D01*
X183405147Y-93561426D01*
X183350000Y-93838665D01*
X178600000Y-93838665D01*
X178544853Y-93561426D01*
X178436680Y-93300273D01*
X178279637Y-93065241D01*
X178079759Y-92865363D01*
X177844727Y-92708320D01*
X177583574Y-92600147D01*
X177306335Y-92545000D01*
X177023665Y-92545000D01*
X176746426Y-92600147D01*
X176485273Y-92708320D01*
X176250241Y-92865363D01*
X176050363Y-93065241D01*
X175893320Y-93300273D01*
X175785147Y-93561426D01*
X175730000Y-93838665D01*
X162725000Y-93838665D01*
X162669853Y-93561426D01*
X162561680Y-93300273D01*
X162404637Y-93065241D01*
X162204759Y-92865363D01*
X161969727Y-92708320D01*
X161708574Y-92600147D01*
X161431335Y-92545000D01*
X161148665Y-92545000D01*
X160871426Y-92600147D01*
X160610273Y-92708320D01*
X160375241Y-92865363D01*
X160175363Y-93065241D01*
X160018320Y-93300273D01*
X159910147Y-93561426D01*
X159855000Y-93838665D01*
X159855000Y-94121335D01*
X159910147Y-94398574D01*
X160018320Y-94659727D01*
X160175363Y-94894759D01*
X160274000Y-94993396D01*
X160274001Y-102820088D01*
X160269085Y-102870000D01*
X160288702Y-103069170D01*
X160346799Y-103260687D01*
X160441141Y-103437190D01*
X160568105Y-103591896D01*
X160606868Y-103623708D01*
X161758159Y-104775000D01*
X156796868Y-109736292D01*
X156758105Y-109768104D01*
X156631141Y-109922810D01*
X156560928Y-110054170D01*
X156536799Y-110099313D01*
X156478702Y-110290830D01*
X156459085Y-110490000D01*
X147980000Y-110490000D01*
X147980000Y-105669748D01*
X148590000Y-105669748D01*
X148590000Y-106420252D01*
X148736416Y-107156336D01*
X149023622Y-107849712D01*
X149440580Y-108473733D01*
X149971267Y-109004420D01*
X150595288Y-109421378D01*
X151288664Y-109708584D01*
X152024748Y-109855000D01*
X152775252Y-109855000D01*
X153511336Y-109708584D01*
X154204712Y-109421378D01*
X154828733Y-109004420D01*
X155359420Y-108473733D01*
X155776378Y-107849712D01*
X156063584Y-107156336D01*
X156210000Y-106420252D01*
X156210000Y-105669748D01*
X156063584Y-104933664D01*
X155939321Y-104633665D01*
X157315000Y-104633665D01*
X157315000Y-104916335D01*
X157370147Y-105193574D01*
X157478320Y-105454727D01*
X157635363Y-105689759D01*
X157835241Y-105889637D01*
X158070273Y-106046680D01*
X158331426Y-106154853D01*
X158608665Y-106210000D01*
X158891335Y-106210000D01*
X159168574Y-106154853D01*
X159429727Y-106046680D01*
X159664759Y-105889637D01*
X159864637Y-105689759D01*
X160021680Y-105454727D01*
X160129853Y-105193574D01*
X160185000Y-104916335D01*
X160185000Y-104633665D01*
X160129853Y-104356426D01*
X160021680Y-104095273D01*
X159864637Y-103860241D01*
X159664759Y-103660363D01*
X159429727Y-103503320D01*
X159168574Y-103395147D01*
X158891335Y-103340000D01*
X158608665Y-103340000D01*
X158331426Y-103395147D01*
X158070273Y-103503320D01*
X157835241Y-103660363D01*
X157635363Y-103860241D01*
X157478320Y-104095273D01*
X157370147Y-104356426D01*
X157315000Y-104633665D01*
X155939321Y-104633665D01*
X155776378Y-104240288D01*
X155359420Y-103616267D01*
X154828733Y-103085580D01*
X154204712Y-102668622D01*
X153511336Y-102381416D01*
X152775252Y-102235000D01*
X152024748Y-102235000D01*
X151288664Y-102381416D01*
X150595288Y-102668622D01*
X149971267Y-103085580D01*
X149440580Y-103616267D01*
X149023622Y-104240288D01*
X148736416Y-104933664D01*
X148590000Y-105669748D01*
X147980000Y-105669748D01*
X147980000Y-97013665D01*
X157315000Y-97013665D01*
X157315000Y-97296335D01*
X157370147Y-97573574D01*
X157478320Y-97834727D01*
X157635363Y-98069759D01*
X157835241Y-98269637D01*
X158070273Y-98426680D01*
X158331426Y-98534853D01*
X158608665Y-98590000D01*
X158891335Y-98590000D01*
X159168574Y-98534853D01*
X159429727Y-98426680D01*
X159664759Y-98269637D01*
X159864637Y-98069759D01*
X160021680Y-97834727D01*
X160129853Y-97573574D01*
X160185000Y-97296335D01*
X160185000Y-97013665D01*
X160129853Y-96736426D01*
X160021680Y-96475273D01*
X159864637Y-96240241D01*
X159664759Y-96040363D01*
X159429727Y-95883320D01*
X159168574Y-95775147D01*
X158891335Y-95720000D01*
X158608665Y-95720000D01*
X158331426Y-95775147D01*
X158070273Y-95883320D01*
X157835241Y-96040363D01*
X157635363Y-96240241D01*
X157478320Y-96475273D01*
X157370147Y-96736426D01*
X157315000Y-97013665D01*
X147980000Y-97013665D01*
X147980000Y-93838665D01*
X152235000Y-93838665D01*
X152235000Y-94121335D01*
X152290147Y-94398574D01*
X152398320Y-94659727D01*
X152555363Y-94894759D01*
X152755241Y-95094637D01*
X152990273Y-95251680D01*
X153251426Y-95359853D01*
X153528665Y-95415000D01*
X153811335Y-95415000D01*
X154088574Y-95359853D01*
X154349727Y-95251680D01*
X154584759Y-95094637D01*
X154784637Y-94894759D01*
X154941680Y-94659727D01*
X155049853Y-94398574D01*
X155105000Y-94121335D01*
X155105000Y-93838665D01*
X155049853Y-93561426D01*
X154941680Y-93300273D01*
X154784637Y-93065241D01*
X154584759Y-92865363D01*
X154349727Y-92708320D01*
X154088574Y-92600147D01*
X153811335Y-92545000D01*
X153528665Y-92545000D01*
X153251426Y-92600147D01*
X152990273Y-92708320D01*
X152755241Y-92865363D01*
X152555363Y-93065241D01*
X152398320Y-93300273D01*
X152290147Y-93561426D01*
X152235000Y-93838665D01*
X147980000Y-93838665D01*
X147980000Y-92100000D01*
X233020000Y-92100000D01*
X233020001Y-120625000D01*
G37*
X233020001Y-120625000D02*
X147980000Y-120625000D01*
X147980000Y-110490000D01*
X156459085Y-110490000D01*
X156464001Y-110539912D01*
X156464000Y-116155098D01*
X156459085Y-116205000D01*
X156464000Y-116254901D01*
X156478702Y-116404170D01*
X156536798Y-116595686D01*
X156631140Y-116772190D01*
X156758104Y-116926896D01*
X156796872Y-116958712D01*
X158631292Y-118793133D01*
X158663104Y-118831896D01*
X158817810Y-118958860D01*
X158994311Y-119053201D01*
X158994313Y-119053202D01*
X159185829Y-119111298D01*
X159385000Y-119130915D01*
X159434902Y-119126000D01*
X169495098Y-119126000D01*
X169545000Y-119130915D01*
X169594902Y-119126000D01*
X169744171Y-119111298D01*
X169935687Y-119053202D01*
X170112190Y-118958860D01*
X170266896Y-118831896D01*
X170298712Y-118793128D01*
X172218769Y-116873072D01*
X173385000Y-116873072D01*
X173509482Y-116860812D01*
X173629180Y-116824502D01*
X173739494Y-116765537D01*
X173836185Y-116686185D01*
X173915537Y-116589494D01*
X173974502Y-116479180D01*
X174010812Y-116359482D01*
X174023072Y-116235000D01*
X174023072Y-113635000D01*
X175861928Y-113635000D01*
X175861928Y-116235000D01*
X175874188Y-116359482D01*
X175910498Y-116479180D01*
X175969463Y-116589494D01*
X176048815Y-116686185D01*
X176145506Y-116765537D01*
X176255820Y-116824502D01*
X176375518Y-116860812D01*
X176500000Y-116873072D01*
X179100000Y-116873072D01*
X179224482Y-116860812D01*
X179344180Y-116824502D01*
X179454494Y-116765537D01*
X179551185Y-116686185D01*
X179630537Y-116589494D01*
X179689502Y-116479180D01*
X179725812Y-116359482D01*
X179738072Y-116235000D01*
X179738072Y-115442665D01*
X179749361Y-115499419D01*
X179895225Y-115851566D01*
X180106987Y-116168491D01*
X180376509Y-116438013D01*
X180693434Y-116649775D01*
X181045581Y-116795639D01*
X181419419Y-116870000D01*
X181800581Y-116870000D01*
X182174419Y-116795639D01*
X182526566Y-116649775D01*
X182843491Y-116438013D01*
X182997280Y-116284224D01*
X184250381Y-116284224D01*
X184382317Y-116579312D01*
X184723045Y-116750159D01*
X185090557Y-116851250D01*
X185470729Y-116878701D01*
X185848951Y-116831457D01*
X186210690Y-116711333D01*
X186457683Y-116579312D01*
X186589619Y-116284224D01*
X185420000Y-115114605D01*
X184250381Y-116284224D01*
X182997280Y-116284224D01*
X183113013Y-116168491D01*
X183324775Y-115851566D01*
X183470639Y-115499419D01*
X183513530Y-115283791D01*
X183523543Y-115363951D01*
X183643667Y-115725690D01*
X183775688Y-115972683D01*
X184070776Y-116104619D01*
X185240395Y-114935000D01*
X185599605Y-114935000D01*
X186769224Y-116104619D01*
X187064312Y-115972683D01*
X187235159Y-115631955D01*
X187336250Y-115264443D01*
X187363701Y-114884271D01*
X187316457Y-114506049D01*
X187196333Y-114144310D01*
X187064312Y-113897317D01*
X186769224Y-113765381D01*
X185599605Y-114935000D01*
X185240395Y-114935000D01*
X184070776Y-113765381D01*
X183775688Y-113897317D01*
X183604841Y-114238045D01*
X183511659Y-114576803D01*
X183470639Y-114370581D01*
X183324775Y-114018434D01*
X183113013Y-113701509D01*
X182997280Y-113585776D01*
X184250381Y-113585776D01*
X185420000Y-114755395D01*
X186540395Y-113635000D01*
X189831928Y-113635000D01*
X189831928Y-116235000D01*
X189844188Y-116359482D01*
X189880498Y-116479180D01*
X189939463Y-116589494D01*
X190018815Y-116686185D01*
X190115506Y-116765537D01*
X190225820Y-116824502D01*
X190345518Y-116860812D01*
X190470000Y-116873072D01*
X193070000Y-116873072D01*
X193194482Y-116860812D01*
X193314180Y-116824502D01*
X193424494Y-116765537D01*
X193521185Y-116686185D01*
X193600537Y-116589494D01*
X193659502Y-116479180D01*
X193695812Y-116359482D01*
X193708072Y-116235000D01*
X193708072Y-115442665D01*
X193719361Y-115499419D01*
X193865225Y-115851566D01*
X194076987Y-116168491D01*
X194346509Y-116438013D01*
X194663434Y-116649775D01*
X195015581Y-116795639D01*
X195389419Y-116870000D01*
X195770581Y-116870000D01*
X196144419Y-116795639D01*
X196496566Y-116649775D01*
X196813491Y-116438013D01*
X196967280Y-116284224D01*
X198220381Y-116284224D01*
X198352317Y-116579312D01*
X198693045Y-116750159D01*
X199060557Y-116851250D01*
X199440729Y-116878701D01*
X199818951Y-116831457D01*
X200180690Y-116711333D01*
X200427683Y-116579312D01*
X200559619Y-116284224D01*
X199390000Y-115114605D01*
X198220381Y-116284224D01*
X196967280Y-116284224D01*
X197083013Y-116168491D01*
X197294775Y-115851566D01*
X197440639Y-115499419D01*
X197483530Y-115283791D01*
X197493543Y-115363951D01*
X197613667Y-115725690D01*
X197745688Y-115972683D01*
X198040776Y-116104619D01*
X199210395Y-114935000D01*
X199569605Y-114935000D01*
X200739224Y-116104619D01*
X201034312Y-115972683D01*
X201205159Y-115631955D01*
X201306250Y-115264443D01*
X201333701Y-114884271D01*
X201286457Y-114506049D01*
X201166333Y-114144310D01*
X201034312Y-113897317D01*
X200739224Y-113765381D01*
X199569605Y-114935000D01*
X199210395Y-114935000D01*
X198040776Y-113765381D01*
X197745688Y-113897317D01*
X197574841Y-114238045D01*
X197481659Y-114576803D01*
X197440639Y-114370581D01*
X197294775Y-114018434D01*
X197083013Y-113701509D01*
X196967280Y-113585776D01*
X198220381Y-113585776D01*
X199390000Y-114755395D01*
X200559619Y-113585776D01*
X200427683Y-113290688D01*
X200086955Y-113119841D01*
X199719443Y-113018750D01*
X199339271Y-112991299D01*
X198961049Y-113038543D01*
X198599310Y-113158667D01*
X198352317Y-113290688D01*
X198220381Y-113585776D01*
X196967280Y-113585776D01*
X196813491Y-113431987D01*
X196496566Y-113220225D01*
X196144419Y-113074361D01*
X195770581Y-113000000D01*
X195389419Y-113000000D01*
X195015581Y-113074361D01*
X194663434Y-113220225D01*
X194346509Y-113431987D01*
X194076987Y-113701509D01*
X193865225Y-114018434D01*
X193719361Y-114370581D01*
X193708072Y-114427335D01*
X193708072Y-113635000D01*
X193695812Y-113510518D01*
X193659502Y-113390820D01*
X193600537Y-113280506D01*
X193521185Y-113183815D01*
X193424494Y-113104463D01*
X193314180Y-113045498D01*
X193194482Y-113009188D01*
X193070000Y-112996928D01*
X190470000Y-112996928D01*
X190345518Y-113009188D01*
X190225820Y-113045498D01*
X190115506Y-113104463D01*
X190018815Y-113183815D01*
X189939463Y-113280506D01*
X189880498Y-113390820D01*
X189844188Y-113510518D01*
X189831928Y-113635000D01*
X186540395Y-113635000D01*
X186589619Y-113585776D01*
X186457683Y-113290688D01*
X186116955Y-113119841D01*
X185749443Y-113018750D01*
X185369271Y-112991299D01*
X184991049Y-113038543D01*
X184629310Y-113158667D01*
X184382317Y-113290688D01*
X184250381Y-113585776D01*
X182997280Y-113585776D01*
X182843491Y-113431987D01*
X182526566Y-113220225D01*
X182174419Y-113074361D01*
X181800581Y-113000000D01*
X181419419Y-113000000D01*
X181045581Y-113074361D01*
X180693434Y-113220225D01*
X180376509Y-113431987D01*
X180106987Y-113701509D01*
X179895225Y-114018434D01*
X179749361Y-114370581D01*
X179738072Y-114427335D01*
X179738072Y-113635000D01*
X179725812Y-113510518D01*
X179689502Y-113390820D01*
X179630537Y-113280506D01*
X179551185Y-113183815D01*
X179454494Y-113104463D01*
X179344180Y-113045498D01*
X179224482Y-113009188D01*
X179100000Y-112996928D01*
X176500000Y-112996928D01*
X176375518Y-113009188D01*
X176255820Y-113045498D01*
X176145506Y-113104463D01*
X176048815Y-113183815D01*
X175969463Y-113280506D01*
X175910498Y-113390820D01*
X175874188Y-113510518D01*
X175861928Y-113635000D01*
X174023072Y-113635000D01*
X174010812Y-113510518D01*
X173974502Y-113390820D01*
X173915537Y-113280506D01*
X173836185Y-113183815D01*
X173739494Y-113104463D01*
X173629180Y-113045498D01*
X173509482Y-113009188D01*
X173385000Y-112996928D01*
X170785000Y-112996928D01*
X170660518Y-113009188D01*
X170540820Y-113045498D01*
X170430506Y-113104463D01*
X170333815Y-113183815D01*
X170254463Y-113280506D01*
X170195498Y-113390820D01*
X170159188Y-113510518D01*
X170146928Y-113635000D01*
X170146928Y-114427335D01*
X170135639Y-114370581D01*
X169989775Y-114018434D01*
X169778013Y-113701509D01*
X169508491Y-113431987D01*
X169291000Y-113286665D01*
X169291000Y-111545840D01*
X169965841Y-110871000D01*
X195530098Y-110871000D01*
X195580000Y-110875915D01*
X195629902Y-110871000D01*
X195779171Y-110856298D01*
X195970687Y-110798202D01*
X196147190Y-110703860D01*
X196301896Y-110576896D01*
X196333712Y-110538128D01*
X198803135Y-108068706D01*
X198841896Y-108036896D01*
X198968860Y-107882190D01*
X199063202Y-107705687D01*
X199121298Y-107514171D01*
X199136000Y-107364902D01*
X199136000Y-107364895D01*
X199140914Y-107315001D01*
X199136000Y-107265107D01*
X199136000Y-104633665D01*
X199225000Y-104633665D01*
X199225000Y-104916335D01*
X199280147Y-105193574D01*
X199388320Y-105454727D01*
X199545363Y-105689759D01*
X199745241Y-105889637D01*
X199980273Y-106046680D01*
X200241426Y-106154853D01*
X200518665Y-106210000D01*
X200801335Y-106210000D01*
X201078574Y-106154853D01*
X201339727Y-106046680D01*
X201574759Y-105889637D01*
X201774637Y-105689759D01*
X201931680Y-105454727D01*
X202039853Y-105193574D01*
X202095000Y-104916335D01*
X202095000Y-104633665D01*
X203670000Y-104633665D01*
X203670000Y-104916335D01*
X203725147Y-105193574D01*
X203833320Y-105454727D01*
X203990363Y-105689759D01*
X204089001Y-105788397D01*
X204089000Y-107900098D01*
X204084085Y-107950000D01*
X204089000Y-107999901D01*
X204103702Y-108149170D01*
X204161798Y-108340686D01*
X204256140Y-108517190D01*
X204383104Y-108671896D01*
X204421872Y-108703712D01*
X208534001Y-112815842D01*
X208534001Y-113286664D01*
X208316509Y-113431987D01*
X208046987Y-113701509D01*
X207835225Y-114018434D01*
X207689361Y-114370581D01*
X207678072Y-114427335D01*
X207678072Y-113635000D01*
X207665812Y-113510518D01*
X207629502Y-113390820D01*
X207570537Y-113280506D01*
X207491185Y-113183815D01*
X207394494Y-113104463D01*
X207284180Y-113045498D01*
X207164482Y-113009188D01*
X207040000Y-112996928D01*
X204440000Y-112996928D01*
X204315518Y-113009188D01*
X204195820Y-113045498D01*
X204085506Y-113104463D01*
X203988815Y-113183815D01*
X203909463Y-113280506D01*
X203850498Y-113390820D01*
X203814188Y-113510518D01*
X203801928Y-113635000D01*
X203801928Y-116235000D01*
X203814188Y-116359482D01*
X203850498Y-116479180D01*
X203909463Y-116589494D01*
X203988815Y-116686185D01*
X204085506Y-116765537D01*
X204195820Y-116824502D01*
X204315518Y-116860812D01*
X204440000Y-116873072D01*
X207040000Y-116873072D01*
X207164482Y-116860812D01*
X207284180Y-116824502D01*
X207394494Y-116765537D01*
X207491185Y-116686185D01*
X207570537Y-116589494D01*
X207629502Y-116479180D01*
X207665812Y-116359482D01*
X207678072Y-116235000D01*
X207678072Y-115442665D01*
X207689361Y-115499419D01*
X207835225Y-115851566D01*
X208046987Y-116168491D01*
X208316509Y-116438013D01*
X208633434Y-116649775D01*
X208985581Y-116795639D01*
X209359419Y-116870000D01*
X209740581Y-116870000D01*
X210114419Y-116795639D01*
X210466566Y-116649775D01*
X210783491Y-116438013D01*
X211053013Y-116168491D01*
X211264775Y-115851566D01*
X211410639Y-115499419D01*
X211455000Y-115276401D01*
X211499361Y-115499419D01*
X211645225Y-115851566D01*
X211856987Y-116168491D01*
X212126509Y-116438013D01*
X212443434Y-116649775D01*
X212795581Y-116795639D01*
X213169419Y-116870000D01*
X213550581Y-116870000D01*
X213924419Y-116795639D01*
X214276566Y-116649775D01*
X214593491Y-116438013D01*
X214863013Y-116168491D01*
X215074775Y-115851566D01*
X215220639Y-115499419D01*
X215295000Y-115125581D01*
X215295000Y-114744419D01*
X215220639Y-114370581D01*
X215074775Y-114018434D01*
X214863013Y-113701509D01*
X214593491Y-113431987D01*
X214376000Y-113286665D01*
X214376000Y-113196840D01*
X220647133Y-106925708D01*
X220685896Y-106893896D01*
X220812860Y-106739190D01*
X220907202Y-106562687D01*
X220950409Y-106420252D01*
X220965298Y-106371172D01*
X220972890Y-106294086D01*
X220980000Y-106221902D01*
X220980000Y-106221895D01*
X220984914Y-106172001D01*
X220980000Y-106122107D01*
X220980000Y-105457241D01*
X221135363Y-105689759D01*
X221335241Y-105889637D01*
X221570273Y-106046680D01*
X221831426Y-106154853D01*
X222108665Y-106210000D01*
X222391335Y-106210000D01*
X222668574Y-106154853D01*
X222929727Y-106046680D01*
X223164759Y-105889637D01*
X223364637Y-105689759D01*
X223378007Y-105669748D01*
X224790000Y-105669748D01*
X224790000Y-106420252D01*
X224936416Y-107156336D01*
X225223622Y-107849712D01*
X225640580Y-108473733D01*
X226171267Y-109004420D01*
X226795288Y-109421378D01*
X227488664Y-109708584D01*
X228224748Y-109855000D01*
X228975252Y-109855000D01*
X229711336Y-109708584D01*
X230404712Y-109421378D01*
X231028733Y-109004420D01*
X231559420Y-108473733D01*
X231976378Y-107849712D01*
X232263584Y-107156336D01*
X232410000Y-106420252D01*
X232410000Y-105669748D01*
X232263584Y-104933664D01*
X231976378Y-104240288D01*
X231559420Y-103616267D01*
X231028733Y-103085580D01*
X230404712Y-102668622D01*
X229711336Y-102381416D01*
X228975252Y-102235000D01*
X228224748Y-102235000D01*
X227488664Y-102381416D01*
X226795288Y-102668622D01*
X226171267Y-103085580D01*
X225640580Y-103616267D01*
X225223622Y-104240288D01*
X224936416Y-104933664D01*
X224790000Y-105669748D01*
X223378007Y-105669748D01*
X223521680Y-105454727D01*
X223629853Y-105193574D01*
X223685000Y-104916335D01*
X223685000Y-104633665D01*
X223629853Y-104356426D01*
X223521680Y-104095273D01*
X223364637Y-103860241D01*
X223164759Y-103660363D01*
X222929727Y-103503320D01*
X222668574Y-103395147D01*
X222391335Y-103340000D01*
X222108665Y-103340000D01*
X221831426Y-103395147D01*
X221570273Y-103503320D01*
X221335241Y-103660363D01*
X221135363Y-103860241D01*
X220980000Y-104092759D01*
X220980000Y-101258840D01*
X222933133Y-99305708D01*
X222971896Y-99273896D01*
X223098860Y-99119190D01*
X223193202Y-98942687D01*
X223251298Y-98751171D01*
X223266000Y-98601902D01*
X223266000Y-98601895D01*
X223270914Y-98552001D01*
X223266000Y-98502107D01*
X223266000Y-98168396D01*
X223364637Y-98069759D01*
X223521680Y-97834727D01*
X223629853Y-97573574D01*
X223685000Y-97296335D01*
X223685000Y-97013665D01*
X223629853Y-96736426D01*
X223521680Y-96475273D01*
X223364637Y-96240241D01*
X223164759Y-96040363D01*
X222929727Y-95883320D01*
X222668574Y-95775147D01*
X222391335Y-95720000D01*
X222108665Y-95720000D01*
X221831426Y-95775147D01*
X221570273Y-95883320D01*
X221335241Y-96040363D01*
X221135363Y-96240241D01*
X220978320Y-96475273D01*
X220870147Y-96736426D01*
X220815000Y-97013665D01*
X220815000Y-97296335D01*
X220870147Y-97573574D01*
X220978320Y-97834727D01*
X221135363Y-98069759D01*
X221215382Y-98149778D01*
X219280872Y-100084288D01*
X219242104Y-100116104D01*
X219115140Y-100270810D01*
X219020798Y-100447314D01*
X218962893Y-100638201D01*
X218962702Y-100638830D01*
X218943085Y-100838000D01*
X218948000Y-100887902D01*
X218948001Y-103902690D01*
X218919637Y-103860241D01*
X218719759Y-103660363D01*
X218484727Y-103503320D01*
X218223574Y-103395147D01*
X217946335Y-103340000D01*
X217663665Y-103340000D01*
X217386426Y-103395147D01*
X217125273Y-103503320D01*
X216890241Y-103660363D01*
X216690363Y-103860241D01*
X216533320Y-104095273D01*
X216425147Y-104356426D01*
X216370000Y-104633665D01*
X216370000Y-104916335D01*
X216425147Y-105193574D01*
X216533320Y-105454727D01*
X216690363Y-105689759D01*
X216890241Y-105889637D01*
X217125273Y-106046680D01*
X217386426Y-106154853D01*
X217663665Y-106210000D01*
X217946335Y-106210000D01*
X218223574Y-106154853D01*
X218484727Y-106046680D01*
X218719759Y-105889637D01*
X218919637Y-105689759D01*
X218948001Y-105647309D01*
X218948001Y-105751158D01*
X212676872Y-112022288D01*
X212638104Y-112054104D01*
X212511140Y-112208810D01*
X212416798Y-112385314D01*
X212358702Y-112576829D01*
X212358702Y-112576830D01*
X212339085Y-112776000D01*
X212344000Y-112825902D01*
X212344000Y-113286664D01*
X212126509Y-113431987D01*
X211856987Y-113701509D01*
X211645225Y-114018434D01*
X211499361Y-114370581D01*
X211455000Y-114593599D01*
X211410639Y-114370581D01*
X211264775Y-114018434D01*
X211053013Y-113701509D01*
X210783491Y-113431987D01*
X210566000Y-113286665D01*
X210566000Y-112444893D01*
X210570914Y-112394999D01*
X210566000Y-112345105D01*
X210566000Y-112345098D01*
X210551298Y-112195829D01*
X210493202Y-112004313D01*
X210398860Y-111827810D01*
X210271896Y-111673104D01*
X210233133Y-111641292D01*
X206121000Y-107529160D01*
X206121000Y-105788396D01*
X206219637Y-105689759D01*
X206376680Y-105454727D01*
X206484853Y-105193574D01*
X206540000Y-104916335D01*
X206540000Y-104633665D01*
X206484853Y-104356426D01*
X206376680Y-104095273D01*
X206219637Y-103860241D01*
X206019759Y-103660363D01*
X205784727Y-103503320D01*
X205523574Y-103395147D01*
X205246335Y-103340000D01*
X204963665Y-103340000D01*
X204686426Y-103395147D01*
X204425273Y-103503320D01*
X204190241Y-103660363D01*
X203990363Y-103860241D01*
X203833320Y-104095273D01*
X203725147Y-104356426D01*
X203670000Y-104633665D01*
X202095000Y-104633665D01*
X202039853Y-104356426D01*
X201931680Y-104095273D01*
X201774637Y-103860241D01*
X201574759Y-103660363D01*
X201339727Y-103503320D01*
X201078574Y-103395147D01*
X200801335Y-103340000D01*
X200518665Y-103340000D01*
X200241426Y-103395147D01*
X199980273Y-103503320D01*
X199745241Y-103660363D01*
X199545363Y-103860241D01*
X199388320Y-104095273D01*
X199280147Y-104356426D01*
X199225000Y-104633665D01*
X199136000Y-104633665D01*
X199136000Y-100115840D01*
X200661841Y-98590000D01*
X200801335Y-98590000D01*
X201078574Y-98534853D01*
X201339727Y-98426680D01*
X201574759Y-98269637D01*
X201774637Y-98069759D01*
X201931680Y-97834727D01*
X202039853Y-97573574D01*
X202095000Y-97296335D01*
X202095000Y-97013665D01*
X203670000Y-97013665D01*
X203670000Y-97296335D01*
X203725147Y-97573574D01*
X203833320Y-97834727D01*
X203990363Y-98069759D01*
X204190241Y-98269637D01*
X204425273Y-98426680D01*
X204686426Y-98534853D01*
X204963665Y-98590000D01*
X205246335Y-98590000D01*
X205523574Y-98534853D01*
X205784727Y-98426680D01*
X206019759Y-98269637D01*
X206219637Y-98069759D01*
X206376680Y-97834727D01*
X206484853Y-97573574D01*
X206540000Y-97296335D01*
X206540000Y-97013665D01*
X206484853Y-96736426D01*
X206376680Y-96475273D01*
X206219637Y-96240241D01*
X206019759Y-96040363D01*
X205784727Y-95883320D01*
X205523574Y-95775147D01*
X205246335Y-95720000D01*
X204963665Y-95720000D01*
X204686426Y-95775147D01*
X204425273Y-95883320D01*
X204190241Y-96040363D01*
X203990363Y-96240241D01*
X203833320Y-96475273D01*
X203725147Y-96736426D01*
X203670000Y-97013665D01*
X202095000Y-97013665D01*
X202039853Y-96736426D01*
X201931680Y-96475273D01*
X201774637Y-96240241D01*
X201574759Y-96040363D01*
X201339727Y-95883320D01*
X201078574Y-95775147D01*
X200801335Y-95720000D01*
X200518665Y-95720000D01*
X200241426Y-95775147D01*
X199980273Y-95883320D01*
X199745241Y-96040363D01*
X199545363Y-96240241D01*
X199388320Y-96475273D01*
X199280147Y-96736426D01*
X199225000Y-97013665D01*
X199225000Y-97153159D01*
X197436872Y-98941288D01*
X197398104Y-98973104D01*
X197271140Y-99127810D01*
X197176798Y-99304314D01*
X197133844Y-99445915D01*
X197118702Y-99495830D01*
X197099085Y-99695000D01*
X197104000Y-99744902D01*
X197104001Y-106894158D01*
X195159160Y-108839000D01*
X169594893Y-108839000D01*
X169544999Y-108834086D01*
X169495105Y-108839000D01*
X169495098Y-108839000D01*
X169345829Y-108853702D01*
X169154313Y-108911798D01*
X168977810Y-109006140D01*
X168823104Y-109133104D01*
X168791293Y-109171866D01*
X167591872Y-110371288D01*
X167553104Y-110403104D01*
X167426140Y-110557810D01*
X167331798Y-110734314D01*
X167290335Y-110871000D01*
X167273702Y-110925830D01*
X167254085Y-111125000D01*
X167259000Y-111174902D01*
X167259001Y-113286664D01*
X167041509Y-113431987D01*
X166771987Y-113701509D01*
X166560225Y-114018434D01*
X166414361Y-114370581D01*
X166370000Y-114593599D01*
X166325639Y-114370581D01*
X166179775Y-114018434D01*
X165968013Y-113701509D01*
X165698491Y-113431987D01*
X165481000Y-113286665D01*
X165481000Y-109005840D01*
X166155841Y-108331000D01*
X173940098Y-108331000D01*
X173990000Y-108335915D01*
X174039902Y-108331000D01*
X174189171Y-108316298D01*
X174380687Y-108258202D01*
X174557190Y-108163860D01*
X174711896Y-108036896D01*
X174743712Y-107998128D01*
X175943133Y-106798708D01*
X175981896Y-106766896D01*
X176108860Y-106612190D01*
X176203202Y-106435687D01*
X176261298Y-106244171D01*
X176276000Y-106094902D01*
X176276000Y-106094895D01*
X176280914Y-106045001D01*
X176276000Y-105995107D01*
X176276000Y-104633665D01*
X176365000Y-104633665D01*
X176365000Y-104916335D01*
X176420147Y-105193574D01*
X176528320Y-105454727D01*
X176685363Y-105689759D01*
X176885241Y-105889637D01*
X177120273Y-106046680D01*
X177381426Y-106154853D01*
X177658665Y-106210000D01*
X177941335Y-106210000D01*
X178218574Y-106154853D01*
X178479727Y-106046680D01*
X178714759Y-105889637D01*
X178914637Y-105689759D01*
X179071680Y-105454727D01*
X179179853Y-105193574D01*
X179235000Y-104916335D01*
X179235000Y-104633665D01*
X180810000Y-104633665D01*
X180810000Y-104916335D01*
X180865147Y-105193574D01*
X180973320Y-105454727D01*
X181130363Y-105689759D01*
X181330241Y-105889637D01*
X181565273Y-106046680D01*
X181826426Y-106154853D01*
X182103665Y-106210000D01*
X182386335Y-106210000D01*
X182663574Y-106154853D01*
X182924727Y-106046680D01*
X183159759Y-105889637D01*
X183359637Y-105689759D01*
X183516680Y-105454727D01*
X183624853Y-105193574D01*
X183680000Y-104916335D01*
X183680000Y-104633665D01*
X183624853Y-104356426D01*
X183516680Y-104095273D01*
X183359637Y-103860241D01*
X183159759Y-103660363D01*
X182924727Y-103503320D01*
X182663574Y-103395147D01*
X182386335Y-103340000D01*
X182103665Y-103340000D01*
X181826426Y-103395147D01*
X181565273Y-103503320D01*
X181330241Y-103660363D01*
X181130363Y-103860241D01*
X180973320Y-104095273D01*
X180865147Y-104356426D01*
X180810000Y-104633665D01*
X179235000Y-104633665D01*
X179179853Y-104356426D01*
X179071680Y-104095273D01*
X178914637Y-103860241D01*
X178714759Y-103660363D01*
X178479727Y-103503320D01*
X178218574Y-103395147D01*
X177941335Y-103340000D01*
X177658665Y-103340000D01*
X177381426Y-103395147D01*
X177120273Y-103503320D01*
X176885241Y-103660363D01*
X176685363Y-103860241D01*
X176528320Y-104095273D01*
X176420147Y-104356426D01*
X176365000Y-104633665D01*
X176276000Y-104633665D01*
X176276000Y-98845840D01*
X176868722Y-98253118D01*
X176885241Y-98269637D01*
X177120273Y-98426680D01*
X177381426Y-98534853D01*
X177658665Y-98590000D01*
X177941335Y-98590000D01*
X178218574Y-98534853D01*
X178479727Y-98426680D01*
X178714759Y-98269637D01*
X178914637Y-98069759D01*
X179071680Y-97834727D01*
X179179853Y-97573574D01*
X179235000Y-97296335D01*
X179235000Y-97013665D01*
X180810000Y-97013665D01*
X180810000Y-97296335D01*
X180865147Y-97573574D01*
X180973320Y-97834727D01*
X181130363Y-98069759D01*
X181330241Y-98269637D01*
X181565273Y-98426680D01*
X181826426Y-98534853D01*
X182103665Y-98590000D01*
X182386335Y-98590000D01*
X182663574Y-98534853D01*
X182924727Y-98426680D01*
X183159759Y-98269637D01*
X183359637Y-98069759D01*
X183516680Y-97834727D01*
X183624853Y-97573574D01*
X183680000Y-97296335D01*
X183680000Y-97013665D01*
X183624853Y-96736426D01*
X183516680Y-96475273D01*
X183359637Y-96240241D01*
X183159759Y-96040363D01*
X182924727Y-95883320D01*
X182663574Y-95775147D01*
X182386335Y-95720000D01*
X182103665Y-95720000D01*
X181826426Y-95775147D01*
X181565273Y-95883320D01*
X181330241Y-96040363D01*
X181130363Y-96240241D01*
X180973320Y-96475273D01*
X180865147Y-96736426D01*
X180810000Y-97013665D01*
X179235000Y-97013665D01*
X179179853Y-96736426D01*
X179071680Y-96475273D01*
X178914637Y-96240241D01*
X178714759Y-96040363D01*
X178479727Y-95883320D01*
X178218574Y-95775147D01*
X177941335Y-95720000D01*
X177658665Y-95720000D01*
X177381426Y-95775147D01*
X177120273Y-95883320D01*
X176885241Y-96040363D01*
X176786604Y-96139000D01*
X176579893Y-96139000D01*
X176529999Y-96134086D01*
X176480105Y-96139000D01*
X176480098Y-96139000D01*
X176330829Y-96153702D01*
X176139313Y-96211798D01*
X175962810Y-96306140D01*
X175808104Y-96433104D01*
X175776292Y-96471867D01*
X174576872Y-97671288D01*
X174538104Y-97703104D01*
X174411140Y-97857810D01*
X174316798Y-98034314D01*
X174278273Y-98161314D01*
X174258702Y-98225830D01*
X174239085Y-98425000D01*
X174244000Y-98474902D01*
X174244001Y-105624158D01*
X173569160Y-106299000D01*
X165784893Y-106299000D01*
X165734999Y-106294086D01*
X165685105Y-106299000D01*
X165685098Y-106299000D01*
X165535829Y-106313702D01*
X165344313Y-106371798D01*
X165167810Y-106466140D01*
X165013104Y-106593104D01*
X164981293Y-106631866D01*
X163781872Y-107831288D01*
X163743104Y-107863104D01*
X163616140Y-108017810D01*
X163521798Y-108194314D01*
X163477396Y-108340687D01*
X163463702Y-108385830D01*
X163444085Y-108585000D01*
X163449000Y-108634902D01*
X163449001Y-113286664D01*
X163231509Y-113431987D01*
X162961987Y-113701509D01*
X162750225Y-114018434D01*
X162604361Y-114370581D01*
X162561470Y-114586209D01*
X162551457Y-114506049D01*
X162431333Y-114144310D01*
X162299312Y-113897317D01*
X162004224Y-113765381D01*
X160834605Y-114935000D01*
X162004224Y-116104619D01*
X162299312Y-115972683D01*
X162470159Y-115631955D01*
X162563341Y-115293197D01*
X162604361Y-115499419D01*
X162750225Y-115851566D01*
X162961987Y-116168491D01*
X163231509Y-116438013D01*
X163548434Y-116649775D01*
X163900581Y-116795639D01*
X164274419Y-116870000D01*
X164655581Y-116870000D01*
X165029419Y-116795639D01*
X165381566Y-116649775D01*
X165698491Y-116438013D01*
X165968013Y-116168491D01*
X166179775Y-115851566D01*
X166325639Y-115499419D01*
X166370000Y-115276401D01*
X166414361Y-115499419D01*
X166560225Y-115851566D01*
X166771987Y-116168491D01*
X167041509Y-116438013D01*
X167358434Y-116649775D01*
X167710581Y-116795639D01*
X168084419Y-116870000D01*
X168465581Y-116870000D01*
X168839419Y-116795639D01*
X169191566Y-116649775D01*
X169508491Y-116438013D01*
X169778013Y-116168491D01*
X169989775Y-115851566D01*
X170135639Y-115499419D01*
X170146928Y-115442665D01*
X170146928Y-116071231D01*
X169124160Y-117094000D01*
X159805841Y-117094000D01*
X158996065Y-116284224D01*
X159485381Y-116284224D01*
X159617317Y-116579312D01*
X159958045Y-116750159D01*
X160325557Y-116851250D01*
X160705729Y-116878701D01*
X161083951Y-116831457D01*
X161445690Y-116711333D01*
X161692683Y-116579312D01*
X161824619Y-116284224D01*
X160655000Y-115114605D01*
X159485381Y-116284224D01*
X158996065Y-116284224D01*
X158496000Y-115784160D01*
X158496000Y-114985729D01*
X158711299Y-114985729D01*
X158758543Y-115363951D01*
X158878667Y-115725690D01*
X159010688Y-115972683D01*
X159305776Y-116104619D01*
X160475395Y-114935000D01*
X159305776Y-113765381D01*
X159010688Y-113897317D01*
X158839841Y-114238045D01*
X158738750Y-114605557D01*
X158711299Y-114985729D01*
X158496000Y-114985729D01*
X158496000Y-113585776D01*
X159485381Y-113585776D01*
X160655000Y-114755395D01*
X161824619Y-113585776D01*
X161692683Y-113290688D01*
X161351955Y-113119841D01*
X160984443Y-113018750D01*
X160604271Y-112991299D01*
X160226049Y-113038543D01*
X159864310Y-113158667D01*
X159617317Y-113290688D01*
X159485381Y-113585776D01*
X158496000Y-113585776D01*
X158496000Y-110910840D01*
X163243769Y-106163072D01*
X163945000Y-106163072D01*
X164069482Y-106150812D01*
X164189180Y-106114502D01*
X164299494Y-106055537D01*
X164396185Y-105976185D01*
X164475537Y-105879494D01*
X164534502Y-105769180D01*
X164570812Y-105649482D01*
X164583072Y-105525000D01*
X164583072Y-104638589D01*
X166890000Y-104638589D01*
X166890000Y-104911411D01*
X166943225Y-105178989D01*
X167047629Y-105431043D01*
X167199201Y-105657886D01*
X167392114Y-105850799D01*
X167618957Y-106002371D01*
X167871011Y-106106775D01*
X168138589Y-106160000D01*
X168411411Y-106160000D01*
X168678989Y-106106775D01*
X168931043Y-106002371D01*
X169157886Y-105850799D01*
X169350799Y-105657886D01*
X169502371Y-105431043D01*
X169606775Y-105178989D01*
X169660000Y-104911411D01*
X169660000Y-104638589D01*
X169659021Y-104633665D01*
X171285000Y-104633665D01*
X171285000Y-104916335D01*
X171340147Y-105193574D01*
X171448320Y-105454727D01*
X171605363Y-105689759D01*
X171805241Y-105889637D01*
X172040273Y-106046680D01*
X172301426Y-106154853D01*
X172578665Y-106210000D01*
X172861335Y-106210000D01*
X173138574Y-106154853D01*
X173399727Y-106046680D01*
X173634759Y-105889637D01*
X173834637Y-105689759D01*
X173991680Y-105454727D01*
X174099853Y-105193574D01*
X174155000Y-104916335D01*
X174155000Y-104633665D01*
X174099853Y-104356426D01*
X173991680Y-104095273D01*
X173834637Y-103860241D01*
X173634759Y-103660363D01*
X173399727Y-103503320D01*
X173138574Y-103395147D01*
X172861335Y-103340000D01*
X172578665Y-103340000D01*
X172301426Y-103395147D01*
X172040273Y-103503320D01*
X171805241Y-103660363D01*
X171605363Y-103860241D01*
X171448320Y-104095273D01*
X171340147Y-104356426D01*
X171285000Y-104633665D01*
X169659021Y-104633665D01*
X169606775Y-104371011D01*
X169502371Y-104118957D01*
X169350799Y-103892114D01*
X169157886Y-103699201D01*
X168931043Y-103547629D01*
X168678989Y-103443225D01*
X168411411Y-103390000D01*
X168138589Y-103390000D01*
X167871011Y-103443225D01*
X167618957Y-103547629D01*
X167392114Y-103699201D01*
X167199201Y-103892114D01*
X167047629Y-104118957D01*
X166943225Y-104371011D01*
X166890000Y-104638589D01*
X164583072Y-104638589D01*
X164583072Y-104025000D01*
X164570812Y-103900518D01*
X164534502Y-103780820D01*
X164475537Y-103670506D01*
X164396185Y-103573815D01*
X164299494Y-103494463D01*
X164189180Y-103435498D01*
X164069482Y-103399188D01*
X163945000Y-103386928D01*
X163243769Y-103386928D01*
X162306000Y-102449160D01*
X162306000Y-102098589D01*
X164350000Y-102098589D01*
X164350000Y-102371411D01*
X164403225Y-102638989D01*
X164507629Y-102891043D01*
X164659201Y-103117886D01*
X164852114Y-103310799D01*
X165078957Y-103462371D01*
X165331011Y-103566775D01*
X165598589Y-103620000D01*
X165871411Y-103620000D01*
X166138989Y-103566775D01*
X166391043Y-103462371D01*
X166617886Y-103310799D01*
X166810799Y-103117886D01*
X166962371Y-102891043D01*
X167066775Y-102638989D01*
X167120000Y-102371411D01*
X167120000Y-102098589D01*
X167066775Y-101831011D01*
X166962371Y-101578957D01*
X166810799Y-101352114D01*
X166617886Y-101159201D01*
X166391043Y-101007629D01*
X166138989Y-100903225D01*
X165871411Y-100850000D01*
X165598589Y-100850000D01*
X165331011Y-100903225D01*
X165078957Y-101007629D01*
X164852114Y-101159201D01*
X164659201Y-101352114D01*
X164507629Y-101578957D01*
X164403225Y-101831011D01*
X164350000Y-102098589D01*
X162306000Y-102098589D01*
X162306000Y-97420000D01*
X162926928Y-97420000D01*
X162939188Y-97544482D01*
X162975498Y-97664180D01*
X163034463Y-97774494D01*
X163113815Y-97871185D01*
X163210506Y-97950537D01*
X163320820Y-98009502D01*
X163440518Y-98045812D01*
X163565000Y-98058072D01*
X164179250Y-98055000D01*
X164338000Y-97896250D01*
X164338000Y-96647000D01*
X163088750Y-96647000D01*
X162930000Y-96805750D01*
X162926928Y-97420000D01*
X162306000Y-97420000D01*
X162306000Y-95620000D01*
X162926928Y-95620000D01*
X162930000Y-96234250D01*
X163088750Y-96393000D01*
X164338000Y-96393000D01*
X164338000Y-95143750D01*
X164592000Y-95143750D01*
X164592000Y-96393000D01*
X164612000Y-96393000D01*
X164612000Y-96647000D01*
X164592000Y-96647000D01*
X164592000Y-97896250D01*
X164750750Y-98055000D01*
X165365000Y-98058072D01*
X165489482Y-98045812D01*
X165609180Y-98009502D01*
X165719494Y-97950537D01*
X165816185Y-97871185D01*
X165895537Y-97774494D01*
X165954502Y-97664180D01*
X165960056Y-97645873D01*
X166026495Y-97712312D01*
X166277905Y-97880299D01*
X166557257Y-97996011D01*
X166853816Y-98055000D01*
X167156184Y-98055000D01*
X167452743Y-97996011D01*
X167732095Y-97880299D01*
X167983505Y-97712312D01*
X168197312Y-97498505D01*
X168365299Y-97247095D01*
X168461989Y-97013665D01*
X171285000Y-97013665D01*
X171285000Y-97296335D01*
X171340147Y-97573574D01*
X171448320Y-97834727D01*
X171605363Y-98069759D01*
X171805241Y-98269637D01*
X172040273Y-98426680D01*
X172301426Y-98534853D01*
X172578665Y-98590000D01*
X172861335Y-98590000D01*
X173138574Y-98534853D01*
X173399727Y-98426680D01*
X173634759Y-98269637D01*
X173834637Y-98069759D01*
X173991680Y-97834727D01*
X174099853Y-97573574D01*
X174155000Y-97296335D01*
X174155000Y-97013665D01*
X174099853Y-96736426D01*
X173991680Y-96475273D01*
X173834637Y-96240241D01*
X173634759Y-96040363D01*
X173399727Y-95883320D01*
X173138574Y-95775147D01*
X172861335Y-95720000D01*
X172578665Y-95720000D01*
X172301426Y-95775147D01*
X172040273Y-95883320D01*
X171805241Y-96040363D01*
X171605363Y-96240241D01*
X171448320Y-96475273D01*
X171340147Y-96736426D01*
X171285000Y-97013665D01*
X168461989Y-97013665D01*
X168481011Y-96967743D01*
X168540000Y-96671184D01*
X168540000Y-96368816D01*
X168481011Y-96072257D01*
X168365299Y-95792905D01*
X168197312Y-95541495D01*
X167983505Y-95327688D01*
X167732095Y-95159701D01*
X167452743Y-95043989D01*
X167156184Y-94985000D01*
X166853816Y-94985000D01*
X166557257Y-95043989D01*
X166277905Y-95159701D01*
X166026495Y-95327688D01*
X165960056Y-95394127D01*
X165954502Y-95375820D01*
X165895537Y-95265506D01*
X165816185Y-95168815D01*
X165719494Y-95089463D01*
X165609180Y-95030498D01*
X165489482Y-94994188D01*
X165365000Y-94981928D01*
X164750750Y-94985000D01*
X164592000Y-95143750D01*
X164338000Y-95143750D01*
X164179250Y-94985000D01*
X163565000Y-94981928D01*
X163440518Y-94994188D01*
X163320820Y-95030498D01*
X163210506Y-95089463D01*
X163113815Y-95168815D01*
X163034463Y-95265506D01*
X162975498Y-95375820D01*
X162939188Y-95495518D01*
X162926928Y-95620000D01*
X162306000Y-95620000D01*
X162306000Y-94993396D01*
X162404637Y-94894759D01*
X162561680Y-94659727D01*
X162669853Y-94398574D01*
X162725000Y-94121335D01*
X162725000Y-93838665D01*
X175730000Y-93838665D01*
X175730000Y-94121335D01*
X175785147Y-94398574D01*
X175893320Y-94659727D01*
X176050363Y-94894759D01*
X176250241Y-95094637D01*
X176485273Y-95251680D01*
X176746426Y-95359853D01*
X177023665Y-95415000D01*
X177306335Y-95415000D01*
X177583574Y-95359853D01*
X177844727Y-95251680D01*
X178079759Y-95094637D01*
X178279637Y-94894759D01*
X178436680Y-94659727D01*
X178544853Y-94398574D01*
X178600000Y-94121335D01*
X178600000Y-93838665D01*
X183350000Y-93838665D01*
X183350000Y-94121335D01*
X183405147Y-94398574D01*
X183513320Y-94659727D01*
X183670363Y-94894759D01*
X183769000Y-94993396D01*
X183769001Y-102820088D01*
X183764085Y-102870000D01*
X183783702Y-103069170D01*
X183841799Y-103260687D01*
X183936141Y-103437190D01*
X184063105Y-103591896D01*
X184101868Y-103623708D01*
X185301928Y-104823769D01*
X185301928Y-105525000D01*
X185314188Y-105649482D01*
X185350498Y-105769180D01*
X185409463Y-105879494D01*
X185488815Y-105976185D01*
X185585506Y-106055537D01*
X185695820Y-106114502D01*
X185815518Y-106150812D01*
X185940000Y-106163072D01*
X187440000Y-106163072D01*
X187564482Y-106150812D01*
X187684180Y-106114502D01*
X187794494Y-106055537D01*
X187891185Y-105976185D01*
X187970537Y-105879494D01*
X188029502Y-105769180D01*
X188065812Y-105649482D01*
X188078072Y-105525000D01*
X188078072Y-104638589D01*
X190385000Y-104638589D01*
X190385000Y-104911411D01*
X190438225Y-105178989D01*
X190542629Y-105431043D01*
X190694201Y-105657886D01*
X190887114Y-105850799D01*
X191113957Y-106002371D01*
X191366011Y-106106775D01*
X191633589Y-106160000D01*
X191906411Y-106160000D01*
X192173989Y-106106775D01*
X192426043Y-106002371D01*
X192652886Y-105850799D01*
X192845799Y-105657886D01*
X192997371Y-105431043D01*
X193101775Y-105178989D01*
X193155000Y-104911411D01*
X193155000Y-104638589D01*
X193154021Y-104633665D01*
X194145000Y-104633665D01*
X194145000Y-104916335D01*
X194200147Y-105193574D01*
X194308320Y-105454727D01*
X194465363Y-105689759D01*
X194665241Y-105889637D01*
X194900273Y-106046680D01*
X195161426Y-106154853D01*
X195438665Y-106210000D01*
X195721335Y-106210000D01*
X195998574Y-106154853D01*
X196259727Y-106046680D01*
X196494759Y-105889637D01*
X196694637Y-105689759D01*
X196851680Y-105454727D01*
X196959853Y-105193574D01*
X197015000Y-104916335D01*
X197015000Y-104633665D01*
X196959853Y-104356426D01*
X196851680Y-104095273D01*
X196694637Y-103860241D01*
X196494759Y-103660363D01*
X196259727Y-103503320D01*
X195998574Y-103395147D01*
X195721335Y-103340000D01*
X195438665Y-103340000D01*
X195161426Y-103395147D01*
X194900273Y-103503320D01*
X194665241Y-103660363D01*
X194465363Y-103860241D01*
X194308320Y-104095273D01*
X194200147Y-104356426D01*
X194145000Y-104633665D01*
X193154021Y-104633665D01*
X193101775Y-104371011D01*
X192997371Y-104118957D01*
X192845799Y-103892114D01*
X192652886Y-103699201D01*
X192426043Y-103547629D01*
X192173989Y-103443225D01*
X191906411Y-103390000D01*
X191633589Y-103390000D01*
X191366011Y-103443225D01*
X191113957Y-103547629D01*
X190887114Y-103699201D01*
X190694201Y-103892114D01*
X190542629Y-104118957D01*
X190438225Y-104371011D01*
X190385000Y-104638589D01*
X188078072Y-104638589D01*
X188078072Y-104025000D01*
X188065812Y-103900518D01*
X188029502Y-103780820D01*
X187970537Y-103670506D01*
X187891185Y-103573815D01*
X187794494Y-103494463D01*
X187684180Y-103435498D01*
X187564482Y-103399188D01*
X187440000Y-103386928D01*
X186738769Y-103386928D01*
X185801000Y-102449160D01*
X185801000Y-102098589D01*
X187845000Y-102098589D01*
X187845000Y-102371411D01*
X187898225Y-102638989D01*
X188002629Y-102891043D01*
X188154201Y-103117886D01*
X188347114Y-103310799D01*
X188573957Y-103462371D01*
X188826011Y-103566775D01*
X189093589Y-103620000D01*
X189366411Y-103620000D01*
X189633989Y-103566775D01*
X189886043Y-103462371D01*
X190112886Y-103310799D01*
X190305799Y-103117886D01*
X190457371Y-102891043D01*
X190561775Y-102638989D01*
X190615000Y-102371411D01*
X190615000Y-102098589D01*
X190561775Y-101831011D01*
X190457371Y-101578957D01*
X190305799Y-101352114D01*
X190112886Y-101159201D01*
X189886043Y-101007629D01*
X189633989Y-100903225D01*
X189366411Y-100850000D01*
X189093589Y-100850000D01*
X188826011Y-100903225D01*
X188573957Y-101007629D01*
X188347114Y-101159201D01*
X188154201Y-101352114D01*
X188002629Y-101578957D01*
X187898225Y-101831011D01*
X187845000Y-102098589D01*
X185801000Y-102098589D01*
X185801000Y-97420000D01*
X186421928Y-97420000D01*
X186434188Y-97544482D01*
X186470498Y-97664180D01*
X186529463Y-97774494D01*
X186608815Y-97871185D01*
X186705506Y-97950537D01*
X186815820Y-98009502D01*
X186935518Y-98045812D01*
X187060000Y-98058072D01*
X187674250Y-98055000D01*
X187833000Y-97896250D01*
X187833000Y-96647000D01*
X186583750Y-96647000D01*
X186425000Y-96805750D01*
X186421928Y-97420000D01*
X185801000Y-97420000D01*
X185801000Y-95620000D01*
X186421928Y-95620000D01*
X186425000Y-96234250D01*
X186583750Y-96393000D01*
X187833000Y-96393000D01*
X187833000Y-95143750D01*
X188087000Y-95143750D01*
X188087000Y-96393000D01*
X188107000Y-96393000D01*
X188107000Y-96647000D01*
X188087000Y-96647000D01*
X188087000Y-97896250D01*
X188245750Y-98055000D01*
X188860000Y-98058072D01*
X188984482Y-98045812D01*
X189104180Y-98009502D01*
X189214494Y-97950537D01*
X189311185Y-97871185D01*
X189390537Y-97774494D01*
X189449502Y-97664180D01*
X189455056Y-97645873D01*
X189521495Y-97712312D01*
X189772905Y-97880299D01*
X190052257Y-97996011D01*
X190348816Y-98055000D01*
X190651184Y-98055000D01*
X190947743Y-97996011D01*
X191227095Y-97880299D01*
X191478505Y-97712312D01*
X191692312Y-97498505D01*
X191860299Y-97247095D01*
X191956989Y-97013665D01*
X194145000Y-97013665D01*
X194145000Y-97296335D01*
X194200147Y-97573574D01*
X194308320Y-97834727D01*
X194465363Y-98069759D01*
X194665241Y-98269637D01*
X194900273Y-98426680D01*
X195161426Y-98534853D01*
X195438665Y-98590000D01*
X195721335Y-98590000D01*
X195998574Y-98534853D01*
X196259727Y-98426680D01*
X196494759Y-98269637D01*
X196694637Y-98069759D01*
X196851680Y-97834727D01*
X196959853Y-97573574D01*
X197015000Y-97296335D01*
X197015000Y-97013665D01*
X196959853Y-96736426D01*
X196851680Y-96475273D01*
X196694637Y-96240241D01*
X196494759Y-96040363D01*
X196259727Y-95883320D01*
X195998574Y-95775147D01*
X195721335Y-95720000D01*
X195438665Y-95720000D01*
X195161426Y-95775147D01*
X194900273Y-95883320D01*
X194665241Y-96040363D01*
X194465363Y-96240241D01*
X194308320Y-96475273D01*
X194200147Y-96736426D01*
X194145000Y-97013665D01*
X191956989Y-97013665D01*
X191976011Y-96967743D01*
X192035000Y-96671184D01*
X192035000Y-96368816D01*
X191976011Y-96072257D01*
X191860299Y-95792905D01*
X191692312Y-95541495D01*
X191478505Y-95327688D01*
X191227095Y-95159701D01*
X190947743Y-95043989D01*
X190651184Y-94985000D01*
X190348816Y-94985000D01*
X190052257Y-95043989D01*
X189772905Y-95159701D01*
X189521495Y-95327688D01*
X189455056Y-95394127D01*
X189449502Y-95375820D01*
X189390537Y-95265506D01*
X189311185Y-95168815D01*
X189214494Y-95089463D01*
X189104180Y-95030498D01*
X188984482Y-94994188D01*
X188860000Y-94981928D01*
X188245750Y-94985000D01*
X188087000Y-95143750D01*
X187833000Y-95143750D01*
X187674250Y-94985000D01*
X187060000Y-94981928D01*
X186935518Y-94994188D01*
X186815820Y-95030498D01*
X186705506Y-95089463D01*
X186608815Y-95168815D01*
X186529463Y-95265506D01*
X186470498Y-95375820D01*
X186434188Y-95495518D01*
X186421928Y-95620000D01*
X185801000Y-95620000D01*
X185801000Y-94993396D01*
X185899637Y-94894759D01*
X186056680Y-94659727D01*
X186164853Y-94398574D01*
X186220000Y-94121335D01*
X186220000Y-93838665D01*
X198590000Y-93838665D01*
X198590000Y-94121335D01*
X198645147Y-94398574D01*
X198753320Y-94659727D01*
X198910363Y-94894759D01*
X199110241Y-95094637D01*
X199345273Y-95251680D01*
X199606426Y-95359853D01*
X199883665Y-95415000D01*
X200166335Y-95415000D01*
X200443574Y-95359853D01*
X200704727Y-95251680D01*
X200939759Y-95094637D01*
X201139637Y-94894759D01*
X201296680Y-94659727D01*
X201404853Y-94398574D01*
X201460000Y-94121335D01*
X201460000Y-93838665D01*
X206210000Y-93838665D01*
X206210000Y-94121335D01*
X206265147Y-94398574D01*
X206373320Y-94659727D01*
X206530363Y-94894759D01*
X206629000Y-94993396D01*
X206629001Y-103455088D01*
X206624085Y-103505000D01*
X206643702Y-103704170D01*
X206694401Y-103871298D01*
X206701799Y-103895687D01*
X206796141Y-104072190D01*
X206923105Y-104226896D01*
X206961868Y-104258708D01*
X207526928Y-104823768D01*
X207526928Y-105525000D01*
X207539188Y-105649482D01*
X207575498Y-105769180D01*
X207634463Y-105879494D01*
X207713815Y-105976185D01*
X207810506Y-106055537D01*
X207920820Y-106114502D01*
X208040518Y-106150812D01*
X208165000Y-106163072D01*
X209665000Y-106163072D01*
X209789482Y-106150812D01*
X209909180Y-106114502D01*
X210019494Y-106055537D01*
X210116185Y-105976185D01*
X210195537Y-105879494D01*
X210254502Y-105769180D01*
X210290812Y-105649482D01*
X210303072Y-105525000D01*
X210303072Y-104638589D01*
X212610000Y-104638589D01*
X212610000Y-104911411D01*
X212663225Y-105178989D01*
X212767629Y-105431043D01*
X212919201Y-105657886D01*
X213112114Y-105850799D01*
X213338957Y-106002371D01*
X213591011Y-106106775D01*
X213858589Y-106160000D01*
X214131411Y-106160000D01*
X214398989Y-106106775D01*
X214651043Y-106002371D01*
X214877886Y-105850799D01*
X215070799Y-105657886D01*
X215222371Y-105431043D01*
X215326775Y-105178989D01*
X215380000Y-104911411D01*
X215380000Y-104638589D01*
X215326775Y-104371011D01*
X215222371Y-104118957D01*
X215070799Y-103892114D01*
X214877886Y-103699201D01*
X214651043Y-103547629D01*
X214398989Y-103443225D01*
X214131411Y-103390000D01*
X213858589Y-103390000D01*
X213591011Y-103443225D01*
X213338957Y-103547629D01*
X213112114Y-103699201D01*
X212919201Y-103892114D01*
X212767629Y-104118957D01*
X212663225Y-104371011D01*
X212610000Y-104638589D01*
X210303072Y-104638589D01*
X210303072Y-104025000D01*
X210290812Y-103900518D01*
X210254502Y-103780820D01*
X210195537Y-103670506D01*
X210116185Y-103573815D01*
X210019494Y-103494463D01*
X209909180Y-103435498D01*
X209789482Y-103399188D01*
X209665000Y-103386928D01*
X208963768Y-103386928D01*
X208661000Y-103084160D01*
X208661000Y-102098589D01*
X210070000Y-102098589D01*
X210070000Y-102371411D01*
X210123225Y-102638989D01*
X210227629Y-102891043D01*
X210379201Y-103117886D01*
X210572114Y-103310799D01*
X210798957Y-103462371D01*
X211051011Y-103566775D01*
X211318589Y-103620000D01*
X211591411Y-103620000D01*
X211858989Y-103566775D01*
X212111043Y-103462371D01*
X212337886Y-103310799D01*
X212530799Y-103117886D01*
X212682371Y-102891043D01*
X212786775Y-102638989D01*
X212840000Y-102371411D01*
X212840000Y-102098589D01*
X212786775Y-101831011D01*
X212682371Y-101578957D01*
X212530799Y-101352114D01*
X212337886Y-101159201D01*
X212111043Y-101007629D01*
X211858989Y-100903225D01*
X211591411Y-100850000D01*
X211318589Y-100850000D01*
X211051011Y-100903225D01*
X210798957Y-101007629D01*
X210572114Y-101159201D01*
X210379201Y-101352114D01*
X210227629Y-101578957D01*
X210123225Y-101831011D01*
X210070000Y-102098589D01*
X208661000Y-102098589D01*
X208661000Y-97550455D01*
X208695498Y-97664180D01*
X208754463Y-97774494D01*
X208833815Y-97871185D01*
X208930506Y-97950537D01*
X209040820Y-98009502D01*
X209160518Y-98045812D01*
X209285000Y-98058072D01*
X209899250Y-98055000D01*
X210058000Y-97896250D01*
X210058000Y-96647000D01*
X210038000Y-96647000D01*
X210038000Y-96393000D01*
X210058000Y-96393000D01*
X210058000Y-95143750D01*
X210312000Y-95143750D01*
X210312000Y-96393000D01*
X210332000Y-96393000D01*
X210332000Y-96647000D01*
X210312000Y-96647000D01*
X210312000Y-97896250D01*
X210470750Y-98055000D01*
X211085000Y-98058072D01*
X211209482Y-98045812D01*
X211329180Y-98009502D01*
X211439494Y-97950537D01*
X211536185Y-97871185D01*
X211615537Y-97774494D01*
X211674502Y-97664180D01*
X211680056Y-97645873D01*
X211746495Y-97712312D01*
X211997905Y-97880299D01*
X212277257Y-97996011D01*
X212573816Y-98055000D01*
X212876184Y-98055000D01*
X213172743Y-97996011D01*
X213452095Y-97880299D01*
X213703505Y-97712312D01*
X213917312Y-97498505D01*
X214085299Y-97247095D01*
X214181989Y-97013665D01*
X216370000Y-97013665D01*
X216370000Y-97296335D01*
X216425147Y-97573574D01*
X216533320Y-97834727D01*
X216690363Y-98069759D01*
X216890241Y-98269637D01*
X217125273Y-98426680D01*
X217386426Y-98534853D01*
X217663665Y-98590000D01*
X217946335Y-98590000D01*
X218223574Y-98534853D01*
X218484727Y-98426680D01*
X218719759Y-98269637D01*
X218919637Y-98069759D01*
X219076680Y-97834727D01*
X219184853Y-97573574D01*
X219240000Y-97296335D01*
X219240000Y-97013665D01*
X219184853Y-96736426D01*
X219076680Y-96475273D01*
X218919637Y-96240241D01*
X218719759Y-96040363D01*
X218484727Y-95883320D01*
X218223574Y-95775147D01*
X217946335Y-95720000D01*
X217663665Y-95720000D01*
X217386426Y-95775147D01*
X217125273Y-95883320D01*
X216890241Y-96040363D01*
X216690363Y-96240241D01*
X216533320Y-96475273D01*
X216425147Y-96736426D01*
X216370000Y-97013665D01*
X214181989Y-97013665D01*
X214201011Y-96967743D01*
X214260000Y-96671184D01*
X214260000Y-96368816D01*
X214201011Y-96072257D01*
X214085299Y-95792905D01*
X213917312Y-95541495D01*
X213703505Y-95327688D01*
X213452095Y-95159701D01*
X213172743Y-95043989D01*
X212876184Y-94985000D01*
X212573816Y-94985000D01*
X212277257Y-95043989D01*
X211997905Y-95159701D01*
X211746495Y-95327688D01*
X211680056Y-95394127D01*
X211674502Y-95375820D01*
X211615537Y-95265506D01*
X211536185Y-95168815D01*
X211439494Y-95089463D01*
X211329180Y-95030498D01*
X211209482Y-94994188D01*
X211085000Y-94981928D01*
X210470750Y-94985000D01*
X210312000Y-95143750D01*
X210058000Y-95143750D01*
X209899250Y-94985000D01*
X209285000Y-94981928D01*
X209160518Y-94994188D01*
X209040820Y-95030498D01*
X208930506Y-95089463D01*
X208833815Y-95168815D01*
X208754463Y-95265506D01*
X208695498Y-95375820D01*
X208661000Y-95489545D01*
X208661000Y-94993396D01*
X208759637Y-94894759D01*
X208916680Y-94659727D01*
X209024853Y-94398574D01*
X209080000Y-94121335D01*
X209080000Y-93838665D01*
X209024853Y-93561426D01*
X208916680Y-93300273D01*
X208759637Y-93065241D01*
X208559759Y-92865363D01*
X208324727Y-92708320D01*
X208063574Y-92600147D01*
X207786335Y-92545000D01*
X207503665Y-92545000D01*
X207226426Y-92600147D01*
X206965273Y-92708320D01*
X206730241Y-92865363D01*
X206530363Y-93065241D01*
X206373320Y-93300273D01*
X206265147Y-93561426D01*
X206210000Y-93838665D01*
X201460000Y-93838665D01*
X201404853Y-93561426D01*
X201296680Y-93300273D01*
X201139637Y-93065241D01*
X200939759Y-92865363D01*
X200704727Y-92708320D01*
X200443574Y-92600147D01*
X200166335Y-92545000D01*
X199883665Y-92545000D01*
X199606426Y-92600147D01*
X199345273Y-92708320D01*
X199110241Y-92865363D01*
X198910363Y-93065241D01*
X198753320Y-93300273D01*
X198645147Y-93561426D01*
X198590000Y-93838665D01*
X186220000Y-93838665D01*
X186164853Y-93561426D01*
X186056680Y-93300273D01*
X185899637Y-93065241D01*
X185699759Y-92865363D01*
X185464727Y-92708320D01*
X185203574Y-92600147D01*
X184926335Y-92545000D01*
X184643665Y-92545000D01*
X184366426Y-92600147D01*
X184105273Y-92708320D01*
X183870241Y-92865363D01*
X183670363Y-93065241D01*
X183513320Y-93300273D01*
X183405147Y-93561426D01*
X183350000Y-93838665D01*
X178600000Y-93838665D01*
X178544853Y-93561426D01*
X178436680Y-93300273D01*
X178279637Y-93065241D01*
X178079759Y-92865363D01*
X177844727Y-92708320D01*
X177583574Y-92600147D01*
X177306335Y-92545000D01*
X177023665Y-92545000D01*
X176746426Y-92600147D01*
X176485273Y-92708320D01*
X176250241Y-92865363D01*
X176050363Y-93065241D01*
X175893320Y-93300273D01*
X175785147Y-93561426D01*
X175730000Y-93838665D01*
X162725000Y-93838665D01*
X162669853Y-93561426D01*
X162561680Y-93300273D01*
X162404637Y-93065241D01*
X162204759Y-92865363D01*
X161969727Y-92708320D01*
X161708574Y-92600147D01*
X161431335Y-92545000D01*
X161148665Y-92545000D01*
X160871426Y-92600147D01*
X160610273Y-92708320D01*
X160375241Y-92865363D01*
X160175363Y-93065241D01*
X160018320Y-93300273D01*
X159910147Y-93561426D01*
X159855000Y-93838665D01*
X159855000Y-94121335D01*
X159910147Y-94398574D01*
X160018320Y-94659727D01*
X160175363Y-94894759D01*
X160274000Y-94993396D01*
X160274001Y-102820088D01*
X160269085Y-102870000D01*
X160288702Y-103069170D01*
X160346799Y-103260687D01*
X160441141Y-103437190D01*
X160568105Y-103591896D01*
X160606868Y-103623708D01*
X161758159Y-104775000D01*
X156796868Y-109736292D01*
X156758105Y-109768104D01*
X156631141Y-109922810D01*
X156560928Y-110054170D01*
X156536799Y-110099313D01*
X156478702Y-110290830D01*
X156459085Y-110490000D01*
X147980000Y-110490000D01*
X147980000Y-105669748D01*
X148590000Y-105669748D01*
X148590000Y-106420252D01*
X148736416Y-107156336D01*
X149023622Y-107849712D01*
X149440580Y-108473733D01*
X149971267Y-109004420D01*
X150595288Y-109421378D01*
X151288664Y-109708584D01*
X152024748Y-109855000D01*
X152775252Y-109855000D01*
X153511336Y-109708584D01*
X154204712Y-109421378D01*
X154828733Y-109004420D01*
X155359420Y-108473733D01*
X155776378Y-107849712D01*
X156063584Y-107156336D01*
X156210000Y-106420252D01*
X156210000Y-105669748D01*
X156063584Y-104933664D01*
X155939321Y-104633665D01*
X157315000Y-104633665D01*
X157315000Y-104916335D01*
X157370147Y-105193574D01*
X157478320Y-105454727D01*
X157635363Y-105689759D01*
X157835241Y-105889637D01*
X158070273Y-106046680D01*
X158331426Y-106154853D01*
X158608665Y-106210000D01*
X158891335Y-106210000D01*
X159168574Y-106154853D01*
X159429727Y-106046680D01*
X159664759Y-105889637D01*
X159864637Y-105689759D01*
X160021680Y-105454727D01*
X160129853Y-105193574D01*
X160185000Y-104916335D01*
X160185000Y-104633665D01*
X160129853Y-104356426D01*
X160021680Y-104095273D01*
X159864637Y-103860241D01*
X159664759Y-103660363D01*
X159429727Y-103503320D01*
X159168574Y-103395147D01*
X158891335Y-103340000D01*
X158608665Y-103340000D01*
X158331426Y-103395147D01*
X158070273Y-103503320D01*
X157835241Y-103660363D01*
X157635363Y-103860241D01*
X157478320Y-104095273D01*
X157370147Y-104356426D01*
X157315000Y-104633665D01*
X155939321Y-104633665D01*
X155776378Y-104240288D01*
X155359420Y-103616267D01*
X154828733Y-103085580D01*
X154204712Y-102668622D01*
X153511336Y-102381416D01*
X152775252Y-102235000D01*
X152024748Y-102235000D01*
X151288664Y-102381416D01*
X150595288Y-102668622D01*
X149971267Y-103085580D01*
X149440580Y-103616267D01*
X149023622Y-104240288D01*
X148736416Y-104933664D01*
X148590000Y-105669748D01*
X147980000Y-105669748D01*
X147980000Y-97013665D01*
X157315000Y-97013665D01*
X157315000Y-97296335D01*
X157370147Y-97573574D01*
X157478320Y-97834727D01*
X157635363Y-98069759D01*
X157835241Y-98269637D01*
X158070273Y-98426680D01*
X158331426Y-98534853D01*
X158608665Y-98590000D01*
X158891335Y-98590000D01*
X159168574Y-98534853D01*
X159429727Y-98426680D01*
X159664759Y-98269637D01*
X159864637Y-98069759D01*
X160021680Y-97834727D01*
X160129853Y-97573574D01*
X160185000Y-97296335D01*
X160185000Y-97013665D01*
X160129853Y-96736426D01*
X160021680Y-96475273D01*
X159864637Y-96240241D01*
X159664759Y-96040363D01*
X159429727Y-95883320D01*
X159168574Y-95775147D01*
X158891335Y-95720000D01*
X158608665Y-95720000D01*
X158331426Y-95775147D01*
X158070273Y-95883320D01*
X157835241Y-96040363D01*
X157635363Y-96240241D01*
X157478320Y-96475273D01*
X157370147Y-96736426D01*
X157315000Y-97013665D01*
X147980000Y-97013665D01*
X147980000Y-93838665D01*
X152235000Y-93838665D01*
X152235000Y-94121335D01*
X152290147Y-94398574D01*
X152398320Y-94659727D01*
X152555363Y-94894759D01*
X152755241Y-95094637D01*
X152990273Y-95251680D01*
X153251426Y-95359853D01*
X153528665Y-95415000D01*
X153811335Y-95415000D01*
X154088574Y-95359853D01*
X154349727Y-95251680D01*
X154584759Y-95094637D01*
X154784637Y-94894759D01*
X154941680Y-94659727D01*
X155049853Y-94398574D01*
X155105000Y-94121335D01*
X155105000Y-93838665D01*
X155049853Y-93561426D01*
X154941680Y-93300273D01*
X154784637Y-93065241D01*
X154584759Y-92865363D01*
X154349727Y-92708320D01*
X154088574Y-92600147D01*
X153811335Y-92545000D01*
X153528665Y-92545000D01*
X153251426Y-92600147D01*
X152990273Y-92708320D01*
X152755241Y-92865363D01*
X152555363Y-93065241D01*
X152398320Y-93300273D01*
X152290147Y-93561426D01*
X152235000Y-93838665D01*
X147980000Y-93838665D01*
X147980000Y-92100000D01*
X233020000Y-92100000D01*
X233020001Y-120625000D01*
%TD*%
M02*
