%TF.GenerationSoftware,KiCad,Pcbnew,(5.1.6)-1*%
%TF.CreationDate,2022-10-11T15:47:42-07:00*%
%TF.ProjectId,DIP8_Adapter_B,44495038-5f41-4646-9170-7465725f422e,rev?*%
%TF.SameCoordinates,Original*%
%TF.FileFunction,Copper,L1,Top*%
%TF.FilePolarity,Positive*%
%FSLAX46Y46*%
G04 Gerber Fmt 4.6, Leading zero omitted, Abs format (unit mm)*
G04 Created by KiCad (PCBNEW (5.1.6)-1) date 2022-10-11 15:47:42*
%MOMM*%
%LPD*%
G01*
G04 APERTURE LIST*
%TA.AperFunction,ComponentPad*%
%ADD10O,1.600000X1.600000*%
%TD*%
%TA.AperFunction,ComponentPad*%
%ADD11R,1.600000X1.600000*%
%TD*%
%TA.AperFunction,ViaPad*%
%ADD12C,0.800000*%
%TD*%
%TA.AperFunction,Conductor*%
%ADD13C,0.381000*%
%TD*%
%TA.AperFunction,Conductor*%
%ADD14C,0.254000*%
%TD*%
G04 APERTURE END LIST*
D10*
%TO.P,U2,8*%
%TO.N,Net-(U2-Pad8)*%
X139573000Y-85852000D03*
%TO.P,U2,4*%
%TO.N,Net-(U2-Pad4)*%
X149733000Y-78232000D03*
%TO.P,U2,7*%
%TO.N,Vout*%
X139573000Y-83312000D03*
%TO.P,U2,3*%
%TO.N,VR+*%
X149733000Y-80772000D03*
%TO.P,U2,6*%
%TO.N,Net-(U2-Pad6)*%
X139573000Y-80772000D03*
%TO.P,U2,2*%
%TO.N,GND*%
X149733000Y-83312000D03*
%TO.P,U2,5*%
%TO.N,+5V*%
X139573000Y-78232000D03*
D11*
%TO.P,U2,1*%
%TO.N,VR-*%
X149733000Y-85852000D03*
%TD*%
D10*
%TO.P,U1,8*%
%TO.N,Net-(U1-Pad8)*%
X136652000Y-78232000D03*
%TO.P,U1,4*%
%TO.N,VR-*%
X129032000Y-85852000D03*
%TO.P,U1,7*%
%TO.N,Vout*%
X136652000Y-80772000D03*
%TO.P,U1,3*%
%TO.N,VR+*%
X129032000Y-83312000D03*
%TO.P,U1,6*%
%TO.N,GND*%
X136652000Y-83312000D03*
%TO.P,U1,2*%
%TO.N,Net-(U1-Pad2)*%
X129032000Y-80772000D03*
%TO.P,U1,5*%
%TO.N,+5V*%
X136652000Y-85852000D03*
D11*
%TO.P,U1,1*%
%TO.N,Net-(U1-Pad1)*%
X129032000Y-78232000D03*
%TD*%
D12*
%TO.N,GND*%
X148336000Y-76962000D03*
X131064000Y-76962000D03*
X131064000Y-79248000D03*
%TD*%
D13*
%TO.N,VR-*%
X129032000Y-85852000D02*
X130556000Y-87376000D01*
X148209000Y-87376000D02*
X149733000Y-85852000D01*
X130556000Y-87376000D02*
X148209000Y-87376000D01*
%TO.N,Vout*%
X139192000Y-83312000D02*
X139573000Y-83312000D01*
X136652000Y-80772000D02*
X139192000Y-83312000D01*
%TO.N,VR+*%
X129032000Y-83312000D02*
X135890000Y-76454000D01*
X145415000Y-76454000D02*
X149733000Y-80772000D01*
X135890000Y-76454000D02*
X145415000Y-76454000D01*
%TO.N,+5V*%
X141097000Y-83947000D02*
X140462000Y-84582000D01*
X137922000Y-84582000D02*
X136652000Y-85852000D01*
X139573000Y-78232000D02*
X141097000Y-79756000D01*
X140462000Y-84582000D02*
X137922000Y-84582000D01*
X141097000Y-79756000D02*
X141097000Y-83947000D01*
%TD*%
D14*
%TO.N,GND*%
G36*
X135217000Y-78373335D02*
G01*
X135272147Y-78650574D01*
X135380320Y-78911727D01*
X135537363Y-79146759D01*
X135737241Y-79346637D01*
X135969759Y-79502000D01*
X135737241Y-79657363D01*
X135537363Y-79857241D01*
X135380320Y-80092273D01*
X135272147Y-80353426D01*
X135217000Y-80630665D01*
X135217000Y-80913335D01*
X135272147Y-81190574D01*
X135380320Y-81451727D01*
X135537363Y-81686759D01*
X135737241Y-81886637D01*
X135972273Y-82043680D01*
X135982865Y-82048067D01*
X135796869Y-82159615D01*
X135588481Y-82348586D01*
X135420963Y-82574580D01*
X135300754Y-82828913D01*
X135260096Y-82962961D01*
X135382085Y-83185000D01*
X136525000Y-83185000D01*
X136525000Y-83165000D01*
X136779000Y-83165000D01*
X136779000Y-83185000D01*
X136799000Y-83185000D01*
X136799000Y-83439000D01*
X136779000Y-83439000D01*
X136779000Y-83459000D01*
X136525000Y-83459000D01*
X136525000Y-83439000D01*
X135382085Y-83439000D01*
X135260096Y-83661039D01*
X135300754Y-83795087D01*
X135420963Y-84049420D01*
X135588481Y-84275414D01*
X135796869Y-84464385D01*
X135982865Y-84575933D01*
X135972273Y-84580320D01*
X135737241Y-84737363D01*
X135537363Y-84937241D01*
X135380320Y-85172273D01*
X135272147Y-85433426D01*
X135217000Y-85710665D01*
X135217000Y-85993335D01*
X135272147Y-86270574D01*
X135380320Y-86531727D01*
X135392864Y-86550500D01*
X130897933Y-86550500D01*
X130446056Y-86098624D01*
X130467000Y-85993335D01*
X130467000Y-85710665D01*
X130411853Y-85433426D01*
X130303680Y-85172273D01*
X130146637Y-84937241D01*
X129946759Y-84737363D01*
X129714241Y-84582000D01*
X129946759Y-84426637D01*
X130146637Y-84226759D01*
X130303680Y-83991727D01*
X130411853Y-83730574D01*
X130467000Y-83453335D01*
X130467000Y-83170665D01*
X130446056Y-83065376D01*
X135217000Y-78294434D01*
X135217000Y-78373335D01*
G37*
X135217000Y-78373335D02*
X135272147Y-78650574D01*
X135380320Y-78911727D01*
X135537363Y-79146759D01*
X135737241Y-79346637D01*
X135969759Y-79502000D01*
X135737241Y-79657363D01*
X135537363Y-79857241D01*
X135380320Y-80092273D01*
X135272147Y-80353426D01*
X135217000Y-80630665D01*
X135217000Y-80913335D01*
X135272147Y-81190574D01*
X135380320Y-81451727D01*
X135537363Y-81686759D01*
X135737241Y-81886637D01*
X135972273Y-82043680D01*
X135982865Y-82048067D01*
X135796869Y-82159615D01*
X135588481Y-82348586D01*
X135420963Y-82574580D01*
X135300754Y-82828913D01*
X135260096Y-82962961D01*
X135382085Y-83185000D01*
X136525000Y-83185000D01*
X136525000Y-83165000D01*
X136779000Y-83165000D01*
X136779000Y-83185000D01*
X136799000Y-83185000D01*
X136799000Y-83439000D01*
X136779000Y-83439000D01*
X136779000Y-83459000D01*
X136525000Y-83459000D01*
X136525000Y-83439000D01*
X135382085Y-83439000D01*
X135260096Y-83661039D01*
X135300754Y-83795087D01*
X135420963Y-84049420D01*
X135588481Y-84275414D01*
X135796869Y-84464385D01*
X135982865Y-84575933D01*
X135972273Y-84580320D01*
X135737241Y-84737363D01*
X135537363Y-84937241D01*
X135380320Y-85172273D01*
X135272147Y-85433426D01*
X135217000Y-85710665D01*
X135217000Y-85993335D01*
X135272147Y-86270574D01*
X135380320Y-86531727D01*
X135392864Y-86550500D01*
X130897933Y-86550500D01*
X130446056Y-86098624D01*
X130467000Y-85993335D01*
X130467000Y-85710665D01*
X130411853Y-85433426D01*
X130303680Y-85172273D01*
X130146637Y-84937241D01*
X129946759Y-84737363D01*
X129714241Y-84582000D01*
X129946759Y-84426637D01*
X130146637Y-84226759D01*
X130303680Y-83991727D01*
X130411853Y-83730574D01*
X130467000Y-83453335D01*
X130467000Y-83170665D01*
X130446056Y-83065376D01*
X135217000Y-78294434D01*
X135217000Y-78373335D01*
G36*
X148318944Y-80525376D02*
G01*
X148298000Y-80630665D01*
X148298000Y-80913335D01*
X148353147Y-81190574D01*
X148461320Y-81451727D01*
X148618363Y-81686759D01*
X148818241Y-81886637D01*
X149053273Y-82043680D01*
X149063865Y-82048067D01*
X148877869Y-82159615D01*
X148669481Y-82348586D01*
X148501963Y-82574580D01*
X148381754Y-82828913D01*
X148341096Y-82962961D01*
X148463085Y-83185000D01*
X149606000Y-83185000D01*
X149606000Y-83165000D01*
X149860000Y-83165000D01*
X149860000Y-83185000D01*
X149880000Y-83185000D01*
X149880000Y-83439000D01*
X149860000Y-83439000D01*
X149860000Y-83459000D01*
X149606000Y-83459000D01*
X149606000Y-83439000D01*
X148463085Y-83439000D01*
X148341096Y-83661039D01*
X148381754Y-83795087D01*
X148501963Y-84049420D01*
X148669481Y-84275414D01*
X148833080Y-84423769D01*
X148808518Y-84426188D01*
X148688820Y-84462498D01*
X148578506Y-84521463D01*
X148481815Y-84600815D01*
X148402463Y-84697506D01*
X148343498Y-84807820D01*
X148307188Y-84927518D01*
X148294928Y-85052000D01*
X148294928Y-86122640D01*
X147867068Y-86550500D01*
X140832136Y-86550500D01*
X140844680Y-86531727D01*
X140952853Y-86270574D01*
X141008000Y-85993335D01*
X141008000Y-85710665D01*
X140952853Y-85433426D01*
X140892567Y-85287882D01*
X140922842Y-85271699D01*
X141048541Y-85168541D01*
X141074397Y-85137035D01*
X141652044Y-84559390D01*
X141683541Y-84533541D01*
X141709389Y-84502045D01*
X141709392Y-84502042D01*
X141786699Y-84407843D01*
X141863353Y-84264434D01*
X141910556Y-84108826D01*
X141922500Y-83987553D01*
X141922500Y-83987551D01*
X141926494Y-83947000D01*
X141922500Y-83906450D01*
X141922500Y-79796542D01*
X141926493Y-79755999D01*
X141922500Y-79715456D01*
X141922500Y-79715447D01*
X141910556Y-79594174D01*
X141863353Y-79438566D01*
X141786699Y-79295158D01*
X141786698Y-79295156D01*
X141709391Y-79200958D01*
X141683541Y-79169459D01*
X141652041Y-79143608D01*
X140987056Y-78478624D01*
X141008000Y-78373335D01*
X141008000Y-78090665D01*
X140952853Y-77813426D01*
X140844680Y-77552273D01*
X140687637Y-77317241D01*
X140649896Y-77279500D01*
X145073068Y-77279500D01*
X148318944Y-80525376D01*
G37*
X148318944Y-80525376D02*
X148298000Y-80630665D01*
X148298000Y-80913335D01*
X148353147Y-81190574D01*
X148461320Y-81451727D01*
X148618363Y-81686759D01*
X148818241Y-81886637D01*
X149053273Y-82043680D01*
X149063865Y-82048067D01*
X148877869Y-82159615D01*
X148669481Y-82348586D01*
X148501963Y-82574580D01*
X148381754Y-82828913D01*
X148341096Y-82962961D01*
X148463085Y-83185000D01*
X149606000Y-83185000D01*
X149606000Y-83165000D01*
X149860000Y-83165000D01*
X149860000Y-83185000D01*
X149880000Y-83185000D01*
X149880000Y-83439000D01*
X149860000Y-83439000D01*
X149860000Y-83459000D01*
X149606000Y-83459000D01*
X149606000Y-83439000D01*
X148463085Y-83439000D01*
X148341096Y-83661039D01*
X148381754Y-83795087D01*
X148501963Y-84049420D01*
X148669481Y-84275414D01*
X148833080Y-84423769D01*
X148808518Y-84426188D01*
X148688820Y-84462498D01*
X148578506Y-84521463D01*
X148481815Y-84600815D01*
X148402463Y-84697506D01*
X148343498Y-84807820D01*
X148307188Y-84927518D01*
X148294928Y-85052000D01*
X148294928Y-86122640D01*
X147867068Y-86550500D01*
X140832136Y-86550500D01*
X140844680Y-86531727D01*
X140952853Y-86270574D01*
X141008000Y-85993335D01*
X141008000Y-85710665D01*
X140952853Y-85433426D01*
X140892567Y-85287882D01*
X140922842Y-85271699D01*
X141048541Y-85168541D01*
X141074397Y-85137035D01*
X141652044Y-84559390D01*
X141683541Y-84533541D01*
X141709389Y-84502045D01*
X141709392Y-84502042D01*
X141786699Y-84407843D01*
X141863353Y-84264434D01*
X141910556Y-84108826D01*
X141922500Y-83987553D01*
X141922500Y-83987551D01*
X141926494Y-83947000D01*
X141922500Y-83906450D01*
X141922500Y-79796542D01*
X141926493Y-79755999D01*
X141922500Y-79715456D01*
X141922500Y-79715447D01*
X141910556Y-79594174D01*
X141863353Y-79438566D01*
X141786699Y-79295158D01*
X141786698Y-79295156D01*
X141709391Y-79200958D01*
X141683541Y-79169459D01*
X141652041Y-79143608D01*
X140987056Y-78478624D01*
X141008000Y-78373335D01*
X141008000Y-78090665D01*
X140952853Y-77813426D01*
X140844680Y-77552273D01*
X140687637Y-77317241D01*
X140649896Y-77279500D01*
X145073068Y-77279500D01*
X148318944Y-80525376D01*
G36*
X130467000Y-80709567D02*
G01*
X130467000Y-80630665D01*
X130411853Y-80353426D01*
X130303680Y-80092273D01*
X130146637Y-79857241D01*
X129948039Y-79658643D01*
X129956482Y-79657812D01*
X130076180Y-79621502D01*
X130186494Y-79562537D01*
X130283185Y-79483185D01*
X130362537Y-79386494D01*
X130421502Y-79276180D01*
X130457812Y-79156482D01*
X130470072Y-79032000D01*
X130470072Y-77432000D01*
X130457812Y-77307518D01*
X130421502Y-77187820D01*
X130362537Y-77077506D01*
X130283185Y-76980815D01*
X130186494Y-76901463D01*
X130076180Y-76842498D01*
X129956482Y-76806188D01*
X129832000Y-76793928D01*
X128232000Y-76793928D01*
X128107518Y-76806188D01*
X127987820Y-76842498D01*
X127877506Y-76901463D01*
X127780815Y-76980815D01*
X127701463Y-77077506D01*
X127660000Y-77155077D01*
X127660000Y-76606000D01*
X134570566Y-76606000D01*
X130467000Y-80709567D01*
G37*
X130467000Y-80709567D02*
X130467000Y-80630665D01*
X130411853Y-80353426D01*
X130303680Y-80092273D01*
X130146637Y-79857241D01*
X129948039Y-79658643D01*
X129956482Y-79657812D01*
X130076180Y-79621502D01*
X130186494Y-79562537D01*
X130283185Y-79483185D01*
X130362537Y-79386494D01*
X130421502Y-79276180D01*
X130457812Y-79156482D01*
X130470072Y-79032000D01*
X130470072Y-77432000D01*
X130457812Y-77307518D01*
X130421502Y-77187820D01*
X130362537Y-77077506D01*
X130283185Y-76980815D01*
X130186494Y-76901463D01*
X130076180Y-76842498D01*
X129956482Y-76806188D01*
X129832000Y-76793928D01*
X128232000Y-76793928D01*
X128107518Y-76806188D01*
X127987820Y-76842498D01*
X127877506Y-76901463D01*
X127780815Y-76980815D01*
X127701463Y-77077506D01*
X127660000Y-77155077D01*
X127660000Y-76606000D01*
X134570566Y-76606000D01*
X130467000Y-80709567D01*
G36*
X150470000Y-76998589D02*
G01*
X150412727Y-76960320D01*
X150151574Y-76852147D01*
X149874335Y-76797000D01*
X149591665Y-76797000D01*
X149314426Y-76852147D01*
X149053273Y-76960320D01*
X148818241Y-77117363D01*
X148618363Y-77317241D01*
X148461320Y-77552273D01*
X148353147Y-77813426D01*
X148298000Y-78090665D01*
X148298000Y-78169567D01*
X146734432Y-76606000D01*
X150470000Y-76606000D01*
X150470000Y-76998589D01*
G37*
X150470000Y-76998589D02*
X150412727Y-76960320D01*
X150151574Y-76852147D01*
X149874335Y-76797000D01*
X149591665Y-76797000D01*
X149314426Y-76852147D01*
X149053273Y-76960320D01*
X148818241Y-77117363D01*
X148618363Y-77317241D01*
X148461320Y-77552273D01*
X148353147Y-77813426D01*
X148298000Y-78090665D01*
X148298000Y-78169567D01*
X146734432Y-76606000D01*
X150470000Y-76606000D01*
X150470000Y-76998589D01*
%TD*%
M02*
