%TF.GenerationSoftware,KiCad,Pcbnew,(5.1.6)-1*%
%TF.CreationDate,2022-10-11T15:47:42-07:00*%
%TF.ProjectId,DIP8_Adapter_B,44495038-5f41-4646-9170-7465725f422e,rev?*%
%TF.SameCoordinates,Original*%
%TF.FileFunction,Legend,Top*%
%TF.FilePolarity,Positive*%
%FSLAX46Y46*%
G04 Gerber Fmt 4.6, Leading zero omitted, Abs format (unit mm)*
G04 Created by KiCad (PCBNEW (5.1.6)-1) date 2022-10-11 15:47:42*
%MOMM*%
%LPD*%
G01*
G04 APERTURE LIST*
%ADD10C,0.127000*%
%ADD11C,0.150000*%
%ADD12C,0.120000*%
G04 APERTURE END LIST*
D10*
X145161000Y-82713285D02*
X145124714Y-82749571D01*
X145015857Y-82822142D01*
X144943285Y-82858428D01*
X144834428Y-82894714D01*
X144653000Y-82931000D01*
X144507857Y-82931000D01*
X144326428Y-82894714D01*
X144217571Y-82858428D01*
X144145000Y-82822142D01*
X144036142Y-82749571D01*
X143999857Y-82713285D01*
X144108714Y-82531857D02*
X144870714Y-82277857D01*
X144108714Y-82023857D01*
X144870714Y-81334428D02*
X144507857Y-81588428D01*
X144870714Y-81769857D02*
X144108714Y-81769857D01*
X144108714Y-81479571D01*
X144145000Y-81407000D01*
X144181285Y-81370714D01*
X144253857Y-81334428D01*
X144362714Y-81334428D01*
X144435285Y-81370714D01*
X144471571Y-81407000D01*
X144507857Y-81479571D01*
X144507857Y-81769857D01*
X144181285Y-81044142D02*
X144145000Y-81007857D01*
X144108714Y-80935285D01*
X144108714Y-80753857D01*
X144145000Y-80681285D01*
X144181285Y-80645000D01*
X144253857Y-80608714D01*
X144326428Y-80608714D01*
X144435285Y-80645000D01*
X144870714Y-81080428D01*
X144870714Y-80608714D01*
X145161000Y-80354714D02*
X145124714Y-80318428D01*
X145015857Y-80245857D01*
X144943285Y-80209571D01*
X144834428Y-80173285D01*
X144653000Y-80137000D01*
X144507857Y-80137000D01*
X144326428Y-80173285D01*
X144217571Y-80209571D01*
X144145000Y-80245857D01*
X144036142Y-80318428D01*
X143999857Y-80354714D01*
X146397738Y-85504261D02*
X146609404Y-86139261D01*
X146821071Y-85504261D01*
X147395595Y-86139261D02*
X147183928Y-85836880D01*
X147032738Y-86139261D02*
X147032738Y-85504261D01*
X147274642Y-85504261D01*
X147335119Y-85534500D01*
X147365357Y-85564738D01*
X147395595Y-85625214D01*
X147395595Y-85715928D01*
X147365357Y-85776404D01*
X147335119Y-85806642D01*
X147274642Y-85836880D01*
X147032738Y-85836880D01*
X147667738Y-85897357D02*
X148151547Y-85897357D01*
X146657785Y-82994500D02*
X146597309Y-82964261D01*
X146506595Y-82964261D01*
X146415880Y-82994500D01*
X146355404Y-83054976D01*
X146325166Y-83115452D01*
X146294928Y-83236404D01*
X146294928Y-83327119D01*
X146325166Y-83448071D01*
X146355404Y-83508547D01*
X146415880Y-83569023D01*
X146506595Y-83599261D01*
X146567071Y-83599261D01*
X146657785Y-83569023D01*
X146688023Y-83538785D01*
X146688023Y-83327119D01*
X146567071Y-83327119D01*
X146960166Y-83175928D02*
X146960166Y-83599261D01*
X146960166Y-83236404D02*
X146990404Y-83206166D01*
X147050880Y-83175928D01*
X147141595Y-83175928D01*
X147202071Y-83206166D01*
X147232309Y-83266642D01*
X147232309Y-83599261D01*
X147806833Y-83599261D02*
X147806833Y-82964261D01*
X147806833Y-83569023D02*
X147746357Y-83599261D01*
X147625404Y-83599261D01*
X147564928Y-83569023D01*
X147534690Y-83538785D01*
X147504452Y-83478309D01*
X147504452Y-83296880D01*
X147534690Y-83236404D01*
X147564928Y-83206166D01*
X147625404Y-83175928D01*
X147746357Y-83175928D01*
X147806833Y-83206166D01*
X146143738Y-80424261D02*
X146355404Y-81059261D01*
X146567071Y-80424261D01*
X147141595Y-81059261D02*
X146929928Y-80756880D01*
X146778738Y-81059261D02*
X146778738Y-80424261D01*
X147020642Y-80424261D01*
X147081119Y-80454500D01*
X147111357Y-80484738D01*
X147141595Y-80545214D01*
X147141595Y-80635928D01*
X147111357Y-80696404D01*
X147081119Y-80726642D01*
X147020642Y-80756880D01*
X146778738Y-80756880D01*
X147413738Y-80817357D02*
X147897547Y-80817357D01*
X147655642Y-81059261D02*
X147655642Y-80575452D01*
X146234452Y-78519261D02*
X146234452Y-77884261D01*
X146597309Y-78519261D01*
X146597309Y-77884261D01*
X147353261Y-77854023D02*
X146808976Y-78670452D01*
X147927785Y-78458785D02*
X147897547Y-78489023D01*
X147806833Y-78519261D01*
X147746357Y-78519261D01*
X147655642Y-78489023D01*
X147595166Y-78428547D01*
X147564928Y-78368071D01*
X147534690Y-78247119D01*
X147534690Y-78156404D01*
X147564928Y-78035452D01*
X147595166Y-77974976D01*
X147655642Y-77914500D01*
X147746357Y-77884261D01*
X147806833Y-77884261D01*
X147897547Y-77914500D01*
X147927785Y-77944738D01*
X141154452Y-86139261D02*
X141154452Y-85504261D01*
X141517309Y-86139261D01*
X141517309Y-85504261D01*
X142273261Y-85474023D02*
X141728976Y-86290452D01*
X142847785Y-86078785D02*
X142817547Y-86109023D01*
X142726833Y-86139261D01*
X142666357Y-86139261D01*
X142575642Y-86109023D01*
X142515166Y-86048547D01*
X142484928Y-85988071D01*
X142454690Y-85867119D01*
X142454690Y-85776404D01*
X142484928Y-85655452D01*
X142515166Y-85594976D01*
X142575642Y-85534500D01*
X142666357Y-85504261D01*
X142726833Y-85504261D01*
X142817547Y-85534500D01*
X142847785Y-85564738D01*
X141018380Y-82964261D02*
X141230047Y-83599261D01*
X141441714Y-82964261D01*
X141744095Y-83599261D02*
X141683619Y-83569023D01*
X141653380Y-83538785D01*
X141623142Y-83478309D01*
X141623142Y-83296880D01*
X141653380Y-83236404D01*
X141683619Y-83206166D01*
X141744095Y-83175928D01*
X141834809Y-83175928D01*
X141895285Y-83206166D01*
X141925523Y-83236404D01*
X141955761Y-83296880D01*
X141955761Y-83478309D01*
X141925523Y-83538785D01*
X141895285Y-83569023D01*
X141834809Y-83599261D01*
X141744095Y-83599261D01*
X142500047Y-83175928D02*
X142500047Y-83599261D01*
X142227904Y-83175928D02*
X142227904Y-83508547D01*
X142258142Y-83569023D01*
X142318619Y-83599261D01*
X142409333Y-83599261D01*
X142469809Y-83569023D01*
X142500047Y-83538785D01*
X142711714Y-83175928D02*
X142953619Y-83175928D01*
X142802428Y-82964261D02*
X142802428Y-83508547D01*
X142832666Y-83569023D01*
X142893142Y-83599261D01*
X142953619Y-83599261D01*
X141154452Y-81059261D02*
X141154452Y-80424261D01*
X141517309Y-81059261D01*
X141517309Y-80424261D01*
X142273261Y-80394023D02*
X141728976Y-81210452D01*
X142847785Y-80998785D02*
X142817547Y-81029023D01*
X142726833Y-81059261D01*
X142666357Y-81059261D01*
X142575642Y-81029023D01*
X142515166Y-80968547D01*
X142484928Y-80908071D01*
X142454690Y-80787119D01*
X142454690Y-80696404D01*
X142484928Y-80575452D01*
X142515166Y-80514976D01*
X142575642Y-80454500D01*
X142666357Y-80424261D01*
X142726833Y-80424261D01*
X142817547Y-80454500D01*
X142847785Y-80484738D01*
X141611047Y-77884261D02*
X141308666Y-77884261D01*
X141278428Y-78186642D01*
X141308666Y-78156404D01*
X141369142Y-78126166D01*
X141520333Y-78126166D01*
X141580809Y-78156404D01*
X141611047Y-78186642D01*
X141641285Y-78247119D01*
X141641285Y-78398309D01*
X141611047Y-78458785D01*
X141580809Y-78489023D01*
X141520333Y-78519261D01*
X141369142Y-78519261D01*
X141308666Y-78489023D01*
X141278428Y-78458785D01*
X141822714Y-77884261D02*
X142034380Y-78519261D01*
X142246047Y-77884261D01*
D11*
X134753047Y-85504261D02*
X134450666Y-85504261D01*
X134420428Y-85806642D01*
X134450666Y-85776404D01*
X134511142Y-85746166D01*
X134662333Y-85746166D01*
X134722809Y-85776404D01*
X134753047Y-85806642D01*
X134783285Y-85867119D01*
X134783285Y-86018309D01*
X134753047Y-86078785D01*
X134722809Y-86109023D01*
X134662333Y-86139261D01*
X134511142Y-86139261D01*
X134450666Y-86109023D01*
X134420428Y-86078785D01*
X134964714Y-85504261D02*
X135176380Y-86139261D01*
X135388047Y-85504261D01*
D10*
X134211785Y-82994500D02*
X134151309Y-82964261D01*
X134060595Y-82964261D01*
X133969880Y-82994500D01*
X133909404Y-83054976D01*
X133879166Y-83115452D01*
X133848928Y-83236404D01*
X133848928Y-83327119D01*
X133879166Y-83448071D01*
X133909404Y-83508547D01*
X133969880Y-83569023D01*
X134060595Y-83599261D01*
X134121071Y-83599261D01*
X134211785Y-83569023D01*
X134242023Y-83538785D01*
X134242023Y-83327119D01*
X134121071Y-83327119D01*
X134514166Y-83175928D02*
X134514166Y-83599261D01*
X134514166Y-83236404D02*
X134544404Y-83206166D01*
X134604880Y-83175928D01*
X134695595Y-83175928D01*
X134756071Y-83206166D01*
X134786309Y-83266642D01*
X134786309Y-83599261D01*
X135360833Y-83599261D02*
X135360833Y-82964261D01*
X135360833Y-83569023D02*
X135300357Y-83599261D01*
X135179404Y-83599261D01*
X135118928Y-83569023D01*
X135088690Y-83538785D01*
X135058452Y-83478309D01*
X135058452Y-83296880D01*
X135088690Y-83236404D01*
X135118928Y-83206166D01*
X135179404Y-83175928D01*
X135300357Y-83175928D01*
X135360833Y-83206166D01*
X133534452Y-80424261D02*
X133655404Y-80424261D01*
X133715880Y-80454500D01*
X133776357Y-80514976D01*
X133806595Y-80635928D01*
X133806595Y-80847595D01*
X133776357Y-80968547D01*
X133715880Y-81029023D01*
X133655404Y-81059261D01*
X133534452Y-81059261D01*
X133473976Y-81029023D01*
X133413500Y-80968547D01*
X133383261Y-80847595D01*
X133383261Y-80635928D01*
X133413500Y-80514976D01*
X133473976Y-80454500D01*
X133534452Y-80424261D01*
X134350880Y-80635928D02*
X134350880Y-81059261D01*
X134078738Y-80635928D02*
X134078738Y-80968547D01*
X134108976Y-81029023D01*
X134169452Y-81059261D01*
X134260166Y-81059261D01*
X134320642Y-81029023D01*
X134350880Y-80998785D01*
X134562547Y-80635928D02*
X134804452Y-80635928D01*
X134653261Y-80424261D02*
X134653261Y-80968547D01*
X134683500Y-81029023D01*
X134743976Y-81059261D01*
X134804452Y-81059261D01*
X134985880Y-80484738D02*
X135016119Y-80454500D01*
X135076595Y-80424261D01*
X135227785Y-80424261D01*
X135288261Y-80454500D01*
X135318500Y-80484738D01*
X135348738Y-80545214D01*
X135348738Y-80605690D01*
X135318500Y-80696404D01*
X134955642Y-81059261D01*
X135348738Y-81059261D01*
X133534452Y-77884261D02*
X133655404Y-77884261D01*
X133715880Y-77914500D01*
X133776357Y-77974976D01*
X133806595Y-78095928D01*
X133806595Y-78307595D01*
X133776357Y-78428547D01*
X133715880Y-78489023D01*
X133655404Y-78519261D01*
X133534452Y-78519261D01*
X133473976Y-78489023D01*
X133413500Y-78428547D01*
X133383261Y-78307595D01*
X133383261Y-78095928D01*
X133413500Y-77974976D01*
X133473976Y-77914500D01*
X133534452Y-77884261D01*
X134350880Y-78095928D02*
X134350880Y-78519261D01*
X134078738Y-78095928D02*
X134078738Y-78428547D01*
X134108976Y-78489023D01*
X134169452Y-78519261D01*
X134260166Y-78519261D01*
X134320642Y-78489023D01*
X134350880Y-78458785D01*
X134562547Y-78095928D02*
X134804452Y-78095928D01*
X134653261Y-77884261D02*
X134653261Y-78428547D01*
X134683500Y-78489023D01*
X134743976Y-78519261D01*
X134804452Y-78519261D01*
X135348738Y-78519261D02*
X134985880Y-78519261D01*
X135167309Y-78519261D02*
X135167309Y-77884261D01*
X135106833Y-77974976D01*
X135046357Y-78035452D01*
X134985880Y-78065690D01*
D11*
X130347357Y-85504261D02*
X130559023Y-86139261D01*
X130770690Y-85504261D01*
X131345214Y-86139261D02*
X131133547Y-85836880D01*
X130982357Y-86139261D02*
X130982357Y-85504261D01*
X131224261Y-85504261D01*
X131284738Y-85534500D01*
X131314976Y-85564738D01*
X131345214Y-85625214D01*
X131345214Y-85715928D01*
X131314976Y-85776404D01*
X131284738Y-85806642D01*
X131224261Y-85836880D01*
X130982357Y-85836880D01*
X131587119Y-85564738D02*
X131617357Y-85534500D01*
X131677833Y-85504261D01*
X131829023Y-85504261D01*
X131889500Y-85534500D01*
X131919738Y-85564738D01*
X131949976Y-85625214D01*
X131949976Y-85685690D01*
X131919738Y-85776404D01*
X131556880Y-86139261D01*
X131949976Y-86139261D01*
X132222119Y-85897357D02*
X132705928Y-85897357D01*
D10*
X130347357Y-82964261D02*
X130559023Y-83599261D01*
X130770690Y-82964261D01*
X131345214Y-83599261D02*
X131133547Y-83296880D01*
X130982357Y-83599261D02*
X130982357Y-82964261D01*
X131224261Y-82964261D01*
X131284738Y-82994500D01*
X131314976Y-83024738D01*
X131345214Y-83085214D01*
X131345214Y-83175928D01*
X131314976Y-83236404D01*
X131284738Y-83266642D01*
X131224261Y-83296880D01*
X130982357Y-83296880D01*
X131587119Y-83024738D02*
X131617357Y-82994500D01*
X131677833Y-82964261D01*
X131829023Y-82964261D01*
X131889500Y-82994500D01*
X131919738Y-83024738D01*
X131949976Y-83085214D01*
X131949976Y-83145690D01*
X131919738Y-83236404D01*
X131556880Y-83599261D01*
X131949976Y-83599261D01*
X132222119Y-83357357D02*
X132705928Y-83357357D01*
X132464023Y-83599261D02*
X132464023Y-83115452D01*
D11*
X130347357Y-80678261D02*
X130559023Y-81313261D01*
X130770690Y-80678261D01*
X131345214Y-81313261D02*
X131133547Y-81010880D01*
X130982357Y-81313261D02*
X130982357Y-80678261D01*
X131224261Y-80678261D01*
X131284738Y-80708500D01*
X131314976Y-80738738D01*
X131345214Y-80799214D01*
X131345214Y-80889928D01*
X131314976Y-80950404D01*
X131284738Y-80980642D01*
X131224261Y-81010880D01*
X130982357Y-81010880D01*
X131949976Y-81313261D02*
X131587119Y-81313261D01*
X131768547Y-81313261D02*
X131768547Y-80678261D01*
X131708071Y-80768976D01*
X131647595Y-80829452D01*
X131587119Y-80859690D01*
X132222119Y-81071357D02*
X132705928Y-81071357D01*
X132464023Y-81313261D02*
X132464023Y-80829452D01*
D10*
X130347357Y-77884261D02*
X130559023Y-78519261D01*
X130770690Y-77884261D01*
X131345214Y-78519261D02*
X131133547Y-78216880D01*
X130982357Y-78519261D02*
X130982357Y-77884261D01*
X131224261Y-77884261D01*
X131284738Y-77914500D01*
X131314976Y-77944738D01*
X131345214Y-78005214D01*
X131345214Y-78095928D01*
X131314976Y-78156404D01*
X131284738Y-78186642D01*
X131224261Y-78216880D01*
X130982357Y-78216880D01*
X131949976Y-78519261D02*
X131587119Y-78519261D01*
X131768547Y-78519261D02*
X131768547Y-77884261D01*
X131708071Y-77974976D01*
X131647595Y-78035452D01*
X131587119Y-78065690D01*
X132222119Y-78277357D02*
X132705928Y-78277357D01*
D12*
%TO.C,U2*%
X141418000Y-87182000D02*
X143653000Y-87182000D01*
X141418000Y-76902000D02*
X141418000Y-87182000D01*
X147888000Y-76902000D02*
X141418000Y-76902000D01*
X147888000Y-87182000D02*
X147888000Y-76902000D01*
X145653000Y-87182000D02*
X147888000Y-87182000D01*
X143653000Y-87182000D02*
G75*
G02*
X145653000Y-87182000I1000000J0D01*
G01*
%TO.C,U1*%
X137982000Y-76842000D02*
X127702000Y-76842000D01*
X137982000Y-87242000D02*
X137982000Y-76842000D01*
X127702000Y-87242000D02*
X137982000Y-87242000D01*
X127702000Y-76842000D02*
X127702000Y-87242000D01*
X135492000Y-76902000D02*
X133842000Y-76902000D01*
X135492000Y-87182000D02*
X135492000Y-76902000D01*
X130192000Y-87182000D02*
X135492000Y-87182000D01*
X130192000Y-76902000D02*
X130192000Y-87182000D01*
X131842000Y-76902000D02*
X130192000Y-76902000D01*
X133842000Y-76902000D02*
G75*
G02*
X131842000Y-76902000I-1000000J0D01*
G01*
%TD*%
M02*
