%TF.GenerationSoftware,KiCad,Pcbnew,(5.1.6)-1*%
%TF.CreationDate,2022-10-11T15:49:11-07:00*%
%TF.ProjectId,DIP8_Adapter_A,44495038-5f41-4646-9170-7465725f412e,rev?*%
%TF.SameCoordinates,Original*%
%TF.FileFunction,Copper,L2,Bot*%
%TF.FilePolarity,Positive*%
%FSLAX46Y46*%
G04 Gerber Fmt 4.6, Leading zero omitted, Abs format (unit mm)*
G04 Created by KiCad (PCBNEW (5.1.6)-1) date 2022-10-11 15:49:11*
%MOMM*%
%LPD*%
G01*
G04 APERTURE LIST*
%TA.AperFunction,ComponentPad*%
%ADD10O,1.600000X1.600000*%
%TD*%
%TA.AperFunction,ComponentPad*%
%ADD11R,1.600000X1.600000*%
%TD*%
%TA.AperFunction,ViaPad*%
%ADD12C,0.800000*%
%TD*%
%TA.AperFunction,Conductor*%
%ADD13C,0.254000*%
%TD*%
G04 APERTURE END LIST*
D10*
%TO.P,U2,8*%
%TO.N,Net-(U2-Pad8)*%
X164084000Y-100330000D03*
%TO.P,U2,4*%
%TO.N,Net-(U2-Pad4)*%
X174244000Y-92710000D03*
%TO.P,U2,7*%
%TO.N,VRout*%
X164084000Y-97790000D03*
%TO.P,U2,3*%
%TO.N,VR+*%
X174244000Y-95250000D03*
%TO.P,U2,6*%
%TO.N,Net-(U2-Pad6)*%
X164084000Y-95250000D03*
%TO.P,U2,2*%
%TO.N,GND*%
X174244000Y-97790000D03*
%TO.P,U2,5*%
%TO.N,+5V*%
X164084000Y-92710000D03*
D11*
%TO.P,U2,1*%
%TO.N,VR-*%
X174244000Y-100330000D03*
%TD*%
D10*
%TO.P,U1,8*%
%TO.N,VRout*%
X161036000Y-92710000D03*
%TO.P,U1,4*%
%TO.N,Net-(U1-Pad4)*%
X153416000Y-100330000D03*
%TO.P,U1,7*%
%TO.N,Net-(U1-Pad7)*%
X161036000Y-95250000D03*
%TO.P,U1,3*%
%TO.N,Net-(U1-Pad3)*%
X153416000Y-97790000D03*
%TO.P,U1,6*%
%TO.N,GND*%
X161036000Y-97790000D03*
%TO.P,U1,2*%
%TO.N,VR+*%
X153416000Y-95250000D03*
%TO.P,U1,5*%
%TO.N,+5V*%
X161036000Y-100330000D03*
D11*
%TO.P,U1,1*%
%TO.N,VR-*%
X153416000Y-92710000D03*
%TD*%
D12*
%TO.N,GND*%
X172466000Y-91694000D03*
X172466000Y-93980000D03*
X155448000Y-92710000D03*
%TD*%
D13*
%TO.N,GND*%
G36*
X175108000Y-91561447D02*
G01*
X174923727Y-91438320D01*
X174662574Y-91330147D01*
X174385335Y-91275000D01*
X174102665Y-91275000D01*
X173825426Y-91330147D01*
X173564273Y-91438320D01*
X173329241Y-91595363D01*
X173129363Y-91795241D01*
X172972320Y-92030273D01*
X172864147Y-92291426D01*
X172809000Y-92568665D01*
X172809000Y-92851335D01*
X172864147Y-93128574D01*
X172972320Y-93389727D01*
X173129363Y-93624759D01*
X173329241Y-93824637D01*
X173561759Y-93980000D01*
X173329241Y-94135363D01*
X173129363Y-94335241D01*
X172972320Y-94570273D01*
X172864147Y-94831426D01*
X172809000Y-95108665D01*
X172809000Y-95391335D01*
X172864147Y-95668574D01*
X172972320Y-95929727D01*
X173129363Y-96164759D01*
X173329241Y-96364637D01*
X173564273Y-96521680D01*
X173574865Y-96526067D01*
X173388869Y-96637615D01*
X173180481Y-96826586D01*
X173012963Y-97052580D01*
X172892754Y-97306913D01*
X172852096Y-97440961D01*
X172974085Y-97663000D01*
X174117000Y-97663000D01*
X174117000Y-97643000D01*
X174371000Y-97643000D01*
X174371000Y-97663000D01*
X174391000Y-97663000D01*
X174391000Y-97917000D01*
X174371000Y-97917000D01*
X174371000Y-97937000D01*
X174117000Y-97937000D01*
X174117000Y-97917000D01*
X172974085Y-97917000D01*
X172852096Y-98139039D01*
X172892754Y-98273087D01*
X173012963Y-98527420D01*
X173180481Y-98753414D01*
X173344080Y-98901769D01*
X173319518Y-98904188D01*
X173199820Y-98940498D01*
X173089506Y-98999463D01*
X172992815Y-99078815D01*
X172913463Y-99175506D01*
X172854498Y-99285820D01*
X172818188Y-99405518D01*
X172805928Y-99530000D01*
X172805928Y-101130000D01*
X172818188Y-101254482D01*
X172854498Y-101374180D01*
X172913463Y-101484494D01*
X172992815Y-101581185D01*
X173089506Y-101660537D01*
X173199820Y-101719502D01*
X173319518Y-101755812D01*
X173444000Y-101768072D01*
X175044000Y-101768072D01*
X175108001Y-101761769D01*
X175108001Y-101956000D01*
X151790000Y-101956000D01*
X151790000Y-91910000D01*
X151977928Y-91910000D01*
X151977928Y-93510000D01*
X151990188Y-93634482D01*
X152026498Y-93754180D01*
X152085463Y-93864494D01*
X152164815Y-93961185D01*
X152261506Y-94040537D01*
X152371820Y-94099502D01*
X152491518Y-94135812D01*
X152499961Y-94136643D01*
X152301363Y-94335241D01*
X152144320Y-94570273D01*
X152036147Y-94831426D01*
X151981000Y-95108665D01*
X151981000Y-95391335D01*
X152036147Y-95668574D01*
X152144320Y-95929727D01*
X152301363Y-96164759D01*
X152501241Y-96364637D01*
X152733759Y-96520000D01*
X152501241Y-96675363D01*
X152301363Y-96875241D01*
X152144320Y-97110273D01*
X152036147Y-97371426D01*
X151981000Y-97648665D01*
X151981000Y-97931335D01*
X152036147Y-98208574D01*
X152144320Y-98469727D01*
X152301363Y-98704759D01*
X152501241Y-98904637D01*
X152733759Y-99060000D01*
X152501241Y-99215363D01*
X152301363Y-99415241D01*
X152144320Y-99650273D01*
X152036147Y-99911426D01*
X151981000Y-100188665D01*
X151981000Y-100471335D01*
X152036147Y-100748574D01*
X152144320Y-101009727D01*
X152301363Y-101244759D01*
X152501241Y-101444637D01*
X152736273Y-101601680D01*
X152997426Y-101709853D01*
X153274665Y-101765000D01*
X153557335Y-101765000D01*
X153834574Y-101709853D01*
X154095727Y-101601680D01*
X154330759Y-101444637D01*
X154530637Y-101244759D01*
X154687680Y-101009727D01*
X154795853Y-100748574D01*
X154851000Y-100471335D01*
X154851000Y-100188665D01*
X159601000Y-100188665D01*
X159601000Y-100471335D01*
X159656147Y-100748574D01*
X159764320Y-101009727D01*
X159921363Y-101244759D01*
X160121241Y-101444637D01*
X160356273Y-101601680D01*
X160617426Y-101709853D01*
X160894665Y-101765000D01*
X161177335Y-101765000D01*
X161454574Y-101709853D01*
X161715727Y-101601680D01*
X161950759Y-101444637D01*
X162150637Y-101244759D01*
X162307680Y-101009727D01*
X162415853Y-100748574D01*
X162471000Y-100471335D01*
X162471000Y-100188665D01*
X162415853Y-99911426D01*
X162307680Y-99650273D01*
X162150637Y-99415241D01*
X161950759Y-99215363D01*
X161715727Y-99058320D01*
X161705135Y-99053933D01*
X161891131Y-98942385D01*
X162099519Y-98753414D01*
X162267037Y-98527420D01*
X162387246Y-98273087D01*
X162427904Y-98139039D01*
X162305915Y-97917000D01*
X161163000Y-97917000D01*
X161163000Y-97937000D01*
X160909000Y-97937000D01*
X160909000Y-97917000D01*
X159766085Y-97917000D01*
X159644096Y-98139039D01*
X159684754Y-98273087D01*
X159804963Y-98527420D01*
X159972481Y-98753414D01*
X160180869Y-98942385D01*
X160366865Y-99053933D01*
X160356273Y-99058320D01*
X160121241Y-99215363D01*
X159921363Y-99415241D01*
X159764320Y-99650273D01*
X159656147Y-99911426D01*
X159601000Y-100188665D01*
X154851000Y-100188665D01*
X154795853Y-99911426D01*
X154687680Y-99650273D01*
X154530637Y-99415241D01*
X154330759Y-99215363D01*
X154098241Y-99060000D01*
X154330759Y-98904637D01*
X154530637Y-98704759D01*
X154687680Y-98469727D01*
X154795853Y-98208574D01*
X154851000Y-97931335D01*
X154851000Y-97648665D01*
X154795853Y-97371426D01*
X154687680Y-97110273D01*
X154530637Y-96875241D01*
X154330759Y-96675363D01*
X154098241Y-96520000D01*
X154330759Y-96364637D01*
X154530637Y-96164759D01*
X154687680Y-95929727D01*
X154795853Y-95668574D01*
X154851000Y-95391335D01*
X154851000Y-95108665D01*
X154795853Y-94831426D01*
X154687680Y-94570273D01*
X154530637Y-94335241D01*
X154332039Y-94136643D01*
X154340482Y-94135812D01*
X154460180Y-94099502D01*
X154570494Y-94040537D01*
X154667185Y-93961185D01*
X154746537Y-93864494D01*
X154805502Y-93754180D01*
X154841812Y-93634482D01*
X154854072Y-93510000D01*
X154854072Y-92568665D01*
X159601000Y-92568665D01*
X159601000Y-92851335D01*
X159656147Y-93128574D01*
X159764320Y-93389727D01*
X159921363Y-93624759D01*
X160121241Y-93824637D01*
X160353759Y-93980000D01*
X160121241Y-94135363D01*
X159921363Y-94335241D01*
X159764320Y-94570273D01*
X159656147Y-94831426D01*
X159601000Y-95108665D01*
X159601000Y-95391335D01*
X159656147Y-95668574D01*
X159764320Y-95929727D01*
X159921363Y-96164759D01*
X160121241Y-96364637D01*
X160356273Y-96521680D01*
X160366865Y-96526067D01*
X160180869Y-96637615D01*
X159972481Y-96826586D01*
X159804963Y-97052580D01*
X159684754Y-97306913D01*
X159644096Y-97440961D01*
X159766085Y-97663000D01*
X160909000Y-97663000D01*
X160909000Y-97643000D01*
X161163000Y-97643000D01*
X161163000Y-97663000D01*
X162305915Y-97663000D01*
X162427904Y-97440961D01*
X162387246Y-97306913D01*
X162267037Y-97052580D01*
X162099519Y-96826586D01*
X161891131Y-96637615D01*
X161705135Y-96526067D01*
X161715727Y-96521680D01*
X161950759Y-96364637D01*
X162150637Y-96164759D01*
X162307680Y-95929727D01*
X162415853Y-95668574D01*
X162471000Y-95391335D01*
X162471000Y-95108665D01*
X162415853Y-94831426D01*
X162307680Y-94570273D01*
X162150637Y-94335241D01*
X161950759Y-94135363D01*
X161718241Y-93980000D01*
X161950759Y-93824637D01*
X162150637Y-93624759D01*
X162307680Y-93389727D01*
X162415853Y-93128574D01*
X162471000Y-92851335D01*
X162471000Y-92568665D01*
X162649000Y-92568665D01*
X162649000Y-92851335D01*
X162704147Y-93128574D01*
X162812320Y-93389727D01*
X162969363Y-93624759D01*
X163169241Y-93824637D01*
X163401759Y-93980000D01*
X163169241Y-94135363D01*
X162969363Y-94335241D01*
X162812320Y-94570273D01*
X162704147Y-94831426D01*
X162649000Y-95108665D01*
X162649000Y-95391335D01*
X162704147Y-95668574D01*
X162812320Y-95929727D01*
X162969363Y-96164759D01*
X163169241Y-96364637D01*
X163401759Y-96520000D01*
X163169241Y-96675363D01*
X162969363Y-96875241D01*
X162812320Y-97110273D01*
X162704147Y-97371426D01*
X162649000Y-97648665D01*
X162649000Y-97931335D01*
X162704147Y-98208574D01*
X162812320Y-98469727D01*
X162969363Y-98704759D01*
X163169241Y-98904637D01*
X163401759Y-99060000D01*
X163169241Y-99215363D01*
X162969363Y-99415241D01*
X162812320Y-99650273D01*
X162704147Y-99911426D01*
X162649000Y-100188665D01*
X162649000Y-100471335D01*
X162704147Y-100748574D01*
X162812320Y-101009727D01*
X162969363Y-101244759D01*
X163169241Y-101444637D01*
X163404273Y-101601680D01*
X163665426Y-101709853D01*
X163942665Y-101765000D01*
X164225335Y-101765000D01*
X164502574Y-101709853D01*
X164763727Y-101601680D01*
X164998759Y-101444637D01*
X165198637Y-101244759D01*
X165355680Y-101009727D01*
X165463853Y-100748574D01*
X165519000Y-100471335D01*
X165519000Y-100188665D01*
X165463853Y-99911426D01*
X165355680Y-99650273D01*
X165198637Y-99415241D01*
X164998759Y-99215363D01*
X164766241Y-99060000D01*
X164998759Y-98904637D01*
X165198637Y-98704759D01*
X165355680Y-98469727D01*
X165463853Y-98208574D01*
X165519000Y-97931335D01*
X165519000Y-97648665D01*
X165463853Y-97371426D01*
X165355680Y-97110273D01*
X165198637Y-96875241D01*
X164998759Y-96675363D01*
X164766241Y-96520000D01*
X164998759Y-96364637D01*
X165198637Y-96164759D01*
X165355680Y-95929727D01*
X165463853Y-95668574D01*
X165519000Y-95391335D01*
X165519000Y-95108665D01*
X165463853Y-94831426D01*
X165355680Y-94570273D01*
X165198637Y-94335241D01*
X164998759Y-94135363D01*
X164766241Y-93980000D01*
X164998759Y-93824637D01*
X165198637Y-93624759D01*
X165355680Y-93389727D01*
X165463853Y-93128574D01*
X165519000Y-92851335D01*
X165519000Y-92568665D01*
X165463853Y-92291426D01*
X165355680Y-92030273D01*
X165198637Y-91795241D01*
X164998759Y-91595363D01*
X164763727Y-91438320D01*
X164502574Y-91330147D01*
X164225335Y-91275000D01*
X163942665Y-91275000D01*
X163665426Y-91330147D01*
X163404273Y-91438320D01*
X163169241Y-91595363D01*
X162969363Y-91795241D01*
X162812320Y-92030273D01*
X162704147Y-92291426D01*
X162649000Y-92568665D01*
X162471000Y-92568665D01*
X162415853Y-92291426D01*
X162307680Y-92030273D01*
X162150637Y-91795241D01*
X161950759Y-91595363D01*
X161715727Y-91438320D01*
X161454574Y-91330147D01*
X161177335Y-91275000D01*
X160894665Y-91275000D01*
X160617426Y-91330147D01*
X160356273Y-91438320D01*
X160121241Y-91595363D01*
X159921363Y-91795241D01*
X159764320Y-92030273D01*
X159656147Y-92291426D01*
X159601000Y-92568665D01*
X154854072Y-92568665D01*
X154854072Y-91910000D01*
X154841812Y-91785518D01*
X154805502Y-91665820D01*
X154746537Y-91555506D01*
X154667185Y-91458815D01*
X154570494Y-91379463D01*
X154460180Y-91320498D01*
X154340482Y-91284188D01*
X154216000Y-91271928D01*
X152616000Y-91271928D01*
X152491518Y-91284188D01*
X152371820Y-91320498D01*
X152261506Y-91379463D01*
X152164815Y-91458815D01*
X152085463Y-91555506D01*
X152026498Y-91665820D01*
X151990188Y-91785518D01*
X151977928Y-91910000D01*
X151790000Y-91910000D01*
X151790000Y-91084000D01*
X175108000Y-91084000D01*
X175108000Y-91561447D01*
G37*
X175108000Y-91561447D02*
X174923727Y-91438320D01*
X174662574Y-91330147D01*
X174385335Y-91275000D01*
X174102665Y-91275000D01*
X173825426Y-91330147D01*
X173564273Y-91438320D01*
X173329241Y-91595363D01*
X173129363Y-91795241D01*
X172972320Y-92030273D01*
X172864147Y-92291426D01*
X172809000Y-92568665D01*
X172809000Y-92851335D01*
X172864147Y-93128574D01*
X172972320Y-93389727D01*
X173129363Y-93624759D01*
X173329241Y-93824637D01*
X173561759Y-93980000D01*
X173329241Y-94135363D01*
X173129363Y-94335241D01*
X172972320Y-94570273D01*
X172864147Y-94831426D01*
X172809000Y-95108665D01*
X172809000Y-95391335D01*
X172864147Y-95668574D01*
X172972320Y-95929727D01*
X173129363Y-96164759D01*
X173329241Y-96364637D01*
X173564273Y-96521680D01*
X173574865Y-96526067D01*
X173388869Y-96637615D01*
X173180481Y-96826586D01*
X173012963Y-97052580D01*
X172892754Y-97306913D01*
X172852096Y-97440961D01*
X172974085Y-97663000D01*
X174117000Y-97663000D01*
X174117000Y-97643000D01*
X174371000Y-97643000D01*
X174371000Y-97663000D01*
X174391000Y-97663000D01*
X174391000Y-97917000D01*
X174371000Y-97917000D01*
X174371000Y-97937000D01*
X174117000Y-97937000D01*
X174117000Y-97917000D01*
X172974085Y-97917000D01*
X172852096Y-98139039D01*
X172892754Y-98273087D01*
X173012963Y-98527420D01*
X173180481Y-98753414D01*
X173344080Y-98901769D01*
X173319518Y-98904188D01*
X173199820Y-98940498D01*
X173089506Y-98999463D01*
X172992815Y-99078815D01*
X172913463Y-99175506D01*
X172854498Y-99285820D01*
X172818188Y-99405518D01*
X172805928Y-99530000D01*
X172805928Y-101130000D01*
X172818188Y-101254482D01*
X172854498Y-101374180D01*
X172913463Y-101484494D01*
X172992815Y-101581185D01*
X173089506Y-101660537D01*
X173199820Y-101719502D01*
X173319518Y-101755812D01*
X173444000Y-101768072D01*
X175044000Y-101768072D01*
X175108001Y-101761769D01*
X175108001Y-101956000D01*
X151790000Y-101956000D01*
X151790000Y-91910000D01*
X151977928Y-91910000D01*
X151977928Y-93510000D01*
X151990188Y-93634482D01*
X152026498Y-93754180D01*
X152085463Y-93864494D01*
X152164815Y-93961185D01*
X152261506Y-94040537D01*
X152371820Y-94099502D01*
X152491518Y-94135812D01*
X152499961Y-94136643D01*
X152301363Y-94335241D01*
X152144320Y-94570273D01*
X152036147Y-94831426D01*
X151981000Y-95108665D01*
X151981000Y-95391335D01*
X152036147Y-95668574D01*
X152144320Y-95929727D01*
X152301363Y-96164759D01*
X152501241Y-96364637D01*
X152733759Y-96520000D01*
X152501241Y-96675363D01*
X152301363Y-96875241D01*
X152144320Y-97110273D01*
X152036147Y-97371426D01*
X151981000Y-97648665D01*
X151981000Y-97931335D01*
X152036147Y-98208574D01*
X152144320Y-98469727D01*
X152301363Y-98704759D01*
X152501241Y-98904637D01*
X152733759Y-99060000D01*
X152501241Y-99215363D01*
X152301363Y-99415241D01*
X152144320Y-99650273D01*
X152036147Y-99911426D01*
X151981000Y-100188665D01*
X151981000Y-100471335D01*
X152036147Y-100748574D01*
X152144320Y-101009727D01*
X152301363Y-101244759D01*
X152501241Y-101444637D01*
X152736273Y-101601680D01*
X152997426Y-101709853D01*
X153274665Y-101765000D01*
X153557335Y-101765000D01*
X153834574Y-101709853D01*
X154095727Y-101601680D01*
X154330759Y-101444637D01*
X154530637Y-101244759D01*
X154687680Y-101009727D01*
X154795853Y-100748574D01*
X154851000Y-100471335D01*
X154851000Y-100188665D01*
X159601000Y-100188665D01*
X159601000Y-100471335D01*
X159656147Y-100748574D01*
X159764320Y-101009727D01*
X159921363Y-101244759D01*
X160121241Y-101444637D01*
X160356273Y-101601680D01*
X160617426Y-101709853D01*
X160894665Y-101765000D01*
X161177335Y-101765000D01*
X161454574Y-101709853D01*
X161715727Y-101601680D01*
X161950759Y-101444637D01*
X162150637Y-101244759D01*
X162307680Y-101009727D01*
X162415853Y-100748574D01*
X162471000Y-100471335D01*
X162471000Y-100188665D01*
X162415853Y-99911426D01*
X162307680Y-99650273D01*
X162150637Y-99415241D01*
X161950759Y-99215363D01*
X161715727Y-99058320D01*
X161705135Y-99053933D01*
X161891131Y-98942385D01*
X162099519Y-98753414D01*
X162267037Y-98527420D01*
X162387246Y-98273087D01*
X162427904Y-98139039D01*
X162305915Y-97917000D01*
X161163000Y-97917000D01*
X161163000Y-97937000D01*
X160909000Y-97937000D01*
X160909000Y-97917000D01*
X159766085Y-97917000D01*
X159644096Y-98139039D01*
X159684754Y-98273087D01*
X159804963Y-98527420D01*
X159972481Y-98753414D01*
X160180869Y-98942385D01*
X160366865Y-99053933D01*
X160356273Y-99058320D01*
X160121241Y-99215363D01*
X159921363Y-99415241D01*
X159764320Y-99650273D01*
X159656147Y-99911426D01*
X159601000Y-100188665D01*
X154851000Y-100188665D01*
X154795853Y-99911426D01*
X154687680Y-99650273D01*
X154530637Y-99415241D01*
X154330759Y-99215363D01*
X154098241Y-99060000D01*
X154330759Y-98904637D01*
X154530637Y-98704759D01*
X154687680Y-98469727D01*
X154795853Y-98208574D01*
X154851000Y-97931335D01*
X154851000Y-97648665D01*
X154795853Y-97371426D01*
X154687680Y-97110273D01*
X154530637Y-96875241D01*
X154330759Y-96675363D01*
X154098241Y-96520000D01*
X154330759Y-96364637D01*
X154530637Y-96164759D01*
X154687680Y-95929727D01*
X154795853Y-95668574D01*
X154851000Y-95391335D01*
X154851000Y-95108665D01*
X154795853Y-94831426D01*
X154687680Y-94570273D01*
X154530637Y-94335241D01*
X154332039Y-94136643D01*
X154340482Y-94135812D01*
X154460180Y-94099502D01*
X154570494Y-94040537D01*
X154667185Y-93961185D01*
X154746537Y-93864494D01*
X154805502Y-93754180D01*
X154841812Y-93634482D01*
X154854072Y-93510000D01*
X154854072Y-92568665D01*
X159601000Y-92568665D01*
X159601000Y-92851335D01*
X159656147Y-93128574D01*
X159764320Y-93389727D01*
X159921363Y-93624759D01*
X160121241Y-93824637D01*
X160353759Y-93980000D01*
X160121241Y-94135363D01*
X159921363Y-94335241D01*
X159764320Y-94570273D01*
X159656147Y-94831426D01*
X159601000Y-95108665D01*
X159601000Y-95391335D01*
X159656147Y-95668574D01*
X159764320Y-95929727D01*
X159921363Y-96164759D01*
X160121241Y-96364637D01*
X160356273Y-96521680D01*
X160366865Y-96526067D01*
X160180869Y-96637615D01*
X159972481Y-96826586D01*
X159804963Y-97052580D01*
X159684754Y-97306913D01*
X159644096Y-97440961D01*
X159766085Y-97663000D01*
X160909000Y-97663000D01*
X160909000Y-97643000D01*
X161163000Y-97643000D01*
X161163000Y-97663000D01*
X162305915Y-97663000D01*
X162427904Y-97440961D01*
X162387246Y-97306913D01*
X162267037Y-97052580D01*
X162099519Y-96826586D01*
X161891131Y-96637615D01*
X161705135Y-96526067D01*
X161715727Y-96521680D01*
X161950759Y-96364637D01*
X162150637Y-96164759D01*
X162307680Y-95929727D01*
X162415853Y-95668574D01*
X162471000Y-95391335D01*
X162471000Y-95108665D01*
X162415853Y-94831426D01*
X162307680Y-94570273D01*
X162150637Y-94335241D01*
X161950759Y-94135363D01*
X161718241Y-93980000D01*
X161950759Y-93824637D01*
X162150637Y-93624759D01*
X162307680Y-93389727D01*
X162415853Y-93128574D01*
X162471000Y-92851335D01*
X162471000Y-92568665D01*
X162649000Y-92568665D01*
X162649000Y-92851335D01*
X162704147Y-93128574D01*
X162812320Y-93389727D01*
X162969363Y-93624759D01*
X163169241Y-93824637D01*
X163401759Y-93980000D01*
X163169241Y-94135363D01*
X162969363Y-94335241D01*
X162812320Y-94570273D01*
X162704147Y-94831426D01*
X162649000Y-95108665D01*
X162649000Y-95391335D01*
X162704147Y-95668574D01*
X162812320Y-95929727D01*
X162969363Y-96164759D01*
X163169241Y-96364637D01*
X163401759Y-96520000D01*
X163169241Y-96675363D01*
X162969363Y-96875241D01*
X162812320Y-97110273D01*
X162704147Y-97371426D01*
X162649000Y-97648665D01*
X162649000Y-97931335D01*
X162704147Y-98208574D01*
X162812320Y-98469727D01*
X162969363Y-98704759D01*
X163169241Y-98904637D01*
X163401759Y-99060000D01*
X163169241Y-99215363D01*
X162969363Y-99415241D01*
X162812320Y-99650273D01*
X162704147Y-99911426D01*
X162649000Y-100188665D01*
X162649000Y-100471335D01*
X162704147Y-100748574D01*
X162812320Y-101009727D01*
X162969363Y-101244759D01*
X163169241Y-101444637D01*
X163404273Y-101601680D01*
X163665426Y-101709853D01*
X163942665Y-101765000D01*
X164225335Y-101765000D01*
X164502574Y-101709853D01*
X164763727Y-101601680D01*
X164998759Y-101444637D01*
X165198637Y-101244759D01*
X165355680Y-101009727D01*
X165463853Y-100748574D01*
X165519000Y-100471335D01*
X165519000Y-100188665D01*
X165463853Y-99911426D01*
X165355680Y-99650273D01*
X165198637Y-99415241D01*
X164998759Y-99215363D01*
X164766241Y-99060000D01*
X164998759Y-98904637D01*
X165198637Y-98704759D01*
X165355680Y-98469727D01*
X165463853Y-98208574D01*
X165519000Y-97931335D01*
X165519000Y-97648665D01*
X165463853Y-97371426D01*
X165355680Y-97110273D01*
X165198637Y-96875241D01*
X164998759Y-96675363D01*
X164766241Y-96520000D01*
X164998759Y-96364637D01*
X165198637Y-96164759D01*
X165355680Y-95929727D01*
X165463853Y-95668574D01*
X165519000Y-95391335D01*
X165519000Y-95108665D01*
X165463853Y-94831426D01*
X165355680Y-94570273D01*
X165198637Y-94335241D01*
X164998759Y-94135363D01*
X164766241Y-93980000D01*
X164998759Y-93824637D01*
X165198637Y-93624759D01*
X165355680Y-93389727D01*
X165463853Y-93128574D01*
X165519000Y-92851335D01*
X165519000Y-92568665D01*
X165463853Y-92291426D01*
X165355680Y-92030273D01*
X165198637Y-91795241D01*
X164998759Y-91595363D01*
X164763727Y-91438320D01*
X164502574Y-91330147D01*
X164225335Y-91275000D01*
X163942665Y-91275000D01*
X163665426Y-91330147D01*
X163404273Y-91438320D01*
X163169241Y-91595363D01*
X162969363Y-91795241D01*
X162812320Y-92030273D01*
X162704147Y-92291426D01*
X162649000Y-92568665D01*
X162471000Y-92568665D01*
X162415853Y-92291426D01*
X162307680Y-92030273D01*
X162150637Y-91795241D01*
X161950759Y-91595363D01*
X161715727Y-91438320D01*
X161454574Y-91330147D01*
X161177335Y-91275000D01*
X160894665Y-91275000D01*
X160617426Y-91330147D01*
X160356273Y-91438320D01*
X160121241Y-91595363D01*
X159921363Y-91795241D01*
X159764320Y-92030273D01*
X159656147Y-92291426D01*
X159601000Y-92568665D01*
X154854072Y-92568665D01*
X154854072Y-91910000D01*
X154841812Y-91785518D01*
X154805502Y-91665820D01*
X154746537Y-91555506D01*
X154667185Y-91458815D01*
X154570494Y-91379463D01*
X154460180Y-91320498D01*
X154340482Y-91284188D01*
X154216000Y-91271928D01*
X152616000Y-91271928D01*
X152491518Y-91284188D01*
X152371820Y-91320498D01*
X152261506Y-91379463D01*
X152164815Y-91458815D01*
X152085463Y-91555506D01*
X152026498Y-91665820D01*
X151990188Y-91785518D01*
X151977928Y-91910000D01*
X151790000Y-91910000D01*
X151790000Y-91084000D01*
X175108000Y-91084000D01*
X175108000Y-91561447D01*
%TD*%
M02*
