M48
; DRILL file {KiCad (5.1.6)-1} date 08/30/21 08:33:42
; FORMAT={-:-/ absolute / inch / decimal}
; #@! TF.CreationDate,2021-08-30T08:33:42-07:00
; #@! TF.GenerationSoftware,Kicad,Pcbnew,(5.1.6)-1
; #@! TF.FileFunction,Plated,1,2,PTH
FMAT,2
INCH
T1C0.0157
T2C0.0315
T3C0.0394
%
G90
G05
T1
X4.2Y-3.36
X4.21Y-3.71
X4.51Y-3.8
X4.66Y-3.65
X4.74Y-3.5
X4.89Y-3.36
T2
X4.15Y-3.41
X4.55Y-3.41
T3
X4.15Y-3.55
X4.15Y-3.65
X4.15Y-3.75
X4.45Y-3.55
X4.45Y-3.65
X4.45Y-3.75
X4.69Y-3.41
X4.79Y-3.41
X4.575Y-3.55
X4.575Y-3.65
X4.575Y-3.75
X4.875Y-3.55
X4.875Y-3.65
X4.875Y-3.75
T0
M30
