%TF.GenerationSoftware,KiCad,Pcbnew,(5.1.6)-1*%
%TF.CreationDate,2021-08-30T08:33:36-07:00*%
%TF.ProjectId,4N25 Adapter,344e3235-2041-4646-9170-7465722e6b69,rev?*%
%TF.SameCoordinates,Original*%
%TF.FileFunction,Copper,L2,Bot*%
%TF.FilePolarity,Positive*%
%FSLAX46Y46*%
G04 Gerber Fmt 4.6, Leading zero omitted, Abs format (unit mm)*
G04 Created by KiCad (PCBNEW (5.1.6)-1) date 2021-08-30 08:33:36*
%MOMM*%
%LPD*%
G01*
G04 APERTURE LIST*
%TA.AperFunction,ComponentPad*%
%ADD10C,1.600000*%
%TD*%
%TA.AperFunction,ComponentPad*%
%ADD11R,1.600000X1.600000*%
%TD*%
%TA.AperFunction,ComponentPad*%
%ADD12O,1.600000X1.600000*%
%TD*%
%TA.AperFunction,ComponentPad*%
%ADD13O,1.700000X1.700000*%
%TD*%
%TA.AperFunction,ComponentPad*%
%ADD14R,1.700000X1.700000*%
%TD*%
%TA.AperFunction,ViaPad*%
%ADD15C,0.800000*%
%TD*%
%TA.AperFunction,Conductor*%
%ADD16C,0.254000*%
%TD*%
G04 APERTURE END LIST*
D10*
%TO.P,U1,6*%
%TO.N,Net-(U1-Pad6)*%
X113030000Y-90170000D03*
%TO.P,U1,5*%
%TO.N,Net-(J1-Pad5)*%
X113030000Y-92710000D03*
%TO.P,U1,4*%
%TO.N,Net-(J1-Pad4)*%
X113030000Y-95250000D03*
%TO.P,U1,3*%
%TO.N,Net-(U1-Pad3)*%
X105410000Y-95250000D03*
%TO.P,U1,2*%
%TO.N,Net-(J1-Pad1)*%
X105410000Y-92710000D03*
D11*
%TO.P,U1,1*%
%TO.N,Net-(R1-Pad2)*%
X105410000Y-90170000D03*
%TD*%
D12*
%TO.P,R1,2*%
%TO.N,Net-(R1-Pad2)*%
X105410000Y-86614000D03*
D10*
%TO.P,R1,1*%
%TO.N,Net-(J2-Pad1)*%
X115570000Y-86614000D03*
%TD*%
D13*
%TO.P,J2,2*%
%TO.N,Net-(J2-Pad1)*%
X121666000Y-86614000D03*
D14*
%TO.P,J2,1*%
X119126000Y-86614000D03*
%TD*%
D10*
%TO.P,J1,6*%
%TO.N,Net-(J1-Pad6)*%
X123825000Y-90170000D03*
%TO.P,J1,5*%
%TO.N,Net-(J1-Pad5)*%
X123825000Y-92710000D03*
%TO.P,J1,4*%
%TO.N,Net-(J1-Pad4)*%
X123825000Y-95250000D03*
%TO.P,J1,3*%
%TO.N,Net-(J1-Pad3)*%
X116205000Y-95250000D03*
%TO.P,J1,2*%
%TO.N,GND*%
X116205000Y-92710000D03*
D11*
%TO.P,J1,1*%
%TO.N,Net-(J1-Pad1)*%
X116205000Y-90170000D03*
%TD*%
D15*
%TO.N,GND*%
X120396000Y-88900000D03*
X106934000Y-94234000D03*
X124206000Y-85344000D03*
X114554000Y-96520000D03*
X106680000Y-85344000D03*
X118364000Y-92710000D03*
%TD*%
D16*
%TO.N,GND*%
G36*
X124816000Y-89131604D02*
G01*
X124739759Y-89055363D01*
X124504727Y-88898320D01*
X124243574Y-88790147D01*
X123966335Y-88735000D01*
X123683665Y-88735000D01*
X123406426Y-88790147D01*
X123145273Y-88898320D01*
X122910241Y-89055363D01*
X122710363Y-89255241D01*
X122553320Y-89490273D01*
X122445147Y-89751426D01*
X122390000Y-90028665D01*
X122390000Y-90311335D01*
X122445147Y-90588574D01*
X122553320Y-90849727D01*
X122710363Y-91084759D01*
X122910241Y-91284637D01*
X123142759Y-91440000D01*
X122910241Y-91595363D01*
X122710363Y-91795241D01*
X122553320Y-92030273D01*
X122445147Y-92291426D01*
X122390000Y-92568665D01*
X122390000Y-92851335D01*
X122445147Y-93128574D01*
X122553320Y-93389727D01*
X122710363Y-93624759D01*
X122910241Y-93824637D01*
X123142759Y-93980000D01*
X122910241Y-94135363D01*
X122710363Y-94335241D01*
X122553320Y-94570273D01*
X122445147Y-94831426D01*
X122390000Y-95108665D01*
X122390000Y-95391335D01*
X122445147Y-95668574D01*
X122553320Y-95929727D01*
X122710363Y-96164759D01*
X122910241Y-96364637D01*
X123145273Y-96521680D01*
X123406426Y-96629853D01*
X123683665Y-96685000D01*
X123966335Y-96685000D01*
X124243574Y-96629853D01*
X124504727Y-96521680D01*
X124739759Y-96364637D01*
X124816001Y-96288395D01*
X124816001Y-96876000D01*
X104292000Y-96876000D01*
X104292000Y-96159726D01*
X104295363Y-96164759D01*
X104495241Y-96364637D01*
X104730273Y-96521680D01*
X104991426Y-96629853D01*
X105268665Y-96685000D01*
X105551335Y-96685000D01*
X105828574Y-96629853D01*
X106089727Y-96521680D01*
X106324759Y-96364637D01*
X106524637Y-96164759D01*
X106681680Y-95929727D01*
X106789853Y-95668574D01*
X106845000Y-95391335D01*
X106845000Y-95108665D01*
X106789853Y-94831426D01*
X106681680Y-94570273D01*
X106524637Y-94335241D01*
X106324759Y-94135363D01*
X106092241Y-93980000D01*
X106324759Y-93824637D01*
X106524637Y-93624759D01*
X106681680Y-93389727D01*
X106789853Y-93128574D01*
X106845000Y-92851335D01*
X106845000Y-92568665D01*
X106789853Y-92291426D01*
X106681680Y-92030273D01*
X106524637Y-91795241D01*
X106326039Y-91596643D01*
X106334482Y-91595812D01*
X106454180Y-91559502D01*
X106564494Y-91500537D01*
X106661185Y-91421185D01*
X106740537Y-91324494D01*
X106799502Y-91214180D01*
X106835812Y-91094482D01*
X106848072Y-90970000D01*
X106848072Y-90028665D01*
X111595000Y-90028665D01*
X111595000Y-90311335D01*
X111650147Y-90588574D01*
X111758320Y-90849727D01*
X111915363Y-91084759D01*
X112115241Y-91284637D01*
X112347759Y-91440000D01*
X112115241Y-91595363D01*
X111915363Y-91795241D01*
X111758320Y-92030273D01*
X111650147Y-92291426D01*
X111595000Y-92568665D01*
X111595000Y-92851335D01*
X111650147Y-93128574D01*
X111758320Y-93389727D01*
X111915363Y-93624759D01*
X112115241Y-93824637D01*
X112347759Y-93980000D01*
X112115241Y-94135363D01*
X111915363Y-94335241D01*
X111758320Y-94570273D01*
X111650147Y-94831426D01*
X111595000Y-95108665D01*
X111595000Y-95391335D01*
X111650147Y-95668574D01*
X111758320Y-95929727D01*
X111915363Y-96164759D01*
X112115241Y-96364637D01*
X112350273Y-96521680D01*
X112611426Y-96629853D01*
X112888665Y-96685000D01*
X113171335Y-96685000D01*
X113448574Y-96629853D01*
X113709727Y-96521680D01*
X113944759Y-96364637D01*
X114144637Y-96164759D01*
X114301680Y-95929727D01*
X114409853Y-95668574D01*
X114465000Y-95391335D01*
X114465000Y-95108665D01*
X114770000Y-95108665D01*
X114770000Y-95391335D01*
X114825147Y-95668574D01*
X114933320Y-95929727D01*
X115090363Y-96164759D01*
X115290241Y-96364637D01*
X115525273Y-96521680D01*
X115786426Y-96629853D01*
X116063665Y-96685000D01*
X116346335Y-96685000D01*
X116623574Y-96629853D01*
X116884727Y-96521680D01*
X117119759Y-96364637D01*
X117319637Y-96164759D01*
X117476680Y-95929727D01*
X117584853Y-95668574D01*
X117640000Y-95391335D01*
X117640000Y-95108665D01*
X117584853Y-94831426D01*
X117476680Y-94570273D01*
X117319637Y-94335241D01*
X117119759Y-94135363D01*
X116885872Y-93979085D01*
X116946514Y-93946671D01*
X117018097Y-93702702D01*
X116205000Y-92889605D01*
X115391903Y-93702702D01*
X115463486Y-93946671D01*
X115527992Y-93977194D01*
X115525273Y-93978320D01*
X115290241Y-94135363D01*
X115090363Y-94335241D01*
X114933320Y-94570273D01*
X114825147Y-94831426D01*
X114770000Y-95108665D01*
X114465000Y-95108665D01*
X114409853Y-94831426D01*
X114301680Y-94570273D01*
X114144637Y-94335241D01*
X113944759Y-94135363D01*
X113712241Y-93980000D01*
X113944759Y-93824637D01*
X114144637Y-93624759D01*
X114301680Y-93389727D01*
X114409853Y-93128574D01*
X114465000Y-92851335D01*
X114465000Y-92780512D01*
X114764783Y-92780512D01*
X114806213Y-93060130D01*
X114901397Y-93326292D01*
X114968329Y-93451514D01*
X115212298Y-93523097D01*
X116025395Y-92710000D01*
X116384605Y-92710000D01*
X117197702Y-93523097D01*
X117441671Y-93451514D01*
X117562571Y-93196004D01*
X117631300Y-92921816D01*
X117645217Y-92639488D01*
X117603787Y-92359870D01*
X117508603Y-92093708D01*
X117441671Y-91968486D01*
X117197702Y-91896903D01*
X116384605Y-92710000D01*
X116025395Y-92710000D01*
X115212298Y-91896903D01*
X114968329Y-91968486D01*
X114847429Y-92223996D01*
X114778700Y-92498184D01*
X114764783Y-92780512D01*
X114465000Y-92780512D01*
X114465000Y-92568665D01*
X114409853Y-92291426D01*
X114301680Y-92030273D01*
X114144637Y-91795241D01*
X113944759Y-91595363D01*
X113712241Y-91440000D01*
X113944759Y-91284637D01*
X114144637Y-91084759D01*
X114301680Y-90849727D01*
X114409853Y-90588574D01*
X114465000Y-90311335D01*
X114465000Y-90028665D01*
X114409853Y-89751426D01*
X114301680Y-89490273D01*
X114221317Y-89370000D01*
X114766928Y-89370000D01*
X114766928Y-90970000D01*
X114779188Y-91094482D01*
X114815498Y-91214180D01*
X114874463Y-91324494D01*
X114953815Y-91421185D01*
X115050506Y-91500537D01*
X115160820Y-91559502D01*
X115280518Y-91595812D01*
X115405000Y-91608072D01*
X115423951Y-91608072D01*
X115391903Y-91717298D01*
X116205000Y-92530395D01*
X117018097Y-91717298D01*
X116986049Y-91608072D01*
X117005000Y-91608072D01*
X117129482Y-91595812D01*
X117249180Y-91559502D01*
X117359494Y-91500537D01*
X117456185Y-91421185D01*
X117535537Y-91324494D01*
X117594502Y-91214180D01*
X117630812Y-91094482D01*
X117643072Y-90970000D01*
X117643072Y-89370000D01*
X117630812Y-89245518D01*
X117594502Y-89125820D01*
X117535537Y-89015506D01*
X117456185Y-88918815D01*
X117359494Y-88839463D01*
X117249180Y-88780498D01*
X117129482Y-88744188D01*
X117005000Y-88731928D01*
X115405000Y-88731928D01*
X115280518Y-88744188D01*
X115160820Y-88780498D01*
X115050506Y-88839463D01*
X114953815Y-88918815D01*
X114874463Y-89015506D01*
X114815498Y-89125820D01*
X114779188Y-89245518D01*
X114766928Y-89370000D01*
X114221317Y-89370000D01*
X114144637Y-89255241D01*
X113944759Y-89055363D01*
X113709727Y-88898320D01*
X113448574Y-88790147D01*
X113171335Y-88735000D01*
X112888665Y-88735000D01*
X112611426Y-88790147D01*
X112350273Y-88898320D01*
X112115241Y-89055363D01*
X111915363Y-89255241D01*
X111758320Y-89490273D01*
X111650147Y-89751426D01*
X111595000Y-90028665D01*
X106848072Y-90028665D01*
X106848072Y-89370000D01*
X106835812Y-89245518D01*
X106799502Y-89125820D01*
X106740537Y-89015506D01*
X106661185Y-88918815D01*
X106564494Y-88839463D01*
X106454180Y-88780498D01*
X106334482Y-88744188D01*
X106210000Y-88731928D01*
X104610000Y-88731928D01*
X104485518Y-88744188D01*
X104365820Y-88780498D01*
X104292000Y-88819956D01*
X104292000Y-87523726D01*
X104295363Y-87528759D01*
X104495241Y-87728637D01*
X104730273Y-87885680D01*
X104991426Y-87993853D01*
X105268665Y-88049000D01*
X105551335Y-88049000D01*
X105828574Y-87993853D01*
X106089727Y-87885680D01*
X106324759Y-87728637D01*
X106524637Y-87528759D01*
X106681680Y-87293727D01*
X106789853Y-87032574D01*
X106845000Y-86755335D01*
X106845000Y-86472665D01*
X114135000Y-86472665D01*
X114135000Y-86755335D01*
X114190147Y-87032574D01*
X114298320Y-87293727D01*
X114455363Y-87528759D01*
X114655241Y-87728637D01*
X114890273Y-87885680D01*
X115151426Y-87993853D01*
X115428665Y-88049000D01*
X115711335Y-88049000D01*
X115988574Y-87993853D01*
X116249727Y-87885680D01*
X116484759Y-87728637D01*
X116684637Y-87528759D01*
X116841680Y-87293727D01*
X116949853Y-87032574D01*
X117005000Y-86755335D01*
X117005000Y-86472665D01*
X116949853Y-86195426D01*
X116841680Y-85934273D01*
X116727908Y-85764000D01*
X117637928Y-85764000D01*
X117637928Y-87464000D01*
X117650188Y-87588482D01*
X117686498Y-87708180D01*
X117745463Y-87818494D01*
X117824815Y-87915185D01*
X117921506Y-87994537D01*
X118031820Y-88053502D01*
X118151518Y-88089812D01*
X118276000Y-88102072D01*
X119976000Y-88102072D01*
X120100482Y-88089812D01*
X120220180Y-88053502D01*
X120330494Y-87994537D01*
X120427185Y-87915185D01*
X120506537Y-87818494D01*
X120565502Y-87708180D01*
X120587513Y-87635620D01*
X120719368Y-87767475D01*
X120962589Y-87929990D01*
X121232842Y-88041932D01*
X121519740Y-88099000D01*
X121812260Y-88099000D01*
X122099158Y-88041932D01*
X122369411Y-87929990D01*
X122612632Y-87767475D01*
X122819475Y-87560632D01*
X122981990Y-87317411D01*
X123093932Y-87047158D01*
X123151000Y-86760260D01*
X123151000Y-86467740D01*
X123093932Y-86180842D01*
X122981990Y-85910589D01*
X122819475Y-85667368D01*
X122612632Y-85460525D01*
X122369411Y-85298010D01*
X122099158Y-85186068D01*
X121812260Y-85129000D01*
X121519740Y-85129000D01*
X121232842Y-85186068D01*
X120962589Y-85298010D01*
X120719368Y-85460525D01*
X120587513Y-85592380D01*
X120565502Y-85519820D01*
X120506537Y-85409506D01*
X120427185Y-85312815D01*
X120330494Y-85233463D01*
X120220180Y-85174498D01*
X120100482Y-85138188D01*
X119976000Y-85125928D01*
X118276000Y-85125928D01*
X118151518Y-85138188D01*
X118031820Y-85174498D01*
X117921506Y-85233463D01*
X117824815Y-85312815D01*
X117745463Y-85409506D01*
X117686498Y-85519820D01*
X117650188Y-85639518D01*
X117637928Y-85764000D01*
X116727908Y-85764000D01*
X116684637Y-85699241D01*
X116484759Y-85499363D01*
X116249727Y-85342320D01*
X115988574Y-85234147D01*
X115711335Y-85179000D01*
X115428665Y-85179000D01*
X115151426Y-85234147D01*
X114890273Y-85342320D01*
X114655241Y-85499363D01*
X114455363Y-85699241D01*
X114298320Y-85934273D01*
X114190147Y-86195426D01*
X114135000Y-86472665D01*
X106845000Y-86472665D01*
X106789853Y-86195426D01*
X106681680Y-85934273D01*
X106524637Y-85699241D01*
X106324759Y-85499363D01*
X106089727Y-85342320D01*
X105828574Y-85234147D01*
X105551335Y-85179000D01*
X105268665Y-85179000D01*
X104991426Y-85234147D01*
X104730273Y-85342320D01*
X104495241Y-85499363D01*
X104295363Y-85699241D01*
X104292000Y-85704274D01*
X104292000Y-84988000D01*
X124816000Y-84988000D01*
X124816000Y-89131604D01*
G37*
X124816000Y-89131604D02*
X124739759Y-89055363D01*
X124504727Y-88898320D01*
X124243574Y-88790147D01*
X123966335Y-88735000D01*
X123683665Y-88735000D01*
X123406426Y-88790147D01*
X123145273Y-88898320D01*
X122910241Y-89055363D01*
X122710363Y-89255241D01*
X122553320Y-89490273D01*
X122445147Y-89751426D01*
X122390000Y-90028665D01*
X122390000Y-90311335D01*
X122445147Y-90588574D01*
X122553320Y-90849727D01*
X122710363Y-91084759D01*
X122910241Y-91284637D01*
X123142759Y-91440000D01*
X122910241Y-91595363D01*
X122710363Y-91795241D01*
X122553320Y-92030273D01*
X122445147Y-92291426D01*
X122390000Y-92568665D01*
X122390000Y-92851335D01*
X122445147Y-93128574D01*
X122553320Y-93389727D01*
X122710363Y-93624759D01*
X122910241Y-93824637D01*
X123142759Y-93980000D01*
X122910241Y-94135363D01*
X122710363Y-94335241D01*
X122553320Y-94570273D01*
X122445147Y-94831426D01*
X122390000Y-95108665D01*
X122390000Y-95391335D01*
X122445147Y-95668574D01*
X122553320Y-95929727D01*
X122710363Y-96164759D01*
X122910241Y-96364637D01*
X123145273Y-96521680D01*
X123406426Y-96629853D01*
X123683665Y-96685000D01*
X123966335Y-96685000D01*
X124243574Y-96629853D01*
X124504727Y-96521680D01*
X124739759Y-96364637D01*
X124816001Y-96288395D01*
X124816001Y-96876000D01*
X104292000Y-96876000D01*
X104292000Y-96159726D01*
X104295363Y-96164759D01*
X104495241Y-96364637D01*
X104730273Y-96521680D01*
X104991426Y-96629853D01*
X105268665Y-96685000D01*
X105551335Y-96685000D01*
X105828574Y-96629853D01*
X106089727Y-96521680D01*
X106324759Y-96364637D01*
X106524637Y-96164759D01*
X106681680Y-95929727D01*
X106789853Y-95668574D01*
X106845000Y-95391335D01*
X106845000Y-95108665D01*
X106789853Y-94831426D01*
X106681680Y-94570273D01*
X106524637Y-94335241D01*
X106324759Y-94135363D01*
X106092241Y-93980000D01*
X106324759Y-93824637D01*
X106524637Y-93624759D01*
X106681680Y-93389727D01*
X106789853Y-93128574D01*
X106845000Y-92851335D01*
X106845000Y-92568665D01*
X106789853Y-92291426D01*
X106681680Y-92030273D01*
X106524637Y-91795241D01*
X106326039Y-91596643D01*
X106334482Y-91595812D01*
X106454180Y-91559502D01*
X106564494Y-91500537D01*
X106661185Y-91421185D01*
X106740537Y-91324494D01*
X106799502Y-91214180D01*
X106835812Y-91094482D01*
X106848072Y-90970000D01*
X106848072Y-90028665D01*
X111595000Y-90028665D01*
X111595000Y-90311335D01*
X111650147Y-90588574D01*
X111758320Y-90849727D01*
X111915363Y-91084759D01*
X112115241Y-91284637D01*
X112347759Y-91440000D01*
X112115241Y-91595363D01*
X111915363Y-91795241D01*
X111758320Y-92030273D01*
X111650147Y-92291426D01*
X111595000Y-92568665D01*
X111595000Y-92851335D01*
X111650147Y-93128574D01*
X111758320Y-93389727D01*
X111915363Y-93624759D01*
X112115241Y-93824637D01*
X112347759Y-93980000D01*
X112115241Y-94135363D01*
X111915363Y-94335241D01*
X111758320Y-94570273D01*
X111650147Y-94831426D01*
X111595000Y-95108665D01*
X111595000Y-95391335D01*
X111650147Y-95668574D01*
X111758320Y-95929727D01*
X111915363Y-96164759D01*
X112115241Y-96364637D01*
X112350273Y-96521680D01*
X112611426Y-96629853D01*
X112888665Y-96685000D01*
X113171335Y-96685000D01*
X113448574Y-96629853D01*
X113709727Y-96521680D01*
X113944759Y-96364637D01*
X114144637Y-96164759D01*
X114301680Y-95929727D01*
X114409853Y-95668574D01*
X114465000Y-95391335D01*
X114465000Y-95108665D01*
X114770000Y-95108665D01*
X114770000Y-95391335D01*
X114825147Y-95668574D01*
X114933320Y-95929727D01*
X115090363Y-96164759D01*
X115290241Y-96364637D01*
X115525273Y-96521680D01*
X115786426Y-96629853D01*
X116063665Y-96685000D01*
X116346335Y-96685000D01*
X116623574Y-96629853D01*
X116884727Y-96521680D01*
X117119759Y-96364637D01*
X117319637Y-96164759D01*
X117476680Y-95929727D01*
X117584853Y-95668574D01*
X117640000Y-95391335D01*
X117640000Y-95108665D01*
X117584853Y-94831426D01*
X117476680Y-94570273D01*
X117319637Y-94335241D01*
X117119759Y-94135363D01*
X116885872Y-93979085D01*
X116946514Y-93946671D01*
X117018097Y-93702702D01*
X116205000Y-92889605D01*
X115391903Y-93702702D01*
X115463486Y-93946671D01*
X115527992Y-93977194D01*
X115525273Y-93978320D01*
X115290241Y-94135363D01*
X115090363Y-94335241D01*
X114933320Y-94570273D01*
X114825147Y-94831426D01*
X114770000Y-95108665D01*
X114465000Y-95108665D01*
X114409853Y-94831426D01*
X114301680Y-94570273D01*
X114144637Y-94335241D01*
X113944759Y-94135363D01*
X113712241Y-93980000D01*
X113944759Y-93824637D01*
X114144637Y-93624759D01*
X114301680Y-93389727D01*
X114409853Y-93128574D01*
X114465000Y-92851335D01*
X114465000Y-92780512D01*
X114764783Y-92780512D01*
X114806213Y-93060130D01*
X114901397Y-93326292D01*
X114968329Y-93451514D01*
X115212298Y-93523097D01*
X116025395Y-92710000D01*
X116384605Y-92710000D01*
X117197702Y-93523097D01*
X117441671Y-93451514D01*
X117562571Y-93196004D01*
X117631300Y-92921816D01*
X117645217Y-92639488D01*
X117603787Y-92359870D01*
X117508603Y-92093708D01*
X117441671Y-91968486D01*
X117197702Y-91896903D01*
X116384605Y-92710000D01*
X116025395Y-92710000D01*
X115212298Y-91896903D01*
X114968329Y-91968486D01*
X114847429Y-92223996D01*
X114778700Y-92498184D01*
X114764783Y-92780512D01*
X114465000Y-92780512D01*
X114465000Y-92568665D01*
X114409853Y-92291426D01*
X114301680Y-92030273D01*
X114144637Y-91795241D01*
X113944759Y-91595363D01*
X113712241Y-91440000D01*
X113944759Y-91284637D01*
X114144637Y-91084759D01*
X114301680Y-90849727D01*
X114409853Y-90588574D01*
X114465000Y-90311335D01*
X114465000Y-90028665D01*
X114409853Y-89751426D01*
X114301680Y-89490273D01*
X114221317Y-89370000D01*
X114766928Y-89370000D01*
X114766928Y-90970000D01*
X114779188Y-91094482D01*
X114815498Y-91214180D01*
X114874463Y-91324494D01*
X114953815Y-91421185D01*
X115050506Y-91500537D01*
X115160820Y-91559502D01*
X115280518Y-91595812D01*
X115405000Y-91608072D01*
X115423951Y-91608072D01*
X115391903Y-91717298D01*
X116205000Y-92530395D01*
X117018097Y-91717298D01*
X116986049Y-91608072D01*
X117005000Y-91608072D01*
X117129482Y-91595812D01*
X117249180Y-91559502D01*
X117359494Y-91500537D01*
X117456185Y-91421185D01*
X117535537Y-91324494D01*
X117594502Y-91214180D01*
X117630812Y-91094482D01*
X117643072Y-90970000D01*
X117643072Y-89370000D01*
X117630812Y-89245518D01*
X117594502Y-89125820D01*
X117535537Y-89015506D01*
X117456185Y-88918815D01*
X117359494Y-88839463D01*
X117249180Y-88780498D01*
X117129482Y-88744188D01*
X117005000Y-88731928D01*
X115405000Y-88731928D01*
X115280518Y-88744188D01*
X115160820Y-88780498D01*
X115050506Y-88839463D01*
X114953815Y-88918815D01*
X114874463Y-89015506D01*
X114815498Y-89125820D01*
X114779188Y-89245518D01*
X114766928Y-89370000D01*
X114221317Y-89370000D01*
X114144637Y-89255241D01*
X113944759Y-89055363D01*
X113709727Y-88898320D01*
X113448574Y-88790147D01*
X113171335Y-88735000D01*
X112888665Y-88735000D01*
X112611426Y-88790147D01*
X112350273Y-88898320D01*
X112115241Y-89055363D01*
X111915363Y-89255241D01*
X111758320Y-89490273D01*
X111650147Y-89751426D01*
X111595000Y-90028665D01*
X106848072Y-90028665D01*
X106848072Y-89370000D01*
X106835812Y-89245518D01*
X106799502Y-89125820D01*
X106740537Y-89015506D01*
X106661185Y-88918815D01*
X106564494Y-88839463D01*
X106454180Y-88780498D01*
X106334482Y-88744188D01*
X106210000Y-88731928D01*
X104610000Y-88731928D01*
X104485518Y-88744188D01*
X104365820Y-88780498D01*
X104292000Y-88819956D01*
X104292000Y-87523726D01*
X104295363Y-87528759D01*
X104495241Y-87728637D01*
X104730273Y-87885680D01*
X104991426Y-87993853D01*
X105268665Y-88049000D01*
X105551335Y-88049000D01*
X105828574Y-87993853D01*
X106089727Y-87885680D01*
X106324759Y-87728637D01*
X106524637Y-87528759D01*
X106681680Y-87293727D01*
X106789853Y-87032574D01*
X106845000Y-86755335D01*
X106845000Y-86472665D01*
X114135000Y-86472665D01*
X114135000Y-86755335D01*
X114190147Y-87032574D01*
X114298320Y-87293727D01*
X114455363Y-87528759D01*
X114655241Y-87728637D01*
X114890273Y-87885680D01*
X115151426Y-87993853D01*
X115428665Y-88049000D01*
X115711335Y-88049000D01*
X115988574Y-87993853D01*
X116249727Y-87885680D01*
X116484759Y-87728637D01*
X116684637Y-87528759D01*
X116841680Y-87293727D01*
X116949853Y-87032574D01*
X117005000Y-86755335D01*
X117005000Y-86472665D01*
X116949853Y-86195426D01*
X116841680Y-85934273D01*
X116727908Y-85764000D01*
X117637928Y-85764000D01*
X117637928Y-87464000D01*
X117650188Y-87588482D01*
X117686498Y-87708180D01*
X117745463Y-87818494D01*
X117824815Y-87915185D01*
X117921506Y-87994537D01*
X118031820Y-88053502D01*
X118151518Y-88089812D01*
X118276000Y-88102072D01*
X119976000Y-88102072D01*
X120100482Y-88089812D01*
X120220180Y-88053502D01*
X120330494Y-87994537D01*
X120427185Y-87915185D01*
X120506537Y-87818494D01*
X120565502Y-87708180D01*
X120587513Y-87635620D01*
X120719368Y-87767475D01*
X120962589Y-87929990D01*
X121232842Y-88041932D01*
X121519740Y-88099000D01*
X121812260Y-88099000D01*
X122099158Y-88041932D01*
X122369411Y-87929990D01*
X122612632Y-87767475D01*
X122819475Y-87560632D01*
X122981990Y-87317411D01*
X123093932Y-87047158D01*
X123151000Y-86760260D01*
X123151000Y-86467740D01*
X123093932Y-86180842D01*
X122981990Y-85910589D01*
X122819475Y-85667368D01*
X122612632Y-85460525D01*
X122369411Y-85298010D01*
X122099158Y-85186068D01*
X121812260Y-85129000D01*
X121519740Y-85129000D01*
X121232842Y-85186068D01*
X120962589Y-85298010D01*
X120719368Y-85460525D01*
X120587513Y-85592380D01*
X120565502Y-85519820D01*
X120506537Y-85409506D01*
X120427185Y-85312815D01*
X120330494Y-85233463D01*
X120220180Y-85174498D01*
X120100482Y-85138188D01*
X119976000Y-85125928D01*
X118276000Y-85125928D01*
X118151518Y-85138188D01*
X118031820Y-85174498D01*
X117921506Y-85233463D01*
X117824815Y-85312815D01*
X117745463Y-85409506D01*
X117686498Y-85519820D01*
X117650188Y-85639518D01*
X117637928Y-85764000D01*
X116727908Y-85764000D01*
X116684637Y-85699241D01*
X116484759Y-85499363D01*
X116249727Y-85342320D01*
X115988574Y-85234147D01*
X115711335Y-85179000D01*
X115428665Y-85179000D01*
X115151426Y-85234147D01*
X114890273Y-85342320D01*
X114655241Y-85499363D01*
X114455363Y-85699241D01*
X114298320Y-85934273D01*
X114190147Y-86195426D01*
X114135000Y-86472665D01*
X106845000Y-86472665D01*
X106789853Y-86195426D01*
X106681680Y-85934273D01*
X106524637Y-85699241D01*
X106324759Y-85499363D01*
X106089727Y-85342320D01*
X105828574Y-85234147D01*
X105551335Y-85179000D01*
X105268665Y-85179000D01*
X104991426Y-85234147D01*
X104730273Y-85342320D01*
X104495241Y-85499363D01*
X104295363Y-85699241D01*
X104292000Y-85704274D01*
X104292000Y-84988000D01*
X124816000Y-84988000D01*
X124816000Y-89131604D01*
%TD*%
M02*
